G04 #@! TF.GenerationSoftware,KiCad,Pcbnew,(5.1.9-0-10_14)*
G04 #@! TF.CreationDate,2021-03-16T19:17:09+01:00*
G04 #@! TF.ProjectId,cflipclock_rev_a,63666c69-7063-46c6-9f63-6b5f7265765f,rev?*
G04 #@! TF.SameCoordinates,Original*
G04 #@! TF.FileFunction,Soldermask,Bot*
G04 #@! TF.FilePolarity,Negative*
%FSLAX46Y46*%
G04 Gerber Fmt 4.6, Leading zero omitted, Abs format (unit mm)*
G04 Created by KiCad (PCBNEW (5.1.9-0-10_14)) date 2021-03-16 19:17:09*
%MOMM*%
%LPD*%
G01*
G04 APERTURE LIST*
%ADD10O,1.700000X1.700000*%
%ADD11R,1.700000X1.700000*%
%ADD12R,3.500000X3.500000*%
%ADD13C,0.800000*%
%ADD14C,6.400000*%
%ADD15C,1.625600*%
%ADD16O,1.000000X2.100000*%
%ADD17C,0.650000*%
%ADD18O,1.000000X1.600000*%
G04 APERTURE END LIST*
D10*
X179670000Y-121750000D03*
X182210000Y-121750000D03*
D11*
X184750000Y-121750000D03*
D10*
X111500000Y-105080000D03*
X111500000Y-102540000D03*
D11*
X111500000Y-100000000D03*
D10*
X175870000Y-121750000D03*
X173330000Y-121750000D03*
X170790000Y-121750000D03*
D11*
X168250000Y-121750000D03*
G36*
G01*
X128175000Y-118750000D02*
X126425000Y-118750000D01*
G75*
G02*
X125550000Y-117875000I0J875000D01*
G01*
X125550000Y-116125000D01*
G75*
G02*
X126425000Y-115250000I875000J0D01*
G01*
X128175000Y-115250000D01*
G75*
G02*
X129050000Y-116125000I0J-875000D01*
G01*
X129050000Y-117875000D01*
G75*
G02*
X128175000Y-118750000I-875000J0D01*
G01*
G37*
G36*
G01*
X133000000Y-121500000D02*
X131000000Y-121500000D01*
G75*
G02*
X130250000Y-120750000I0J750000D01*
G01*
X130250000Y-119250000D01*
G75*
G02*
X131000000Y-118500000I750000J0D01*
G01*
X133000000Y-118500000D01*
G75*
G02*
X133750000Y-119250000I0J-750000D01*
G01*
X133750000Y-120750000D01*
G75*
G02*
X133000000Y-121500000I-750000J0D01*
G01*
G37*
D12*
X132000000Y-114000000D03*
D13*
X115447056Y-118302944D03*
X113750000Y-117600000D03*
X112052944Y-118302944D03*
X111350000Y-120000000D03*
X112052944Y-121697056D03*
X113750000Y-122400000D03*
X115447056Y-121697056D03*
X116150000Y-120000000D03*
D14*
X113750000Y-120000000D03*
D15*
X111441100Y-71273600D03*
X111441100Y-68733600D03*
X113981100Y-71273600D03*
X113981100Y-68733600D03*
X116521100Y-71273600D03*
X116521100Y-68733600D03*
X119061100Y-71273600D03*
X119061100Y-68733600D03*
X121601100Y-71273600D03*
X121601100Y-68733600D03*
X124141100Y-71273600D03*
X124141100Y-68733600D03*
X126681100Y-71273600D03*
X126681100Y-68733600D03*
X129221100Y-71273600D03*
X129221100Y-68733600D03*
X131761100Y-71273600D03*
X131761100Y-68733600D03*
X134301100Y-71273600D03*
X134301100Y-68733600D03*
X136841100Y-71273600D03*
X136841100Y-68733600D03*
X139381100Y-71273600D03*
X139381100Y-68733600D03*
X141921100Y-71273600D03*
X141921100Y-68733600D03*
X144461100Y-71273600D03*
X144461100Y-68733600D03*
X147001100Y-71273600D03*
X147001100Y-68733600D03*
X149541100Y-71273600D03*
X149541100Y-68733600D03*
X152081100Y-71273600D03*
X152081100Y-68733600D03*
X154621100Y-71273600D03*
X154621100Y-68733600D03*
X157161100Y-71273600D03*
X157161100Y-68733600D03*
X159701100Y-71273600D03*
X159701100Y-68733600D03*
X162241100Y-71273600D03*
X162241100Y-68733600D03*
X164781100Y-71273600D03*
X164781100Y-68733600D03*
X167321100Y-71273600D03*
X167321100Y-68733600D03*
X169861100Y-71273600D03*
X169861100Y-68733600D03*
X172401100Y-71273600D03*
X172401100Y-68733600D03*
X174941100Y-71273600D03*
X174941100Y-68733600D03*
X177481100Y-71273600D03*
X177481100Y-68733600D03*
X180021100Y-71273600D03*
X180021100Y-68733600D03*
X182561100Y-71273600D03*
X182561100Y-68733600D03*
X185101100Y-71273600D03*
X185101100Y-68733600D03*
D16*
X156320000Y-117870000D03*
X147680000Y-117870000D03*
D17*
X149110000Y-118400000D03*
D18*
X147680000Y-122050000D03*
D17*
X154890000Y-118400000D03*
D18*
X156320000Y-122050000D03*
M02*
