M48
; DRILL file {KiCad (5.1.9-0-10_14)} date Tuesday, March 16, 2021 at 07:17:11 PM
; FORMAT={-:-/ absolute / inch / decimal}
; #@! TF.CreationDate,2021-03-16T19:17:11+01:00
; #@! TF.GenerationSoftware,Kicad,Pcbnew,(5.1.9-0-10_14)
; #@! TF.FileFunction,Plated,1,4,PTH
FMAT,2
INCH
T1C0.0118
T2C0.0126
T3C0.0197
T4C0.0236
T5C0.0394
T6C0.0400
T7C0.1260
%
G90
G05
T1
X4.4094Y-3.8681
X4.5276Y-3.5433
X4.5545Y-3.5702
X4.5768Y-3.5925
X4.5866Y-3.9961
X4.6037Y-3.6096
X4.626Y-3.6319
X4.7146Y-3.75
X4.7146Y-3.9862
X4.7146Y-4.0157
X4.7146Y-4.0453
X4.7343Y-3.6319
X4.7441Y-4.0157
X4.7441Y-4.0453
X4.7736Y-3.5295
X4.7736Y-3.9075
X4.796Y-3.5531
X4.8031Y-3.9075
X4.8237Y-3.5691
X4.8327Y-3.9075
X4.8524Y-3.6074
X4.8622Y-3.9075
X4.8721Y-3.6319
X4.8917Y-3.9075
X4.8917Y-4.2717
X4.9409Y-3.9173
X4.9409Y-3.9469
X4.9606Y-3.75
X4.9705Y-3.9173
X4.9705Y-3.9469
X4.9803Y-2.9823
X4.9803Y-3.0118
X4.9803Y-3.0413
X4.9803Y-3.0709
X4.9803Y-3.6319
X5.0295Y-3.5335
X5.0295Y-4.1732
X5.0473Y-3.5649
X5.0591Y-4.0059
X5.0715Y-3.5851
X5.0787Y-4.1043
X5.0787Y-4.1339
X5.0787Y-4.1634
X5.1019Y-3.5935
X5.1083Y-4.1043
X5.1083Y-4.1339
X5.1083Y-4.1634
X5.1083Y-4.2028
X5.1083Y-4.2323
X5.1083Y-4.2618
X5.1181Y-3.6319
X5.1378Y-4.2028
X5.1378Y-4.2323
X5.1378Y-4.2618
X5.2067Y-3.75
X5.2165Y-3.9862
X5.2165Y-4.0157
X5.2165Y-4.0453
X5.2221Y-3.061
X5.2264Y-3.6319
X5.2461Y-4.0157
X5.2461Y-4.0453
X5.2513Y-3.0729
X5.2756Y-3.5335
X5.2756Y-3.9075
X5.2793Y-3.0585
X5.2925Y-3.5602
X5.3051Y-3.9075
X5.3064Y-3.0745
X5.3146Y-3.5826
X5.3346Y-3.9075
X5.3349Y-3.0611
X5.3445Y-3.5925
X5.3631Y-3.0801
X5.3642Y-3.6319
X5.3642Y-3.9075
X5.3937Y-3.9075
X5.3937Y-4.2717
X5.3937Y-3.061
X5.4429Y-3.9173
X5.4429Y-3.9469
X5.4528Y-3.75
X5.4724Y-3.6319
X5.4724Y-3.9173
X5.4724Y-3.9469
X5.5217Y-3.5335
X5.5315Y-4.1732
X5.5385Y-3.5602
X5.5607Y-3.5826
X5.561Y-4.0059
X5.5807Y-4.1043
X5.5807Y-4.1339
X5.5807Y-4.1634
X5.5906Y-3.5925
X5.6102Y-3.622
X5.6102Y-4.1043
X5.6102Y-4.1339
X5.6102Y-4.1634
X5.6102Y-4.2028
X5.6102Y-4.2323
X5.6102Y-4.2618
X5.6398Y-4.2028
X5.6398Y-4.2323
X5.6398Y-4.2618
X5.689Y-3.75
X5.7087Y-4.3406
X5.7087Y-4.3701
X5.7087Y-4.3996
X5.7087Y-4.439
X5.7087Y-4.4685
X5.7087Y-4.498
X5.8071Y-3.7894
X5.8366Y-3.0709
X5.8661Y-3.6811
X5.8665Y-3.0808
X5.8858Y-4.498
X5.8957Y-4.2815
X5.8958Y-3.711
X5.9055Y-3.0807
X5.9057Y-3.7409
X5.9349Y-3.7595
X5.935Y-4.2028
X5.9449Y-3.7894
X5.9547Y-4.4488
X5.9646Y-3.0807
X5.9744Y-4.2028
X5.9843Y-4.3701
X5.9843Y-4.5276
X5.993Y-4.4461
X5.9967Y-4.1791
X6.0039Y-3.0807
X6.0531Y-3.0709
X6.0827Y-3.8681
X6.0827Y-4.498
X6.0925Y-4.2913
X6.122Y-4.1437
X6.122Y-4.1732
X6.1516Y-4.1437
X6.1516Y-4.1732
X6.1911Y-4.2887
X6.1911Y-4.3524
X6.1913Y-4.3202
X6.2205Y-4.439
X6.2402Y-4.5965
X6.25Y-4.5177
X6.2795Y-4.1339
X6.2894Y-4.7835
X6.3065Y-4.1116
X6.3189Y-3.7894
X6.3189Y-4.6752
X6.3287Y-3.6811
X6.3287Y-4.1339
X6.3484Y-4.5571
X6.3678Y-3.7105
X6.3976Y-3.7205
X6.4075Y-4.0059
X6.4272Y-4.1043
X6.437Y-4.626
X6.437Y-4.8622
X6.4441Y-3.7696
X6.4635Y-3.7944
X6.4862Y-4.5669
X6.4862Y-4.626
X6.5059Y-4.8622
X6.5945Y-3.8681
X6.6962Y-4.748
X6.7507Y-4.7331
X6.8314Y-3.7908
X6.8564Y-3.6968
X6.8915Y-3.7205
X6.9193Y-3.7598
X6.9488Y-3.7795
X6.9587Y-4.065
X6.9607Y-3.9189
X7.0669Y-3.7992
X7.1063Y-3.8681
X7.1457Y-3.8681
X7.1457Y-3.8976
X7.1752Y-3.8681
X7.1752Y-3.8976
X7.1949Y-4.065
T2
X4.4685Y-3.4547
X4.4882Y-4.3209
X4.4882Y-4.3504
X4.5177Y-4.3209
X4.5177Y-4.3504
X4.6063Y-3.75
X4.6358Y-3.9961
X4.6949Y-2.9626
X4.7047Y-3.3661
X4.7146Y-3.4547
X4.8524Y-3.75
X4.9409Y-2.9724
X4.9508Y-3.3661
X4.9606Y-3.4547
X5.0984Y-3.75
X5.1969Y-3.3661
X5.2067Y-2.9823
X5.2067Y-3.4547
X5.3445Y-3.75
X5.4429Y-3.3661
X5.4528Y-3.0512
X5.4528Y-3.4547
X5.5906Y-3.75
X5.689Y-3.3661
X5.7874Y-3.5925
X5.8071Y-3.0512
X6.0827Y-3.8287
X6.1713Y-3.0807
X6.2008Y-3.6516
X6.2894Y-3.5925
X6.2894Y-3.622
X6.4567Y-4.0059
X6.5439Y-4.1057
X6.5945Y-3.8287
X6.6831Y-3.0807
X6.7126Y-3.6516
X6.7717Y-3.7795
X6.7717Y-3.8583
X6.7717Y-4.0945
X6.7717Y-4.252
X6.7717Y-4.3307
X6.7717Y-4.4882
X6.8012Y-3.622
X7.126Y-4.252
X7.126Y-4.3406
X7.1457Y-3.6516
X7.1949Y-3.0807
X7.3228Y-2.9921
X7.3228Y-3.0315
X7.3228Y-3.0709
X7.3228Y-3.1102
X7.3228Y-3.1496
X7.3228Y-3.189
X7.3228Y-3.2283
X7.3228Y-3.2677
X7.3228Y-3.3071
X7.3228Y-3.3465
X7.3228Y-3.3858
X7.3228Y-3.4252
X7.3228Y-3.4646
X7.3228Y-3.5039
X7.3228Y-3.5433
X7.3228Y-3.5827
X7.3228Y-3.622
X7.3228Y-3.6614
X7.3228Y-3.7008
X7.3228Y-3.7402
X7.3228Y-3.7795
X7.3228Y-3.8189
X7.3228Y-3.8976
X7.3228Y-3.937
X7.3228Y-4.0551
X7.3228Y-4.0945
X7.3228Y-4.1339
X7.3228Y-4.1732
X7.3228Y-4.2126
X7.3228Y-4.252
X7.3228Y-4.2913
X7.3228Y-4.3307
X7.3228Y-4.3701
X7.3228Y-4.4094
X7.3228Y-4.4488
X7.3228Y-4.4882
X7.3228Y-4.5276
X7.3228Y-4.5669
X7.3228Y-4.6063
T3
X4.3839Y-4.7244
X4.4115Y-4.6576
X4.4115Y-4.7912
X4.4783Y-4.6299
X4.4783Y-4.8189
X4.5452Y-4.6576
X4.5452Y-4.7912
X4.5728Y-4.7244
T5
X4.3898Y-3.937
X4.3898Y-4.037
X4.3898Y-4.137
X6.624Y-4.7933
X6.724Y-4.7933
X6.824Y-4.7933
X6.924Y-4.7933
X7.0736Y-4.7933
X7.1736Y-4.7933
X7.2736Y-4.7933
T6
X4.3874Y-2.706
X4.3874Y-2.806
X4.4874Y-2.706
X4.4874Y-2.806
X4.5874Y-2.706
X4.5874Y-2.806
X4.6874Y-2.706
X4.6874Y-2.806
X4.7874Y-2.706
X4.7874Y-2.806
X4.8874Y-2.706
X4.8874Y-2.806
X4.9874Y-2.706
X4.9874Y-2.806
X5.0874Y-2.706
X5.0874Y-2.806
X5.1874Y-2.706
X5.1874Y-2.806
X5.2874Y-2.706
X5.2874Y-2.806
X5.3874Y-2.706
X5.3874Y-2.806
X5.4874Y-2.706
X5.4874Y-2.806
X5.5874Y-2.706
X5.5874Y-2.806
X5.6874Y-2.706
X5.6874Y-2.806
X5.7874Y-2.706
X5.7874Y-2.806
X5.8874Y-2.706
X5.8874Y-2.806
X5.9874Y-2.706
X5.9874Y-2.806
X6.0874Y-2.706
X6.0874Y-2.806
X6.1874Y-2.706
X6.1874Y-2.806
X6.2874Y-2.706
X6.2874Y-2.806
X6.3874Y-2.706
X6.3874Y-2.806
X6.4874Y-2.706
X6.4874Y-2.806
X6.5874Y-2.706
X6.5874Y-2.806
X6.6874Y-2.706
X6.6874Y-2.806
X6.7874Y-2.706
X6.7874Y-2.806
X6.8874Y-2.706
X6.8874Y-2.806
X6.9874Y-2.706
X6.9874Y-2.806
X7.0874Y-2.706
X7.0874Y-2.806
X7.1874Y-2.706
X7.1874Y-2.806
X7.2874Y-2.706
X7.2874Y-2.806
T7
X4.4783Y-4.7244
T4
G00X5.8142Y-4.6189
M15
G01X5.8142Y-4.6622
M16
G05
G00X5.8142Y-4.7933
M15
G01X5.8142Y-4.8169
M16
G05
G00X6.1543Y-4.6189
M15
G01X6.1543Y-4.6622
M16
G05
G00X6.1543Y-4.7933
M15
G01X6.1543Y-4.8169
M16
G05
T5
G00X5.0118Y-4.6457
M15
G01X5.0118Y-4.5669
M16
G05
G00X5.1575Y-4.4882
M15
G01X5.2362Y-4.4882
M16
G05
G00X5.1575Y-4.7244
M15
G01X5.2362Y-4.7244
M16
G05
T0
M30
