G04 #@! TF.GenerationSoftware,KiCad,Pcbnew,(5.1.9-0-10_14)*
G04 #@! TF.CreationDate,2021-03-16T19:17:09+01:00*
G04 #@! TF.ProjectId,cflipclock_rev_a,63666c69-7063-46c6-9f63-6b5f7265765f,rev?*
G04 #@! TF.SameCoordinates,Original*
G04 #@! TF.FileFunction,Copper,L4,Bot*
G04 #@! TF.FilePolarity,Positive*
%FSLAX46Y46*%
G04 Gerber Fmt 4.6, Leading zero omitted, Abs format (unit mm)*
G04 Created by KiCad (PCBNEW (5.1.9-0-10_14)) date 2021-03-16 19:17:09*
%MOMM*%
%LPD*%
G01*
G04 APERTURE LIST*
G04 #@! TA.AperFunction,ComponentPad*
%ADD10O,1.700000X1.700000*%
G04 #@! TD*
G04 #@! TA.AperFunction,ComponentPad*
%ADD11R,1.700000X1.700000*%
G04 #@! TD*
G04 #@! TA.AperFunction,ComponentPad*
%ADD12R,3.500000X3.500000*%
G04 #@! TD*
G04 #@! TA.AperFunction,ComponentPad*
%ADD13C,0.800000*%
G04 #@! TD*
G04 #@! TA.AperFunction,ComponentPad*
%ADD14C,6.400000*%
G04 #@! TD*
G04 #@! TA.AperFunction,ComponentPad*
%ADD15C,1.524000*%
G04 #@! TD*
G04 #@! TA.AperFunction,ComponentPad*
%ADD16O,1.000000X2.100000*%
G04 #@! TD*
G04 #@! TA.AperFunction,ComponentPad*
%ADD17O,1.000000X1.600000*%
G04 #@! TD*
G04 #@! TA.AperFunction,ViaPad*
%ADD18C,0.624800*%
G04 #@! TD*
G04 #@! TA.AperFunction,ViaPad*
%ADD19C,0.600000*%
G04 #@! TD*
G04 #@! TA.AperFunction,Conductor*
%ADD20C,0.200000*%
G04 #@! TD*
G04 #@! TA.AperFunction,Conductor*
%ADD21C,0.400000*%
G04 #@! TD*
G04 #@! TA.AperFunction,Conductor*
%ADD22C,0.250000*%
G04 #@! TD*
G04 #@! TA.AperFunction,Conductor*
%ADD23C,0.600000*%
G04 #@! TD*
G04 #@! TA.AperFunction,Conductor*
%ADD24C,0.254000*%
G04 #@! TD*
G04 #@! TA.AperFunction,Conductor*
%ADD25C,0.100000*%
G04 #@! TD*
G04 APERTURE END LIST*
D10*
X179670000Y-121750000D03*
X182210000Y-121750000D03*
D11*
X184750000Y-121750000D03*
D10*
X111500000Y-105080000D03*
X111500000Y-102540000D03*
D11*
X111500000Y-100000000D03*
D10*
X175870000Y-121750000D03*
X173330000Y-121750000D03*
X170790000Y-121750000D03*
D11*
X168250000Y-121750000D03*
G04 #@! TA.AperFunction,ComponentPad*
G36*
G01*
X128175000Y-118750000D02*
X126425000Y-118750000D01*
G75*
G02*
X125550000Y-117875000I0J875000D01*
G01*
X125550000Y-116125000D01*
G75*
G02*
X126425000Y-115250000I875000J0D01*
G01*
X128175000Y-115250000D01*
G75*
G02*
X129050000Y-116125000I0J-875000D01*
G01*
X129050000Y-117875000D01*
G75*
G02*
X128175000Y-118750000I-875000J0D01*
G01*
G37*
G04 #@! TD.AperFunction*
G04 #@! TA.AperFunction,ComponentPad*
G36*
G01*
X133000000Y-121500000D02*
X131000000Y-121500000D01*
G75*
G02*
X130250000Y-120750000I0J750000D01*
G01*
X130250000Y-119250000D01*
G75*
G02*
X131000000Y-118500000I750000J0D01*
G01*
X133000000Y-118500000D01*
G75*
G02*
X133750000Y-119250000I0J-750000D01*
G01*
X133750000Y-120750000D01*
G75*
G02*
X133000000Y-121500000I-750000J0D01*
G01*
G37*
G04 #@! TD.AperFunction*
D12*
X132000000Y-114000000D03*
D13*
X115447056Y-118302944D03*
X113750000Y-117600000D03*
X112052944Y-118302944D03*
X111350000Y-120000000D03*
X112052944Y-121697056D03*
X113750000Y-122400000D03*
X115447056Y-121697056D03*
X116150000Y-120000000D03*
D14*
X113750000Y-120000000D03*
D15*
X111441100Y-71273600D03*
X111441100Y-68733600D03*
X113981100Y-71273600D03*
X113981100Y-68733600D03*
X116521100Y-71273600D03*
X116521100Y-68733600D03*
X119061100Y-71273600D03*
X119061100Y-68733600D03*
X121601100Y-71273600D03*
X121601100Y-68733600D03*
X124141100Y-71273600D03*
X124141100Y-68733600D03*
X126681100Y-71273600D03*
X126681100Y-68733600D03*
X129221100Y-71273600D03*
X129221100Y-68733600D03*
X131761100Y-71273600D03*
X131761100Y-68733600D03*
X134301100Y-71273600D03*
X134301100Y-68733600D03*
X136841100Y-71273600D03*
X136841100Y-68733600D03*
X139381100Y-71273600D03*
X139381100Y-68733600D03*
X141921100Y-71273600D03*
X141921100Y-68733600D03*
X144461100Y-71273600D03*
X144461100Y-68733600D03*
X147001100Y-71273600D03*
X147001100Y-68733600D03*
X149541100Y-71273600D03*
X149541100Y-68733600D03*
X152081100Y-71273600D03*
X152081100Y-68733600D03*
X154621100Y-71273600D03*
X154621100Y-68733600D03*
X157161100Y-71273600D03*
X157161100Y-68733600D03*
X159701100Y-71273600D03*
X159701100Y-68733600D03*
X162241100Y-71273600D03*
X162241100Y-68733600D03*
X164781100Y-71273600D03*
X164781100Y-68733600D03*
X167321100Y-71273600D03*
X167321100Y-68733600D03*
X169861100Y-71273600D03*
X169861100Y-68733600D03*
X172401100Y-71273600D03*
X172401100Y-68733600D03*
X174941100Y-71273600D03*
X174941100Y-68733600D03*
X177481100Y-71273600D03*
X177481100Y-68733600D03*
X180021100Y-71273600D03*
X180021100Y-68733600D03*
X182561100Y-71273600D03*
X182561100Y-68733600D03*
X185101100Y-71273600D03*
X185101100Y-68733600D03*
D16*
X156320000Y-117870000D03*
X147680000Y-117870000D03*
D17*
X147680000Y-122050000D03*
X156320000Y-122050000D03*
D18*
X147000000Y-91250000D03*
X159750000Y-91250000D03*
X159750000Y-92000000D03*
X172750000Y-92000000D03*
X156750000Y-78250000D03*
X169750000Y-78250000D03*
X182750000Y-78250000D03*
X181500000Y-92750000D03*
X170500000Y-92750000D03*
X157500000Y-92750000D03*
X125500000Y-75500000D03*
X119250000Y-75250000D03*
X132250000Y-75750000D03*
X138500000Y-77500000D03*
X147500000Y-77500000D03*
X138500000Y-87750000D03*
X132250000Y-87750000D03*
X138250000Y-85500000D03*
X144500000Y-85500000D03*
X132000000Y-85500000D03*
X126000000Y-87750000D03*
X125750000Y-85500000D03*
X113500000Y-87750000D03*
X119500000Y-85500000D03*
X119750000Y-87750000D03*
X142000000Y-95250000D03*
X135750000Y-95250000D03*
X129500000Y-95250000D03*
X123250000Y-95250000D03*
X117000000Y-95250000D03*
D19*
X141750000Y-105000000D03*
X142500000Y-105750000D03*
X141750000Y-105750000D03*
X142500000Y-107500000D03*
X142500000Y-106750000D03*
X143250000Y-106750000D03*
X143250000Y-107500000D03*
X142500000Y-105000000D03*
X141750000Y-104250000D03*
X142500000Y-104250000D03*
X143250000Y-108250000D03*
X142500000Y-108250000D03*
X137000000Y-99250000D03*
X136250000Y-99250000D03*
X135500000Y-99250000D03*
X134750000Y-99250000D03*
X134000000Y-99250000D03*
X139000000Y-100250000D03*
X139000000Y-99500000D03*
X138250000Y-100250000D03*
X138250000Y-99500000D03*
X129000000Y-105750000D03*
X129000000Y-105000000D03*
X129000000Y-104250000D03*
X129750000Y-104250000D03*
X129750000Y-105000000D03*
X129750000Y-105750000D03*
X129750000Y-106750000D03*
X130500000Y-106750000D03*
X129750000Y-107500000D03*
X130500000Y-107500000D03*
X129750000Y-108250000D03*
X130500000Y-108250000D03*
X126250000Y-100250000D03*
X126250000Y-99500000D03*
X125500000Y-99500000D03*
X125500000Y-100250000D03*
X122750000Y-99250000D03*
X123500000Y-99250000D03*
X124250000Y-99250000D03*
X122000000Y-99250000D03*
X121250000Y-99250000D03*
X152000000Y-111000000D03*
X149500000Y-114250000D03*
X154500000Y-114250000D03*
X179500000Y-96500000D03*
D18*
X167500000Y-97250000D03*
X154500000Y-97250000D03*
X172000000Y-98000000D03*
X117750000Y-101500000D03*
X114000000Y-109750000D03*
X114750000Y-109750000D03*
X114000000Y-110500000D03*
X114750000Y-110500000D03*
X186000000Y-105000000D03*
X181000000Y-110250000D03*
D19*
X158000000Y-112750000D03*
X158500000Y-116750000D03*
X159750000Y-121500000D03*
X160500000Y-118750000D03*
X163500000Y-123500000D03*
X165250000Y-123500000D03*
X149750000Y-108750000D03*
D18*
X166215006Y-104285000D03*
D19*
X157253020Y-108934087D03*
X154750000Y-109000000D03*
D18*
X164000000Y-101750000D03*
D19*
X145000000Y-111000000D03*
X145000000Y-110250000D03*
X145000000Y-111750000D03*
X145000000Y-112750000D03*
X145000000Y-113500000D03*
X145000000Y-114250000D03*
D18*
X186000000Y-104000000D03*
X186000000Y-103000000D03*
X186000000Y-106000000D03*
X186000000Y-107000000D03*
X186000000Y-108000000D03*
X186000000Y-109000000D03*
X186000000Y-110000000D03*
X186000000Y-111000000D03*
X186000000Y-112000000D03*
X186000000Y-113000000D03*
X186000000Y-114000000D03*
X186000000Y-115000000D03*
X186000000Y-116000000D03*
X186000000Y-117000000D03*
X186000000Y-100000000D03*
X186000000Y-99000000D03*
X186000000Y-97000000D03*
X186000000Y-96000000D03*
X186000000Y-95000000D03*
X186000000Y-94000000D03*
X186000000Y-93000000D03*
X186000000Y-92000000D03*
X186000000Y-91000000D03*
X186000000Y-90000000D03*
X186000000Y-89000000D03*
X186000000Y-88000000D03*
X186000000Y-87000000D03*
X186000000Y-86000000D03*
X186000000Y-85000000D03*
X186000000Y-84000000D03*
X186000000Y-83000000D03*
X186000000Y-82000000D03*
X186000000Y-81000000D03*
X186000000Y-80000000D03*
X186000000Y-79000000D03*
X186000000Y-78000000D03*
X186000000Y-77000000D03*
X186000000Y-76000000D03*
X172000000Y-96000000D03*
X181000000Y-108000000D03*
X172000000Y-110000000D03*
X172000000Y-108000000D03*
X172000000Y-104000000D03*
X172000000Y-114000000D03*
D19*
X180500000Y-98250000D03*
X141250000Y-101750000D03*
X133250000Y-102000000D03*
X152000000Y-115000000D03*
X167500000Y-98250000D03*
X154500000Y-98250000D03*
X144500000Y-95250000D03*
X138500000Y-95250000D03*
X132250000Y-95250000D03*
X126000000Y-95250000D03*
X119750000Y-95250000D03*
X132500000Y-102000000D03*
X132500000Y-102750000D03*
X133250000Y-102750000D03*
X132500000Y-101250000D03*
X155500000Y-106000000D03*
X156250000Y-106000000D03*
X156250000Y-105250000D03*
X155500000Y-105250000D03*
X161250000Y-115750000D03*
X163500000Y-117500000D03*
X182250000Y-98250000D03*
X182250000Y-99000000D03*
X181500000Y-99000000D03*
X181500000Y-98250000D03*
X162750000Y-101750000D03*
X137000044Y-77750000D03*
X136221692Y-78233333D03*
X135505661Y-77751442D03*
X134782405Y-78093377D03*
X134094234Y-77685406D03*
X133382393Y-78051204D03*
X132641220Y-77750070D03*
X148250000Y-78000000D03*
X149008948Y-78252982D03*
X150000940Y-78250940D03*
X151500000Y-78250000D03*
X152500000Y-78250000D03*
X153750000Y-78000000D03*
X139000000Y-92250000D03*
X136250000Y-92250000D03*
X174152280Y-93899990D03*
X160750000Y-93500000D03*
X149000004Y-93500000D03*
X140250000Y-89750000D03*
X134000000Y-89750000D03*
X115000000Y-90000000D03*
X121250000Y-89649969D03*
X127750000Y-89749984D03*
X147500000Y-96250000D03*
X142500000Y-92000000D03*
X132750000Y-92250000D03*
X130000000Y-92250000D03*
X126500000Y-92250000D03*
X123751198Y-92251491D03*
X164172281Y-96377327D03*
X173518337Y-96286665D03*
X160500000Y-96250000D03*
X151000000Y-96250000D03*
X120250000Y-92250000D03*
X117500000Y-92250000D03*
X137000000Y-108500000D03*
X140500000Y-106000000D03*
X160184313Y-104434313D03*
X163250000Y-104250000D03*
X182750000Y-103250000D03*
X175044453Y-94500000D03*
X161741039Y-94247024D03*
X140678791Y-90427926D03*
X149752986Y-94258958D03*
X134428791Y-90427926D03*
X115684313Y-90684313D03*
X121817998Y-90249979D03*
X128202525Y-90548602D03*
X175750000Y-95500000D03*
X141241052Y-90997018D03*
X150005972Y-95017916D03*
X134991052Y-90997018D03*
X116250000Y-91250000D03*
X122521386Y-90654519D03*
X128815761Y-91062372D03*
X162500000Y-94500021D03*
X176500000Y-96000000D03*
X163679187Y-95747359D03*
X150747018Y-95491052D03*
X142000000Y-91250000D03*
X135750000Y-91250000D03*
X123250000Y-91627937D03*
X116934313Y-91684313D03*
X129587111Y-91274594D03*
X176801615Y-99539470D03*
X176750000Y-103250000D03*
X151250000Y-113000000D03*
X157253142Y-110550006D03*
X152221458Y-112930012D03*
X157259456Y-109734073D03*
X151750000Y-106750000D03*
X150750000Y-106750000D03*
X164750000Y-116000000D03*
X164750000Y-117500000D03*
X127750000Y-106000000D03*
X124250000Y-108500000D03*
X152315687Y-106150000D03*
X126500000Y-78000000D03*
X126500000Y-77250000D03*
X126500000Y-76500000D03*
X126500000Y-75750000D03*
X128500000Y-101750000D03*
X120500000Y-102000000D03*
X119750000Y-102000000D03*
X119750000Y-102750000D03*
X120500000Y-102750000D03*
X119750000Y-101250000D03*
X158750000Y-114750000D03*
X171468629Y-120220735D03*
X170082875Y-120600010D03*
X112000000Y-98250000D03*
X116500002Y-101499998D03*
X159500000Y-105000000D03*
X160750000Y-105000000D03*
D20*
X133500000Y-101750000D02*
X133250000Y-102000000D01*
X141250000Y-101750000D02*
X133500000Y-101750000D01*
D21*
X149049999Y-112049999D02*
X152000000Y-115000000D01*
X149049999Y-107413999D02*
X149049999Y-112049999D01*
X151213998Y-105250000D02*
X149049999Y-107413999D01*
X155500000Y-105250000D02*
X151213998Y-105250000D01*
X161250000Y-115750000D02*
X163000000Y-115750000D01*
X163000000Y-115750000D02*
X163500000Y-116250000D01*
X163500000Y-116250000D02*
X163500000Y-117500000D01*
D20*
X162750000Y-101750000D02*
X162750000Y-99500000D01*
D21*
X138000044Y-76750000D02*
X137000044Y-77750000D01*
X148250000Y-76750000D02*
X138000044Y-76750000D01*
X152081100Y-72918900D02*
X148250000Y-76750000D01*
X152081100Y-71273600D02*
X152081100Y-72918900D01*
X136205671Y-77433144D02*
X136205671Y-78217312D01*
X136205671Y-78217312D02*
X136221692Y-78233333D01*
X150703101Y-73448357D02*
X148001470Y-76149989D01*
X137488826Y-76149989D02*
X136205671Y-77433144D01*
X149541100Y-68733600D02*
X150703101Y-69895601D01*
X148001470Y-76149989D02*
X137488826Y-76149989D01*
X150703101Y-69895601D02*
X150703101Y-73448357D01*
X149541100Y-73761816D02*
X147752938Y-75549978D01*
X137065475Y-75549978D02*
X135505661Y-77109792D01*
X149541100Y-71273600D02*
X149541100Y-73761816D01*
X147752938Y-75549978D02*
X137065475Y-75549978D01*
X135505661Y-77109792D02*
X135505661Y-77751442D01*
X134805659Y-76961251D02*
X134805659Y-78070123D01*
X147001100Y-68733600D02*
X148163101Y-69895601D01*
X136816943Y-74949967D02*
X134805659Y-76961251D01*
X147300033Y-74949967D02*
X136816943Y-74949967D01*
X148163101Y-74086899D02*
X147300033Y-74949967D01*
X134805659Y-78070123D02*
X134782405Y-78093377D01*
X148163101Y-69895601D02*
X148163101Y-74086899D01*
X147001100Y-71273600D02*
X147001100Y-73498900D01*
X136568411Y-74349956D02*
X134094234Y-76824133D01*
X147001100Y-73498900D02*
X146150044Y-74349956D01*
X134094234Y-76824133D02*
X134094234Y-77685406D01*
X146150044Y-74349956D02*
X136568411Y-74349956D01*
X145623101Y-73126899D02*
X145000055Y-73749945D01*
X145000055Y-73749945D02*
X136319879Y-73749945D01*
X133382393Y-76687431D02*
X133382393Y-78051204D01*
X145623101Y-69895601D02*
X145623101Y-73126899D01*
X136319879Y-73749945D02*
X133382393Y-76687431D01*
X144461100Y-68733600D02*
X145623101Y-69895601D01*
X136182381Y-73038900D02*
X132641220Y-76580061D01*
X142695800Y-73038900D02*
X136182381Y-73038900D01*
X132641220Y-76580061D02*
X132641220Y-77750070D01*
X144461100Y-71273600D02*
X142695800Y-73038900D01*
X148250000Y-78000000D02*
X153500000Y-72750000D01*
X160764700Y-72750000D02*
X162241100Y-71273600D01*
X153500000Y-72750000D02*
X160764700Y-72750000D01*
X149008948Y-78252982D02*
X149008948Y-78096880D01*
X161884459Y-73350003D02*
X163403101Y-71831361D01*
X153755825Y-73350003D02*
X161884459Y-73350003D01*
X163403101Y-69895601D02*
X162241100Y-68733600D01*
X163403101Y-71831361D02*
X163403101Y-69895601D01*
X149008948Y-78096880D02*
X153755825Y-73350003D01*
X164781100Y-72351230D02*
X164781100Y-71273600D01*
X150000940Y-77953431D02*
X154004357Y-73950014D01*
X154004357Y-73950014D02*
X163182316Y-73950014D01*
X150000940Y-78250940D02*
X150000940Y-77953431D01*
X163182316Y-73950014D02*
X164781100Y-72351230D01*
X163430847Y-74550025D02*
X165943101Y-72037771D01*
X154252889Y-74550025D02*
X163430847Y-74550025D01*
X151500000Y-77302914D02*
X154252889Y-74550025D01*
X165943101Y-69895601D02*
X164781100Y-68733600D01*
X165943101Y-72037771D02*
X165943101Y-69895601D01*
X151500000Y-78250000D02*
X151500000Y-77302914D01*
X152500000Y-78250000D02*
X152500000Y-77151457D01*
X152500000Y-77151457D02*
X154501421Y-75150036D01*
X154501421Y-75150036D02*
X163849964Y-75150036D01*
X167321100Y-71678900D02*
X167321100Y-71273600D01*
X163849964Y-75150036D02*
X167321100Y-71678900D01*
X168483101Y-69895601D02*
X167321100Y-68733600D01*
X168483101Y-71831361D02*
X168483101Y-69895601D01*
X153750000Y-76750000D02*
X154749953Y-75750047D01*
X154749953Y-75750047D02*
X164564415Y-75750047D01*
X153750000Y-78000000D02*
X153750000Y-76750000D01*
X164564415Y-75750047D02*
X168483101Y-71831361D01*
D20*
X139000000Y-92250000D02*
X136250000Y-92250000D01*
X160750000Y-93500000D02*
X149000004Y-93500000D01*
X115350031Y-89649969D02*
X121250000Y-89649969D01*
X115000000Y-90000000D02*
X115350031Y-89649969D01*
X121250000Y-89649969D02*
X127649985Y-89649969D01*
X134000000Y-89750000D02*
X127750016Y-89750000D01*
X127649985Y-89649969D02*
X127750000Y-89749984D01*
X127750016Y-89750000D02*
X127750000Y-89749984D01*
X138750000Y-89750000D02*
X140250000Y-89750000D01*
X134000000Y-89750000D02*
X138750000Y-89750000D01*
X147762800Y-93500000D02*
X149000004Y-93500000D01*
X144012800Y-89750000D02*
X147762800Y-93500000D01*
X140250000Y-89750000D02*
X144012800Y-89750000D01*
X173752290Y-93500000D02*
X160750000Y-93500000D01*
X174152280Y-93899990D02*
X173752290Y-93500000D01*
X147500000Y-96250000D02*
X147500000Y-95500000D01*
X144000000Y-92000000D02*
X142500000Y-92000000D01*
X147500000Y-95500000D02*
X144000000Y-92000000D01*
X132750000Y-92250000D02*
X130000000Y-92250000D01*
X125750000Y-91500000D02*
X124502689Y-91500000D01*
X126500000Y-92250000D02*
X125750000Y-91500000D01*
X124502689Y-91500000D02*
X123751198Y-92251491D01*
X164172281Y-96377327D02*
X165299608Y-95250000D01*
X172481672Y-95250000D02*
X173518337Y-96286665D01*
X165299608Y-95250000D02*
X172481672Y-95250000D01*
X160500000Y-96250000D02*
X159500000Y-95250000D01*
X159500000Y-95250000D02*
X152250000Y-95250000D01*
X151250000Y-96250000D02*
X151000000Y-96250000D01*
X152250000Y-95250000D02*
X151250000Y-96250000D01*
X119825736Y-92250000D02*
X117500000Y-92250000D01*
X120250000Y-92250000D02*
X119825736Y-92250000D01*
X140250000Y-106000000D02*
X140500000Y-106000000D01*
X138000000Y-108250000D02*
X140250000Y-106000000D01*
X137250000Y-108250000D02*
X137000000Y-108500000D01*
X138000000Y-108250000D02*
X137250000Y-108250000D01*
X160184313Y-104434313D02*
X160368626Y-104250000D01*
X160368626Y-104250000D02*
X163000000Y-104250000D01*
X163000000Y-104250000D02*
X163250000Y-104250000D01*
X180250000Y-105750000D02*
X182750000Y-103250000D01*
X166315698Y-105750000D02*
X180250000Y-105750000D01*
X164815698Y-104250000D02*
X166315698Y-105750000D01*
X163000000Y-104250000D02*
X164815698Y-104250000D01*
X115684313Y-90684313D02*
X115818635Y-90549991D01*
X116118647Y-90249979D02*
X119947079Y-90249979D01*
X119947079Y-90249979D02*
X121817998Y-90249979D01*
X115684313Y-90684313D02*
X116118647Y-90249979D01*
X122013460Y-90054517D02*
X127166512Y-90054517D01*
X128664441Y-90223563D02*
X128339402Y-90548602D01*
X121817998Y-90249979D02*
X122013460Y-90054517D01*
X127660597Y-90548602D02*
X128202525Y-90548602D01*
X127166512Y-90054517D02*
X127660597Y-90548602D01*
X134428791Y-90427926D02*
X133789924Y-90427926D01*
X133789924Y-90427926D02*
X133585561Y-90223563D01*
X128339402Y-90548602D02*
X128202525Y-90548602D01*
X133585561Y-90223563D02*
X128664441Y-90223563D01*
X138112226Y-90427926D02*
X140678791Y-90427926D01*
X134428791Y-90427926D02*
X134706706Y-90150011D01*
X134706706Y-90150011D02*
X137834311Y-90150011D01*
X137834311Y-90150011D02*
X138112226Y-90427926D01*
X140678791Y-90427926D02*
X140956706Y-90150011D01*
X140956706Y-90150011D02*
X143847111Y-90150011D01*
X143847111Y-90150011D02*
X147956058Y-94258958D01*
X147956058Y-94258958D02*
X149752986Y-94258958D01*
X175044453Y-94500000D02*
X173428772Y-94500000D01*
X172828783Y-93900011D02*
X162088052Y-93900011D01*
X173428772Y-94500000D02*
X172828783Y-93900011D01*
X162088052Y-93900011D02*
X161741039Y-94247024D01*
X150052985Y-93958959D02*
X149752986Y-94258958D01*
X161741039Y-94247024D02*
X160194124Y-94247024D01*
X160194124Y-94247024D02*
X159906059Y-93958959D01*
X159906059Y-93958959D02*
X150052985Y-93958959D01*
X148149316Y-95017916D02*
X150005972Y-95017916D01*
X141241052Y-90997018D02*
X141588071Y-90649999D01*
X143781399Y-90649999D02*
X148149316Y-95017916D01*
X141588071Y-90649999D02*
X143781399Y-90649999D01*
X137649999Y-90649999D02*
X138027927Y-91027927D01*
X138027927Y-91027927D02*
X141210143Y-91027927D01*
X135338071Y-90649999D02*
X137649999Y-90649999D01*
X141210143Y-91027927D02*
X141241052Y-90997018D01*
X134991052Y-90997018D02*
X135338071Y-90649999D01*
X122325916Y-90849989D02*
X122521386Y-90654519D01*
X116250000Y-91250000D02*
X116650011Y-90849989D01*
X116650011Y-90849989D02*
X122325916Y-90849989D01*
X126530004Y-91148604D02*
X128729529Y-91148604D01*
X126035919Y-90654519D02*
X126530004Y-91148604D01*
X134960143Y-91027927D02*
X133027927Y-91027927D01*
X122521386Y-90654519D02*
X126035919Y-90654519D01*
X133027927Y-91027927D02*
X132649999Y-90649999D01*
X134991052Y-90997018D02*
X134960143Y-91027927D01*
X129228134Y-90649999D02*
X128815761Y-91062372D01*
X128729529Y-91148604D02*
X128815761Y-91062372D01*
X132649999Y-90649999D02*
X129228134Y-90649999D01*
X150005972Y-95017916D02*
X150573910Y-94449978D01*
X150573910Y-94449978D02*
X159831378Y-94449978D01*
X159831378Y-94449978D02*
X160228425Y-94847025D01*
X162152996Y-94847025D02*
X162500000Y-94500021D01*
X160228425Y-94847025D02*
X162152996Y-94847025D01*
X162924264Y-94500021D02*
X162500000Y-94500021D01*
X172813050Y-94449978D02*
X162974307Y-94449978D01*
X162974307Y-94449978D02*
X162924264Y-94500021D01*
X175750000Y-95500000D02*
X175397358Y-95147358D01*
X175397358Y-95147358D02*
X173510430Y-95147358D01*
X173510430Y-95147358D02*
X172813050Y-94449978D01*
X148356751Y-95791051D02*
X150447019Y-95791051D01*
X143815700Y-91250000D02*
X148356751Y-95791051D01*
X150447019Y-95791051D02*
X150747018Y-95491052D01*
X142000000Y-91250000D02*
X143815700Y-91250000D01*
X141652981Y-91597019D02*
X142000000Y-91250000D01*
X136097019Y-91597019D02*
X141652981Y-91597019D01*
X135750000Y-91250000D02*
X136097019Y-91597019D01*
X122825736Y-91627937D02*
X123250000Y-91627937D01*
X116934313Y-91684313D02*
X117368626Y-91250000D01*
X117368626Y-91250000D02*
X122447799Y-91250000D01*
X122447799Y-91250000D02*
X122825736Y-91627937D01*
X126443637Y-91627937D02*
X128493322Y-91627937D01*
X128527759Y-91662374D02*
X129199331Y-91662374D01*
X125915689Y-91099989D02*
X126443637Y-91627937D01*
X135750000Y-91250000D02*
X135402981Y-91597019D01*
X128493322Y-91627937D02*
X128527759Y-91662374D01*
X123250000Y-91627937D02*
X123777948Y-91099989D01*
X123777948Y-91099989D02*
X125915689Y-91099989D01*
X129199331Y-91662374D02*
X129587111Y-91274594D01*
X135402981Y-91597019D02*
X129909536Y-91597019D01*
X129909536Y-91597019D02*
X129587111Y-91274594D01*
X150747018Y-95491052D02*
X151388081Y-94849989D01*
X151388081Y-94849989D02*
X159665689Y-94849989D01*
X163379188Y-95447360D02*
X163679187Y-95747359D01*
X159665689Y-94849989D02*
X160263060Y-95447360D01*
X160263060Y-95447360D02*
X163379188Y-95447360D01*
X176500000Y-96000000D02*
X176200001Y-96299999D01*
X175661997Y-96299999D02*
X174961987Y-95599989D01*
X174961987Y-95599989D02*
X173397361Y-95599989D01*
X164576557Y-94849989D02*
X163679187Y-95747359D01*
X176200001Y-96299999D02*
X175661997Y-96299999D01*
X173397361Y-95599989D02*
X172647361Y-94849989D01*
X172647361Y-94849989D02*
X164576557Y-94849989D01*
X176801615Y-103198385D02*
X176750000Y-103250000D01*
X176801615Y-99539470D02*
X176801615Y-103198385D01*
X156953136Y-110250000D02*
X157253142Y-110550006D01*
X151850001Y-113600001D02*
X152399999Y-113600001D01*
X151250000Y-113000000D02*
X151850001Y-113600001D01*
X155750000Y-110250000D02*
X156953136Y-110250000D01*
X152399999Y-113600001D02*
X155750000Y-110250000D01*
X152221458Y-112930012D02*
X155417397Y-109734073D01*
X155417397Y-109734073D02*
X157259456Y-109734073D01*
D22*
X173330000Y-121750000D02*
X173330000Y-121330000D01*
D20*
X165750000Y-110500001D02*
X161749999Y-110500001D01*
X172480001Y-120900001D02*
X172480001Y-117230003D01*
X161749999Y-110500001D02*
X158900009Y-107650011D01*
X158900009Y-107650011D02*
X152650011Y-107650011D01*
X172480001Y-117230003D02*
X165750000Y-110500001D01*
X173330000Y-121750000D02*
X172480001Y-120900001D01*
X152650011Y-107650011D02*
X151750000Y-106750000D01*
X171639999Y-120900001D02*
X170790000Y-121750000D01*
X165584311Y-110900012D02*
X172068629Y-117384331D01*
X172068629Y-117384331D02*
X172068629Y-120471371D01*
X152050022Y-108050022D02*
X158734320Y-108050022D01*
X150750000Y-106750000D02*
X152050022Y-108050022D01*
X161584310Y-110900012D02*
X165584311Y-110900012D01*
X172068629Y-120471371D02*
X171639999Y-120900001D01*
X158734320Y-108050022D02*
X161584310Y-110900012D01*
X164750000Y-116000000D02*
X164750000Y-117500000D01*
X125250000Y-108500000D02*
X124250000Y-108500000D01*
X127750000Y-106000000D02*
X125250000Y-108500000D01*
X175870000Y-120630000D02*
X175870000Y-121750000D01*
X175240000Y-120000000D02*
X175870000Y-120630000D01*
X173250000Y-120000000D02*
X175240000Y-120000000D01*
X159065698Y-107250000D02*
X161915688Y-110099990D01*
X173000000Y-119750000D02*
X173250000Y-120000000D01*
X173000000Y-117184302D02*
X173000000Y-119750000D01*
X165915689Y-110099990D02*
X166250000Y-110434302D01*
X153415687Y-107250000D02*
X159065698Y-107250000D01*
X166250000Y-110434302D02*
X173000000Y-117184302D01*
X152315687Y-106150000D02*
X153415687Y-107250000D01*
X161915688Y-110099990D02*
X165915689Y-110099990D01*
X128500000Y-101750000D02*
X120750000Y-101750000D01*
X120750000Y-101750000D02*
X120500000Y-102000000D01*
D23*
X119750000Y-98500000D02*
X119750000Y-101250000D01*
X119250000Y-98000000D02*
X119750000Y-98500000D01*
X112687599Y-75312401D02*
X112687599Y-95437599D01*
X115250000Y-98000000D02*
X119250000Y-98000000D01*
X114000000Y-74000000D02*
X112687599Y-75312401D01*
X125822462Y-74000000D02*
X114000000Y-74000000D01*
X127943101Y-71879361D02*
X125822462Y-74000000D01*
X127943101Y-70011599D02*
X127943101Y-71879361D01*
X112687599Y-95437599D02*
X115250000Y-98000000D01*
X129221100Y-68733600D02*
X127943101Y-70011599D01*
D20*
X159500000Y-119250000D02*
X159500000Y-115500000D01*
X145918623Y-119449978D02*
X159300022Y-119449978D01*
X159300022Y-119449978D02*
X159500000Y-119250000D01*
X119250000Y-118000000D02*
X123500000Y-122250000D01*
X119250000Y-104000000D02*
X119250000Y-118000000D01*
X143118601Y-122250000D02*
X145918623Y-119449978D01*
X123500000Y-122250000D02*
X143118601Y-122250000D01*
X159500000Y-115500000D02*
X158750000Y-114750000D01*
X120500000Y-102750000D02*
X119250000Y-104000000D01*
X146084312Y-119849989D02*
X143284290Y-122650011D01*
X171468629Y-120220735D02*
X171097883Y-119849989D01*
X171097883Y-119849989D02*
X146084312Y-119849989D01*
X112650001Y-105632001D02*
X112650001Y-103690001D01*
X123215709Y-122650011D02*
X112400010Y-111834312D01*
X143284290Y-122650011D02*
X123215709Y-122650011D01*
X112400010Y-111834312D02*
X112400010Y-105881992D01*
X112400010Y-105881992D02*
X112650001Y-105632001D01*
X112650001Y-103690001D02*
X112349999Y-103389999D01*
X112349999Y-103389999D02*
X111500000Y-102540000D01*
X123050020Y-123050022D02*
X143449979Y-123050022D01*
X143449979Y-123050022D02*
X146199990Y-120300011D01*
X146199990Y-120300011D02*
X169782876Y-120300011D01*
X111500000Y-105080000D02*
X111500000Y-111500002D01*
X111500000Y-111500002D02*
X123050020Y-123050022D01*
X169782876Y-120300011D02*
X170082875Y-120600010D01*
X115749998Y-101499998D02*
X116500002Y-101499998D01*
X112500000Y-98250000D02*
X115749998Y-101499998D01*
X112000000Y-98250000D02*
X112500000Y-98250000D01*
X179670000Y-120495736D02*
X179670000Y-121750000D01*
X160350001Y-105850001D02*
X161288001Y-105850001D01*
X164824275Y-105650011D02*
X179670000Y-120495736D01*
X161487991Y-105650011D02*
X164824275Y-105650011D01*
X161288001Y-105850001D02*
X161487991Y-105650011D01*
X159500000Y-105000000D02*
X160350001Y-105850001D01*
X165000000Y-105000000D02*
X160750000Y-105000000D01*
X181750000Y-121750000D02*
X165000000Y-105000000D01*
X182210000Y-121750000D02*
X181750000Y-121750000D01*
D24*
X122635517Y-94921552D02*
X122583247Y-95047743D01*
X122556600Y-95181706D01*
X122556600Y-95318294D01*
X122583247Y-95452257D01*
X122635517Y-95578448D01*
X122711401Y-95692017D01*
X122807983Y-95788599D01*
X122921552Y-95864483D01*
X123047743Y-95916753D01*
X123181706Y-95943400D01*
X123318294Y-95943400D01*
X123452257Y-95916753D01*
X123578448Y-95864483D01*
X123692017Y-95788599D01*
X123788599Y-95692017D01*
X123864483Y-95578448D01*
X123916753Y-95452257D01*
X123943400Y-95318294D01*
X123943400Y-95181706D01*
X123916753Y-95047743D01*
X123864483Y-94921552D01*
X123834714Y-94877000D01*
X128915286Y-94877000D01*
X128885517Y-94921552D01*
X128833247Y-95047743D01*
X128806600Y-95181706D01*
X128806600Y-95318294D01*
X128833247Y-95452257D01*
X128885517Y-95578448D01*
X128961401Y-95692017D01*
X129057983Y-95788599D01*
X129171552Y-95864483D01*
X129297743Y-95916753D01*
X129431706Y-95943400D01*
X129568294Y-95943400D01*
X129702257Y-95916753D01*
X129828448Y-95864483D01*
X129942017Y-95788599D01*
X130038599Y-95692017D01*
X130114483Y-95578448D01*
X130166753Y-95452257D01*
X130193400Y-95318294D01*
X130193400Y-95181706D01*
X130166753Y-95047743D01*
X130114483Y-94921552D01*
X130084714Y-94877000D01*
X135165286Y-94877000D01*
X135135517Y-94921552D01*
X135083247Y-95047743D01*
X135056600Y-95181706D01*
X135056600Y-95318294D01*
X135083247Y-95452257D01*
X135135517Y-95578448D01*
X135211401Y-95692017D01*
X135307983Y-95788599D01*
X135421552Y-95864483D01*
X135547743Y-95916753D01*
X135681706Y-95943400D01*
X135818294Y-95943400D01*
X135952257Y-95916753D01*
X136078448Y-95864483D01*
X136192017Y-95788599D01*
X136288599Y-95692017D01*
X136364483Y-95578448D01*
X136416753Y-95452257D01*
X136443400Y-95318294D01*
X136443400Y-95181706D01*
X136416753Y-95047743D01*
X136364483Y-94921552D01*
X136334714Y-94877000D01*
X141415286Y-94877000D01*
X141385517Y-94921552D01*
X141333247Y-95047743D01*
X141306600Y-95181706D01*
X141306600Y-95318294D01*
X141333247Y-95452257D01*
X141385517Y-95578448D01*
X141461401Y-95692017D01*
X141557983Y-95788599D01*
X141671552Y-95864483D01*
X141797743Y-95916753D01*
X141931706Y-95943400D01*
X142068294Y-95943400D01*
X142202257Y-95916753D01*
X142328448Y-95864483D01*
X142442017Y-95788599D01*
X142538599Y-95692017D01*
X142614483Y-95578448D01*
X142666753Y-95452257D01*
X142693400Y-95318294D01*
X142693400Y-95181706D01*
X142666753Y-95047743D01*
X142614483Y-94921552D01*
X142584714Y-94877000D01*
X144447394Y-94877000D01*
X147410197Y-97839803D01*
X147429443Y-97855597D01*
X147451399Y-97867333D01*
X147475224Y-97874560D01*
X147500000Y-97877000D01*
X154201771Y-97877000D01*
X154297743Y-97916753D01*
X154431706Y-97943400D01*
X154568294Y-97943400D01*
X154702257Y-97916753D01*
X154798229Y-97877000D01*
X167201771Y-97877000D01*
X167297743Y-97916753D01*
X167431706Y-97943400D01*
X167568294Y-97943400D01*
X167702257Y-97916753D01*
X167798229Y-97877000D01*
X171317482Y-97877000D01*
X171306600Y-97931706D01*
X171306600Y-98068294D01*
X171333247Y-98202257D01*
X171385517Y-98328448D01*
X171461401Y-98442017D01*
X171557983Y-98538599D01*
X171671552Y-98614483D01*
X171797743Y-98666753D01*
X171931706Y-98693400D01*
X172068294Y-98693400D01*
X172202257Y-98666753D01*
X172328448Y-98614483D01*
X172442017Y-98538599D01*
X172538599Y-98442017D01*
X172614483Y-98328448D01*
X172666753Y-98202257D01*
X172693400Y-98068294D01*
X172693400Y-97931706D01*
X172682518Y-97877000D01*
X184697394Y-97877000D01*
X185123000Y-98302606D01*
X185123000Y-99197394D01*
X184697394Y-99623000D01*
X177479341Y-99623000D01*
X177482615Y-99606543D01*
X177482615Y-99472397D01*
X177456444Y-99340830D01*
X177405109Y-99216896D01*
X177330582Y-99105358D01*
X177235727Y-99010503D01*
X177124189Y-98935976D01*
X177000255Y-98884641D01*
X176868688Y-98858470D01*
X176734542Y-98858470D01*
X176602975Y-98884641D01*
X176479041Y-98935976D01*
X176367503Y-99010503D01*
X176272648Y-99105358D01*
X176198121Y-99216896D01*
X176146786Y-99340830D01*
X176120615Y-99472397D01*
X176120615Y-99606543D01*
X176123889Y-99623000D01*
X157250000Y-99623000D01*
X157225224Y-99625440D01*
X157201399Y-99632667D01*
X157179443Y-99644403D01*
X157160197Y-99660197D01*
X156660197Y-100160197D01*
X156644403Y-100179443D01*
X156632667Y-100201399D01*
X156625440Y-100225224D01*
X156623000Y-100250000D01*
X156623000Y-106197394D01*
X156447394Y-106373000D01*
X155302606Y-106373000D01*
X155127000Y-106197394D01*
X155127000Y-100250000D01*
X155124560Y-100225224D01*
X155117333Y-100201399D01*
X155105597Y-100179443D01*
X155089803Y-100160197D01*
X154589803Y-99660197D01*
X154570557Y-99644403D01*
X154548601Y-99632667D01*
X154524776Y-99625440D01*
X154500000Y-99623000D01*
X146302606Y-99623000D01*
X143339803Y-96660197D01*
X143320557Y-96644403D01*
X143298601Y-96632667D01*
X143274776Y-96625440D01*
X143250000Y-96623000D01*
X134250000Y-96623000D01*
X134225224Y-96625440D01*
X134201399Y-96632667D01*
X134179443Y-96644403D01*
X134160197Y-96660197D01*
X133660197Y-97160197D01*
X133644403Y-97179443D01*
X133632667Y-97201399D01*
X133625440Y-97225224D01*
X133623000Y-97250000D01*
X133623000Y-98682872D01*
X133565888Y-98721033D01*
X133471033Y-98815888D01*
X133396506Y-98927426D01*
X133345171Y-99051360D01*
X133319000Y-99182927D01*
X133319000Y-99317073D01*
X133345171Y-99448640D01*
X133396506Y-99572574D01*
X133471033Y-99684112D01*
X133565888Y-99778967D01*
X133623000Y-99817128D01*
X133623000Y-104190561D01*
X133404332Y-104373000D01*
X132052606Y-104373000D01*
X131877000Y-104197394D01*
X131877000Y-97250000D01*
X131874560Y-97225224D01*
X131867333Y-97201399D01*
X131855597Y-97179443D01*
X131839803Y-97160197D01*
X131339803Y-96660197D01*
X131320557Y-96644403D01*
X131298601Y-96632667D01*
X131274776Y-96625440D01*
X131250000Y-96623000D01*
X119052606Y-96623000D01*
X118627000Y-96197394D01*
X118627000Y-95302606D01*
X119052606Y-94877000D01*
X122665286Y-94877000D01*
X122635517Y-94921552D01*
G04 #@! TA.AperFunction,Conductor*
D25*
G36*
X122635517Y-94921552D02*
G01*
X122583247Y-95047743D01*
X122556600Y-95181706D01*
X122556600Y-95318294D01*
X122583247Y-95452257D01*
X122635517Y-95578448D01*
X122711401Y-95692017D01*
X122807983Y-95788599D01*
X122921552Y-95864483D01*
X123047743Y-95916753D01*
X123181706Y-95943400D01*
X123318294Y-95943400D01*
X123452257Y-95916753D01*
X123578448Y-95864483D01*
X123692017Y-95788599D01*
X123788599Y-95692017D01*
X123864483Y-95578448D01*
X123916753Y-95452257D01*
X123943400Y-95318294D01*
X123943400Y-95181706D01*
X123916753Y-95047743D01*
X123864483Y-94921552D01*
X123834714Y-94877000D01*
X128915286Y-94877000D01*
X128885517Y-94921552D01*
X128833247Y-95047743D01*
X128806600Y-95181706D01*
X128806600Y-95318294D01*
X128833247Y-95452257D01*
X128885517Y-95578448D01*
X128961401Y-95692017D01*
X129057983Y-95788599D01*
X129171552Y-95864483D01*
X129297743Y-95916753D01*
X129431706Y-95943400D01*
X129568294Y-95943400D01*
X129702257Y-95916753D01*
X129828448Y-95864483D01*
X129942017Y-95788599D01*
X130038599Y-95692017D01*
X130114483Y-95578448D01*
X130166753Y-95452257D01*
X130193400Y-95318294D01*
X130193400Y-95181706D01*
X130166753Y-95047743D01*
X130114483Y-94921552D01*
X130084714Y-94877000D01*
X135165286Y-94877000D01*
X135135517Y-94921552D01*
X135083247Y-95047743D01*
X135056600Y-95181706D01*
X135056600Y-95318294D01*
X135083247Y-95452257D01*
X135135517Y-95578448D01*
X135211401Y-95692017D01*
X135307983Y-95788599D01*
X135421552Y-95864483D01*
X135547743Y-95916753D01*
X135681706Y-95943400D01*
X135818294Y-95943400D01*
X135952257Y-95916753D01*
X136078448Y-95864483D01*
X136192017Y-95788599D01*
X136288599Y-95692017D01*
X136364483Y-95578448D01*
X136416753Y-95452257D01*
X136443400Y-95318294D01*
X136443400Y-95181706D01*
X136416753Y-95047743D01*
X136364483Y-94921552D01*
X136334714Y-94877000D01*
X141415286Y-94877000D01*
X141385517Y-94921552D01*
X141333247Y-95047743D01*
X141306600Y-95181706D01*
X141306600Y-95318294D01*
X141333247Y-95452257D01*
X141385517Y-95578448D01*
X141461401Y-95692017D01*
X141557983Y-95788599D01*
X141671552Y-95864483D01*
X141797743Y-95916753D01*
X141931706Y-95943400D01*
X142068294Y-95943400D01*
X142202257Y-95916753D01*
X142328448Y-95864483D01*
X142442017Y-95788599D01*
X142538599Y-95692017D01*
X142614483Y-95578448D01*
X142666753Y-95452257D01*
X142693400Y-95318294D01*
X142693400Y-95181706D01*
X142666753Y-95047743D01*
X142614483Y-94921552D01*
X142584714Y-94877000D01*
X144447394Y-94877000D01*
X147410197Y-97839803D01*
X147429443Y-97855597D01*
X147451399Y-97867333D01*
X147475224Y-97874560D01*
X147500000Y-97877000D01*
X154201771Y-97877000D01*
X154297743Y-97916753D01*
X154431706Y-97943400D01*
X154568294Y-97943400D01*
X154702257Y-97916753D01*
X154798229Y-97877000D01*
X167201771Y-97877000D01*
X167297743Y-97916753D01*
X167431706Y-97943400D01*
X167568294Y-97943400D01*
X167702257Y-97916753D01*
X167798229Y-97877000D01*
X171317482Y-97877000D01*
X171306600Y-97931706D01*
X171306600Y-98068294D01*
X171333247Y-98202257D01*
X171385517Y-98328448D01*
X171461401Y-98442017D01*
X171557983Y-98538599D01*
X171671552Y-98614483D01*
X171797743Y-98666753D01*
X171931706Y-98693400D01*
X172068294Y-98693400D01*
X172202257Y-98666753D01*
X172328448Y-98614483D01*
X172442017Y-98538599D01*
X172538599Y-98442017D01*
X172614483Y-98328448D01*
X172666753Y-98202257D01*
X172693400Y-98068294D01*
X172693400Y-97931706D01*
X172682518Y-97877000D01*
X184697394Y-97877000D01*
X185123000Y-98302606D01*
X185123000Y-99197394D01*
X184697394Y-99623000D01*
X177479341Y-99623000D01*
X177482615Y-99606543D01*
X177482615Y-99472397D01*
X177456444Y-99340830D01*
X177405109Y-99216896D01*
X177330582Y-99105358D01*
X177235727Y-99010503D01*
X177124189Y-98935976D01*
X177000255Y-98884641D01*
X176868688Y-98858470D01*
X176734542Y-98858470D01*
X176602975Y-98884641D01*
X176479041Y-98935976D01*
X176367503Y-99010503D01*
X176272648Y-99105358D01*
X176198121Y-99216896D01*
X176146786Y-99340830D01*
X176120615Y-99472397D01*
X176120615Y-99606543D01*
X176123889Y-99623000D01*
X157250000Y-99623000D01*
X157225224Y-99625440D01*
X157201399Y-99632667D01*
X157179443Y-99644403D01*
X157160197Y-99660197D01*
X156660197Y-100160197D01*
X156644403Y-100179443D01*
X156632667Y-100201399D01*
X156625440Y-100225224D01*
X156623000Y-100250000D01*
X156623000Y-106197394D01*
X156447394Y-106373000D01*
X155302606Y-106373000D01*
X155127000Y-106197394D01*
X155127000Y-100250000D01*
X155124560Y-100225224D01*
X155117333Y-100201399D01*
X155105597Y-100179443D01*
X155089803Y-100160197D01*
X154589803Y-99660197D01*
X154570557Y-99644403D01*
X154548601Y-99632667D01*
X154524776Y-99625440D01*
X154500000Y-99623000D01*
X146302606Y-99623000D01*
X143339803Y-96660197D01*
X143320557Y-96644403D01*
X143298601Y-96632667D01*
X143274776Y-96625440D01*
X143250000Y-96623000D01*
X134250000Y-96623000D01*
X134225224Y-96625440D01*
X134201399Y-96632667D01*
X134179443Y-96644403D01*
X134160197Y-96660197D01*
X133660197Y-97160197D01*
X133644403Y-97179443D01*
X133632667Y-97201399D01*
X133625440Y-97225224D01*
X133623000Y-97250000D01*
X133623000Y-98682872D01*
X133565888Y-98721033D01*
X133471033Y-98815888D01*
X133396506Y-98927426D01*
X133345171Y-99051360D01*
X133319000Y-99182927D01*
X133319000Y-99317073D01*
X133345171Y-99448640D01*
X133396506Y-99572574D01*
X133471033Y-99684112D01*
X133565888Y-99778967D01*
X133623000Y-99817128D01*
X133623000Y-104190561D01*
X133404332Y-104373000D01*
X132052606Y-104373000D01*
X131877000Y-104197394D01*
X131877000Y-97250000D01*
X131874560Y-97225224D01*
X131867333Y-97201399D01*
X131855597Y-97179443D01*
X131839803Y-97160197D01*
X131339803Y-96660197D01*
X131320557Y-96644403D01*
X131298601Y-96632667D01*
X131274776Y-96625440D01*
X131250000Y-96623000D01*
X119052606Y-96623000D01*
X118627000Y-96197394D01*
X118627000Y-95302606D01*
X119052606Y-94877000D01*
X122665286Y-94877000D01*
X122635517Y-94921552D01*
G37*
G04 #@! TD.AperFunction*
D24*
X133413274Y-68004980D02*
X133288187Y-68192187D01*
X133202025Y-68400199D01*
X133158100Y-68621024D01*
X133158100Y-68846176D01*
X133202025Y-69067001D01*
X133288187Y-69275013D01*
X133413274Y-69462220D01*
X133572480Y-69621426D01*
X133759687Y-69746513D01*
X133967699Y-69832675D01*
X134188524Y-69876600D01*
X134413676Y-69876600D01*
X134634501Y-69832675D01*
X134842513Y-69746513D01*
X135029720Y-69621426D01*
X135188926Y-69462220D01*
X135314013Y-69275013D01*
X135373000Y-69132607D01*
X135373000Y-71697394D01*
X134947394Y-72123000D01*
X133500000Y-72123000D01*
X133475224Y-72125440D01*
X133451399Y-72132667D01*
X133429443Y-72144403D01*
X133410197Y-72160197D01*
X127197394Y-78373000D01*
X125302606Y-78373000D01*
X124877000Y-77947394D01*
X124877000Y-76302606D01*
X125107752Y-76071854D01*
X125171552Y-76114483D01*
X125297743Y-76166753D01*
X125431706Y-76193400D01*
X125568294Y-76193400D01*
X125702257Y-76166753D01*
X125828448Y-76114483D01*
X125942017Y-76038599D01*
X126038599Y-75942017D01*
X126114483Y-75828448D01*
X126166753Y-75702257D01*
X126193400Y-75568294D01*
X126193400Y-75431706D01*
X126166753Y-75297743D01*
X126114483Y-75171552D01*
X126071854Y-75107752D01*
X126552606Y-74627000D01*
X128500000Y-74627000D01*
X128524776Y-74624560D01*
X128548601Y-74617333D01*
X128570557Y-74605597D01*
X128589803Y-74589803D01*
X130839803Y-72339803D01*
X130855597Y-72320557D01*
X130867333Y-72298601D01*
X130874560Y-72274776D01*
X130877000Y-72250000D01*
X130877000Y-68302606D01*
X131302606Y-67877000D01*
X133541254Y-67877000D01*
X133413274Y-68004980D01*
G04 #@! TA.AperFunction,Conductor*
D25*
G36*
X133413274Y-68004980D02*
G01*
X133288187Y-68192187D01*
X133202025Y-68400199D01*
X133158100Y-68621024D01*
X133158100Y-68846176D01*
X133202025Y-69067001D01*
X133288187Y-69275013D01*
X133413274Y-69462220D01*
X133572480Y-69621426D01*
X133759687Y-69746513D01*
X133967699Y-69832675D01*
X134188524Y-69876600D01*
X134413676Y-69876600D01*
X134634501Y-69832675D01*
X134842513Y-69746513D01*
X135029720Y-69621426D01*
X135188926Y-69462220D01*
X135314013Y-69275013D01*
X135373000Y-69132607D01*
X135373000Y-71697394D01*
X134947394Y-72123000D01*
X133500000Y-72123000D01*
X133475224Y-72125440D01*
X133451399Y-72132667D01*
X133429443Y-72144403D01*
X133410197Y-72160197D01*
X127197394Y-78373000D01*
X125302606Y-78373000D01*
X124877000Y-77947394D01*
X124877000Y-76302606D01*
X125107752Y-76071854D01*
X125171552Y-76114483D01*
X125297743Y-76166753D01*
X125431706Y-76193400D01*
X125568294Y-76193400D01*
X125702257Y-76166753D01*
X125828448Y-76114483D01*
X125942017Y-76038599D01*
X126038599Y-75942017D01*
X126114483Y-75828448D01*
X126166753Y-75702257D01*
X126193400Y-75568294D01*
X126193400Y-75431706D01*
X126166753Y-75297743D01*
X126114483Y-75171552D01*
X126071854Y-75107752D01*
X126552606Y-74627000D01*
X128500000Y-74627000D01*
X128524776Y-74624560D01*
X128548601Y-74617333D01*
X128570557Y-74605597D01*
X128589803Y-74589803D01*
X130839803Y-72339803D01*
X130855597Y-72320557D01*
X130867333Y-72298601D01*
X130874560Y-72274776D01*
X130877000Y-72250000D01*
X130877000Y-68302606D01*
X131302606Y-67877000D01*
X133541254Y-67877000D01*
X133413274Y-68004980D01*
G37*
G04 #@! TD.AperFunction*
D24*
X120873000Y-101052606D02*
X120873000Y-102947394D01*
X120697394Y-103123000D01*
X119552606Y-103123000D01*
X119377000Y-102947394D01*
X119377000Y-101052606D01*
X119552606Y-100877000D01*
X120697394Y-100877000D01*
X120873000Y-101052606D01*
G04 #@! TA.AperFunction,Conductor*
D25*
G36*
X120873000Y-101052606D02*
G01*
X120873000Y-102947394D01*
X120697394Y-103123000D01*
X119552606Y-103123000D01*
X119377000Y-102947394D01*
X119377000Y-101052606D01*
X119552606Y-100877000D01*
X120697394Y-100877000D01*
X120873000Y-101052606D01*
G37*
G04 #@! TD.AperFunction*
M02*
