G04 #@! TF.GenerationSoftware,KiCad,Pcbnew,(5.1.9-0-10_14)*
G04 #@! TF.CreationDate,2021-03-16T19:17:09+01:00*
G04 #@! TF.ProjectId,cflipclock_rev_a,63666c69-7063-46c6-9f63-6b5f7265765f,rev?*
G04 #@! TF.SameCoordinates,Original*
G04 #@! TF.FileFunction,Paste,Top*
G04 #@! TF.FilePolarity,Positive*
%FSLAX46Y46*%
G04 Gerber Fmt 4.6, Leading zero omitted, Abs format (unit mm)*
G04 Created by KiCad (PCBNEW (5.1.9-0-10_14)) date 2021-03-16 19:17:09*
%MOMM*%
%LPD*%
G01*
G04 APERTURE LIST*
%ADD10R,0.900000X2.000000*%
%ADD11R,2.000000X0.900000*%
%ADD12R,5.000000X5.000000*%
%ADD13R,1.060000X0.650000*%
%ADD14R,0.650000X1.060000*%
%ADD15R,0.650000X1.050000*%
%ADD16R,0.650000X0.400000*%
%ADD17R,0.600000X1.450000*%
%ADD18R,0.300000X1.450000*%
%ADD19R,1.800000X2.500000*%
G04 APERTURE END LIST*
G36*
G01*
X154670000Y-107550000D02*
X154330000Y-107550000D01*
G75*
G02*
X154190000Y-107410000I0J140000D01*
G01*
X154190000Y-107130000D01*
G75*
G02*
X154330000Y-106990000I140000J0D01*
G01*
X154670000Y-106990000D01*
G75*
G02*
X154810000Y-107130000I0J-140000D01*
G01*
X154810000Y-107410000D01*
G75*
G02*
X154670000Y-107550000I-140000J0D01*
G01*
G37*
G36*
G01*
X154670000Y-108510000D02*
X154330000Y-108510000D01*
G75*
G02*
X154190000Y-108370000I0J140000D01*
G01*
X154190000Y-108090000D01*
G75*
G02*
X154330000Y-107950000I140000J0D01*
G01*
X154670000Y-107950000D01*
G75*
G02*
X154810000Y-108090000I0J-140000D01*
G01*
X154810000Y-108370000D01*
G75*
G02*
X154670000Y-108510000I-140000J0D01*
G01*
G37*
G36*
G01*
X163756250Y-121400000D02*
X163243750Y-121400000D01*
G75*
G02*
X163025000Y-121181250I0J218750D01*
G01*
X163025000Y-120743750D01*
G75*
G02*
X163243750Y-120525000I218750J0D01*
G01*
X163756250Y-120525000D01*
G75*
G02*
X163975000Y-120743750I0J-218750D01*
G01*
X163975000Y-121181250D01*
G75*
G02*
X163756250Y-121400000I-218750J0D01*
G01*
G37*
G36*
G01*
X163756250Y-122975000D02*
X163243750Y-122975000D01*
G75*
G02*
X163025000Y-122756250I0J218750D01*
G01*
X163025000Y-122318750D01*
G75*
G02*
X163243750Y-122100000I218750J0D01*
G01*
X163756250Y-122100000D01*
G75*
G02*
X163975000Y-122318750I0J-218750D01*
G01*
X163975000Y-122756250D01*
G75*
G02*
X163756250Y-122975000I-218750J0D01*
G01*
G37*
G36*
G01*
X165506250Y-121400000D02*
X164993750Y-121400000D01*
G75*
G02*
X164775000Y-121181250I0J218750D01*
G01*
X164775000Y-120743750D01*
G75*
G02*
X164993750Y-120525000I218750J0D01*
G01*
X165506250Y-120525000D01*
G75*
G02*
X165725000Y-120743750I0J-218750D01*
G01*
X165725000Y-121181250D01*
G75*
G02*
X165506250Y-121400000I-218750J0D01*
G01*
G37*
G36*
G01*
X165506250Y-122975000D02*
X164993750Y-122975000D01*
G75*
G02*
X164775000Y-122756250I0J218750D01*
G01*
X164775000Y-122318750D01*
G75*
G02*
X164993750Y-122100000I218750J0D01*
G01*
X165506250Y-122100000D01*
G75*
G02*
X165725000Y-122318750I0J-218750D01*
G01*
X165725000Y-122756250D01*
G75*
G02*
X165506250Y-122975000I-218750J0D01*
G01*
G37*
G36*
G01*
X125000000Y-108075000D02*
X125500000Y-108075000D01*
G75*
G02*
X125725000Y-108300000I0J-225000D01*
G01*
X125725000Y-108750000D01*
G75*
G02*
X125500000Y-108975000I-225000J0D01*
G01*
X125000000Y-108975000D01*
G75*
G02*
X124775000Y-108750000I0J225000D01*
G01*
X124775000Y-108300000D01*
G75*
G02*
X125000000Y-108075000I225000J0D01*
G01*
G37*
G36*
G01*
X125000000Y-106525000D02*
X125500000Y-106525000D01*
G75*
G02*
X125725000Y-106750000I0J-225000D01*
G01*
X125725000Y-107200000D01*
G75*
G02*
X125500000Y-107425000I-225000J0D01*
G01*
X125000000Y-107425000D01*
G75*
G02*
X124775000Y-107200000I0J225000D01*
G01*
X124775000Y-106750000D01*
G75*
G02*
X125000000Y-106525000I225000J0D01*
G01*
G37*
G36*
G01*
X182250000Y-92300000D02*
X182750000Y-92300000D01*
G75*
G02*
X182975000Y-92525000I0J-225000D01*
G01*
X182975000Y-92975000D01*
G75*
G02*
X182750000Y-93200000I-225000J0D01*
G01*
X182250000Y-93200000D01*
G75*
G02*
X182025000Y-92975000I0J225000D01*
G01*
X182025000Y-92525000D01*
G75*
G02*
X182250000Y-92300000I225000J0D01*
G01*
G37*
G36*
G01*
X182250000Y-90750000D02*
X182750000Y-90750000D01*
G75*
G02*
X182975000Y-90975000I0J-225000D01*
G01*
X182975000Y-91425000D01*
G75*
G02*
X182750000Y-91650000I-225000J0D01*
G01*
X182250000Y-91650000D01*
G75*
G02*
X182025000Y-91425000I0J225000D01*
G01*
X182025000Y-90975000D01*
G75*
G02*
X182250000Y-90750000I225000J0D01*
G01*
G37*
G36*
G01*
X169250000Y-92325000D02*
X169750000Y-92325000D01*
G75*
G02*
X169975000Y-92550000I0J-225000D01*
G01*
X169975000Y-93000000D01*
G75*
G02*
X169750000Y-93225000I-225000J0D01*
G01*
X169250000Y-93225000D01*
G75*
G02*
X169025000Y-93000000I0J225000D01*
G01*
X169025000Y-92550000D01*
G75*
G02*
X169250000Y-92325000I225000J0D01*
G01*
G37*
G36*
G01*
X169250000Y-90775000D02*
X169750000Y-90775000D01*
G75*
G02*
X169975000Y-91000000I0J-225000D01*
G01*
X169975000Y-91450000D01*
G75*
G02*
X169750000Y-91675000I-225000J0D01*
G01*
X169250000Y-91675000D01*
G75*
G02*
X169025000Y-91450000I0J225000D01*
G01*
X169025000Y-91000000D01*
G75*
G02*
X169250000Y-90775000I225000J0D01*
G01*
G37*
G36*
G01*
X156251100Y-92325000D02*
X156751100Y-92325000D01*
G75*
G02*
X156976100Y-92550000I0J-225000D01*
G01*
X156976100Y-93000000D01*
G75*
G02*
X156751100Y-93225000I-225000J0D01*
G01*
X156251100Y-93225000D01*
G75*
G02*
X156026100Y-93000000I0J225000D01*
G01*
X156026100Y-92550000D01*
G75*
G02*
X156251100Y-92325000I225000J0D01*
G01*
G37*
G36*
G01*
X156251100Y-90775000D02*
X156751100Y-90775000D01*
G75*
G02*
X156976100Y-91000000I0J-225000D01*
G01*
X156976100Y-91450000D01*
G75*
G02*
X156751100Y-91675000I-225000J0D01*
G01*
X156251100Y-91675000D01*
G75*
G02*
X156026100Y-91450000I0J225000D01*
G01*
X156026100Y-91000000D01*
G75*
G02*
X156251100Y-90775000I225000J0D01*
G01*
G37*
G36*
G01*
X146075000Y-77750000D02*
X146075000Y-77250000D01*
G75*
G02*
X146300000Y-77025000I225000J0D01*
G01*
X146750000Y-77025000D01*
G75*
G02*
X146975000Y-77250000I0J-225000D01*
G01*
X146975000Y-77750000D01*
G75*
G02*
X146750000Y-77975000I-225000J0D01*
G01*
X146300000Y-77975000D01*
G75*
G02*
X146075000Y-77750000I0J225000D01*
G01*
G37*
G36*
G01*
X144525000Y-77750000D02*
X144525000Y-77250000D01*
G75*
G02*
X144750000Y-77025000I225000J0D01*
G01*
X145200000Y-77025000D01*
G75*
G02*
X145425000Y-77250000I0J-225000D01*
G01*
X145425000Y-77750000D01*
G75*
G02*
X145200000Y-77975000I-225000J0D01*
G01*
X144750000Y-77975000D01*
G75*
G02*
X144525000Y-77750000I0J225000D01*
G01*
G37*
G36*
G01*
X137825000Y-76750000D02*
X137825000Y-76250000D01*
G75*
G02*
X138050000Y-76025000I225000J0D01*
G01*
X138500000Y-76025000D01*
G75*
G02*
X138725000Y-76250000I0J-225000D01*
G01*
X138725000Y-76750000D01*
G75*
G02*
X138500000Y-76975000I-225000J0D01*
G01*
X138050000Y-76975000D01*
G75*
G02*
X137825000Y-76750000I0J225000D01*
G01*
G37*
G36*
G01*
X136275000Y-76750000D02*
X136275000Y-76250000D01*
G75*
G02*
X136500000Y-76025000I225000J0D01*
G01*
X136950000Y-76025000D01*
G75*
G02*
X137175000Y-76250000I0J-225000D01*
G01*
X137175000Y-76750000D01*
G75*
G02*
X136950000Y-76975000I-225000J0D01*
G01*
X136500000Y-76975000D01*
G75*
G02*
X136275000Y-76750000I0J225000D01*
G01*
G37*
G36*
G01*
X131750000Y-76675000D02*
X131250000Y-76675000D01*
G75*
G02*
X131025000Y-76450000I0J225000D01*
G01*
X131025000Y-76000000D01*
G75*
G02*
X131250000Y-75775000I225000J0D01*
G01*
X131750000Y-75775000D01*
G75*
G02*
X131975000Y-76000000I0J-225000D01*
G01*
X131975000Y-76450000D01*
G75*
G02*
X131750000Y-76675000I-225000J0D01*
G01*
G37*
G36*
G01*
X131750000Y-78225000D02*
X131250000Y-78225000D01*
G75*
G02*
X131025000Y-78000000I0J225000D01*
G01*
X131025000Y-77550000D01*
G75*
G02*
X131250000Y-77325000I225000J0D01*
G01*
X131750000Y-77325000D01*
G75*
G02*
X131975000Y-77550000I0J-225000D01*
G01*
X131975000Y-78000000D01*
G75*
G02*
X131750000Y-78225000I-225000J0D01*
G01*
G37*
G36*
G01*
X125500000Y-76675000D02*
X125000000Y-76675000D01*
G75*
G02*
X124775000Y-76450000I0J225000D01*
G01*
X124775000Y-76000000D01*
G75*
G02*
X125000000Y-75775000I225000J0D01*
G01*
X125500000Y-75775000D01*
G75*
G02*
X125725000Y-76000000I0J-225000D01*
G01*
X125725000Y-76450000D01*
G75*
G02*
X125500000Y-76675000I-225000J0D01*
G01*
G37*
G36*
G01*
X125500000Y-78225000D02*
X125000000Y-78225000D01*
G75*
G02*
X124775000Y-78000000I0J225000D01*
G01*
X124775000Y-77550000D01*
G75*
G02*
X125000000Y-77325000I225000J0D01*
G01*
X125500000Y-77325000D01*
G75*
G02*
X125725000Y-77550000I0J-225000D01*
G01*
X125725000Y-78000000D01*
G75*
G02*
X125500000Y-78225000I-225000J0D01*
G01*
G37*
G36*
G01*
X119500000Y-76675000D02*
X119000000Y-76675000D01*
G75*
G02*
X118775000Y-76450000I0J225000D01*
G01*
X118775000Y-76000000D01*
G75*
G02*
X119000000Y-75775000I225000J0D01*
G01*
X119500000Y-75775000D01*
G75*
G02*
X119725000Y-76000000I0J-225000D01*
G01*
X119725000Y-76450000D01*
G75*
G02*
X119500000Y-76675000I-225000J0D01*
G01*
G37*
G36*
G01*
X119500000Y-78225000D02*
X119000000Y-78225000D01*
G75*
G02*
X118775000Y-78000000I0J225000D01*
G01*
X118775000Y-77550000D01*
G75*
G02*
X119000000Y-77325000I225000J0D01*
G01*
X119500000Y-77325000D01*
G75*
G02*
X119725000Y-77550000I0J-225000D01*
G01*
X119725000Y-78000000D01*
G75*
G02*
X119500000Y-78225000I-225000J0D01*
G01*
G37*
G36*
G01*
X137750000Y-108075000D02*
X138250000Y-108075000D01*
G75*
G02*
X138475000Y-108300000I0J-225000D01*
G01*
X138475000Y-108750000D01*
G75*
G02*
X138250000Y-108975000I-225000J0D01*
G01*
X137750000Y-108975000D01*
G75*
G02*
X137525000Y-108750000I0J225000D01*
G01*
X137525000Y-108300000D01*
G75*
G02*
X137750000Y-108075000I225000J0D01*
G01*
G37*
G36*
G01*
X137750000Y-106525000D02*
X138250000Y-106525000D01*
G75*
G02*
X138475000Y-106750000I0J-225000D01*
G01*
X138475000Y-107200000D01*
G75*
G02*
X138250000Y-107425000I-225000J0D01*
G01*
X137750000Y-107425000D01*
G75*
G02*
X137525000Y-107200000I0J225000D01*
G01*
X137525000Y-106750000D01*
G75*
G02*
X137750000Y-106525000I225000J0D01*
G01*
G37*
D10*
X185255000Y-118500000D03*
X183985000Y-118500000D03*
X182715000Y-118500000D03*
X181445000Y-118500000D03*
X180175000Y-118500000D03*
X178905000Y-118500000D03*
X177635000Y-118500000D03*
X176365000Y-118500000D03*
X175095000Y-118500000D03*
X173825000Y-118500000D03*
X172555000Y-118500000D03*
X171285000Y-118500000D03*
X170015000Y-118500000D03*
X168745000Y-118500000D03*
D11*
X167745000Y-115715000D03*
X167745000Y-114445000D03*
X167745000Y-113175000D03*
X167745000Y-111905000D03*
X167745000Y-110635000D03*
X167745000Y-109365000D03*
X167745000Y-108095000D03*
X167745000Y-106825000D03*
X167745000Y-105555000D03*
X167745000Y-104285000D03*
D10*
X168745000Y-101500000D03*
X170015000Y-101500000D03*
X171285000Y-101500000D03*
X172555000Y-101500000D03*
X173825000Y-101500000D03*
X175095000Y-101500000D03*
X176365000Y-101500000D03*
X177635000Y-101500000D03*
X178905000Y-101500000D03*
X180175000Y-101500000D03*
X181445000Y-101500000D03*
X182715000Y-101500000D03*
X183985000Y-101500000D03*
X185255000Y-101500000D03*
D12*
X177755000Y-109000000D03*
G36*
G01*
X159685000Y-106010000D02*
X159315000Y-106010000D01*
G75*
G02*
X159180000Y-105875000I0J135000D01*
G01*
X159180000Y-105605000D01*
G75*
G02*
X159315000Y-105470000I135000J0D01*
G01*
X159685000Y-105470000D01*
G75*
G02*
X159820000Y-105605000I0J-135000D01*
G01*
X159820000Y-105875000D01*
G75*
G02*
X159685000Y-106010000I-135000J0D01*
G01*
G37*
G36*
G01*
X159685000Y-107030000D02*
X159315000Y-107030000D01*
G75*
G02*
X159180000Y-106895000I0J135000D01*
G01*
X159180000Y-106625000D01*
G75*
G02*
X159315000Y-106490000I135000J0D01*
G01*
X159685000Y-106490000D01*
G75*
G02*
X159820000Y-106625000I0J-135000D01*
G01*
X159820000Y-106895000D01*
G75*
G02*
X159685000Y-107030000I-135000J0D01*
G01*
G37*
G36*
G01*
X160565000Y-106490000D02*
X160935000Y-106490000D01*
G75*
G02*
X161070000Y-106625000I0J-135000D01*
G01*
X161070000Y-106895000D01*
G75*
G02*
X160935000Y-107030000I-135000J0D01*
G01*
X160565000Y-107030000D01*
G75*
G02*
X160430000Y-106895000I0J135000D01*
G01*
X160430000Y-106625000D01*
G75*
G02*
X160565000Y-106490000I135000J0D01*
G01*
G37*
G36*
G01*
X160565000Y-105470000D02*
X160935000Y-105470000D01*
G75*
G02*
X161070000Y-105605000I0J-135000D01*
G01*
X161070000Y-105875000D01*
G75*
G02*
X160935000Y-106010000I-135000J0D01*
G01*
X160565000Y-106010000D01*
G75*
G02*
X160430000Y-105875000I0J135000D01*
G01*
X160430000Y-105605000D01*
G75*
G02*
X160565000Y-105470000I135000J0D01*
G01*
G37*
G36*
G01*
X117490000Y-97435000D02*
X117490000Y-97065000D01*
G75*
G02*
X117625000Y-96930000I135000J0D01*
G01*
X117895000Y-96930000D01*
G75*
G02*
X118030000Y-97065000I0J-135000D01*
G01*
X118030000Y-97435000D01*
G75*
G02*
X117895000Y-97570000I-135000J0D01*
G01*
X117625000Y-97570000D01*
G75*
G02*
X117490000Y-97435000I0J135000D01*
G01*
G37*
G36*
G01*
X116470000Y-97435000D02*
X116470000Y-97065000D01*
G75*
G02*
X116605000Y-96930000I135000J0D01*
G01*
X116875000Y-96930000D01*
G75*
G02*
X117010000Y-97065000I0J-135000D01*
G01*
X117010000Y-97435000D01*
G75*
G02*
X116875000Y-97570000I-135000J0D01*
G01*
X116605000Y-97570000D01*
G75*
G02*
X116470000Y-97435000I0J135000D01*
G01*
G37*
G36*
G01*
X113740000Y-97435000D02*
X113740000Y-97065000D01*
G75*
G02*
X113875000Y-96930000I135000J0D01*
G01*
X114145000Y-96930000D01*
G75*
G02*
X114280000Y-97065000I0J-135000D01*
G01*
X114280000Y-97435000D01*
G75*
G02*
X114145000Y-97570000I-135000J0D01*
G01*
X113875000Y-97570000D01*
G75*
G02*
X113740000Y-97435000I0J135000D01*
G01*
G37*
G36*
G01*
X112720000Y-97435000D02*
X112720000Y-97065000D01*
G75*
G02*
X112855000Y-96930000I135000J0D01*
G01*
X113125000Y-96930000D01*
G75*
G02*
X113260000Y-97065000I0J-135000D01*
G01*
X113260000Y-97435000D01*
G75*
G02*
X113125000Y-97570000I-135000J0D01*
G01*
X112855000Y-97570000D01*
G75*
G02*
X112720000Y-97435000I0J135000D01*
G01*
G37*
G36*
G01*
X111010000Y-97065000D02*
X111010000Y-97435000D01*
G75*
G02*
X110875000Y-97570000I-135000J0D01*
G01*
X110605000Y-97570000D01*
G75*
G02*
X110470000Y-97435000I0J135000D01*
G01*
X110470000Y-97065000D01*
G75*
G02*
X110605000Y-96930000I135000J0D01*
G01*
X110875000Y-96930000D01*
G75*
G02*
X111010000Y-97065000I0J-135000D01*
G01*
G37*
G36*
G01*
X112030000Y-97065000D02*
X112030000Y-97435000D01*
G75*
G02*
X111895000Y-97570000I-135000J0D01*
G01*
X111625000Y-97570000D01*
G75*
G02*
X111490000Y-97435000I0J135000D01*
G01*
X111490000Y-97065000D01*
G75*
G02*
X111625000Y-96930000I135000J0D01*
G01*
X111895000Y-96930000D01*
G75*
G02*
X112030000Y-97065000I0J-135000D01*
G01*
G37*
G36*
G01*
X183800000Y-97775000D02*
X183800000Y-98725000D01*
G75*
G02*
X183550000Y-98975000I-250000J0D01*
G01*
X183050000Y-98975000D01*
G75*
G02*
X182800000Y-98725000I0J250000D01*
G01*
X182800000Y-97775000D01*
G75*
G02*
X183050000Y-97525000I250000J0D01*
G01*
X183550000Y-97525000D01*
G75*
G02*
X183800000Y-97775000I0J-250000D01*
G01*
G37*
G36*
G01*
X185700000Y-97775000D02*
X185700000Y-98725000D01*
G75*
G02*
X185450000Y-98975000I-250000J0D01*
G01*
X184950000Y-98975000D01*
G75*
G02*
X184700000Y-98725000I0J250000D01*
G01*
X184700000Y-97775000D01*
G75*
G02*
X184950000Y-97525000I250000J0D01*
G01*
X185450000Y-97525000D01*
G75*
G02*
X185700000Y-97775000I0J-250000D01*
G01*
G37*
G36*
G01*
X141350000Y-110349999D02*
X141350000Y-111650001D01*
G75*
G02*
X141100001Y-111900000I-249999J0D01*
G01*
X140449999Y-111900000D01*
G75*
G02*
X140200000Y-111650001I0J249999D01*
G01*
X140200000Y-110349999D01*
G75*
G02*
X140449999Y-110100000I249999J0D01*
G01*
X141100001Y-110100000D01*
G75*
G02*
X141350000Y-110349999I0J-249999D01*
G01*
G37*
G36*
G01*
X144300000Y-110349999D02*
X144300000Y-111650001D01*
G75*
G02*
X144050001Y-111900000I-249999J0D01*
G01*
X143399999Y-111900000D01*
G75*
G02*
X143150000Y-111650001I0J249999D01*
G01*
X143150000Y-110349999D01*
G75*
G02*
X143399999Y-110100000I249999J0D01*
G01*
X144050001Y-110100000D01*
G75*
G02*
X144300000Y-110349999I0J-249999D01*
G01*
G37*
G36*
G01*
X116650000Y-108650001D02*
X116650000Y-107349999D01*
G75*
G02*
X116899999Y-107100000I249999J0D01*
G01*
X117550001Y-107100000D01*
G75*
G02*
X117800000Y-107349999I0J-249999D01*
G01*
X117800000Y-108650001D01*
G75*
G02*
X117550001Y-108900000I-249999J0D01*
G01*
X116899999Y-108900000D01*
G75*
G02*
X116650000Y-108650001I0J249999D01*
G01*
G37*
G36*
G01*
X113700000Y-108650001D02*
X113700000Y-107349999D01*
G75*
G02*
X113949999Y-107100000I249999J0D01*
G01*
X114600001Y-107100000D01*
G75*
G02*
X114850000Y-107349999I0J-249999D01*
G01*
X114850000Y-108650001D01*
G75*
G02*
X114600001Y-108900000I-249999J0D01*
G01*
X113949999Y-108900000D01*
G75*
G02*
X113700000Y-108650001I0J249999D01*
G01*
G37*
G36*
G01*
X141350000Y-112849999D02*
X141350000Y-114150001D01*
G75*
G02*
X141100001Y-114400000I-249999J0D01*
G01*
X140449999Y-114400000D01*
G75*
G02*
X140200000Y-114150001I0J249999D01*
G01*
X140200000Y-112849999D01*
G75*
G02*
X140449999Y-112600000I249999J0D01*
G01*
X141100001Y-112600000D01*
G75*
G02*
X141350000Y-112849999I0J-249999D01*
G01*
G37*
G36*
G01*
X144300000Y-112849999D02*
X144300000Y-114150001D01*
G75*
G02*
X144050001Y-114400000I-249999J0D01*
G01*
X143399999Y-114400000D01*
G75*
G02*
X143150000Y-114150001I0J249999D01*
G01*
X143150000Y-112849999D01*
G75*
G02*
X143399999Y-112600000I249999J0D01*
G01*
X144050001Y-112600000D01*
G75*
G02*
X144300000Y-112849999I0J-249999D01*
G01*
G37*
G36*
G01*
X117755000Y-104000000D02*
X118055000Y-104000000D01*
G75*
G02*
X118205000Y-104150000I0J-150000D01*
G01*
X118205000Y-105800000D01*
G75*
G02*
X118055000Y-105950000I-150000J0D01*
G01*
X117755000Y-105950000D01*
G75*
G02*
X117605000Y-105800000I0J150000D01*
G01*
X117605000Y-104150000D01*
G75*
G02*
X117755000Y-104000000I150000J0D01*
G01*
G37*
G36*
G01*
X116485000Y-104000000D02*
X116785000Y-104000000D01*
G75*
G02*
X116935000Y-104150000I0J-150000D01*
G01*
X116935000Y-105800000D01*
G75*
G02*
X116785000Y-105950000I-150000J0D01*
G01*
X116485000Y-105950000D01*
G75*
G02*
X116335000Y-105800000I0J150000D01*
G01*
X116335000Y-104150000D01*
G75*
G02*
X116485000Y-104000000I150000J0D01*
G01*
G37*
G36*
G01*
X115215000Y-104000000D02*
X115515000Y-104000000D01*
G75*
G02*
X115665000Y-104150000I0J-150000D01*
G01*
X115665000Y-105800000D01*
G75*
G02*
X115515000Y-105950000I-150000J0D01*
G01*
X115215000Y-105950000D01*
G75*
G02*
X115065000Y-105800000I0J150000D01*
G01*
X115065000Y-104150000D01*
G75*
G02*
X115215000Y-104000000I150000J0D01*
G01*
G37*
G36*
G01*
X113945000Y-104000000D02*
X114245000Y-104000000D01*
G75*
G02*
X114395000Y-104150000I0J-150000D01*
G01*
X114395000Y-105800000D01*
G75*
G02*
X114245000Y-105950000I-150000J0D01*
G01*
X113945000Y-105950000D01*
G75*
G02*
X113795000Y-105800000I0J150000D01*
G01*
X113795000Y-104150000D01*
G75*
G02*
X113945000Y-104000000I150000J0D01*
G01*
G37*
G36*
G01*
X113945000Y-99050000D02*
X114245000Y-99050000D01*
G75*
G02*
X114395000Y-99200000I0J-150000D01*
G01*
X114395000Y-100850000D01*
G75*
G02*
X114245000Y-101000000I-150000J0D01*
G01*
X113945000Y-101000000D01*
G75*
G02*
X113795000Y-100850000I0J150000D01*
G01*
X113795000Y-99200000D01*
G75*
G02*
X113945000Y-99050000I150000J0D01*
G01*
G37*
G36*
G01*
X115215000Y-99050000D02*
X115515000Y-99050000D01*
G75*
G02*
X115665000Y-99200000I0J-150000D01*
G01*
X115665000Y-100850000D01*
G75*
G02*
X115515000Y-101000000I-150000J0D01*
G01*
X115215000Y-101000000D01*
G75*
G02*
X115065000Y-100850000I0J150000D01*
G01*
X115065000Y-99200000D01*
G75*
G02*
X115215000Y-99050000I150000J0D01*
G01*
G37*
G36*
G01*
X116485000Y-99050000D02*
X116785000Y-99050000D01*
G75*
G02*
X116935000Y-99200000I0J-150000D01*
G01*
X116935000Y-100850000D01*
G75*
G02*
X116785000Y-101000000I-150000J0D01*
G01*
X116485000Y-101000000D01*
G75*
G02*
X116335000Y-100850000I0J150000D01*
G01*
X116335000Y-99200000D01*
G75*
G02*
X116485000Y-99050000I150000J0D01*
G01*
G37*
G36*
G01*
X117755000Y-99050000D02*
X118055000Y-99050000D01*
G75*
G02*
X118205000Y-99200000I0J-150000D01*
G01*
X118205000Y-100850000D01*
G75*
G02*
X118055000Y-101000000I-150000J0D01*
G01*
X117755000Y-101000000D01*
G75*
G02*
X117605000Y-100850000I0J150000D01*
G01*
X117605000Y-99200000D01*
G75*
G02*
X117755000Y-99050000I150000J0D01*
G01*
G37*
G36*
G01*
X127250000Y-101075000D02*
X127750000Y-101075000D01*
G75*
G02*
X127975000Y-101300000I0J-225000D01*
G01*
X127975000Y-101750000D01*
G75*
G02*
X127750000Y-101975000I-225000J0D01*
G01*
X127250000Y-101975000D01*
G75*
G02*
X127025000Y-101750000I0J225000D01*
G01*
X127025000Y-101300000D01*
G75*
G02*
X127250000Y-101075000I225000J0D01*
G01*
G37*
G36*
G01*
X127250000Y-99525000D02*
X127750000Y-99525000D01*
G75*
G02*
X127975000Y-99750000I0J-225000D01*
G01*
X127975000Y-100200000D01*
G75*
G02*
X127750000Y-100425000I-225000J0D01*
G01*
X127250000Y-100425000D01*
G75*
G02*
X127025000Y-100200000I0J225000D01*
G01*
X127025000Y-99750000D01*
G75*
G02*
X127250000Y-99525000I225000J0D01*
G01*
G37*
G36*
G01*
X140000000Y-101075000D02*
X140500000Y-101075000D01*
G75*
G02*
X140725000Y-101300000I0J-225000D01*
G01*
X140725000Y-101750000D01*
G75*
G02*
X140500000Y-101975000I-225000J0D01*
G01*
X140000000Y-101975000D01*
G75*
G02*
X139775000Y-101750000I0J225000D01*
G01*
X139775000Y-101300000D01*
G75*
G02*
X140000000Y-101075000I225000J0D01*
G01*
G37*
G36*
G01*
X140000000Y-99525000D02*
X140500000Y-99525000D01*
G75*
G02*
X140725000Y-99750000I0J-225000D01*
G01*
X140725000Y-100200000D01*
G75*
G02*
X140500000Y-100425000I-225000J0D01*
G01*
X140000000Y-100425000D01*
G75*
G02*
X139775000Y-100200000I0J225000D01*
G01*
X139775000Y-99750000D01*
G75*
G02*
X140000000Y-99525000I225000J0D01*
G01*
G37*
D13*
X125650000Y-104250000D03*
X125650000Y-105200000D03*
X125650000Y-103300000D03*
X127850000Y-103300000D03*
X127850000Y-104250000D03*
X127850000Y-105200000D03*
G36*
G01*
X129990000Y-103435000D02*
X129990000Y-103065000D01*
G75*
G02*
X130125000Y-102930000I135000J0D01*
G01*
X130395000Y-102930000D01*
G75*
G02*
X130530000Y-103065000I0J-135000D01*
G01*
X130530000Y-103435000D01*
G75*
G02*
X130395000Y-103570000I-135000J0D01*
G01*
X130125000Y-103570000D01*
G75*
G02*
X129990000Y-103435000I0J135000D01*
G01*
G37*
G36*
G01*
X128970000Y-103435000D02*
X128970000Y-103065000D01*
G75*
G02*
X129105000Y-102930000I135000J0D01*
G01*
X129375000Y-102930000D01*
G75*
G02*
X129510000Y-103065000I0J-135000D01*
G01*
X129510000Y-103435000D01*
G75*
G02*
X129375000Y-103570000I-135000J0D01*
G01*
X129105000Y-103570000D01*
G75*
G02*
X128970000Y-103435000I0J135000D01*
G01*
G37*
G36*
G01*
X129065000Y-101990000D02*
X129435000Y-101990000D01*
G75*
G02*
X129570000Y-102125000I0J-135000D01*
G01*
X129570000Y-102395000D01*
G75*
G02*
X129435000Y-102530000I-135000J0D01*
G01*
X129065000Y-102530000D01*
G75*
G02*
X128930000Y-102395000I0J135000D01*
G01*
X128930000Y-102125000D01*
G75*
G02*
X129065000Y-101990000I135000J0D01*
G01*
G37*
G36*
G01*
X129065000Y-100970000D02*
X129435000Y-100970000D01*
G75*
G02*
X129570000Y-101105000I0J-135000D01*
G01*
X129570000Y-101375000D01*
G75*
G02*
X129435000Y-101510000I-135000J0D01*
G01*
X129065000Y-101510000D01*
G75*
G02*
X128930000Y-101375000I0J135000D01*
G01*
X128930000Y-101105000D01*
G75*
G02*
X129065000Y-100970000I135000J0D01*
G01*
G37*
G36*
G01*
X125510000Y-101565000D02*
X125510000Y-101935000D01*
G75*
G02*
X125375000Y-102070000I-135000J0D01*
G01*
X125105000Y-102070000D01*
G75*
G02*
X124970000Y-101935000I0J135000D01*
G01*
X124970000Y-101565000D01*
G75*
G02*
X125105000Y-101430000I135000J0D01*
G01*
X125375000Y-101430000D01*
G75*
G02*
X125510000Y-101565000I0J-135000D01*
G01*
G37*
G36*
G01*
X126530000Y-101565000D02*
X126530000Y-101935000D01*
G75*
G02*
X126395000Y-102070000I-135000J0D01*
G01*
X126125000Y-102070000D01*
G75*
G02*
X125990000Y-101935000I0J135000D01*
G01*
X125990000Y-101565000D01*
G75*
G02*
X126125000Y-101430000I135000J0D01*
G01*
X126395000Y-101430000D01*
G75*
G02*
X126530000Y-101565000I0J-135000D01*
G01*
G37*
G36*
G01*
X123825000Y-104725000D02*
X121675000Y-104725000D01*
G75*
G02*
X121425000Y-104475000I0J250000D01*
G01*
X121425000Y-103725000D01*
G75*
G02*
X121675000Y-103475000I250000J0D01*
G01*
X123825000Y-103475000D01*
G75*
G02*
X124075000Y-103725000I0J-250000D01*
G01*
X124075000Y-104475000D01*
G75*
G02*
X123825000Y-104725000I-250000J0D01*
G01*
G37*
G36*
G01*
X123825000Y-107525000D02*
X121675000Y-107525000D01*
G75*
G02*
X121425000Y-107275000I0J250000D01*
G01*
X121425000Y-106525000D01*
G75*
G02*
X121675000Y-106275000I250000J0D01*
G01*
X123825000Y-106275000D01*
G75*
G02*
X124075000Y-106525000I0J-250000D01*
G01*
X124075000Y-107275000D01*
G75*
G02*
X123825000Y-107525000I-250000J0D01*
G01*
G37*
G36*
G01*
X123275000Y-101700000D02*
X124225000Y-101700000D01*
G75*
G02*
X124475000Y-101950000I0J-250000D01*
G01*
X124475000Y-102450000D01*
G75*
G02*
X124225000Y-102700000I-250000J0D01*
G01*
X123275000Y-102700000D01*
G75*
G02*
X123025000Y-102450000I0J250000D01*
G01*
X123025000Y-101950000D01*
G75*
G02*
X123275000Y-101700000I250000J0D01*
G01*
G37*
G36*
G01*
X123275000Y-99800000D02*
X124225000Y-99800000D01*
G75*
G02*
X124475000Y-100050000I0J-250000D01*
G01*
X124475000Y-100550000D01*
G75*
G02*
X124225000Y-100800000I-250000J0D01*
G01*
X123275000Y-100800000D01*
G75*
G02*
X123025000Y-100550000I0J250000D01*
G01*
X123025000Y-100050000D01*
G75*
G02*
X123275000Y-99800000I250000J0D01*
G01*
G37*
G36*
G01*
X121275000Y-101700000D02*
X122225000Y-101700000D01*
G75*
G02*
X122475000Y-101950000I0J-250000D01*
G01*
X122475000Y-102450000D01*
G75*
G02*
X122225000Y-102700000I-250000J0D01*
G01*
X121275000Y-102700000D01*
G75*
G02*
X121025000Y-102450000I0J250000D01*
G01*
X121025000Y-101950000D01*
G75*
G02*
X121275000Y-101700000I250000J0D01*
G01*
G37*
G36*
G01*
X121275000Y-99800000D02*
X122225000Y-99800000D01*
G75*
G02*
X122475000Y-100050000I0J-250000D01*
G01*
X122475000Y-100550000D01*
G75*
G02*
X122225000Y-100800000I-250000J0D01*
G01*
X121275000Y-100800000D01*
G75*
G02*
X121025000Y-100550000I0J250000D01*
G01*
X121025000Y-100050000D01*
G75*
G02*
X121275000Y-99800000I250000J0D01*
G01*
G37*
G36*
G01*
X127300000Y-106775000D02*
X127300000Y-107725000D01*
G75*
G02*
X127050000Y-107975000I-250000J0D01*
G01*
X126550000Y-107975000D01*
G75*
G02*
X126300000Y-107725000I0J250000D01*
G01*
X126300000Y-106775000D01*
G75*
G02*
X126550000Y-106525000I250000J0D01*
G01*
X127050000Y-106525000D01*
G75*
G02*
X127300000Y-106775000I0J-250000D01*
G01*
G37*
G36*
G01*
X129200000Y-106775000D02*
X129200000Y-107725000D01*
G75*
G02*
X128950000Y-107975000I-250000J0D01*
G01*
X128450000Y-107975000D01*
G75*
G02*
X128200000Y-107725000I0J250000D01*
G01*
X128200000Y-106775000D01*
G75*
G02*
X128450000Y-106525000I250000J0D01*
G01*
X128950000Y-106525000D01*
G75*
G02*
X129200000Y-106775000I0J-250000D01*
G01*
G37*
G36*
G01*
X126825000Y-80375000D02*
X126625000Y-80375000D01*
G75*
G02*
X126525000Y-80275000I0J100000D01*
G01*
X126525000Y-79000000D01*
G75*
G02*
X126625000Y-78900000I100000J0D01*
G01*
X126825000Y-78900000D01*
G75*
G02*
X126925000Y-79000000I0J-100000D01*
G01*
X126925000Y-80275000D01*
G75*
G02*
X126825000Y-80375000I-100000J0D01*
G01*
G37*
G36*
G01*
X127475000Y-80375000D02*
X127275000Y-80375000D01*
G75*
G02*
X127175000Y-80275000I0J100000D01*
G01*
X127175000Y-79000000D01*
G75*
G02*
X127275000Y-78900000I100000J0D01*
G01*
X127475000Y-78900000D01*
G75*
G02*
X127575000Y-79000000I0J-100000D01*
G01*
X127575000Y-80275000D01*
G75*
G02*
X127475000Y-80375000I-100000J0D01*
G01*
G37*
G36*
G01*
X128125000Y-80375000D02*
X127925000Y-80375000D01*
G75*
G02*
X127825000Y-80275000I0J100000D01*
G01*
X127825000Y-79000000D01*
G75*
G02*
X127925000Y-78900000I100000J0D01*
G01*
X128125000Y-78900000D01*
G75*
G02*
X128225000Y-79000000I0J-100000D01*
G01*
X128225000Y-80275000D01*
G75*
G02*
X128125000Y-80375000I-100000J0D01*
G01*
G37*
G36*
G01*
X128775000Y-80375000D02*
X128575000Y-80375000D01*
G75*
G02*
X128475000Y-80275000I0J100000D01*
G01*
X128475000Y-79000000D01*
G75*
G02*
X128575000Y-78900000I100000J0D01*
G01*
X128775000Y-78900000D01*
G75*
G02*
X128875000Y-79000000I0J-100000D01*
G01*
X128875000Y-80275000D01*
G75*
G02*
X128775000Y-80375000I-100000J0D01*
G01*
G37*
G36*
G01*
X129425000Y-80375000D02*
X129225000Y-80375000D01*
G75*
G02*
X129125000Y-80275000I0J100000D01*
G01*
X129125000Y-79000000D01*
G75*
G02*
X129225000Y-78900000I100000J0D01*
G01*
X129425000Y-78900000D01*
G75*
G02*
X129525000Y-79000000I0J-100000D01*
G01*
X129525000Y-80275000D01*
G75*
G02*
X129425000Y-80375000I-100000J0D01*
G01*
G37*
G36*
G01*
X130075000Y-80375000D02*
X129875000Y-80375000D01*
G75*
G02*
X129775000Y-80275000I0J100000D01*
G01*
X129775000Y-79000000D01*
G75*
G02*
X129875000Y-78900000I100000J0D01*
G01*
X130075000Y-78900000D01*
G75*
G02*
X130175000Y-79000000I0J-100000D01*
G01*
X130175000Y-80275000D01*
G75*
G02*
X130075000Y-80375000I-100000J0D01*
G01*
G37*
G36*
G01*
X130725000Y-80375000D02*
X130525000Y-80375000D01*
G75*
G02*
X130425000Y-80275000I0J100000D01*
G01*
X130425000Y-79000000D01*
G75*
G02*
X130525000Y-78900000I100000J0D01*
G01*
X130725000Y-78900000D01*
G75*
G02*
X130825000Y-79000000I0J-100000D01*
G01*
X130825000Y-80275000D01*
G75*
G02*
X130725000Y-80375000I-100000J0D01*
G01*
G37*
G36*
G01*
X131375000Y-80375000D02*
X131175000Y-80375000D01*
G75*
G02*
X131075000Y-80275000I0J100000D01*
G01*
X131075000Y-79000000D01*
G75*
G02*
X131175000Y-78900000I100000J0D01*
G01*
X131375000Y-78900000D01*
G75*
G02*
X131475000Y-79000000I0J-100000D01*
G01*
X131475000Y-80275000D01*
G75*
G02*
X131375000Y-80375000I-100000J0D01*
G01*
G37*
G36*
G01*
X131375000Y-86100000D02*
X131175000Y-86100000D01*
G75*
G02*
X131075000Y-86000000I0J100000D01*
G01*
X131075000Y-84725000D01*
G75*
G02*
X131175000Y-84625000I100000J0D01*
G01*
X131375000Y-84625000D01*
G75*
G02*
X131475000Y-84725000I0J-100000D01*
G01*
X131475000Y-86000000D01*
G75*
G02*
X131375000Y-86100000I-100000J0D01*
G01*
G37*
G36*
G01*
X130725000Y-86100000D02*
X130525000Y-86100000D01*
G75*
G02*
X130425000Y-86000000I0J100000D01*
G01*
X130425000Y-84725000D01*
G75*
G02*
X130525000Y-84625000I100000J0D01*
G01*
X130725000Y-84625000D01*
G75*
G02*
X130825000Y-84725000I0J-100000D01*
G01*
X130825000Y-86000000D01*
G75*
G02*
X130725000Y-86100000I-100000J0D01*
G01*
G37*
G36*
G01*
X130075000Y-86100000D02*
X129875000Y-86100000D01*
G75*
G02*
X129775000Y-86000000I0J100000D01*
G01*
X129775000Y-84725000D01*
G75*
G02*
X129875000Y-84625000I100000J0D01*
G01*
X130075000Y-84625000D01*
G75*
G02*
X130175000Y-84725000I0J-100000D01*
G01*
X130175000Y-86000000D01*
G75*
G02*
X130075000Y-86100000I-100000J0D01*
G01*
G37*
G36*
G01*
X129425000Y-86100000D02*
X129225000Y-86100000D01*
G75*
G02*
X129125000Y-86000000I0J100000D01*
G01*
X129125000Y-84725000D01*
G75*
G02*
X129225000Y-84625000I100000J0D01*
G01*
X129425000Y-84625000D01*
G75*
G02*
X129525000Y-84725000I0J-100000D01*
G01*
X129525000Y-86000000D01*
G75*
G02*
X129425000Y-86100000I-100000J0D01*
G01*
G37*
G36*
G01*
X128775000Y-86100000D02*
X128575000Y-86100000D01*
G75*
G02*
X128475000Y-86000000I0J100000D01*
G01*
X128475000Y-84725000D01*
G75*
G02*
X128575000Y-84625000I100000J0D01*
G01*
X128775000Y-84625000D01*
G75*
G02*
X128875000Y-84725000I0J-100000D01*
G01*
X128875000Y-86000000D01*
G75*
G02*
X128775000Y-86100000I-100000J0D01*
G01*
G37*
G36*
G01*
X128125000Y-86100000D02*
X127925000Y-86100000D01*
G75*
G02*
X127825000Y-86000000I0J100000D01*
G01*
X127825000Y-84725000D01*
G75*
G02*
X127925000Y-84625000I100000J0D01*
G01*
X128125000Y-84625000D01*
G75*
G02*
X128225000Y-84725000I0J-100000D01*
G01*
X128225000Y-86000000D01*
G75*
G02*
X128125000Y-86100000I-100000J0D01*
G01*
G37*
G36*
G01*
X127475000Y-86100000D02*
X127275000Y-86100000D01*
G75*
G02*
X127175000Y-86000000I0J100000D01*
G01*
X127175000Y-84725000D01*
G75*
G02*
X127275000Y-84625000I100000J0D01*
G01*
X127475000Y-84625000D01*
G75*
G02*
X127575000Y-84725000I0J-100000D01*
G01*
X127575000Y-86000000D01*
G75*
G02*
X127475000Y-86100000I-100000J0D01*
G01*
G37*
G36*
G01*
X126825000Y-86100000D02*
X126625000Y-86100000D01*
G75*
G02*
X126525000Y-86000000I0J100000D01*
G01*
X126525000Y-84725000D01*
G75*
G02*
X126625000Y-84625000I100000J0D01*
G01*
X126825000Y-84625000D01*
G75*
G02*
X126925000Y-84725000I0J-100000D01*
G01*
X126925000Y-86000000D01*
G75*
G02*
X126825000Y-86100000I-100000J0D01*
G01*
G37*
G36*
G01*
X133075000Y-80375000D02*
X132875000Y-80375000D01*
G75*
G02*
X132775000Y-80275000I0J100000D01*
G01*
X132775000Y-79000000D01*
G75*
G02*
X132875000Y-78900000I100000J0D01*
G01*
X133075000Y-78900000D01*
G75*
G02*
X133175000Y-79000000I0J-100000D01*
G01*
X133175000Y-80275000D01*
G75*
G02*
X133075000Y-80375000I-100000J0D01*
G01*
G37*
G36*
G01*
X133725000Y-80375000D02*
X133525000Y-80375000D01*
G75*
G02*
X133425000Y-80275000I0J100000D01*
G01*
X133425000Y-79000000D01*
G75*
G02*
X133525000Y-78900000I100000J0D01*
G01*
X133725000Y-78900000D01*
G75*
G02*
X133825000Y-79000000I0J-100000D01*
G01*
X133825000Y-80275000D01*
G75*
G02*
X133725000Y-80375000I-100000J0D01*
G01*
G37*
G36*
G01*
X134375000Y-80375000D02*
X134175000Y-80375000D01*
G75*
G02*
X134075000Y-80275000I0J100000D01*
G01*
X134075000Y-79000000D01*
G75*
G02*
X134175000Y-78900000I100000J0D01*
G01*
X134375000Y-78900000D01*
G75*
G02*
X134475000Y-79000000I0J-100000D01*
G01*
X134475000Y-80275000D01*
G75*
G02*
X134375000Y-80375000I-100000J0D01*
G01*
G37*
G36*
G01*
X135025000Y-80375000D02*
X134825000Y-80375000D01*
G75*
G02*
X134725000Y-80275000I0J100000D01*
G01*
X134725000Y-79000000D01*
G75*
G02*
X134825000Y-78900000I100000J0D01*
G01*
X135025000Y-78900000D01*
G75*
G02*
X135125000Y-79000000I0J-100000D01*
G01*
X135125000Y-80275000D01*
G75*
G02*
X135025000Y-80375000I-100000J0D01*
G01*
G37*
G36*
G01*
X135675000Y-80375000D02*
X135475000Y-80375000D01*
G75*
G02*
X135375000Y-80275000I0J100000D01*
G01*
X135375000Y-79000000D01*
G75*
G02*
X135475000Y-78900000I100000J0D01*
G01*
X135675000Y-78900000D01*
G75*
G02*
X135775000Y-79000000I0J-100000D01*
G01*
X135775000Y-80275000D01*
G75*
G02*
X135675000Y-80375000I-100000J0D01*
G01*
G37*
G36*
G01*
X136325000Y-80375000D02*
X136125000Y-80375000D01*
G75*
G02*
X136025000Y-80275000I0J100000D01*
G01*
X136025000Y-79000000D01*
G75*
G02*
X136125000Y-78900000I100000J0D01*
G01*
X136325000Y-78900000D01*
G75*
G02*
X136425000Y-79000000I0J-100000D01*
G01*
X136425000Y-80275000D01*
G75*
G02*
X136325000Y-80375000I-100000J0D01*
G01*
G37*
G36*
G01*
X136975000Y-80375000D02*
X136775000Y-80375000D01*
G75*
G02*
X136675000Y-80275000I0J100000D01*
G01*
X136675000Y-79000000D01*
G75*
G02*
X136775000Y-78900000I100000J0D01*
G01*
X136975000Y-78900000D01*
G75*
G02*
X137075000Y-79000000I0J-100000D01*
G01*
X137075000Y-80275000D01*
G75*
G02*
X136975000Y-80375000I-100000J0D01*
G01*
G37*
G36*
G01*
X137625000Y-80375000D02*
X137425000Y-80375000D01*
G75*
G02*
X137325000Y-80275000I0J100000D01*
G01*
X137325000Y-79000000D01*
G75*
G02*
X137425000Y-78900000I100000J0D01*
G01*
X137625000Y-78900000D01*
G75*
G02*
X137725000Y-79000000I0J-100000D01*
G01*
X137725000Y-80275000D01*
G75*
G02*
X137625000Y-80375000I-100000J0D01*
G01*
G37*
G36*
G01*
X137625000Y-86100000D02*
X137425000Y-86100000D01*
G75*
G02*
X137325000Y-86000000I0J100000D01*
G01*
X137325000Y-84725000D01*
G75*
G02*
X137425000Y-84625000I100000J0D01*
G01*
X137625000Y-84625000D01*
G75*
G02*
X137725000Y-84725000I0J-100000D01*
G01*
X137725000Y-86000000D01*
G75*
G02*
X137625000Y-86100000I-100000J0D01*
G01*
G37*
G36*
G01*
X136975000Y-86100000D02*
X136775000Y-86100000D01*
G75*
G02*
X136675000Y-86000000I0J100000D01*
G01*
X136675000Y-84725000D01*
G75*
G02*
X136775000Y-84625000I100000J0D01*
G01*
X136975000Y-84625000D01*
G75*
G02*
X137075000Y-84725000I0J-100000D01*
G01*
X137075000Y-86000000D01*
G75*
G02*
X136975000Y-86100000I-100000J0D01*
G01*
G37*
G36*
G01*
X136325000Y-86100000D02*
X136125000Y-86100000D01*
G75*
G02*
X136025000Y-86000000I0J100000D01*
G01*
X136025000Y-84725000D01*
G75*
G02*
X136125000Y-84625000I100000J0D01*
G01*
X136325000Y-84625000D01*
G75*
G02*
X136425000Y-84725000I0J-100000D01*
G01*
X136425000Y-86000000D01*
G75*
G02*
X136325000Y-86100000I-100000J0D01*
G01*
G37*
G36*
G01*
X135675000Y-86100000D02*
X135475000Y-86100000D01*
G75*
G02*
X135375000Y-86000000I0J100000D01*
G01*
X135375000Y-84725000D01*
G75*
G02*
X135475000Y-84625000I100000J0D01*
G01*
X135675000Y-84625000D01*
G75*
G02*
X135775000Y-84725000I0J-100000D01*
G01*
X135775000Y-86000000D01*
G75*
G02*
X135675000Y-86100000I-100000J0D01*
G01*
G37*
G36*
G01*
X135025000Y-86100000D02*
X134825000Y-86100000D01*
G75*
G02*
X134725000Y-86000000I0J100000D01*
G01*
X134725000Y-84725000D01*
G75*
G02*
X134825000Y-84625000I100000J0D01*
G01*
X135025000Y-84625000D01*
G75*
G02*
X135125000Y-84725000I0J-100000D01*
G01*
X135125000Y-86000000D01*
G75*
G02*
X135025000Y-86100000I-100000J0D01*
G01*
G37*
G36*
G01*
X134375000Y-86100000D02*
X134175000Y-86100000D01*
G75*
G02*
X134075000Y-86000000I0J100000D01*
G01*
X134075000Y-84725000D01*
G75*
G02*
X134175000Y-84625000I100000J0D01*
G01*
X134375000Y-84625000D01*
G75*
G02*
X134475000Y-84725000I0J-100000D01*
G01*
X134475000Y-86000000D01*
G75*
G02*
X134375000Y-86100000I-100000J0D01*
G01*
G37*
G36*
G01*
X133725000Y-86100000D02*
X133525000Y-86100000D01*
G75*
G02*
X133425000Y-86000000I0J100000D01*
G01*
X133425000Y-84725000D01*
G75*
G02*
X133525000Y-84625000I100000J0D01*
G01*
X133725000Y-84625000D01*
G75*
G02*
X133825000Y-84725000I0J-100000D01*
G01*
X133825000Y-86000000D01*
G75*
G02*
X133725000Y-86100000I-100000J0D01*
G01*
G37*
G36*
G01*
X133075000Y-86100000D02*
X132875000Y-86100000D01*
G75*
G02*
X132775000Y-86000000I0J100000D01*
G01*
X132775000Y-84725000D01*
G75*
G02*
X132875000Y-84625000I100000J0D01*
G01*
X133075000Y-84625000D01*
G75*
G02*
X133175000Y-84725000I0J-100000D01*
G01*
X133175000Y-86000000D01*
G75*
G02*
X133075000Y-86100000I-100000J0D01*
G01*
G37*
G36*
G01*
X139325000Y-80375000D02*
X139125000Y-80375000D01*
G75*
G02*
X139025000Y-80275000I0J100000D01*
G01*
X139025000Y-79000000D01*
G75*
G02*
X139125000Y-78900000I100000J0D01*
G01*
X139325000Y-78900000D01*
G75*
G02*
X139425000Y-79000000I0J-100000D01*
G01*
X139425000Y-80275000D01*
G75*
G02*
X139325000Y-80375000I-100000J0D01*
G01*
G37*
G36*
G01*
X139975000Y-80375000D02*
X139775000Y-80375000D01*
G75*
G02*
X139675000Y-80275000I0J100000D01*
G01*
X139675000Y-79000000D01*
G75*
G02*
X139775000Y-78900000I100000J0D01*
G01*
X139975000Y-78900000D01*
G75*
G02*
X140075000Y-79000000I0J-100000D01*
G01*
X140075000Y-80275000D01*
G75*
G02*
X139975000Y-80375000I-100000J0D01*
G01*
G37*
G36*
G01*
X140625000Y-80375000D02*
X140425000Y-80375000D01*
G75*
G02*
X140325000Y-80275000I0J100000D01*
G01*
X140325000Y-79000000D01*
G75*
G02*
X140425000Y-78900000I100000J0D01*
G01*
X140625000Y-78900000D01*
G75*
G02*
X140725000Y-79000000I0J-100000D01*
G01*
X140725000Y-80275000D01*
G75*
G02*
X140625000Y-80375000I-100000J0D01*
G01*
G37*
G36*
G01*
X141275000Y-80375000D02*
X141075000Y-80375000D01*
G75*
G02*
X140975000Y-80275000I0J100000D01*
G01*
X140975000Y-79000000D01*
G75*
G02*
X141075000Y-78900000I100000J0D01*
G01*
X141275000Y-78900000D01*
G75*
G02*
X141375000Y-79000000I0J-100000D01*
G01*
X141375000Y-80275000D01*
G75*
G02*
X141275000Y-80375000I-100000J0D01*
G01*
G37*
G36*
G01*
X141925000Y-80375000D02*
X141725000Y-80375000D01*
G75*
G02*
X141625000Y-80275000I0J100000D01*
G01*
X141625000Y-79000000D01*
G75*
G02*
X141725000Y-78900000I100000J0D01*
G01*
X141925000Y-78900000D01*
G75*
G02*
X142025000Y-79000000I0J-100000D01*
G01*
X142025000Y-80275000D01*
G75*
G02*
X141925000Y-80375000I-100000J0D01*
G01*
G37*
G36*
G01*
X142575000Y-80375000D02*
X142375000Y-80375000D01*
G75*
G02*
X142275000Y-80275000I0J100000D01*
G01*
X142275000Y-79000000D01*
G75*
G02*
X142375000Y-78900000I100000J0D01*
G01*
X142575000Y-78900000D01*
G75*
G02*
X142675000Y-79000000I0J-100000D01*
G01*
X142675000Y-80275000D01*
G75*
G02*
X142575000Y-80375000I-100000J0D01*
G01*
G37*
G36*
G01*
X143225000Y-80375000D02*
X143025000Y-80375000D01*
G75*
G02*
X142925000Y-80275000I0J100000D01*
G01*
X142925000Y-79000000D01*
G75*
G02*
X143025000Y-78900000I100000J0D01*
G01*
X143225000Y-78900000D01*
G75*
G02*
X143325000Y-79000000I0J-100000D01*
G01*
X143325000Y-80275000D01*
G75*
G02*
X143225000Y-80375000I-100000J0D01*
G01*
G37*
G36*
G01*
X143875000Y-80375000D02*
X143675000Y-80375000D01*
G75*
G02*
X143575000Y-80275000I0J100000D01*
G01*
X143575000Y-79000000D01*
G75*
G02*
X143675000Y-78900000I100000J0D01*
G01*
X143875000Y-78900000D01*
G75*
G02*
X143975000Y-79000000I0J-100000D01*
G01*
X143975000Y-80275000D01*
G75*
G02*
X143875000Y-80375000I-100000J0D01*
G01*
G37*
G36*
G01*
X143875000Y-86100000D02*
X143675000Y-86100000D01*
G75*
G02*
X143575000Y-86000000I0J100000D01*
G01*
X143575000Y-84725000D01*
G75*
G02*
X143675000Y-84625000I100000J0D01*
G01*
X143875000Y-84625000D01*
G75*
G02*
X143975000Y-84725000I0J-100000D01*
G01*
X143975000Y-86000000D01*
G75*
G02*
X143875000Y-86100000I-100000J0D01*
G01*
G37*
G36*
G01*
X143225000Y-86100000D02*
X143025000Y-86100000D01*
G75*
G02*
X142925000Y-86000000I0J100000D01*
G01*
X142925000Y-84725000D01*
G75*
G02*
X143025000Y-84625000I100000J0D01*
G01*
X143225000Y-84625000D01*
G75*
G02*
X143325000Y-84725000I0J-100000D01*
G01*
X143325000Y-86000000D01*
G75*
G02*
X143225000Y-86100000I-100000J0D01*
G01*
G37*
G36*
G01*
X142575000Y-86100000D02*
X142375000Y-86100000D01*
G75*
G02*
X142275000Y-86000000I0J100000D01*
G01*
X142275000Y-84725000D01*
G75*
G02*
X142375000Y-84625000I100000J0D01*
G01*
X142575000Y-84625000D01*
G75*
G02*
X142675000Y-84725000I0J-100000D01*
G01*
X142675000Y-86000000D01*
G75*
G02*
X142575000Y-86100000I-100000J0D01*
G01*
G37*
G36*
G01*
X141925000Y-86100000D02*
X141725000Y-86100000D01*
G75*
G02*
X141625000Y-86000000I0J100000D01*
G01*
X141625000Y-84725000D01*
G75*
G02*
X141725000Y-84625000I100000J0D01*
G01*
X141925000Y-84625000D01*
G75*
G02*
X142025000Y-84725000I0J-100000D01*
G01*
X142025000Y-86000000D01*
G75*
G02*
X141925000Y-86100000I-100000J0D01*
G01*
G37*
G36*
G01*
X141275000Y-86100000D02*
X141075000Y-86100000D01*
G75*
G02*
X140975000Y-86000000I0J100000D01*
G01*
X140975000Y-84725000D01*
G75*
G02*
X141075000Y-84625000I100000J0D01*
G01*
X141275000Y-84625000D01*
G75*
G02*
X141375000Y-84725000I0J-100000D01*
G01*
X141375000Y-86000000D01*
G75*
G02*
X141275000Y-86100000I-100000J0D01*
G01*
G37*
G36*
G01*
X140625000Y-86100000D02*
X140425000Y-86100000D01*
G75*
G02*
X140325000Y-86000000I0J100000D01*
G01*
X140325000Y-84725000D01*
G75*
G02*
X140425000Y-84625000I100000J0D01*
G01*
X140625000Y-84625000D01*
G75*
G02*
X140725000Y-84725000I0J-100000D01*
G01*
X140725000Y-86000000D01*
G75*
G02*
X140625000Y-86100000I-100000J0D01*
G01*
G37*
G36*
G01*
X139975000Y-86100000D02*
X139775000Y-86100000D01*
G75*
G02*
X139675000Y-86000000I0J100000D01*
G01*
X139675000Y-84725000D01*
G75*
G02*
X139775000Y-84625000I100000J0D01*
G01*
X139975000Y-84625000D01*
G75*
G02*
X140075000Y-84725000I0J-100000D01*
G01*
X140075000Y-86000000D01*
G75*
G02*
X139975000Y-86100000I-100000J0D01*
G01*
G37*
G36*
G01*
X139325000Y-86100000D02*
X139125000Y-86100000D01*
G75*
G02*
X139025000Y-86000000I0J100000D01*
G01*
X139025000Y-84725000D01*
G75*
G02*
X139125000Y-84625000I100000J0D01*
G01*
X139325000Y-84625000D01*
G75*
G02*
X139425000Y-84725000I0J-100000D01*
G01*
X139425000Y-86000000D01*
G75*
G02*
X139325000Y-86100000I-100000J0D01*
G01*
G37*
G36*
G01*
X114325000Y-80375000D02*
X114125000Y-80375000D01*
G75*
G02*
X114025000Y-80275000I0J100000D01*
G01*
X114025000Y-79000000D01*
G75*
G02*
X114125000Y-78900000I100000J0D01*
G01*
X114325000Y-78900000D01*
G75*
G02*
X114425000Y-79000000I0J-100000D01*
G01*
X114425000Y-80275000D01*
G75*
G02*
X114325000Y-80375000I-100000J0D01*
G01*
G37*
G36*
G01*
X114975000Y-80375000D02*
X114775000Y-80375000D01*
G75*
G02*
X114675000Y-80275000I0J100000D01*
G01*
X114675000Y-79000000D01*
G75*
G02*
X114775000Y-78900000I100000J0D01*
G01*
X114975000Y-78900000D01*
G75*
G02*
X115075000Y-79000000I0J-100000D01*
G01*
X115075000Y-80275000D01*
G75*
G02*
X114975000Y-80375000I-100000J0D01*
G01*
G37*
G36*
G01*
X115625000Y-80375000D02*
X115425000Y-80375000D01*
G75*
G02*
X115325000Y-80275000I0J100000D01*
G01*
X115325000Y-79000000D01*
G75*
G02*
X115425000Y-78900000I100000J0D01*
G01*
X115625000Y-78900000D01*
G75*
G02*
X115725000Y-79000000I0J-100000D01*
G01*
X115725000Y-80275000D01*
G75*
G02*
X115625000Y-80375000I-100000J0D01*
G01*
G37*
G36*
G01*
X116275000Y-80375000D02*
X116075000Y-80375000D01*
G75*
G02*
X115975000Y-80275000I0J100000D01*
G01*
X115975000Y-79000000D01*
G75*
G02*
X116075000Y-78900000I100000J0D01*
G01*
X116275000Y-78900000D01*
G75*
G02*
X116375000Y-79000000I0J-100000D01*
G01*
X116375000Y-80275000D01*
G75*
G02*
X116275000Y-80375000I-100000J0D01*
G01*
G37*
G36*
G01*
X116925000Y-80375000D02*
X116725000Y-80375000D01*
G75*
G02*
X116625000Y-80275000I0J100000D01*
G01*
X116625000Y-79000000D01*
G75*
G02*
X116725000Y-78900000I100000J0D01*
G01*
X116925000Y-78900000D01*
G75*
G02*
X117025000Y-79000000I0J-100000D01*
G01*
X117025000Y-80275000D01*
G75*
G02*
X116925000Y-80375000I-100000J0D01*
G01*
G37*
G36*
G01*
X117575000Y-80375000D02*
X117375000Y-80375000D01*
G75*
G02*
X117275000Y-80275000I0J100000D01*
G01*
X117275000Y-79000000D01*
G75*
G02*
X117375000Y-78900000I100000J0D01*
G01*
X117575000Y-78900000D01*
G75*
G02*
X117675000Y-79000000I0J-100000D01*
G01*
X117675000Y-80275000D01*
G75*
G02*
X117575000Y-80375000I-100000J0D01*
G01*
G37*
G36*
G01*
X118225000Y-80375000D02*
X118025000Y-80375000D01*
G75*
G02*
X117925000Y-80275000I0J100000D01*
G01*
X117925000Y-79000000D01*
G75*
G02*
X118025000Y-78900000I100000J0D01*
G01*
X118225000Y-78900000D01*
G75*
G02*
X118325000Y-79000000I0J-100000D01*
G01*
X118325000Y-80275000D01*
G75*
G02*
X118225000Y-80375000I-100000J0D01*
G01*
G37*
G36*
G01*
X118875000Y-80375000D02*
X118675000Y-80375000D01*
G75*
G02*
X118575000Y-80275000I0J100000D01*
G01*
X118575000Y-79000000D01*
G75*
G02*
X118675000Y-78900000I100000J0D01*
G01*
X118875000Y-78900000D01*
G75*
G02*
X118975000Y-79000000I0J-100000D01*
G01*
X118975000Y-80275000D01*
G75*
G02*
X118875000Y-80375000I-100000J0D01*
G01*
G37*
G36*
G01*
X118875000Y-86100000D02*
X118675000Y-86100000D01*
G75*
G02*
X118575000Y-86000000I0J100000D01*
G01*
X118575000Y-84725000D01*
G75*
G02*
X118675000Y-84625000I100000J0D01*
G01*
X118875000Y-84625000D01*
G75*
G02*
X118975000Y-84725000I0J-100000D01*
G01*
X118975000Y-86000000D01*
G75*
G02*
X118875000Y-86100000I-100000J0D01*
G01*
G37*
G36*
G01*
X118225000Y-86100000D02*
X118025000Y-86100000D01*
G75*
G02*
X117925000Y-86000000I0J100000D01*
G01*
X117925000Y-84725000D01*
G75*
G02*
X118025000Y-84625000I100000J0D01*
G01*
X118225000Y-84625000D01*
G75*
G02*
X118325000Y-84725000I0J-100000D01*
G01*
X118325000Y-86000000D01*
G75*
G02*
X118225000Y-86100000I-100000J0D01*
G01*
G37*
G36*
G01*
X117575000Y-86100000D02*
X117375000Y-86100000D01*
G75*
G02*
X117275000Y-86000000I0J100000D01*
G01*
X117275000Y-84725000D01*
G75*
G02*
X117375000Y-84625000I100000J0D01*
G01*
X117575000Y-84625000D01*
G75*
G02*
X117675000Y-84725000I0J-100000D01*
G01*
X117675000Y-86000000D01*
G75*
G02*
X117575000Y-86100000I-100000J0D01*
G01*
G37*
G36*
G01*
X116925000Y-86100000D02*
X116725000Y-86100000D01*
G75*
G02*
X116625000Y-86000000I0J100000D01*
G01*
X116625000Y-84725000D01*
G75*
G02*
X116725000Y-84625000I100000J0D01*
G01*
X116925000Y-84625000D01*
G75*
G02*
X117025000Y-84725000I0J-100000D01*
G01*
X117025000Y-86000000D01*
G75*
G02*
X116925000Y-86100000I-100000J0D01*
G01*
G37*
G36*
G01*
X116275000Y-86100000D02*
X116075000Y-86100000D01*
G75*
G02*
X115975000Y-86000000I0J100000D01*
G01*
X115975000Y-84725000D01*
G75*
G02*
X116075000Y-84625000I100000J0D01*
G01*
X116275000Y-84625000D01*
G75*
G02*
X116375000Y-84725000I0J-100000D01*
G01*
X116375000Y-86000000D01*
G75*
G02*
X116275000Y-86100000I-100000J0D01*
G01*
G37*
G36*
G01*
X115625000Y-86100000D02*
X115425000Y-86100000D01*
G75*
G02*
X115325000Y-86000000I0J100000D01*
G01*
X115325000Y-84725000D01*
G75*
G02*
X115425000Y-84625000I100000J0D01*
G01*
X115625000Y-84625000D01*
G75*
G02*
X115725000Y-84725000I0J-100000D01*
G01*
X115725000Y-86000000D01*
G75*
G02*
X115625000Y-86100000I-100000J0D01*
G01*
G37*
G36*
G01*
X114975000Y-86100000D02*
X114775000Y-86100000D01*
G75*
G02*
X114675000Y-86000000I0J100000D01*
G01*
X114675000Y-84725000D01*
G75*
G02*
X114775000Y-84625000I100000J0D01*
G01*
X114975000Y-84625000D01*
G75*
G02*
X115075000Y-84725000I0J-100000D01*
G01*
X115075000Y-86000000D01*
G75*
G02*
X114975000Y-86100000I-100000J0D01*
G01*
G37*
G36*
G01*
X114325000Y-86100000D02*
X114125000Y-86100000D01*
G75*
G02*
X114025000Y-86000000I0J100000D01*
G01*
X114025000Y-84725000D01*
G75*
G02*
X114125000Y-84625000I100000J0D01*
G01*
X114325000Y-84625000D01*
G75*
G02*
X114425000Y-84725000I0J-100000D01*
G01*
X114425000Y-86000000D01*
G75*
G02*
X114325000Y-86100000I-100000J0D01*
G01*
G37*
G36*
G01*
X120575000Y-80375000D02*
X120375000Y-80375000D01*
G75*
G02*
X120275000Y-80275000I0J100000D01*
G01*
X120275000Y-79000000D01*
G75*
G02*
X120375000Y-78900000I100000J0D01*
G01*
X120575000Y-78900000D01*
G75*
G02*
X120675000Y-79000000I0J-100000D01*
G01*
X120675000Y-80275000D01*
G75*
G02*
X120575000Y-80375000I-100000J0D01*
G01*
G37*
G36*
G01*
X121225000Y-80375000D02*
X121025000Y-80375000D01*
G75*
G02*
X120925000Y-80275000I0J100000D01*
G01*
X120925000Y-79000000D01*
G75*
G02*
X121025000Y-78900000I100000J0D01*
G01*
X121225000Y-78900000D01*
G75*
G02*
X121325000Y-79000000I0J-100000D01*
G01*
X121325000Y-80275000D01*
G75*
G02*
X121225000Y-80375000I-100000J0D01*
G01*
G37*
G36*
G01*
X121875000Y-80375000D02*
X121675000Y-80375000D01*
G75*
G02*
X121575000Y-80275000I0J100000D01*
G01*
X121575000Y-79000000D01*
G75*
G02*
X121675000Y-78900000I100000J0D01*
G01*
X121875000Y-78900000D01*
G75*
G02*
X121975000Y-79000000I0J-100000D01*
G01*
X121975000Y-80275000D01*
G75*
G02*
X121875000Y-80375000I-100000J0D01*
G01*
G37*
G36*
G01*
X122525000Y-80375000D02*
X122325000Y-80375000D01*
G75*
G02*
X122225000Y-80275000I0J100000D01*
G01*
X122225000Y-79000000D01*
G75*
G02*
X122325000Y-78900000I100000J0D01*
G01*
X122525000Y-78900000D01*
G75*
G02*
X122625000Y-79000000I0J-100000D01*
G01*
X122625000Y-80275000D01*
G75*
G02*
X122525000Y-80375000I-100000J0D01*
G01*
G37*
G36*
G01*
X123175000Y-80375000D02*
X122975000Y-80375000D01*
G75*
G02*
X122875000Y-80275000I0J100000D01*
G01*
X122875000Y-79000000D01*
G75*
G02*
X122975000Y-78900000I100000J0D01*
G01*
X123175000Y-78900000D01*
G75*
G02*
X123275000Y-79000000I0J-100000D01*
G01*
X123275000Y-80275000D01*
G75*
G02*
X123175000Y-80375000I-100000J0D01*
G01*
G37*
G36*
G01*
X123825000Y-80375000D02*
X123625000Y-80375000D01*
G75*
G02*
X123525000Y-80275000I0J100000D01*
G01*
X123525000Y-79000000D01*
G75*
G02*
X123625000Y-78900000I100000J0D01*
G01*
X123825000Y-78900000D01*
G75*
G02*
X123925000Y-79000000I0J-100000D01*
G01*
X123925000Y-80275000D01*
G75*
G02*
X123825000Y-80375000I-100000J0D01*
G01*
G37*
G36*
G01*
X124475000Y-80375000D02*
X124275000Y-80375000D01*
G75*
G02*
X124175000Y-80275000I0J100000D01*
G01*
X124175000Y-79000000D01*
G75*
G02*
X124275000Y-78900000I100000J0D01*
G01*
X124475000Y-78900000D01*
G75*
G02*
X124575000Y-79000000I0J-100000D01*
G01*
X124575000Y-80275000D01*
G75*
G02*
X124475000Y-80375000I-100000J0D01*
G01*
G37*
G36*
G01*
X125125000Y-80375000D02*
X124925000Y-80375000D01*
G75*
G02*
X124825000Y-80275000I0J100000D01*
G01*
X124825000Y-79000000D01*
G75*
G02*
X124925000Y-78900000I100000J0D01*
G01*
X125125000Y-78900000D01*
G75*
G02*
X125225000Y-79000000I0J-100000D01*
G01*
X125225000Y-80275000D01*
G75*
G02*
X125125000Y-80375000I-100000J0D01*
G01*
G37*
G36*
G01*
X125125000Y-86100000D02*
X124925000Y-86100000D01*
G75*
G02*
X124825000Y-86000000I0J100000D01*
G01*
X124825000Y-84725000D01*
G75*
G02*
X124925000Y-84625000I100000J0D01*
G01*
X125125000Y-84625000D01*
G75*
G02*
X125225000Y-84725000I0J-100000D01*
G01*
X125225000Y-86000000D01*
G75*
G02*
X125125000Y-86100000I-100000J0D01*
G01*
G37*
G36*
G01*
X124475000Y-86100000D02*
X124275000Y-86100000D01*
G75*
G02*
X124175000Y-86000000I0J100000D01*
G01*
X124175000Y-84725000D01*
G75*
G02*
X124275000Y-84625000I100000J0D01*
G01*
X124475000Y-84625000D01*
G75*
G02*
X124575000Y-84725000I0J-100000D01*
G01*
X124575000Y-86000000D01*
G75*
G02*
X124475000Y-86100000I-100000J0D01*
G01*
G37*
G36*
G01*
X123825000Y-86100000D02*
X123625000Y-86100000D01*
G75*
G02*
X123525000Y-86000000I0J100000D01*
G01*
X123525000Y-84725000D01*
G75*
G02*
X123625000Y-84625000I100000J0D01*
G01*
X123825000Y-84625000D01*
G75*
G02*
X123925000Y-84725000I0J-100000D01*
G01*
X123925000Y-86000000D01*
G75*
G02*
X123825000Y-86100000I-100000J0D01*
G01*
G37*
G36*
G01*
X123175000Y-86100000D02*
X122975000Y-86100000D01*
G75*
G02*
X122875000Y-86000000I0J100000D01*
G01*
X122875000Y-84725000D01*
G75*
G02*
X122975000Y-84625000I100000J0D01*
G01*
X123175000Y-84625000D01*
G75*
G02*
X123275000Y-84725000I0J-100000D01*
G01*
X123275000Y-86000000D01*
G75*
G02*
X123175000Y-86100000I-100000J0D01*
G01*
G37*
G36*
G01*
X122525000Y-86100000D02*
X122325000Y-86100000D01*
G75*
G02*
X122225000Y-86000000I0J100000D01*
G01*
X122225000Y-84725000D01*
G75*
G02*
X122325000Y-84625000I100000J0D01*
G01*
X122525000Y-84625000D01*
G75*
G02*
X122625000Y-84725000I0J-100000D01*
G01*
X122625000Y-86000000D01*
G75*
G02*
X122525000Y-86100000I-100000J0D01*
G01*
G37*
G36*
G01*
X121875000Y-86100000D02*
X121675000Y-86100000D01*
G75*
G02*
X121575000Y-86000000I0J100000D01*
G01*
X121575000Y-84725000D01*
G75*
G02*
X121675000Y-84625000I100000J0D01*
G01*
X121875000Y-84625000D01*
G75*
G02*
X121975000Y-84725000I0J-100000D01*
G01*
X121975000Y-86000000D01*
G75*
G02*
X121875000Y-86100000I-100000J0D01*
G01*
G37*
G36*
G01*
X121225000Y-86100000D02*
X121025000Y-86100000D01*
G75*
G02*
X120925000Y-86000000I0J100000D01*
G01*
X120925000Y-84725000D01*
G75*
G02*
X121025000Y-84625000I100000J0D01*
G01*
X121225000Y-84625000D01*
G75*
G02*
X121325000Y-84725000I0J-100000D01*
G01*
X121325000Y-86000000D01*
G75*
G02*
X121225000Y-86100000I-100000J0D01*
G01*
G37*
G36*
G01*
X120575000Y-86100000D02*
X120375000Y-86100000D01*
G75*
G02*
X120275000Y-86000000I0J100000D01*
G01*
X120275000Y-84725000D01*
G75*
G02*
X120375000Y-84625000I100000J0D01*
G01*
X120575000Y-84625000D01*
G75*
G02*
X120675000Y-84725000I0J-100000D01*
G01*
X120675000Y-86000000D01*
G75*
G02*
X120575000Y-86100000I-100000J0D01*
G01*
G37*
G36*
G01*
X146571100Y-80878600D02*
X146271100Y-80878600D01*
G75*
G02*
X146121100Y-80728600I0J150000D01*
G01*
X146121100Y-78978600D01*
G75*
G02*
X146271100Y-78828600I150000J0D01*
G01*
X146571100Y-78828600D01*
G75*
G02*
X146721100Y-78978600I0J-150000D01*
G01*
X146721100Y-80728600D01*
G75*
G02*
X146571100Y-80878600I-150000J0D01*
G01*
G37*
G36*
G01*
X147841100Y-80878600D02*
X147541100Y-80878600D01*
G75*
G02*
X147391100Y-80728600I0J150000D01*
G01*
X147391100Y-78978600D01*
G75*
G02*
X147541100Y-78828600I150000J0D01*
G01*
X147841100Y-78828600D01*
G75*
G02*
X147991100Y-78978600I0J-150000D01*
G01*
X147991100Y-80728600D01*
G75*
G02*
X147841100Y-80878600I-150000J0D01*
G01*
G37*
G36*
G01*
X149111100Y-80878600D02*
X148811100Y-80878600D01*
G75*
G02*
X148661100Y-80728600I0J150000D01*
G01*
X148661100Y-78978600D01*
G75*
G02*
X148811100Y-78828600I150000J0D01*
G01*
X149111100Y-78828600D01*
G75*
G02*
X149261100Y-78978600I0J-150000D01*
G01*
X149261100Y-80728600D01*
G75*
G02*
X149111100Y-80878600I-150000J0D01*
G01*
G37*
G36*
G01*
X150381100Y-80878600D02*
X150081100Y-80878600D01*
G75*
G02*
X149931100Y-80728600I0J150000D01*
G01*
X149931100Y-78978600D01*
G75*
G02*
X150081100Y-78828600I150000J0D01*
G01*
X150381100Y-78828600D01*
G75*
G02*
X150531100Y-78978600I0J-150000D01*
G01*
X150531100Y-80728600D01*
G75*
G02*
X150381100Y-80878600I-150000J0D01*
G01*
G37*
G36*
G01*
X151651100Y-80878600D02*
X151351100Y-80878600D01*
G75*
G02*
X151201100Y-80728600I0J150000D01*
G01*
X151201100Y-78978600D01*
G75*
G02*
X151351100Y-78828600I150000J0D01*
G01*
X151651100Y-78828600D01*
G75*
G02*
X151801100Y-78978600I0J-150000D01*
G01*
X151801100Y-80728600D01*
G75*
G02*
X151651100Y-80878600I-150000J0D01*
G01*
G37*
G36*
G01*
X152921100Y-80878600D02*
X152621100Y-80878600D01*
G75*
G02*
X152471100Y-80728600I0J150000D01*
G01*
X152471100Y-78978600D01*
G75*
G02*
X152621100Y-78828600I150000J0D01*
G01*
X152921100Y-78828600D01*
G75*
G02*
X153071100Y-78978600I0J-150000D01*
G01*
X153071100Y-80728600D01*
G75*
G02*
X152921100Y-80878600I-150000J0D01*
G01*
G37*
G36*
G01*
X154191100Y-80878600D02*
X153891100Y-80878600D01*
G75*
G02*
X153741100Y-80728600I0J150000D01*
G01*
X153741100Y-78978600D01*
G75*
G02*
X153891100Y-78828600I150000J0D01*
G01*
X154191100Y-78828600D01*
G75*
G02*
X154341100Y-78978600I0J-150000D01*
G01*
X154341100Y-80728600D01*
G75*
G02*
X154191100Y-80878600I-150000J0D01*
G01*
G37*
G36*
G01*
X155461100Y-80878600D02*
X155161100Y-80878600D01*
G75*
G02*
X155011100Y-80728600I0J150000D01*
G01*
X155011100Y-78978600D01*
G75*
G02*
X155161100Y-78828600I150000J0D01*
G01*
X155461100Y-78828600D01*
G75*
G02*
X155611100Y-78978600I0J-150000D01*
G01*
X155611100Y-80728600D01*
G75*
G02*
X155461100Y-80878600I-150000J0D01*
G01*
G37*
G36*
G01*
X156731100Y-80878600D02*
X156431100Y-80878600D01*
G75*
G02*
X156281100Y-80728600I0J150000D01*
G01*
X156281100Y-78978600D01*
G75*
G02*
X156431100Y-78828600I150000J0D01*
G01*
X156731100Y-78828600D01*
G75*
G02*
X156881100Y-78978600I0J-150000D01*
G01*
X156881100Y-80728600D01*
G75*
G02*
X156731100Y-80878600I-150000J0D01*
G01*
G37*
G36*
G01*
X156731100Y-90178600D02*
X156431100Y-90178600D01*
G75*
G02*
X156281100Y-90028600I0J150000D01*
G01*
X156281100Y-88278600D01*
G75*
G02*
X156431100Y-88128600I150000J0D01*
G01*
X156731100Y-88128600D01*
G75*
G02*
X156881100Y-88278600I0J-150000D01*
G01*
X156881100Y-90028600D01*
G75*
G02*
X156731100Y-90178600I-150000J0D01*
G01*
G37*
G36*
G01*
X155461100Y-90178600D02*
X155161100Y-90178600D01*
G75*
G02*
X155011100Y-90028600I0J150000D01*
G01*
X155011100Y-88278600D01*
G75*
G02*
X155161100Y-88128600I150000J0D01*
G01*
X155461100Y-88128600D01*
G75*
G02*
X155611100Y-88278600I0J-150000D01*
G01*
X155611100Y-90028600D01*
G75*
G02*
X155461100Y-90178600I-150000J0D01*
G01*
G37*
G36*
G01*
X154191100Y-90178600D02*
X153891100Y-90178600D01*
G75*
G02*
X153741100Y-90028600I0J150000D01*
G01*
X153741100Y-88278600D01*
G75*
G02*
X153891100Y-88128600I150000J0D01*
G01*
X154191100Y-88128600D01*
G75*
G02*
X154341100Y-88278600I0J-150000D01*
G01*
X154341100Y-90028600D01*
G75*
G02*
X154191100Y-90178600I-150000J0D01*
G01*
G37*
G36*
G01*
X152921100Y-90178600D02*
X152621100Y-90178600D01*
G75*
G02*
X152471100Y-90028600I0J150000D01*
G01*
X152471100Y-88278600D01*
G75*
G02*
X152621100Y-88128600I150000J0D01*
G01*
X152921100Y-88128600D01*
G75*
G02*
X153071100Y-88278600I0J-150000D01*
G01*
X153071100Y-90028600D01*
G75*
G02*
X152921100Y-90178600I-150000J0D01*
G01*
G37*
G36*
G01*
X151651100Y-90178600D02*
X151351100Y-90178600D01*
G75*
G02*
X151201100Y-90028600I0J150000D01*
G01*
X151201100Y-88278600D01*
G75*
G02*
X151351100Y-88128600I150000J0D01*
G01*
X151651100Y-88128600D01*
G75*
G02*
X151801100Y-88278600I0J-150000D01*
G01*
X151801100Y-90028600D01*
G75*
G02*
X151651100Y-90178600I-150000J0D01*
G01*
G37*
G36*
G01*
X150381100Y-90178600D02*
X150081100Y-90178600D01*
G75*
G02*
X149931100Y-90028600I0J150000D01*
G01*
X149931100Y-88278600D01*
G75*
G02*
X150081100Y-88128600I150000J0D01*
G01*
X150381100Y-88128600D01*
G75*
G02*
X150531100Y-88278600I0J-150000D01*
G01*
X150531100Y-90028600D01*
G75*
G02*
X150381100Y-90178600I-150000J0D01*
G01*
G37*
G36*
G01*
X149111100Y-90178600D02*
X148811100Y-90178600D01*
G75*
G02*
X148661100Y-90028600I0J150000D01*
G01*
X148661100Y-88278600D01*
G75*
G02*
X148811100Y-88128600I150000J0D01*
G01*
X149111100Y-88128600D01*
G75*
G02*
X149261100Y-88278600I0J-150000D01*
G01*
X149261100Y-90028600D01*
G75*
G02*
X149111100Y-90178600I-150000J0D01*
G01*
G37*
G36*
G01*
X147841100Y-90178600D02*
X147541100Y-90178600D01*
G75*
G02*
X147391100Y-90028600I0J150000D01*
G01*
X147391100Y-88278600D01*
G75*
G02*
X147541100Y-88128600I150000J0D01*
G01*
X147841100Y-88128600D01*
G75*
G02*
X147991100Y-88278600I0J-150000D01*
G01*
X147991100Y-90028600D01*
G75*
G02*
X147841100Y-90178600I-150000J0D01*
G01*
G37*
G36*
G01*
X146571100Y-90178600D02*
X146271100Y-90178600D01*
G75*
G02*
X146121100Y-90028600I0J150000D01*
G01*
X146121100Y-88278600D01*
G75*
G02*
X146271100Y-88128600I150000J0D01*
G01*
X146571100Y-88128600D01*
G75*
G02*
X146721100Y-88278600I0J-150000D01*
G01*
X146721100Y-90028600D01*
G75*
G02*
X146571100Y-90178600I-150000J0D01*
G01*
G37*
G36*
G01*
X159571100Y-80878600D02*
X159271100Y-80878600D01*
G75*
G02*
X159121100Y-80728600I0J150000D01*
G01*
X159121100Y-78978600D01*
G75*
G02*
X159271100Y-78828600I150000J0D01*
G01*
X159571100Y-78828600D01*
G75*
G02*
X159721100Y-78978600I0J-150000D01*
G01*
X159721100Y-80728600D01*
G75*
G02*
X159571100Y-80878600I-150000J0D01*
G01*
G37*
G36*
G01*
X160841100Y-80878600D02*
X160541100Y-80878600D01*
G75*
G02*
X160391100Y-80728600I0J150000D01*
G01*
X160391100Y-78978600D01*
G75*
G02*
X160541100Y-78828600I150000J0D01*
G01*
X160841100Y-78828600D01*
G75*
G02*
X160991100Y-78978600I0J-150000D01*
G01*
X160991100Y-80728600D01*
G75*
G02*
X160841100Y-80878600I-150000J0D01*
G01*
G37*
G36*
G01*
X162111100Y-80878600D02*
X161811100Y-80878600D01*
G75*
G02*
X161661100Y-80728600I0J150000D01*
G01*
X161661100Y-78978600D01*
G75*
G02*
X161811100Y-78828600I150000J0D01*
G01*
X162111100Y-78828600D01*
G75*
G02*
X162261100Y-78978600I0J-150000D01*
G01*
X162261100Y-80728600D01*
G75*
G02*
X162111100Y-80878600I-150000J0D01*
G01*
G37*
G36*
G01*
X163381100Y-80878600D02*
X163081100Y-80878600D01*
G75*
G02*
X162931100Y-80728600I0J150000D01*
G01*
X162931100Y-78978600D01*
G75*
G02*
X163081100Y-78828600I150000J0D01*
G01*
X163381100Y-78828600D01*
G75*
G02*
X163531100Y-78978600I0J-150000D01*
G01*
X163531100Y-80728600D01*
G75*
G02*
X163381100Y-80878600I-150000J0D01*
G01*
G37*
G36*
G01*
X164651100Y-80878600D02*
X164351100Y-80878600D01*
G75*
G02*
X164201100Y-80728600I0J150000D01*
G01*
X164201100Y-78978600D01*
G75*
G02*
X164351100Y-78828600I150000J0D01*
G01*
X164651100Y-78828600D01*
G75*
G02*
X164801100Y-78978600I0J-150000D01*
G01*
X164801100Y-80728600D01*
G75*
G02*
X164651100Y-80878600I-150000J0D01*
G01*
G37*
G36*
G01*
X165921100Y-80878600D02*
X165621100Y-80878600D01*
G75*
G02*
X165471100Y-80728600I0J150000D01*
G01*
X165471100Y-78978600D01*
G75*
G02*
X165621100Y-78828600I150000J0D01*
G01*
X165921100Y-78828600D01*
G75*
G02*
X166071100Y-78978600I0J-150000D01*
G01*
X166071100Y-80728600D01*
G75*
G02*
X165921100Y-80878600I-150000J0D01*
G01*
G37*
G36*
G01*
X167191100Y-80878600D02*
X166891100Y-80878600D01*
G75*
G02*
X166741100Y-80728600I0J150000D01*
G01*
X166741100Y-78978600D01*
G75*
G02*
X166891100Y-78828600I150000J0D01*
G01*
X167191100Y-78828600D01*
G75*
G02*
X167341100Y-78978600I0J-150000D01*
G01*
X167341100Y-80728600D01*
G75*
G02*
X167191100Y-80878600I-150000J0D01*
G01*
G37*
G36*
G01*
X168461100Y-80878600D02*
X168161100Y-80878600D01*
G75*
G02*
X168011100Y-80728600I0J150000D01*
G01*
X168011100Y-78978600D01*
G75*
G02*
X168161100Y-78828600I150000J0D01*
G01*
X168461100Y-78828600D01*
G75*
G02*
X168611100Y-78978600I0J-150000D01*
G01*
X168611100Y-80728600D01*
G75*
G02*
X168461100Y-80878600I-150000J0D01*
G01*
G37*
G36*
G01*
X169731100Y-80878600D02*
X169431100Y-80878600D01*
G75*
G02*
X169281100Y-80728600I0J150000D01*
G01*
X169281100Y-78978600D01*
G75*
G02*
X169431100Y-78828600I150000J0D01*
G01*
X169731100Y-78828600D01*
G75*
G02*
X169881100Y-78978600I0J-150000D01*
G01*
X169881100Y-80728600D01*
G75*
G02*
X169731100Y-80878600I-150000J0D01*
G01*
G37*
G36*
G01*
X169731100Y-90178600D02*
X169431100Y-90178600D01*
G75*
G02*
X169281100Y-90028600I0J150000D01*
G01*
X169281100Y-88278600D01*
G75*
G02*
X169431100Y-88128600I150000J0D01*
G01*
X169731100Y-88128600D01*
G75*
G02*
X169881100Y-88278600I0J-150000D01*
G01*
X169881100Y-90028600D01*
G75*
G02*
X169731100Y-90178600I-150000J0D01*
G01*
G37*
G36*
G01*
X168461100Y-90178600D02*
X168161100Y-90178600D01*
G75*
G02*
X168011100Y-90028600I0J150000D01*
G01*
X168011100Y-88278600D01*
G75*
G02*
X168161100Y-88128600I150000J0D01*
G01*
X168461100Y-88128600D01*
G75*
G02*
X168611100Y-88278600I0J-150000D01*
G01*
X168611100Y-90028600D01*
G75*
G02*
X168461100Y-90178600I-150000J0D01*
G01*
G37*
G36*
G01*
X167191100Y-90178600D02*
X166891100Y-90178600D01*
G75*
G02*
X166741100Y-90028600I0J150000D01*
G01*
X166741100Y-88278600D01*
G75*
G02*
X166891100Y-88128600I150000J0D01*
G01*
X167191100Y-88128600D01*
G75*
G02*
X167341100Y-88278600I0J-150000D01*
G01*
X167341100Y-90028600D01*
G75*
G02*
X167191100Y-90178600I-150000J0D01*
G01*
G37*
G36*
G01*
X165921100Y-90178600D02*
X165621100Y-90178600D01*
G75*
G02*
X165471100Y-90028600I0J150000D01*
G01*
X165471100Y-88278600D01*
G75*
G02*
X165621100Y-88128600I150000J0D01*
G01*
X165921100Y-88128600D01*
G75*
G02*
X166071100Y-88278600I0J-150000D01*
G01*
X166071100Y-90028600D01*
G75*
G02*
X165921100Y-90178600I-150000J0D01*
G01*
G37*
G36*
G01*
X164651100Y-90178600D02*
X164351100Y-90178600D01*
G75*
G02*
X164201100Y-90028600I0J150000D01*
G01*
X164201100Y-88278600D01*
G75*
G02*
X164351100Y-88128600I150000J0D01*
G01*
X164651100Y-88128600D01*
G75*
G02*
X164801100Y-88278600I0J-150000D01*
G01*
X164801100Y-90028600D01*
G75*
G02*
X164651100Y-90178600I-150000J0D01*
G01*
G37*
G36*
G01*
X163381100Y-90178600D02*
X163081100Y-90178600D01*
G75*
G02*
X162931100Y-90028600I0J150000D01*
G01*
X162931100Y-88278600D01*
G75*
G02*
X163081100Y-88128600I150000J0D01*
G01*
X163381100Y-88128600D01*
G75*
G02*
X163531100Y-88278600I0J-150000D01*
G01*
X163531100Y-90028600D01*
G75*
G02*
X163381100Y-90178600I-150000J0D01*
G01*
G37*
G36*
G01*
X162111100Y-90178600D02*
X161811100Y-90178600D01*
G75*
G02*
X161661100Y-90028600I0J150000D01*
G01*
X161661100Y-88278600D01*
G75*
G02*
X161811100Y-88128600I150000J0D01*
G01*
X162111100Y-88128600D01*
G75*
G02*
X162261100Y-88278600I0J-150000D01*
G01*
X162261100Y-90028600D01*
G75*
G02*
X162111100Y-90178600I-150000J0D01*
G01*
G37*
G36*
G01*
X160841100Y-90178600D02*
X160541100Y-90178600D01*
G75*
G02*
X160391100Y-90028600I0J150000D01*
G01*
X160391100Y-88278600D01*
G75*
G02*
X160541100Y-88128600I150000J0D01*
G01*
X160841100Y-88128600D01*
G75*
G02*
X160991100Y-88278600I0J-150000D01*
G01*
X160991100Y-90028600D01*
G75*
G02*
X160841100Y-90178600I-150000J0D01*
G01*
G37*
G36*
G01*
X159571100Y-90178600D02*
X159271100Y-90178600D01*
G75*
G02*
X159121100Y-90028600I0J150000D01*
G01*
X159121100Y-88278600D01*
G75*
G02*
X159271100Y-88128600I150000J0D01*
G01*
X159571100Y-88128600D01*
G75*
G02*
X159721100Y-88278600I0J-150000D01*
G01*
X159721100Y-90028600D01*
G75*
G02*
X159571100Y-90178600I-150000J0D01*
G01*
G37*
G36*
G01*
X172571100Y-80878600D02*
X172271100Y-80878600D01*
G75*
G02*
X172121100Y-80728600I0J150000D01*
G01*
X172121100Y-78978600D01*
G75*
G02*
X172271100Y-78828600I150000J0D01*
G01*
X172571100Y-78828600D01*
G75*
G02*
X172721100Y-78978600I0J-150000D01*
G01*
X172721100Y-80728600D01*
G75*
G02*
X172571100Y-80878600I-150000J0D01*
G01*
G37*
G36*
G01*
X173841100Y-80878600D02*
X173541100Y-80878600D01*
G75*
G02*
X173391100Y-80728600I0J150000D01*
G01*
X173391100Y-78978600D01*
G75*
G02*
X173541100Y-78828600I150000J0D01*
G01*
X173841100Y-78828600D01*
G75*
G02*
X173991100Y-78978600I0J-150000D01*
G01*
X173991100Y-80728600D01*
G75*
G02*
X173841100Y-80878600I-150000J0D01*
G01*
G37*
G36*
G01*
X175111100Y-80878600D02*
X174811100Y-80878600D01*
G75*
G02*
X174661100Y-80728600I0J150000D01*
G01*
X174661100Y-78978600D01*
G75*
G02*
X174811100Y-78828600I150000J0D01*
G01*
X175111100Y-78828600D01*
G75*
G02*
X175261100Y-78978600I0J-150000D01*
G01*
X175261100Y-80728600D01*
G75*
G02*
X175111100Y-80878600I-150000J0D01*
G01*
G37*
G36*
G01*
X176381100Y-80878600D02*
X176081100Y-80878600D01*
G75*
G02*
X175931100Y-80728600I0J150000D01*
G01*
X175931100Y-78978600D01*
G75*
G02*
X176081100Y-78828600I150000J0D01*
G01*
X176381100Y-78828600D01*
G75*
G02*
X176531100Y-78978600I0J-150000D01*
G01*
X176531100Y-80728600D01*
G75*
G02*
X176381100Y-80878600I-150000J0D01*
G01*
G37*
G36*
G01*
X177651100Y-80878600D02*
X177351100Y-80878600D01*
G75*
G02*
X177201100Y-80728600I0J150000D01*
G01*
X177201100Y-78978600D01*
G75*
G02*
X177351100Y-78828600I150000J0D01*
G01*
X177651100Y-78828600D01*
G75*
G02*
X177801100Y-78978600I0J-150000D01*
G01*
X177801100Y-80728600D01*
G75*
G02*
X177651100Y-80878600I-150000J0D01*
G01*
G37*
G36*
G01*
X178921100Y-80878600D02*
X178621100Y-80878600D01*
G75*
G02*
X178471100Y-80728600I0J150000D01*
G01*
X178471100Y-78978600D01*
G75*
G02*
X178621100Y-78828600I150000J0D01*
G01*
X178921100Y-78828600D01*
G75*
G02*
X179071100Y-78978600I0J-150000D01*
G01*
X179071100Y-80728600D01*
G75*
G02*
X178921100Y-80878600I-150000J0D01*
G01*
G37*
G36*
G01*
X180191100Y-80878600D02*
X179891100Y-80878600D01*
G75*
G02*
X179741100Y-80728600I0J150000D01*
G01*
X179741100Y-78978600D01*
G75*
G02*
X179891100Y-78828600I150000J0D01*
G01*
X180191100Y-78828600D01*
G75*
G02*
X180341100Y-78978600I0J-150000D01*
G01*
X180341100Y-80728600D01*
G75*
G02*
X180191100Y-80878600I-150000J0D01*
G01*
G37*
G36*
G01*
X181461100Y-80878600D02*
X181161100Y-80878600D01*
G75*
G02*
X181011100Y-80728600I0J150000D01*
G01*
X181011100Y-78978600D01*
G75*
G02*
X181161100Y-78828600I150000J0D01*
G01*
X181461100Y-78828600D01*
G75*
G02*
X181611100Y-78978600I0J-150000D01*
G01*
X181611100Y-80728600D01*
G75*
G02*
X181461100Y-80878600I-150000J0D01*
G01*
G37*
G36*
G01*
X182731100Y-80878600D02*
X182431100Y-80878600D01*
G75*
G02*
X182281100Y-80728600I0J150000D01*
G01*
X182281100Y-78978600D01*
G75*
G02*
X182431100Y-78828600I150000J0D01*
G01*
X182731100Y-78828600D01*
G75*
G02*
X182881100Y-78978600I0J-150000D01*
G01*
X182881100Y-80728600D01*
G75*
G02*
X182731100Y-80878600I-150000J0D01*
G01*
G37*
G36*
G01*
X182731100Y-90178600D02*
X182431100Y-90178600D01*
G75*
G02*
X182281100Y-90028600I0J150000D01*
G01*
X182281100Y-88278600D01*
G75*
G02*
X182431100Y-88128600I150000J0D01*
G01*
X182731100Y-88128600D01*
G75*
G02*
X182881100Y-88278600I0J-150000D01*
G01*
X182881100Y-90028600D01*
G75*
G02*
X182731100Y-90178600I-150000J0D01*
G01*
G37*
G36*
G01*
X181461100Y-90178600D02*
X181161100Y-90178600D01*
G75*
G02*
X181011100Y-90028600I0J150000D01*
G01*
X181011100Y-88278600D01*
G75*
G02*
X181161100Y-88128600I150000J0D01*
G01*
X181461100Y-88128600D01*
G75*
G02*
X181611100Y-88278600I0J-150000D01*
G01*
X181611100Y-90028600D01*
G75*
G02*
X181461100Y-90178600I-150000J0D01*
G01*
G37*
G36*
G01*
X180191100Y-90178600D02*
X179891100Y-90178600D01*
G75*
G02*
X179741100Y-90028600I0J150000D01*
G01*
X179741100Y-88278600D01*
G75*
G02*
X179891100Y-88128600I150000J0D01*
G01*
X180191100Y-88128600D01*
G75*
G02*
X180341100Y-88278600I0J-150000D01*
G01*
X180341100Y-90028600D01*
G75*
G02*
X180191100Y-90178600I-150000J0D01*
G01*
G37*
G36*
G01*
X178921100Y-90178600D02*
X178621100Y-90178600D01*
G75*
G02*
X178471100Y-90028600I0J150000D01*
G01*
X178471100Y-88278600D01*
G75*
G02*
X178621100Y-88128600I150000J0D01*
G01*
X178921100Y-88128600D01*
G75*
G02*
X179071100Y-88278600I0J-150000D01*
G01*
X179071100Y-90028600D01*
G75*
G02*
X178921100Y-90178600I-150000J0D01*
G01*
G37*
G36*
G01*
X177651100Y-90178600D02*
X177351100Y-90178600D01*
G75*
G02*
X177201100Y-90028600I0J150000D01*
G01*
X177201100Y-88278600D01*
G75*
G02*
X177351100Y-88128600I150000J0D01*
G01*
X177651100Y-88128600D01*
G75*
G02*
X177801100Y-88278600I0J-150000D01*
G01*
X177801100Y-90028600D01*
G75*
G02*
X177651100Y-90178600I-150000J0D01*
G01*
G37*
G36*
G01*
X176381100Y-90178600D02*
X176081100Y-90178600D01*
G75*
G02*
X175931100Y-90028600I0J150000D01*
G01*
X175931100Y-88278600D01*
G75*
G02*
X176081100Y-88128600I150000J0D01*
G01*
X176381100Y-88128600D01*
G75*
G02*
X176531100Y-88278600I0J-150000D01*
G01*
X176531100Y-90028600D01*
G75*
G02*
X176381100Y-90178600I-150000J0D01*
G01*
G37*
G36*
G01*
X175111100Y-90178600D02*
X174811100Y-90178600D01*
G75*
G02*
X174661100Y-90028600I0J150000D01*
G01*
X174661100Y-88278600D01*
G75*
G02*
X174811100Y-88128600I150000J0D01*
G01*
X175111100Y-88128600D01*
G75*
G02*
X175261100Y-88278600I0J-150000D01*
G01*
X175261100Y-90028600D01*
G75*
G02*
X175111100Y-90178600I-150000J0D01*
G01*
G37*
G36*
G01*
X173841100Y-90178600D02*
X173541100Y-90178600D01*
G75*
G02*
X173391100Y-90028600I0J150000D01*
G01*
X173391100Y-88278600D01*
G75*
G02*
X173541100Y-88128600I150000J0D01*
G01*
X173841100Y-88128600D01*
G75*
G02*
X173991100Y-88278600I0J-150000D01*
G01*
X173991100Y-90028600D01*
G75*
G02*
X173841100Y-90178600I-150000J0D01*
G01*
G37*
G36*
G01*
X172571100Y-90178600D02*
X172271100Y-90178600D01*
G75*
G02*
X172121100Y-90028600I0J150000D01*
G01*
X172121100Y-88278600D01*
G75*
G02*
X172271100Y-88128600I150000J0D01*
G01*
X172571100Y-88128600D01*
G75*
G02*
X172721100Y-88278600I0J-150000D01*
G01*
X172721100Y-90028600D01*
G75*
G02*
X172571100Y-90178600I-150000J0D01*
G01*
G37*
G36*
G01*
X152175000Y-96875000D02*
X152375000Y-96875000D01*
G75*
G02*
X152475000Y-96975000I0J-100000D01*
G01*
X152475000Y-98250000D01*
G75*
G02*
X152375000Y-98350000I-100000J0D01*
G01*
X152175000Y-98350000D01*
G75*
G02*
X152075000Y-98250000I0J100000D01*
G01*
X152075000Y-96975000D01*
G75*
G02*
X152175000Y-96875000I100000J0D01*
G01*
G37*
G36*
G01*
X151525000Y-96875000D02*
X151725000Y-96875000D01*
G75*
G02*
X151825000Y-96975000I0J-100000D01*
G01*
X151825000Y-98250000D01*
G75*
G02*
X151725000Y-98350000I-100000J0D01*
G01*
X151525000Y-98350000D01*
G75*
G02*
X151425000Y-98250000I0J100000D01*
G01*
X151425000Y-96975000D01*
G75*
G02*
X151525000Y-96875000I100000J0D01*
G01*
G37*
G36*
G01*
X150875000Y-96875000D02*
X151075000Y-96875000D01*
G75*
G02*
X151175000Y-96975000I0J-100000D01*
G01*
X151175000Y-98250000D01*
G75*
G02*
X151075000Y-98350000I-100000J0D01*
G01*
X150875000Y-98350000D01*
G75*
G02*
X150775000Y-98250000I0J100000D01*
G01*
X150775000Y-96975000D01*
G75*
G02*
X150875000Y-96875000I100000J0D01*
G01*
G37*
G36*
G01*
X150225000Y-96875000D02*
X150425000Y-96875000D01*
G75*
G02*
X150525000Y-96975000I0J-100000D01*
G01*
X150525000Y-98250000D01*
G75*
G02*
X150425000Y-98350000I-100000J0D01*
G01*
X150225000Y-98350000D01*
G75*
G02*
X150125000Y-98250000I0J100000D01*
G01*
X150125000Y-96975000D01*
G75*
G02*
X150225000Y-96875000I100000J0D01*
G01*
G37*
G36*
G01*
X149575000Y-96875000D02*
X149775000Y-96875000D01*
G75*
G02*
X149875000Y-96975000I0J-100000D01*
G01*
X149875000Y-98250000D01*
G75*
G02*
X149775000Y-98350000I-100000J0D01*
G01*
X149575000Y-98350000D01*
G75*
G02*
X149475000Y-98250000I0J100000D01*
G01*
X149475000Y-96975000D01*
G75*
G02*
X149575000Y-96875000I100000J0D01*
G01*
G37*
G36*
G01*
X148925000Y-96875000D02*
X149125000Y-96875000D01*
G75*
G02*
X149225000Y-96975000I0J-100000D01*
G01*
X149225000Y-98250000D01*
G75*
G02*
X149125000Y-98350000I-100000J0D01*
G01*
X148925000Y-98350000D01*
G75*
G02*
X148825000Y-98250000I0J100000D01*
G01*
X148825000Y-96975000D01*
G75*
G02*
X148925000Y-96875000I100000J0D01*
G01*
G37*
G36*
G01*
X148275000Y-96875000D02*
X148475000Y-96875000D01*
G75*
G02*
X148575000Y-96975000I0J-100000D01*
G01*
X148575000Y-98250000D01*
G75*
G02*
X148475000Y-98350000I-100000J0D01*
G01*
X148275000Y-98350000D01*
G75*
G02*
X148175000Y-98250000I0J100000D01*
G01*
X148175000Y-96975000D01*
G75*
G02*
X148275000Y-96875000I100000J0D01*
G01*
G37*
G36*
G01*
X147625000Y-96875000D02*
X147825000Y-96875000D01*
G75*
G02*
X147925000Y-96975000I0J-100000D01*
G01*
X147925000Y-98250000D01*
G75*
G02*
X147825000Y-98350000I-100000J0D01*
G01*
X147625000Y-98350000D01*
G75*
G02*
X147525000Y-98250000I0J100000D01*
G01*
X147525000Y-96975000D01*
G75*
G02*
X147625000Y-96875000I100000J0D01*
G01*
G37*
G36*
G01*
X147625000Y-91150000D02*
X147825000Y-91150000D01*
G75*
G02*
X147925000Y-91250000I0J-100000D01*
G01*
X147925000Y-92525000D01*
G75*
G02*
X147825000Y-92625000I-100000J0D01*
G01*
X147625000Y-92625000D01*
G75*
G02*
X147525000Y-92525000I0J100000D01*
G01*
X147525000Y-91250000D01*
G75*
G02*
X147625000Y-91150000I100000J0D01*
G01*
G37*
G36*
G01*
X148275000Y-91150000D02*
X148475000Y-91150000D01*
G75*
G02*
X148575000Y-91250000I0J-100000D01*
G01*
X148575000Y-92525000D01*
G75*
G02*
X148475000Y-92625000I-100000J0D01*
G01*
X148275000Y-92625000D01*
G75*
G02*
X148175000Y-92525000I0J100000D01*
G01*
X148175000Y-91250000D01*
G75*
G02*
X148275000Y-91150000I100000J0D01*
G01*
G37*
G36*
G01*
X148925000Y-91150000D02*
X149125000Y-91150000D01*
G75*
G02*
X149225000Y-91250000I0J-100000D01*
G01*
X149225000Y-92525000D01*
G75*
G02*
X149125000Y-92625000I-100000J0D01*
G01*
X148925000Y-92625000D01*
G75*
G02*
X148825000Y-92525000I0J100000D01*
G01*
X148825000Y-91250000D01*
G75*
G02*
X148925000Y-91150000I100000J0D01*
G01*
G37*
G36*
G01*
X149575000Y-91150000D02*
X149775000Y-91150000D01*
G75*
G02*
X149875000Y-91250000I0J-100000D01*
G01*
X149875000Y-92525000D01*
G75*
G02*
X149775000Y-92625000I-100000J0D01*
G01*
X149575000Y-92625000D01*
G75*
G02*
X149475000Y-92525000I0J100000D01*
G01*
X149475000Y-91250000D01*
G75*
G02*
X149575000Y-91150000I100000J0D01*
G01*
G37*
G36*
G01*
X150225000Y-91150000D02*
X150425000Y-91150000D01*
G75*
G02*
X150525000Y-91250000I0J-100000D01*
G01*
X150525000Y-92525000D01*
G75*
G02*
X150425000Y-92625000I-100000J0D01*
G01*
X150225000Y-92625000D01*
G75*
G02*
X150125000Y-92525000I0J100000D01*
G01*
X150125000Y-91250000D01*
G75*
G02*
X150225000Y-91150000I100000J0D01*
G01*
G37*
G36*
G01*
X150875000Y-91150000D02*
X151075000Y-91150000D01*
G75*
G02*
X151175000Y-91250000I0J-100000D01*
G01*
X151175000Y-92525000D01*
G75*
G02*
X151075000Y-92625000I-100000J0D01*
G01*
X150875000Y-92625000D01*
G75*
G02*
X150775000Y-92525000I0J100000D01*
G01*
X150775000Y-91250000D01*
G75*
G02*
X150875000Y-91150000I100000J0D01*
G01*
G37*
G36*
G01*
X151525000Y-91150000D02*
X151725000Y-91150000D01*
G75*
G02*
X151825000Y-91250000I0J-100000D01*
G01*
X151825000Y-92525000D01*
G75*
G02*
X151725000Y-92625000I-100000J0D01*
G01*
X151525000Y-92625000D01*
G75*
G02*
X151425000Y-92525000I0J100000D01*
G01*
X151425000Y-91250000D01*
G75*
G02*
X151525000Y-91150000I100000J0D01*
G01*
G37*
G36*
G01*
X152175000Y-91150000D02*
X152375000Y-91150000D01*
G75*
G02*
X152475000Y-91250000I0J-100000D01*
G01*
X152475000Y-92525000D01*
G75*
G02*
X152375000Y-92625000I-100000J0D01*
G01*
X152175000Y-92625000D01*
G75*
G02*
X152075000Y-92525000I0J100000D01*
G01*
X152075000Y-91250000D01*
G75*
G02*
X152175000Y-91150000I100000J0D01*
G01*
G37*
G36*
G01*
X165175000Y-96875000D02*
X165375000Y-96875000D01*
G75*
G02*
X165475000Y-96975000I0J-100000D01*
G01*
X165475000Y-98250000D01*
G75*
G02*
X165375000Y-98350000I-100000J0D01*
G01*
X165175000Y-98350000D01*
G75*
G02*
X165075000Y-98250000I0J100000D01*
G01*
X165075000Y-96975000D01*
G75*
G02*
X165175000Y-96875000I100000J0D01*
G01*
G37*
G36*
G01*
X164525000Y-96875000D02*
X164725000Y-96875000D01*
G75*
G02*
X164825000Y-96975000I0J-100000D01*
G01*
X164825000Y-98250000D01*
G75*
G02*
X164725000Y-98350000I-100000J0D01*
G01*
X164525000Y-98350000D01*
G75*
G02*
X164425000Y-98250000I0J100000D01*
G01*
X164425000Y-96975000D01*
G75*
G02*
X164525000Y-96875000I100000J0D01*
G01*
G37*
G36*
G01*
X163875000Y-96875000D02*
X164075000Y-96875000D01*
G75*
G02*
X164175000Y-96975000I0J-100000D01*
G01*
X164175000Y-98250000D01*
G75*
G02*
X164075000Y-98350000I-100000J0D01*
G01*
X163875000Y-98350000D01*
G75*
G02*
X163775000Y-98250000I0J100000D01*
G01*
X163775000Y-96975000D01*
G75*
G02*
X163875000Y-96875000I100000J0D01*
G01*
G37*
G36*
G01*
X163225000Y-96875000D02*
X163425000Y-96875000D01*
G75*
G02*
X163525000Y-96975000I0J-100000D01*
G01*
X163525000Y-98250000D01*
G75*
G02*
X163425000Y-98350000I-100000J0D01*
G01*
X163225000Y-98350000D01*
G75*
G02*
X163125000Y-98250000I0J100000D01*
G01*
X163125000Y-96975000D01*
G75*
G02*
X163225000Y-96875000I100000J0D01*
G01*
G37*
G36*
G01*
X162575000Y-96875000D02*
X162775000Y-96875000D01*
G75*
G02*
X162875000Y-96975000I0J-100000D01*
G01*
X162875000Y-98250000D01*
G75*
G02*
X162775000Y-98350000I-100000J0D01*
G01*
X162575000Y-98350000D01*
G75*
G02*
X162475000Y-98250000I0J100000D01*
G01*
X162475000Y-96975000D01*
G75*
G02*
X162575000Y-96875000I100000J0D01*
G01*
G37*
G36*
G01*
X161925000Y-96875000D02*
X162125000Y-96875000D01*
G75*
G02*
X162225000Y-96975000I0J-100000D01*
G01*
X162225000Y-98250000D01*
G75*
G02*
X162125000Y-98350000I-100000J0D01*
G01*
X161925000Y-98350000D01*
G75*
G02*
X161825000Y-98250000I0J100000D01*
G01*
X161825000Y-96975000D01*
G75*
G02*
X161925000Y-96875000I100000J0D01*
G01*
G37*
G36*
G01*
X161275000Y-96875000D02*
X161475000Y-96875000D01*
G75*
G02*
X161575000Y-96975000I0J-100000D01*
G01*
X161575000Y-98250000D01*
G75*
G02*
X161475000Y-98350000I-100000J0D01*
G01*
X161275000Y-98350000D01*
G75*
G02*
X161175000Y-98250000I0J100000D01*
G01*
X161175000Y-96975000D01*
G75*
G02*
X161275000Y-96875000I100000J0D01*
G01*
G37*
G36*
G01*
X160625000Y-96875000D02*
X160825000Y-96875000D01*
G75*
G02*
X160925000Y-96975000I0J-100000D01*
G01*
X160925000Y-98250000D01*
G75*
G02*
X160825000Y-98350000I-100000J0D01*
G01*
X160625000Y-98350000D01*
G75*
G02*
X160525000Y-98250000I0J100000D01*
G01*
X160525000Y-96975000D01*
G75*
G02*
X160625000Y-96875000I100000J0D01*
G01*
G37*
G36*
G01*
X160625000Y-91150000D02*
X160825000Y-91150000D01*
G75*
G02*
X160925000Y-91250000I0J-100000D01*
G01*
X160925000Y-92525000D01*
G75*
G02*
X160825000Y-92625000I-100000J0D01*
G01*
X160625000Y-92625000D01*
G75*
G02*
X160525000Y-92525000I0J100000D01*
G01*
X160525000Y-91250000D01*
G75*
G02*
X160625000Y-91150000I100000J0D01*
G01*
G37*
G36*
G01*
X161275000Y-91150000D02*
X161475000Y-91150000D01*
G75*
G02*
X161575000Y-91250000I0J-100000D01*
G01*
X161575000Y-92525000D01*
G75*
G02*
X161475000Y-92625000I-100000J0D01*
G01*
X161275000Y-92625000D01*
G75*
G02*
X161175000Y-92525000I0J100000D01*
G01*
X161175000Y-91250000D01*
G75*
G02*
X161275000Y-91150000I100000J0D01*
G01*
G37*
G36*
G01*
X161925000Y-91150000D02*
X162125000Y-91150000D01*
G75*
G02*
X162225000Y-91250000I0J-100000D01*
G01*
X162225000Y-92525000D01*
G75*
G02*
X162125000Y-92625000I-100000J0D01*
G01*
X161925000Y-92625000D01*
G75*
G02*
X161825000Y-92525000I0J100000D01*
G01*
X161825000Y-91250000D01*
G75*
G02*
X161925000Y-91150000I100000J0D01*
G01*
G37*
G36*
G01*
X162575000Y-91150000D02*
X162775000Y-91150000D01*
G75*
G02*
X162875000Y-91250000I0J-100000D01*
G01*
X162875000Y-92525000D01*
G75*
G02*
X162775000Y-92625000I-100000J0D01*
G01*
X162575000Y-92625000D01*
G75*
G02*
X162475000Y-92525000I0J100000D01*
G01*
X162475000Y-91250000D01*
G75*
G02*
X162575000Y-91150000I100000J0D01*
G01*
G37*
G36*
G01*
X163225000Y-91150000D02*
X163425000Y-91150000D01*
G75*
G02*
X163525000Y-91250000I0J-100000D01*
G01*
X163525000Y-92525000D01*
G75*
G02*
X163425000Y-92625000I-100000J0D01*
G01*
X163225000Y-92625000D01*
G75*
G02*
X163125000Y-92525000I0J100000D01*
G01*
X163125000Y-91250000D01*
G75*
G02*
X163225000Y-91150000I100000J0D01*
G01*
G37*
G36*
G01*
X163875000Y-91150000D02*
X164075000Y-91150000D01*
G75*
G02*
X164175000Y-91250000I0J-100000D01*
G01*
X164175000Y-92525000D01*
G75*
G02*
X164075000Y-92625000I-100000J0D01*
G01*
X163875000Y-92625000D01*
G75*
G02*
X163775000Y-92525000I0J100000D01*
G01*
X163775000Y-91250000D01*
G75*
G02*
X163875000Y-91150000I100000J0D01*
G01*
G37*
G36*
G01*
X164525000Y-91150000D02*
X164725000Y-91150000D01*
G75*
G02*
X164825000Y-91250000I0J-100000D01*
G01*
X164825000Y-92525000D01*
G75*
G02*
X164725000Y-92625000I-100000J0D01*
G01*
X164525000Y-92625000D01*
G75*
G02*
X164425000Y-92525000I0J100000D01*
G01*
X164425000Y-91250000D01*
G75*
G02*
X164525000Y-91150000I100000J0D01*
G01*
G37*
G36*
G01*
X165175000Y-91150000D02*
X165375000Y-91150000D01*
G75*
G02*
X165475000Y-91250000I0J-100000D01*
G01*
X165475000Y-92525000D01*
G75*
G02*
X165375000Y-92625000I-100000J0D01*
G01*
X165175000Y-92625000D01*
G75*
G02*
X165075000Y-92525000I0J100000D01*
G01*
X165075000Y-91250000D01*
G75*
G02*
X165175000Y-91150000I100000J0D01*
G01*
G37*
G36*
G01*
X178175000Y-96875000D02*
X178375000Y-96875000D01*
G75*
G02*
X178475000Y-96975000I0J-100000D01*
G01*
X178475000Y-98250000D01*
G75*
G02*
X178375000Y-98350000I-100000J0D01*
G01*
X178175000Y-98350000D01*
G75*
G02*
X178075000Y-98250000I0J100000D01*
G01*
X178075000Y-96975000D01*
G75*
G02*
X178175000Y-96875000I100000J0D01*
G01*
G37*
G36*
G01*
X177525000Y-96875000D02*
X177725000Y-96875000D01*
G75*
G02*
X177825000Y-96975000I0J-100000D01*
G01*
X177825000Y-98250000D01*
G75*
G02*
X177725000Y-98350000I-100000J0D01*
G01*
X177525000Y-98350000D01*
G75*
G02*
X177425000Y-98250000I0J100000D01*
G01*
X177425000Y-96975000D01*
G75*
G02*
X177525000Y-96875000I100000J0D01*
G01*
G37*
G36*
G01*
X176875000Y-96875000D02*
X177075000Y-96875000D01*
G75*
G02*
X177175000Y-96975000I0J-100000D01*
G01*
X177175000Y-98250000D01*
G75*
G02*
X177075000Y-98350000I-100000J0D01*
G01*
X176875000Y-98350000D01*
G75*
G02*
X176775000Y-98250000I0J100000D01*
G01*
X176775000Y-96975000D01*
G75*
G02*
X176875000Y-96875000I100000J0D01*
G01*
G37*
G36*
G01*
X176225000Y-96875000D02*
X176425000Y-96875000D01*
G75*
G02*
X176525000Y-96975000I0J-100000D01*
G01*
X176525000Y-98250000D01*
G75*
G02*
X176425000Y-98350000I-100000J0D01*
G01*
X176225000Y-98350000D01*
G75*
G02*
X176125000Y-98250000I0J100000D01*
G01*
X176125000Y-96975000D01*
G75*
G02*
X176225000Y-96875000I100000J0D01*
G01*
G37*
G36*
G01*
X175575000Y-96875000D02*
X175775000Y-96875000D01*
G75*
G02*
X175875000Y-96975000I0J-100000D01*
G01*
X175875000Y-98250000D01*
G75*
G02*
X175775000Y-98350000I-100000J0D01*
G01*
X175575000Y-98350000D01*
G75*
G02*
X175475000Y-98250000I0J100000D01*
G01*
X175475000Y-96975000D01*
G75*
G02*
X175575000Y-96875000I100000J0D01*
G01*
G37*
G36*
G01*
X174925000Y-96875000D02*
X175125000Y-96875000D01*
G75*
G02*
X175225000Y-96975000I0J-100000D01*
G01*
X175225000Y-98250000D01*
G75*
G02*
X175125000Y-98350000I-100000J0D01*
G01*
X174925000Y-98350000D01*
G75*
G02*
X174825000Y-98250000I0J100000D01*
G01*
X174825000Y-96975000D01*
G75*
G02*
X174925000Y-96875000I100000J0D01*
G01*
G37*
G36*
G01*
X174275000Y-96875000D02*
X174475000Y-96875000D01*
G75*
G02*
X174575000Y-96975000I0J-100000D01*
G01*
X174575000Y-98250000D01*
G75*
G02*
X174475000Y-98350000I-100000J0D01*
G01*
X174275000Y-98350000D01*
G75*
G02*
X174175000Y-98250000I0J100000D01*
G01*
X174175000Y-96975000D01*
G75*
G02*
X174275000Y-96875000I100000J0D01*
G01*
G37*
G36*
G01*
X173625000Y-96875000D02*
X173825000Y-96875000D01*
G75*
G02*
X173925000Y-96975000I0J-100000D01*
G01*
X173925000Y-98250000D01*
G75*
G02*
X173825000Y-98350000I-100000J0D01*
G01*
X173625000Y-98350000D01*
G75*
G02*
X173525000Y-98250000I0J100000D01*
G01*
X173525000Y-96975000D01*
G75*
G02*
X173625000Y-96875000I100000J0D01*
G01*
G37*
G36*
G01*
X173625000Y-91150000D02*
X173825000Y-91150000D01*
G75*
G02*
X173925000Y-91250000I0J-100000D01*
G01*
X173925000Y-92525000D01*
G75*
G02*
X173825000Y-92625000I-100000J0D01*
G01*
X173625000Y-92625000D01*
G75*
G02*
X173525000Y-92525000I0J100000D01*
G01*
X173525000Y-91250000D01*
G75*
G02*
X173625000Y-91150000I100000J0D01*
G01*
G37*
G36*
G01*
X174275000Y-91150000D02*
X174475000Y-91150000D01*
G75*
G02*
X174575000Y-91250000I0J-100000D01*
G01*
X174575000Y-92525000D01*
G75*
G02*
X174475000Y-92625000I-100000J0D01*
G01*
X174275000Y-92625000D01*
G75*
G02*
X174175000Y-92525000I0J100000D01*
G01*
X174175000Y-91250000D01*
G75*
G02*
X174275000Y-91150000I100000J0D01*
G01*
G37*
G36*
G01*
X174925000Y-91150000D02*
X175125000Y-91150000D01*
G75*
G02*
X175225000Y-91250000I0J-100000D01*
G01*
X175225000Y-92525000D01*
G75*
G02*
X175125000Y-92625000I-100000J0D01*
G01*
X174925000Y-92625000D01*
G75*
G02*
X174825000Y-92525000I0J100000D01*
G01*
X174825000Y-91250000D01*
G75*
G02*
X174925000Y-91150000I100000J0D01*
G01*
G37*
G36*
G01*
X175575000Y-91150000D02*
X175775000Y-91150000D01*
G75*
G02*
X175875000Y-91250000I0J-100000D01*
G01*
X175875000Y-92525000D01*
G75*
G02*
X175775000Y-92625000I-100000J0D01*
G01*
X175575000Y-92625000D01*
G75*
G02*
X175475000Y-92525000I0J100000D01*
G01*
X175475000Y-91250000D01*
G75*
G02*
X175575000Y-91150000I100000J0D01*
G01*
G37*
G36*
G01*
X176225000Y-91150000D02*
X176425000Y-91150000D01*
G75*
G02*
X176525000Y-91250000I0J-100000D01*
G01*
X176525000Y-92525000D01*
G75*
G02*
X176425000Y-92625000I-100000J0D01*
G01*
X176225000Y-92625000D01*
G75*
G02*
X176125000Y-92525000I0J100000D01*
G01*
X176125000Y-91250000D01*
G75*
G02*
X176225000Y-91150000I100000J0D01*
G01*
G37*
G36*
G01*
X176875000Y-91150000D02*
X177075000Y-91150000D01*
G75*
G02*
X177175000Y-91250000I0J-100000D01*
G01*
X177175000Y-92525000D01*
G75*
G02*
X177075000Y-92625000I-100000J0D01*
G01*
X176875000Y-92625000D01*
G75*
G02*
X176775000Y-92525000I0J100000D01*
G01*
X176775000Y-91250000D01*
G75*
G02*
X176875000Y-91150000I100000J0D01*
G01*
G37*
G36*
G01*
X177525000Y-91150000D02*
X177725000Y-91150000D01*
G75*
G02*
X177825000Y-91250000I0J-100000D01*
G01*
X177825000Y-92525000D01*
G75*
G02*
X177725000Y-92625000I-100000J0D01*
G01*
X177525000Y-92625000D01*
G75*
G02*
X177425000Y-92525000I0J100000D01*
G01*
X177425000Y-91250000D01*
G75*
G02*
X177525000Y-91150000I100000J0D01*
G01*
G37*
G36*
G01*
X178175000Y-91150000D02*
X178375000Y-91150000D01*
G75*
G02*
X178475000Y-91250000I0J-100000D01*
G01*
X178475000Y-92525000D01*
G75*
G02*
X178375000Y-92625000I-100000J0D01*
G01*
X178175000Y-92625000D01*
G75*
G02*
X178075000Y-92525000I0J100000D01*
G01*
X178075000Y-91250000D01*
G75*
G02*
X178175000Y-91150000I100000J0D01*
G01*
G37*
G36*
G01*
X131175000Y-92875000D02*
X131375000Y-92875000D01*
G75*
G02*
X131475000Y-92975000I0J-100000D01*
G01*
X131475000Y-94250000D01*
G75*
G02*
X131375000Y-94350000I-100000J0D01*
G01*
X131175000Y-94350000D01*
G75*
G02*
X131075000Y-94250000I0J100000D01*
G01*
X131075000Y-92975000D01*
G75*
G02*
X131175000Y-92875000I100000J0D01*
G01*
G37*
G36*
G01*
X130525000Y-92875000D02*
X130725000Y-92875000D01*
G75*
G02*
X130825000Y-92975000I0J-100000D01*
G01*
X130825000Y-94250000D01*
G75*
G02*
X130725000Y-94350000I-100000J0D01*
G01*
X130525000Y-94350000D01*
G75*
G02*
X130425000Y-94250000I0J100000D01*
G01*
X130425000Y-92975000D01*
G75*
G02*
X130525000Y-92875000I100000J0D01*
G01*
G37*
G36*
G01*
X129875000Y-92875000D02*
X130075000Y-92875000D01*
G75*
G02*
X130175000Y-92975000I0J-100000D01*
G01*
X130175000Y-94250000D01*
G75*
G02*
X130075000Y-94350000I-100000J0D01*
G01*
X129875000Y-94350000D01*
G75*
G02*
X129775000Y-94250000I0J100000D01*
G01*
X129775000Y-92975000D01*
G75*
G02*
X129875000Y-92875000I100000J0D01*
G01*
G37*
G36*
G01*
X129225000Y-92875000D02*
X129425000Y-92875000D01*
G75*
G02*
X129525000Y-92975000I0J-100000D01*
G01*
X129525000Y-94250000D01*
G75*
G02*
X129425000Y-94350000I-100000J0D01*
G01*
X129225000Y-94350000D01*
G75*
G02*
X129125000Y-94250000I0J100000D01*
G01*
X129125000Y-92975000D01*
G75*
G02*
X129225000Y-92875000I100000J0D01*
G01*
G37*
G36*
G01*
X128575000Y-92875000D02*
X128775000Y-92875000D01*
G75*
G02*
X128875000Y-92975000I0J-100000D01*
G01*
X128875000Y-94250000D01*
G75*
G02*
X128775000Y-94350000I-100000J0D01*
G01*
X128575000Y-94350000D01*
G75*
G02*
X128475000Y-94250000I0J100000D01*
G01*
X128475000Y-92975000D01*
G75*
G02*
X128575000Y-92875000I100000J0D01*
G01*
G37*
G36*
G01*
X127925000Y-92875000D02*
X128125000Y-92875000D01*
G75*
G02*
X128225000Y-92975000I0J-100000D01*
G01*
X128225000Y-94250000D01*
G75*
G02*
X128125000Y-94350000I-100000J0D01*
G01*
X127925000Y-94350000D01*
G75*
G02*
X127825000Y-94250000I0J100000D01*
G01*
X127825000Y-92975000D01*
G75*
G02*
X127925000Y-92875000I100000J0D01*
G01*
G37*
G36*
G01*
X127275000Y-92875000D02*
X127475000Y-92875000D01*
G75*
G02*
X127575000Y-92975000I0J-100000D01*
G01*
X127575000Y-94250000D01*
G75*
G02*
X127475000Y-94350000I-100000J0D01*
G01*
X127275000Y-94350000D01*
G75*
G02*
X127175000Y-94250000I0J100000D01*
G01*
X127175000Y-92975000D01*
G75*
G02*
X127275000Y-92875000I100000J0D01*
G01*
G37*
G36*
G01*
X126625000Y-92875000D02*
X126825000Y-92875000D01*
G75*
G02*
X126925000Y-92975000I0J-100000D01*
G01*
X126925000Y-94250000D01*
G75*
G02*
X126825000Y-94350000I-100000J0D01*
G01*
X126625000Y-94350000D01*
G75*
G02*
X126525000Y-94250000I0J100000D01*
G01*
X126525000Y-92975000D01*
G75*
G02*
X126625000Y-92875000I100000J0D01*
G01*
G37*
G36*
G01*
X126625000Y-87150000D02*
X126825000Y-87150000D01*
G75*
G02*
X126925000Y-87250000I0J-100000D01*
G01*
X126925000Y-88525000D01*
G75*
G02*
X126825000Y-88625000I-100000J0D01*
G01*
X126625000Y-88625000D01*
G75*
G02*
X126525000Y-88525000I0J100000D01*
G01*
X126525000Y-87250000D01*
G75*
G02*
X126625000Y-87150000I100000J0D01*
G01*
G37*
G36*
G01*
X127275000Y-87150000D02*
X127475000Y-87150000D01*
G75*
G02*
X127575000Y-87250000I0J-100000D01*
G01*
X127575000Y-88525000D01*
G75*
G02*
X127475000Y-88625000I-100000J0D01*
G01*
X127275000Y-88625000D01*
G75*
G02*
X127175000Y-88525000I0J100000D01*
G01*
X127175000Y-87250000D01*
G75*
G02*
X127275000Y-87150000I100000J0D01*
G01*
G37*
G36*
G01*
X127925000Y-87150000D02*
X128125000Y-87150000D01*
G75*
G02*
X128225000Y-87250000I0J-100000D01*
G01*
X128225000Y-88525000D01*
G75*
G02*
X128125000Y-88625000I-100000J0D01*
G01*
X127925000Y-88625000D01*
G75*
G02*
X127825000Y-88525000I0J100000D01*
G01*
X127825000Y-87250000D01*
G75*
G02*
X127925000Y-87150000I100000J0D01*
G01*
G37*
G36*
G01*
X128575000Y-87150000D02*
X128775000Y-87150000D01*
G75*
G02*
X128875000Y-87250000I0J-100000D01*
G01*
X128875000Y-88525000D01*
G75*
G02*
X128775000Y-88625000I-100000J0D01*
G01*
X128575000Y-88625000D01*
G75*
G02*
X128475000Y-88525000I0J100000D01*
G01*
X128475000Y-87250000D01*
G75*
G02*
X128575000Y-87150000I100000J0D01*
G01*
G37*
G36*
G01*
X129225000Y-87150000D02*
X129425000Y-87150000D01*
G75*
G02*
X129525000Y-87250000I0J-100000D01*
G01*
X129525000Y-88525000D01*
G75*
G02*
X129425000Y-88625000I-100000J0D01*
G01*
X129225000Y-88625000D01*
G75*
G02*
X129125000Y-88525000I0J100000D01*
G01*
X129125000Y-87250000D01*
G75*
G02*
X129225000Y-87150000I100000J0D01*
G01*
G37*
G36*
G01*
X129875000Y-87150000D02*
X130075000Y-87150000D01*
G75*
G02*
X130175000Y-87250000I0J-100000D01*
G01*
X130175000Y-88525000D01*
G75*
G02*
X130075000Y-88625000I-100000J0D01*
G01*
X129875000Y-88625000D01*
G75*
G02*
X129775000Y-88525000I0J100000D01*
G01*
X129775000Y-87250000D01*
G75*
G02*
X129875000Y-87150000I100000J0D01*
G01*
G37*
G36*
G01*
X130525000Y-87150000D02*
X130725000Y-87150000D01*
G75*
G02*
X130825000Y-87250000I0J-100000D01*
G01*
X130825000Y-88525000D01*
G75*
G02*
X130725000Y-88625000I-100000J0D01*
G01*
X130525000Y-88625000D01*
G75*
G02*
X130425000Y-88525000I0J100000D01*
G01*
X130425000Y-87250000D01*
G75*
G02*
X130525000Y-87150000I100000J0D01*
G01*
G37*
G36*
G01*
X131175000Y-87150000D02*
X131375000Y-87150000D01*
G75*
G02*
X131475000Y-87250000I0J-100000D01*
G01*
X131475000Y-88525000D01*
G75*
G02*
X131375000Y-88625000I-100000J0D01*
G01*
X131175000Y-88625000D01*
G75*
G02*
X131075000Y-88525000I0J100000D01*
G01*
X131075000Y-87250000D01*
G75*
G02*
X131175000Y-87150000I100000J0D01*
G01*
G37*
G36*
G01*
X143675000Y-92875000D02*
X143875000Y-92875000D01*
G75*
G02*
X143975000Y-92975000I0J-100000D01*
G01*
X143975000Y-94250000D01*
G75*
G02*
X143875000Y-94350000I-100000J0D01*
G01*
X143675000Y-94350000D01*
G75*
G02*
X143575000Y-94250000I0J100000D01*
G01*
X143575000Y-92975000D01*
G75*
G02*
X143675000Y-92875000I100000J0D01*
G01*
G37*
G36*
G01*
X143025000Y-92875000D02*
X143225000Y-92875000D01*
G75*
G02*
X143325000Y-92975000I0J-100000D01*
G01*
X143325000Y-94250000D01*
G75*
G02*
X143225000Y-94350000I-100000J0D01*
G01*
X143025000Y-94350000D01*
G75*
G02*
X142925000Y-94250000I0J100000D01*
G01*
X142925000Y-92975000D01*
G75*
G02*
X143025000Y-92875000I100000J0D01*
G01*
G37*
G36*
G01*
X142375000Y-92875000D02*
X142575000Y-92875000D01*
G75*
G02*
X142675000Y-92975000I0J-100000D01*
G01*
X142675000Y-94250000D01*
G75*
G02*
X142575000Y-94350000I-100000J0D01*
G01*
X142375000Y-94350000D01*
G75*
G02*
X142275000Y-94250000I0J100000D01*
G01*
X142275000Y-92975000D01*
G75*
G02*
X142375000Y-92875000I100000J0D01*
G01*
G37*
G36*
G01*
X141725000Y-92875000D02*
X141925000Y-92875000D01*
G75*
G02*
X142025000Y-92975000I0J-100000D01*
G01*
X142025000Y-94250000D01*
G75*
G02*
X141925000Y-94350000I-100000J0D01*
G01*
X141725000Y-94350000D01*
G75*
G02*
X141625000Y-94250000I0J100000D01*
G01*
X141625000Y-92975000D01*
G75*
G02*
X141725000Y-92875000I100000J0D01*
G01*
G37*
G36*
G01*
X141075000Y-92875000D02*
X141275000Y-92875000D01*
G75*
G02*
X141375000Y-92975000I0J-100000D01*
G01*
X141375000Y-94250000D01*
G75*
G02*
X141275000Y-94350000I-100000J0D01*
G01*
X141075000Y-94350000D01*
G75*
G02*
X140975000Y-94250000I0J100000D01*
G01*
X140975000Y-92975000D01*
G75*
G02*
X141075000Y-92875000I100000J0D01*
G01*
G37*
G36*
G01*
X140425000Y-92875000D02*
X140625000Y-92875000D01*
G75*
G02*
X140725000Y-92975000I0J-100000D01*
G01*
X140725000Y-94250000D01*
G75*
G02*
X140625000Y-94350000I-100000J0D01*
G01*
X140425000Y-94350000D01*
G75*
G02*
X140325000Y-94250000I0J100000D01*
G01*
X140325000Y-92975000D01*
G75*
G02*
X140425000Y-92875000I100000J0D01*
G01*
G37*
G36*
G01*
X139775000Y-92875000D02*
X139975000Y-92875000D01*
G75*
G02*
X140075000Y-92975000I0J-100000D01*
G01*
X140075000Y-94250000D01*
G75*
G02*
X139975000Y-94350000I-100000J0D01*
G01*
X139775000Y-94350000D01*
G75*
G02*
X139675000Y-94250000I0J100000D01*
G01*
X139675000Y-92975000D01*
G75*
G02*
X139775000Y-92875000I100000J0D01*
G01*
G37*
G36*
G01*
X139125000Y-92875000D02*
X139325000Y-92875000D01*
G75*
G02*
X139425000Y-92975000I0J-100000D01*
G01*
X139425000Y-94250000D01*
G75*
G02*
X139325000Y-94350000I-100000J0D01*
G01*
X139125000Y-94350000D01*
G75*
G02*
X139025000Y-94250000I0J100000D01*
G01*
X139025000Y-92975000D01*
G75*
G02*
X139125000Y-92875000I100000J0D01*
G01*
G37*
G36*
G01*
X139125000Y-87150000D02*
X139325000Y-87150000D01*
G75*
G02*
X139425000Y-87250000I0J-100000D01*
G01*
X139425000Y-88525000D01*
G75*
G02*
X139325000Y-88625000I-100000J0D01*
G01*
X139125000Y-88625000D01*
G75*
G02*
X139025000Y-88525000I0J100000D01*
G01*
X139025000Y-87250000D01*
G75*
G02*
X139125000Y-87150000I100000J0D01*
G01*
G37*
G36*
G01*
X139775000Y-87150000D02*
X139975000Y-87150000D01*
G75*
G02*
X140075000Y-87250000I0J-100000D01*
G01*
X140075000Y-88525000D01*
G75*
G02*
X139975000Y-88625000I-100000J0D01*
G01*
X139775000Y-88625000D01*
G75*
G02*
X139675000Y-88525000I0J100000D01*
G01*
X139675000Y-87250000D01*
G75*
G02*
X139775000Y-87150000I100000J0D01*
G01*
G37*
G36*
G01*
X140425000Y-87150000D02*
X140625000Y-87150000D01*
G75*
G02*
X140725000Y-87250000I0J-100000D01*
G01*
X140725000Y-88525000D01*
G75*
G02*
X140625000Y-88625000I-100000J0D01*
G01*
X140425000Y-88625000D01*
G75*
G02*
X140325000Y-88525000I0J100000D01*
G01*
X140325000Y-87250000D01*
G75*
G02*
X140425000Y-87150000I100000J0D01*
G01*
G37*
G36*
G01*
X141075000Y-87150000D02*
X141275000Y-87150000D01*
G75*
G02*
X141375000Y-87250000I0J-100000D01*
G01*
X141375000Y-88525000D01*
G75*
G02*
X141275000Y-88625000I-100000J0D01*
G01*
X141075000Y-88625000D01*
G75*
G02*
X140975000Y-88525000I0J100000D01*
G01*
X140975000Y-87250000D01*
G75*
G02*
X141075000Y-87150000I100000J0D01*
G01*
G37*
G36*
G01*
X141725000Y-87150000D02*
X141925000Y-87150000D01*
G75*
G02*
X142025000Y-87250000I0J-100000D01*
G01*
X142025000Y-88525000D01*
G75*
G02*
X141925000Y-88625000I-100000J0D01*
G01*
X141725000Y-88625000D01*
G75*
G02*
X141625000Y-88525000I0J100000D01*
G01*
X141625000Y-87250000D01*
G75*
G02*
X141725000Y-87150000I100000J0D01*
G01*
G37*
G36*
G01*
X142375000Y-87150000D02*
X142575000Y-87150000D01*
G75*
G02*
X142675000Y-87250000I0J-100000D01*
G01*
X142675000Y-88525000D01*
G75*
G02*
X142575000Y-88625000I-100000J0D01*
G01*
X142375000Y-88625000D01*
G75*
G02*
X142275000Y-88525000I0J100000D01*
G01*
X142275000Y-87250000D01*
G75*
G02*
X142375000Y-87150000I100000J0D01*
G01*
G37*
G36*
G01*
X143025000Y-87150000D02*
X143225000Y-87150000D01*
G75*
G02*
X143325000Y-87250000I0J-100000D01*
G01*
X143325000Y-88525000D01*
G75*
G02*
X143225000Y-88625000I-100000J0D01*
G01*
X143025000Y-88625000D01*
G75*
G02*
X142925000Y-88525000I0J100000D01*
G01*
X142925000Y-87250000D01*
G75*
G02*
X143025000Y-87150000I100000J0D01*
G01*
G37*
G36*
G01*
X143675000Y-87150000D02*
X143875000Y-87150000D01*
G75*
G02*
X143975000Y-87250000I0J-100000D01*
G01*
X143975000Y-88525000D01*
G75*
G02*
X143875000Y-88625000I-100000J0D01*
G01*
X143675000Y-88625000D01*
G75*
G02*
X143575000Y-88525000I0J100000D01*
G01*
X143575000Y-87250000D01*
G75*
G02*
X143675000Y-87150000I100000J0D01*
G01*
G37*
G36*
G01*
X137425000Y-92875000D02*
X137625000Y-92875000D01*
G75*
G02*
X137725000Y-92975000I0J-100000D01*
G01*
X137725000Y-94250000D01*
G75*
G02*
X137625000Y-94350000I-100000J0D01*
G01*
X137425000Y-94350000D01*
G75*
G02*
X137325000Y-94250000I0J100000D01*
G01*
X137325000Y-92975000D01*
G75*
G02*
X137425000Y-92875000I100000J0D01*
G01*
G37*
G36*
G01*
X136775000Y-92875000D02*
X136975000Y-92875000D01*
G75*
G02*
X137075000Y-92975000I0J-100000D01*
G01*
X137075000Y-94250000D01*
G75*
G02*
X136975000Y-94350000I-100000J0D01*
G01*
X136775000Y-94350000D01*
G75*
G02*
X136675000Y-94250000I0J100000D01*
G01*
X136675000Y-92975000D01*
G75*
G02*
X136775000Y-92875000I100000J0D01*
G01*
G37*
G36*
G01*
X136125000Y-92875000D02*
X136325000Y-92875000D01*
G75*
G02*
X136425000Y-92975000I0J-100000D01*
G01*
X136425000Y-94250000D01*
G75*
G02*
X136325000Y-94350000I-100000J0D01*
G01*
X136125000Y-94350000D01*
G75*
G02*
X136025000Y-94250000I0J100000D01*
G01*
X136025000Y-92975000D01*
G75*
G02*
X136125000Y-92875000I100000J0D01*
G01*
G37*
G36*
G01*
X135475000Y-92875000D02*
X135675000Y-92875000D01*
G75*
G02*
X135775000Y-92975000I0J-100000D01*
G01*
X135775000Y-94250000D01*
G75*
G02*
X135675000Y-94350000I-100000J0D01*
G01*
X135475000Y-94350000D01*
G75*
G02*
X135375000Y-94250000I0J100000D01*
G01*
X135375000Y-92975000D01*
G75*
G02*
X135475000Y-92875000I100000J0D01*
G01*
G37*
G36*
G01*
X134825000Y-92875000D02*
X135025000Y-92875000D01*
G75*
G02*
X135125000Y-92975000I0J-100000D01*
G01*
X135125000Y-94250000D01*
G75*
G02*
X135025000Y-94350000I-100000J0D01*
G01*
X134825000Y-94350000D01*
G75*
G02*
X134725000Y-94250000I0J100000D01*
G01*
X134725000Y-92975000D01*
G75*
G02*
X134825000Y-92875000I100000J0D01*
G01*
G37*
G36*
G01*
X134175000Y-92875000D02*
X134375000Y-92875000D01*
G75*
G02*
X134475000Y-92975000I0J-100000D01*
G01*
X134475000Y-94250000D01*
G75*
G02*
X134375000Y-94350000I-100000J0D01*
G01*
X134175000Y-94350000D01*
G75*
G02*
X134075000Y-94250000I0J100000D01*
G01*
X134075000Y-92975000D01*
G75*
G02*
X134175000Y-92875000I100000J0D01*
G01*
G37*
G36*
G01*
X133525000Y-92875000D02*
X133725000Y-92875000D01*
G75*
G02*
X133825000Y-92975000I0J-100000D01*
G01*
X133825000Y-94250000D01*
G75*
G02*
X133725000Y-94350000I-100000J0D01*
G01*
X133525000Y-94350000D01*
G75*
G02*
X133425000Y-94250000I0J100000D01*
G01*
X133425000Y-92975000D01*
G75*
G02*
X133525000Y-92875000I100000J0D01*
G01*
G37*
G36*
G01*
X132875000Y-92875000D02*
X133075000Y-92875000D01*
G75*
G02*
X133175000Y-92975000I0J-100000D01*
G01*
X133175000Y-94250000D01*
G75*
G02*
X133075000Y-94350000I-100000J0D01*
G01*
X132875000Y-94350000D01*
G75*
G02*
X132775000Y-94250000I0J100000D01*
G01*
X132775000Y-92975000D01*
G75*
G02*
X132875000Y-92875000I100000J0D01*
G01*
G37*
G36*
G01*
X132875000Y-87150000D02*
X133075000Y-87150000D01*
G75*
G02*
X133175000Y-87250000I0J-100000D01*
G01*
X133175000Y-88525000D01*
G75*
G02*
X133075000Y-88625000I-100000J0D01*
G01*
X132875000Y-88625000D01*
G75*
G02*
X132775000Y-88525000I0J100000D01*
G01*
X132775000Y-87250000D01*
G75*
G02*
X132875000Y-87150000I100000J0D01*
G01*
G37*
G36*
G01*
X133525000Y-87150000D02*
X133725000Y-87150000D01*
G75*
G02*
X133825000Y-87250000I0J-100000D01*
G01*
X133825000Y-88525000D01*
G75*
G02*
X133725000Y-88625000I-100000J0D01*
G01*
X133525000Y-88625000D01*
G75*
G02*
X133425000Y-88525000I0J100000D01*
G01*
X133425000Y-87250000D01*
G75*
G02*
X133525000Y-87150000I100000J0D01*
G01*
G37*
G36*
G01*
X134175000Y-87150000D02*
X134375000Y-87150000D01*
G75*
G02*
X134475000Y-87250000I0J-100000D01*
G01*
X134475000Y-88525000D01*
G75*
G02*
X134375000Y-88625000I-100000J0D01*
G01*
X134175000Y-88625000D01*
G75*
G02*
X134075000Y-88525000I0J100000D01*
G01*
X134075000Y-87250000D01*
G75*
G02*
X134175000Y-87150000I100000J0D01*
G01*
G37*
G36*
G01*
X134825000Y-87150000D02*
X135025000Y-87150000D01*
G75*
G02*
X135125000Y-87250000I0J-100000D01*
G01*
X135125000Y-88525000D01*
G75*
G02*
X135025000Y-88625000I-100000J0D01*
G01*
X134825000Y-88625000D01*
G75*
G02*
X134725000Y-88525000I0J100000D01*
G01*
X134725000Y-87250000D01*
G75*
G02*
X134825000Y-87150000I100000J0D01*
G01*
G37*
G36*
G01*
X135475000Y-87150000D02*
X135675000Y-87150000D01*
G75*
G02*
X135775000Y-87250000I0J-100000D01*
G01*
X135775000Y-88525000D01*
G75*
G02*
X135675000Y-88625000I-100000J0D01*
G01*
X135475000Y-88625000D01*
G75*
G02*
X135375000Y-88525000I0J100000D01*
G01*
X135375000Y-87250000D01*
G75*
G02*
X135475000Y-87150000I100000J0D01*
G01*
G37*
G36*
G01*
X136125000Y-87150000D02*
X136325000Y-87150000D01*
G75*
G02*
X136425000Y-87250000I0J-100000D01*
G01*
X136425000Y-88525000D01*
G75*
G02*
X136325000Y-88625000I-100000J0D01*
G01*
X136125000Y-88625000D01*
G75*
G02*
X136025000Y-88525000I0J100000D01*
G01*
X136025000Y-87250000D01*
G75*
G02*
X136125000Y-87150000I100000J0D01*
G01*
G37*
G36*
G01*
X136775000Y-87150000D02*
X136975000Y-87150000D01*
G75*
G02*
X137075000Y-87250000I0J-100000D01*
G01*
X137075000Y-88525000D01*
G75*
G02*
X136975000Y-88625000I-100000J0D01*
G01*
X136775000Y-88625000D01*
G75*
G02*
X136675000Y-88525000I0J100000D01*
G01*
X136675000Y-87250000D01*
G75*
G02*
X136775000Y-87150000I100000J0D01*
G01*
G37*
G36*
G01*
X137425000Y-87150000D02*
X137625000Y-87150000D01*
G75*
G02*
X137725000Y-87250000I0J-100000D01*
G01*
X137725000Y-88525000D01*
G75*
G02*
X137625000Y-88625000I-100000J0D01*
G01*
X137425000Y-88625000D01*
G75*
G02*
X137325000Y-88525000I0J100000D01*
G01*
X137325000Y-87250000D01*
G75*
G02*
X137425000Y-87150000I100000J0D01*
G01*
G37*
G36*
G01*
X118675000Y-92875000D02*
X118875000Y-92875000D01*
G75*
G02*
X118975000Y-92975000I0J-100000D01*
G01*
X118975000Y-94250000D01*
G75*
G02*
X118875000Y-94350000I-100000J0D01*
G01*
X118675000Y-94350000D01*
G75*
G02*
X118575000Y-94250000I0J100000D01*
G01*
X118575000Y-92975000D01*
G75*
G02*
X118675000Y-92875000I100000J0D01*
G01*
G37*
G36*
G01*
X118025000Y-92875000D02*
X118225000Y-92875000D01*
G75*
G02*
X118325000Y-92975000I0J-100000D01*
G01*
X118325000Y-94250000D01*
G75*
G02*
X118225000Y-94350000I-100000J0D01*
G01*
X118025000Y-94350000D01*
G75*
G02*
X117925000Y-94250000I0J100000D01*
G01*
X117925000Y-92975000D01*
G75*
G02*
X118025000Y-92875000I100000J0D01*
G01*
G37*
G36*
G01*
X117375000Y-92875000D02*
X117575000Y-92875000D01*
G75*
G02*
X117675000Y-92975000I0J-100000D01*
G01*
X117675000Y-94250000D01*
G75*
G02*
X117575000Y-94350000I-100000J0D01*
G01*
X117375000Y-94350000D01*
G75*
G02*
X117275000Y-94250000I0J100000D01*
G01*
X117275000Y-92975000D01*
G75*
G02*
X117375000Y-92875000I100000J0D01*
G01*
G37*
G36*
G01*
X116725000Y-92875000D02*
X116925000Y-92875000D01*
G75*
G02*
X117025000Y-92975000I0J-100000D01*
G01*
X117025000Y-94250000D01*
G75*
G02*
X116925000Y-94350000I-100000J0D01*
G01*
X116725000Y-94350000D01*
G75*
G02*
X116625000Y-94250000I0J100000D01*
G01*
X116625000Y-92975000D01*
G75*
G02*
X116725000Y-92875000I100000J0D01*
G01*
G37*
G36*
G01*
X116075000Y-92875000D02*
X116275000Y-92875000D01*
G75*
G02*
X116375000Y-92975000I0J-100000D01*
G01*
X116375000Y-94250000D01*
G75*
G02*
X116275000Y-94350000I-100000J0D01*
G01*
X116075000Y-94350000D01*
G75*
G02*
X115975000Y-94250000I0J100000D01*
G01*
X115975000Y-92975000D01*
G75*
G02*
X116075000Y-92875000I100000J0D01*
G01*
G37*
G36*
G01*
X115425000Y-92875000D02*
X115625000Y-92875000D01*
G75*
G02*
X115725000Y-92975000I0J-100000D01*
G01*
X115725000Y-94250000D01*
G75*
G02*
X115625000Y-94350000I-100000J0D01*
G01*
X115425000Y-94350000D01*
G75*
G02*
X115325000Y-94250000I0J100000D01*
G01*
X115325000Y-92975000D01*
G75*
G02*
X115425000Y-92875000I100000J0D01*
G01*
G37*
G36*
G01*
X114775000Y-92875000D02*
X114975000Y-92875000D01*
G75*
G02*
X115075000Y-92975000I0J-100000D01*
G01*
X115075000Y-94250000D01*
G75*
G02*
X114975000Y-94350000I-100000J0D01*
G01*
X114775000Y-94350000D01*
G75*
G02*
X114675000Y-94250000I0J100000D01*
G01*
X114675000Y-92975000D01*
G75*
G02*
X114775000Y-92875000I100000J0D01*
G01*
G37*
G36*
G01*
X114125000Y-92875000D02*
X114325000Y-92875000D01*
G75*
G02*
X114425000Y-92975000I0J-100000D01*
G01*
X114425000Y-94250000D01*
G75*
G02*
X114325000Y-94350000I-100000J0D01*
G01*
X114125000Y-94350000D01*
G75*
G02*
X114025000Y-94250000I0J100000D01*
G01*
X114025000Y-92975000D01*
G75*
G02*
X114125000Y-92875000I100000J0D01*
G01*
G37*
G36*
G01*
X114125000Y-87150000D02*
X114325000Y-87150000D01*
G75*
G02*
X114425000Y-87250000I0J-100000D01*
G01*
X114425000Y-88525000D01*
G75*
G02*
X114325000Y-88625000I-100000J0D01*
G01*
X114125000Y-88625000D01*
G75*
G02*
X114025000Y-88525000I0J100000D01*
G01*
X114025000Y-87250000D01*
G75*
G02*
X114125000Y-87150000I100000J0D01*
G01*
G37*
G36*
G01*
X114775000Y-87150000D02*
X114975000Y-87150000D01*
G75*
G02*
X115075000Y-87250000I0J-100000D01*
G01*
X115075000Y-88525000D01*
G75*
G02*
X114975000Y-88625000I-100000J0D01*
G01*
X114775000Y-88625000D01*
G75*
G02*
X114675000Y-88525000I0J100000D01*
G01*
X114675000Y-87250000D01*
G75*
G02*
X114775000Y-87150000I100000J0D01*
G01*
G37*
G36*
G01*
X115425000Y-87150000D02*
X115625000Y-87150000D01*
G75*
G02*
X115725000Y-87250000I0J-100000D01*
G01*
X115725000Y-88525000D01*
G75*
G02*
X115625000Y-88625000I-100000J0D01*
G01*
X115425000Y-88625000D01*
G75*
G02*
X115325000Y-88525000I0J100000D01*
G01*
X115325000Y-87250000D01*
G75*
G02*
X115425000Y-87150000I100000J0D01*
G01*
G37*
G36*
G01*
X116075000Y-87150000D02*
X116275000Y-87150000D01*
G75*
G02*
X116375000Y-87250000I0J-100000D01*
G01*
X116375000Y-88525000D01*
G75*
G02*
X116275000Y-88625000I-100000J0D01*
G01*
X116075000Y-88625000D01*
G75*
G02*
X115975000Y-88525000I0J100000D01*
G01*
X115975000Y-87250000D01*
G75*
G02*
X116075000Y-87150000I100000J0D01*
G01*
G37*
G36*
G01*
X116725000Y-87150000D02*
X116925000Y-87150000D01*
G75*
G02*
X117025000Y-87250000I0J-100000D01*
G01*
X117025000Y-88525000D01*
G75*
G02*
X116925000Y-88625000I-100000J0D01*
G01*
X116725000Y-88625000D01*
G75*
G02*
X116625000Y-88525000I0J100000D01*
G01*
X116625000Y-87250000D01*
G75*
G02*
X116725000Y-87150000I100000J0D01*
G01*
G37*
G36*
G01*
X117375000Y-87150000D02*
X117575000Y-87150000D01*
G75*
G02*
X117675000Y-87250000I0J-100000D01*
G01*
X117675000Y-88525000D01*
G75*
G02*
X117575000Y-88625000I-100000J0D01*
G01*
X117375000Y-88625000D01*
G75*
G02*
X117275000Y-88525000I0J100000D01*
G01*
X117275000Y-87250000D01*
G75*
G02*
X117375000Y-87150000I100000J0D01*
G01*
G37*
G36*
G01*
X118025000Y-87150000D02*
X118225000Y-87150000D01*
G75*
G02*
X118325000Y-87250000I0J-100000D01*
G01*
X118325000Y-88525000D01*
G75*
G02*
X118225000Y-88625000I-100000J0D01*
G01*
X118025000Y-88625000D01*
G75*
G02*
X117925000Y-88525000I0J100000D01*
G01*
X117925000Y-87250000D01*
G75*
G02*
X118025000Y-87150000I100000J0D01*
G01*
G37*
G36*
G01*
X118675000Y-87150000D02*
X118875000Y-87150000D01*
G75*
G02*
X118975000Y-87250000I0J-100000D01*
G01*
X118975000Y-88525000D01*
G75*
G02*
X118875000Y-88625000I-100000J0D01*
G01*
X118675000Y-88625000D01*
G75*
G02*
X118575000Y-88525000I0J100000D01*
G01*
X118575000Y-87250000D01*
G75*
G02*
X118675000Y-87150000I100000J0D01*
G01*
G37*
G36*
G01*
X124925000Y-92875000D02*
X125125000Y-92875000D01*
G75*
G02*
X125225000Y-92975000I0J-100000D01*
G01*
X125225000Y-94250000D01*
G75*
G02*
X125125000Y-94350000I-100000J0D01*
G01*
X124925000Y-94350000D01*
G75*
G02*
X124825000Y-94250000I0J100000D01*
G01*
X124825000Y-92975000D01*
G75*
G02*
X124925000Y-92875000I100000J0D01*
G01*
G37*
G36*
G01*
X124275000Y-92875000D02*
X124475000Y-92875000D01*
G75*
G02*
X124575000Y-92975000I0J-100000D01*
G01*
X124575000Y-94250000D01*
G75*
G02*
X124475000Y-94350000I-100000J0D01*
G01*
X124275000Y-94350000D01*
G75*
G02*
X124175000Y-94250000I0J100000D01*
G01*
X124175000Y-92975000D01*
G75*
G02*
X124275000Y-92875000I100000J0D01*
G01*
G37*
G36*
G01*
X123625000Y-92875000D02*
X123825000Y-92875000D01*
G75*
G02*
X123925000Y-92975000I0J-100000D01*
G01*
X123925000Y-94250000D01*
G75*
G02*
X123825000Y-94350000I-100000J0D01*
G01*
X123625000Y-94350000D01*
G75*
G02*
X123525000Y-94250000I0J100000D01*
G01*
X123525000Y-92975000D01*
G75*
G02*
X123625000Y-92875000I100000J0D01*
G01*
G37*
G36*
G01*
X122975000Y-92875000D02*
X123175000Y-92875000D01*
G75*
G02*
X123275000Y-92975000I0J-100000D01*
G01*
X123275000Y-94250000D01*
G75*
G02*
X123175000Y-94350000I-100000J0D01*
G01*
X122975000Y-94350000D01*
G75*
G02*
X122875000Y-94250000I0J100000D01*
G01*
X122875000Y-92975000D01*
G75*
G02*
X122975000Y-92875000I100000J0D01*
G01*
G37*
G36*
G01*
X122325000Y-92875000D02*
X122525000Y-92875000D01*
G75*
G02*
X122625000Y-92975000I0J-100000D01*
G01*
X122625000Y-94250000D01*
G75*
G02*
X122525000Y-94350000I-100000J0D01*
G01*
X122325000Y-94350000D01*
G75*
G02*
X122225000Y-94250000I0J100000D01*
G01*
X122225000Y-92975000D01*
G75*
G02*
X122325000Y-92875000I100000J0D01*
G01*
G37*
G36*
G01*
X121675000Y-92875000D02*
X121875000Y-92875000D01*
G75*
G02*
X121975000Y-92975000I0J-100000D01*
G01*
X121975000Y-94250000D01*
G75*
G02*
X121875000Y-94350000I-100000J0D01*
G01*
X121675000Y-94350000D01*
G75*
G02*
X121575000Y-94250000I0J100000D01*
G01*
X121575000Y-92975000D01*
G75*
G02*
X121675000Y-92875000I100000J0D01*
G01*
G37*
G36*
G01*
X121025000Y-92875000D02*
X121225000Y-92875000D01*
G75*
G02*
X121325000Y-92975000I0J-100000D01*
G01*
X121325000Y-94250000D01*
G75*
G02*
X121225000Y-94350000I-100000J0D01*
G01*
X121025000Y-94350000D01*
G75*
G02*
X120925000Y-94250000I0J100000D01*
G01*
X120925000Y-92975000D01*
G75*
G02*
X121025000Y-92875000I100000J0D01*
G01*
G37*
G36*
G01*
X120375000Y-92875000D02*
X120575000Y-92875000D01*
G75*
G02*
X120675000Y-92975000I0J-100000D01*
G01*
X120675000Y-94250000D01*
G75*
G02*
X120575000Y-94350000I-100000J0D01*
G01*
X120375000Y-94350000D01*
G75*
G02*
X120275000Y-94250000I0J100000D01*
G01*
X120275000Y-92975000D01*
G75*
G02*
X120375000Y-92875000I100000J0D01*
G01*
G37*
G36*
G01*
X120375000Y-87150000D02*
X120575000Y-87150000D01*
G75*
G02*
X120675000Y-87250000I0J-100000D01*
G01*
X120675000Y-88525000D01*
G75*
G02*
X120575000Y-88625000I-100000J0D01*
G01*
X120375000Y-88625000D01*
G75*
G02*
X120275000Y-88525000I0J100000D01*
G01*
X120275000Y-87250000D01*
G75*
G02*
X120375000Y-87150000I100000J0D01*
G01*
G37*
G36*
G01*
X121025000Y-87150000D02*
X121225000Y-87150000D01*
G75*
G02*
X121325000Y-87250000I0J-100000D01*
G01*
X121325000Y-88525000D01*
G75*
G02*
X121225000Y-88625000I-100000J0D01*
G01*
X121025000Y-88625000D01*
G75*
G02*
X120925000Y-88525000I0J100000D01*
G01*
X120925000Y-87250000D01*
G75*
G02*
X121025000Y-87150000I100000J0D01*
G01*
G37*
G36*
G01*
X121675000Y-87150000D02*
X121875000Y-87150000D01*
G75*
G02*
X121975000Y-87250000I0J-100000D01*
G01*
X121975000Y-88525000D01*
G75*
G02*
X121875000Y-88625000I-100000J0D01*
G01*
X121675000Y-88625000D01*
G75*
G02*
X121575000Y-88525000I0J100000D01*
G01*
X121575000Y-87250000D01*
G75*
G02*
X121675000Y-87150000I100000J0D01*
G01*
G37*
G36*
G01*
X122325000Y-87150000D02*
X122525000Y-87150000D01*
G75*
G02*
X122625000Y-87250000I0J-100000D01*
G01*
X122625000Y-88525000D01*
G75*
G02*
X122525000Y-88625000I-100000J0D01*
G01*
X122325000Y-88625000D01*
G75*
G02*
X122225000Y-88525000I0J100000D01*
G01*
X122225000Y-87250000D01*
G75*
G02*
X122325000Y-87150000I100000J0D01*
G01*
G37*
G36*
G01*
X122975000Y-87150000D02*
X123175000Y-87150000D01*
G75*
G02*
X123275000Y-87250000I0J-100000D01*
G01*
X123275000Y-88525000D01*
G75*
G02*
X123175000Y-88625000I-100000J0D01*
G01*
X122975000Y-88625000D01*
G75*
G02*
X122875000Y-88525000I0J100000D01*
G01*
X122875000Y-87250000D01*
G75*
G02*
X122975000Y-87150000I100000J0D01*
G01*
G37*
G36*
G01*
X123625000Y-87150000D02*
X123825000Y-87150000D01*
G75*
G02*
X123925000Y-87250000I0J-100000D01*
G01*
X123925000Y-88525000D01*
G75*
G02*
X123825000Y-88625000I-100000J0D01*
G01*
X123625000Y-88625000D01*
G75*
G02*
X123525000Y-88525000I0J100000D01*
G01*
X123525000Y-87250000D01*
G75*
G02*
X123625000Y-87150000I100000J0D01*
G01*
G37*
G36*
G01*
X124275000Y-87150000D02*
X124475000Y-87150000D01*
G75*
G02*
X124575000Y-87250000I0J-100000D01*
G01*
X124575000Y-88525000D01*
G75*
G02*
X124475000Y-88625000I-100000J0D01*
G01*
X124275000Y-88625000D01*
G75*
G02*
X124175000Y-88525000I0J100000D01*
G01*
X124175000Y-87250000D01*
G75*
G02*
X124275000Y-87150000I100000J0D01*
G01*
G37*
G36*
G01*
X124925000Y-87150000D02*
X125125000Y-87150000D01*
G75*
G02*
X125225000Y-87250000I0J-100000D01*
G01*
X125225000Y-88525000D01*
G75*
G02*
X125125000Y-88625000I-100000J0D01*
G01*
X124925000Y-88625000D01*
G75*
G02*
X124825000Y-88525000I0J100000D01*
G01*
X124825000Y-87250000D01*
G75*
G02*
X124925000Y-87150000I100000J0D01*
G01*
G37*
G36*
G01*
X160375000Y-111175001D02*
X160375000Y-110624999D01*
G75*
G02*
X160624999Y-110375000I249999J0D01*
G01*
X161175001Y-110375000D01*
G75*
G02*
X161425000Y-110624999I0J-249999D01*
G01*
X161425000Y-111175001D01*
G75*
G02*
X161175001Y-111425000I-249999J0D01*
G01*
X160624999Y-111425000D01*
G75*
G02*
X160375000Y-111175001I0J249999D01*
G01*
G37*
G36*
G01*
X160375000Y-109875001D02*
X160375000Y-109324999D01*
G75*
G02*
X160624999Y-109075000I249999J0D01*
G01*
X161175001Y-109075000D01*
G75*
G02*
X161425000Y-109324999I0J-249999D01*
G01*
X161425000Y-109875001D01*
G75*
G02*
X161175001Y-110125000I-249999J0D01*
G01*
X160624999Y-110125000D01*
G75*
G02*
X160375000Y-109875001I0J249999D01*
G01*
G37*
G36*
G01*
X159075000Y-111175001D02*
X159075000Y-110624999D01*
G75*
G02*
X159324999Y-110375000I249999J0D01*
G01*
X159875001Y-110375000D01*
G75*
G02*
X160125000Y-110624999I0J-249999D01*
G01*
X160125000Y-111175001D01*
G75*
G02*
X159875001Y-111425000I-249999J0D01*
G01*
X159324999Y-111425000D01*
G75*
G02*
X159075000Y-111175001I0J249999D01*
G01*
G37*
G36*
G01*
X159075000Y-109875001D02*
X159075000Y-109324999D01*
G75*
G02*
X159324999Y-109075000I249999J0D01*
G01*
X159875001Y-109075000D01*
G75*
G02*
X160125000Y-109324999I0J-249999D01*
G01*
X160125000Y-109875001D01*
G75*
G02*
X159875001Y-110125000I-249999J0D01*
G01*
X159324999Y-110125000D01*
G75*
G02*
X159075000Y-109875001I0J249999D01*
G01*
G37*
G36*
G01*
X158875000Y-108662500D02*
X158875000Y-107962500D01*
G75*
G02*
X158937500Y-107900000I62500J0D01*
G01*
X159062500Y-107900000D01*
G75*
G02*
X159125000Y-107962500I0J-62500D01*
G01*
X159125000Y-108662500D01*
G75*
G02*
X159062500Y-108725000I-62500J0D01*
G01*
X158937500Y-108725000D01*
G75*
G02*
X158875000Y-108662500I0J62500D01*
G01*
G37*
G36*
G01*
X159375000Y-108662500D02*
X159375000Y-107962500D01*
G75*
G02*
X159437500Y-107900000I62500J0D01*
G01*
X159562500Y-107900000D01*
G75*
G02*
X159625000Y-107962500I0J-62500D01*
G01*
X159625000Y-108662500D01*
G75*
G02*
X159562500Y-108725000I-62500J0D01*
G01*
X159437500Y-108725000D01*
G75*
G02*
X159375000Y-108662500I0J62500D01*
G01*
G37*
G36*
G01*
X159875000Y-108662500D02*
X159875000Y-107962500D01*
G75*
G02*
X159937500Y-107900000I62500J0D01*
G01*
X160062500Y-107900000D01*
G75*
G02*
X160125000Y-107962500I0J-62500D01*
G01*
X160125000Y-108662500D01*
G75*
G02*
X160062500Y-108725000I-62500J0D01*
G01*
X159937500Y-108725000D01*
G75*
G02*
X159875000Y-108662500I0J62500D01*
G01*
G37*
G36*
G01*
X160375000Y-108662500D02*
X160375000Y-107962500D01*
G75*
G02*
X160437500Y-107900000I62500J0D01*
G01*
X160562500Y-107900000D01*
G75*
G02*
X160625000Y-107962500I0J-62500D01*
G01*
X160625000Y-108662500D01*
G75*
G02*
X160562500Y-108725000I-62500J0D01*
G01*
X160437500Y-108725000D01*
G75*
G02*
X160375000Y-108662500I0J62500D01*
G01*
G37*
G36*
G01*
X160875000Y-108662500D02*
X160875000Y-107962500D01*
G75*
G02*
X160937500Y-107900000I62500J0D01*
G01*
X161062500Y-107900000D01*
G75*
G02*
X161125000Y-107962500I0J-62500D01*
G01*
X161125000Y-108662500D01*
G75*
G02*
X161062500Y-108725000I-62500J0D01*
G01*
X160937500Y-108725000D01*
G75*
G02*
X160875000Y-108662500I0J62500D01*
G01*
G37*
G36*
G01*
X161375000Y-108662500D02*
X161375000Y-107962500D01*
G75*
G02*
X161437500Y-107900000I62500J0D01*
G01*
X161562500Y-107900000D01*
G75*
G02*
X161625000Y-107962500I0J-62500D01*
G01*
X161625000Y-108662500D01*
G75*
G02*
X161562500Y-108725000I-62500J0D01*
G01*
X161437500Y-108725000D01*
G75*
G02*
X161375000Y-108662500I0J62500D01*
G01*
G37*
G36*
G01*
X161775000Y-109062500D02*
X161775000Y-108937500D01*
G75*
G02*
X161837500Y-108875000I62500J0D01*
G01*
X162537500Y-108875000D01*
G75*
G02*
X162600000Y-108937500I0J-62500D01*
G01*
X162600000Y-109062500D01*
G75*
G02*
X162537500Y-109125000I-62500J0D01*
G01*
X161837500Y-109125000D01*
G75*
G02*
X161775000Y-109062500I0J62500D01*
G01*
G37*
G36*
G01*
X161775000Y-109562500D02*
X161775000Y-109437500D01*
G75*
G02*
X161837500Y-109375000I62500J0D01*
G01*
X162537500Y-109375000D01*
G75*
G02*
X162600000Y-109437500I0J-62500D01*
G01*
X162600000Y-109562500D01*
G75*
G02*
X162537500Y-109625000I-62500J0D01*
G01*
X161837500Y-109625000D01*
G75*
G02*
X161775000Y-109562500I0J62500D01*
G01*
G37*
G36*
G01*
X161775000Y-110062500D02*
X161775000Y-109937500D01*
G75*
G02*
X161837500Y-109875000I62500J0D01*
G01*
X162537500Y-109875000D01*
G75*
G02*
X162600000Y-109937500I0J-62500D01*
G01*
X162600000Y-110062500D01*
G75*
G02*
X162537500Y-110125000I-62500J0D01*
G01*
X161837500Y-110125000D01*
G75*
G02*
X161775000Y-110062500I0J62500D01*
G01*
G37*
G36*
G01*
X161775000Y-110562500D02*
X161775000Y-110437500D01*
G75*
G02*
X161837500Y-110375000I62500J0D01*
G01*
X162537500Y-110375000D01*
G75*
G02*
X162600000Y-110437500I0J-62500D01*
G01*
X162600000Y-110562500D01*
G75*
G02*
X162537500Y-110625000I-62500J0D01*
G01*
X161837500Y-110625000D01*
G75*
G02*
X161775000Y-110562500I0J62500D01*
G01*
G37*
G36*
G01*
X161775000Y-111062500D02*
X161775000Y-110937500D01*
G75*
G02*
X161837500Y-110875000I62500J0D01*
G01*
X162537500Y-110875000D01*
G75*
G02*
X162600000Y-110937500I0J-62500D01*
G01*
X162600000Y-111062500D01*
G75*
G02*
X162537500Y-111125000I-62500J0D01*
G01*
X161837500Y-111125000D01*
G75*
G02*
X161775000Y-111062500I0J62500D01*
G01*
G37*
G36*
G01*
X161775000Y-111562500D02*
X161775000Y-111437500D01*
G75*
G02*
X161837500Y-111375000I62500J0D01*
G01*
X162537500Y-111375000D01*
G75*
G02*
X162600000Y-111437500I0J-62500D01*
G01*
X162600000Y-111562500D01*
G75*
G02*
X162537500Y-111625000I-62500J0D01*
G01*
X161837500Y-111625000D01*
G75*
G02*
X161775000Y-111562500I0J62500D01*
G01*
G37*
G36*
G01*
X161375000Y-112537500D02*
X161375000Y-111837500D01*
G75*
G02*
X161437500Y-111775000I62500J0D01*
G01*
X161562500Y-111775000D01*
G75*
G02*
X161625000Y-111837500I0J-62500D01*
G01*
X161625000Y-112537500D01*
G75*
G02*
X161562500Y-112600000I-62500J0D01*
G01*
X161437500Y-112600000D01*
G75*
G02*
X161375000Y-112537500I0J62500D01*
G01*
G37*
G36*
G01*
X160875000Y-112537500D02*
X160875000Y-111837500D01*
G75*
G02*
X160937500Y-111775000I62500J0D01*
G01*
X161062500Y-111775000D01*
G75*
G02*
X161125000Y-111837500I0J-62500D01*
G01*
X161125000Y-112537500D01*
G75*
G02*
X161062500Y-112600000I-62500J0D01*
G01*
X160937500Y-112600000D01*
G75*
G02*
X160875000Y-112537500I0J62500D01*
G01*
G37*
G36*
G01*
X160375000Y-112537500D02*
X160375000Y-111837500D01*
G75*
G02*
X160437500Y-111775000I62500J0D01*
G01*
X160562500Y-111775000D01*
G75*
G02*
X160625000Y-111837500I0J-62500D01*
G01*
X160625000Y-112537500D01*
G75*
G02*
X160562500Y-112600000I-62500J0D01*
G01*
X160437500Y-112600000D01*
G75*
G02*
X160375000Y-112537500I0J62500D01*
G01*
G37*
G36*
G01*
X159875000Y-112537500D02*
X159875000Y-111837500D01*
G75*
G02*
X159937500Y-111775000I62500J0D01*
G01*
X160062500Y-111775000D01*
G75*
G02*
X160125000Y-111837500I0J-62500D01*
G01*
X160125000Y-112537500D01*
G75*
G02*
X160062500Y-112600000I-62500J0D01*
G01*
X159937500Y-112600000D01*
G75*
G02*
X159875000Y-112537500I0J62500D01*
G01*
G37*
G36*
G01*
X159375000Y-112537500D02*
X159375000Y-111837500D01*
G75*
G02*
X159437500Y-111775000I62500J0D01*
G01*
X159562500Y-111775000D01*
G75*
G02*
X159625000Y-111837500I0J-62500D01*
G01*
X159625000Y-112537500D01*
G75*
G02*
X159562500Y-112600000I-62500J0D01*
G01*
X159437500Y-112600000D01*
G75*
G02*
X159375000Y-112537500I0J62500D01*
G01*
G37*
G36*
G01*
X158875000Y-112537500D02*
X158875000Y-111837500D01*
G75*
G02*
X158937500Y-111775000I62500J0D01*
G01*
X159062500Y-111775000D01*
G75*
G02*
X159125000Y-111837500I0J-62500D01*
G01*
X159125000Y-112537500D01*
G75*
G02*
X159062500Y-112600000I-62500J0D01*
G01*
X158937500Y-112600000D01*
G75*
G02*
X158875000Y-112537500I0J62500D01*
G01*
G37*
G36*
G01*
X157900000Y-111562500D02*
X157900000Y-111437500D01*
G75*
G02*
X157962500Y-111375000I62500J0D01*
G01*
X158662500Y-111375000D01*
G75*
G02*
X158725000Y-111437500I0J-62500D01*
G01*
X158725000Y-111562500D01*
G75*
G02*
X158662500Y-111625000I-62500J0D01*
G01*
X157962500Y-111625000D01*
G75*
G02*
X157900000Y-111562500I0J62500D01*
G01*
G37*
G36*
G01*
X157900000Y-111062500D02*
X157900000Y-110937500D01*
G75*
G02*
X157962500Y-110875000I62500J0D01*
G01*
X158662500Y-110875000D01*
G75*
G02*
X158725000Y-110937500I0J-62500D01*
G01*
X158725000Y-111062500D01*
G75*
G02*
X158662500Y-111125000I-62500J0D01*
G01*
X157962500Y-111125000D01*
G75*
G02*
X157900000Y-111062500I0J62500D01*
G01*
G37*
G36*
G01*
X157900000Y-110562500D02*
X157900000Y-110437500D01*
G75*
G02*
X157962500Y-110375000I62500J0D01*
G01*
X158662500Y-110375000D01*
G75*
G02*
X158725000Y-110437500I0J-62500D01*
G01*
X158725000Y-110562500D01*
G75*
G02*
X158662500Y-110625000I-62500J0D01*
G01*
X157962500Y-110625000D01*
G75*
G02*
X157900000Y-110562500I0J62500D01*
G01*
G37*
G36*
G01*
X157900000Y-110062500D02*
X157900000Y-109937500D01*
G75*
G02*
X157962500Y-109875000I62500J0D01*
G01*
X158662500Y-109875000D01*
G75*
G02*
X158725000Y-109937500I0J-62500D01*
G01*
X158725000Y-110062500D01*
G75*
G02*
X158662500Y-110125000I-62500J0D01*
G01*
X157962500Y-110125000D01*
G75*
G02*
X157900000Y-110062500I0J62500D01*
G01*
G37*
G36*
G01*
X157900000Y-109562500D02*
X157900000Y-109437500D01*
G75*
G02*
X157962500Y-109375000I62500J0D01*
G01*
X158662500Y-109375000D01*
G75*
G02*
X158725000Y-109437500I0J-62500D01*
G01*
X158725000Y-109562500D01*
G75*
G02*
X158662500Y-109625000I-62500J0D01*
G01*
X157962500Y-109625000D01*
G75*
G02*
X157900000Y-109562500I0J62500D01*
G01*
G37*
G36*
G01*
X157900000Y-109062500D02*
X157900000Y-108937500D01*
G75*
G02*
X157962500Y-108875000I62500J0D01*
G01*
X158662500Y-108875000D01*
G75*
G02*
X158725000Y-108937500I0J-62500D01*
G01*
X158725000Y-109062500D01*
G75*
G02*
X158662500Y-109125000I-62500J0D01*
G01*
X157962500Y-109125000D01*
G75*
G02*
X157900000Y-109062500I0J62500D01*
G01*
G37*
X138400000Y-104250000D03*
X138400000Y-105200000D03*
X138400000Y-103300000D03*
X140600000Y-103300000D03*
X140600000Y-104250000D03*
X140600000Y-105200000D03*
D14*
X152000000Y-114100000D03*
X152950000Y-114100000D03*
X151050000Y-114100000D03*
X151050000Y-111900000D03*
X152000000Y-111900000D03*
X152950000Y-111900000D03*
G36*
G01*
X151930000Y-108245000D02*
X151930000Y-108535000D01*
G75*
G02*
X151785000Y-108680000I-145000J0D01*
G01*
X151495000Y-108680000D01*
G75*
G02*
X151350000Y-108535000I0J145000D01*
G01*
X151350000Y-108245000D01*
G75*
G02*
X151495000Y-108100000I145000J0D01*
G01*
X151785000Y-108100000D01*
G75*
G02*
X151930000Y-108245000I0J-145000D01*
G01*
G37*
G36*
G01*
X151930000Y-108965000D02*
X151930000Y-109255000D01*
G75*
G02*
X151785000Y-109400000I-145000J0D01*
G01*
X151495000Y-109400000D01*
G75*
G02*
X151350000Y-109255000I0J145000D01*
G01*
X151350000Y-108965000D01*
G75*
G02*
X151495000Y-108820000I145000J0D01*
G01*
X151785000Y-108820000D01*
G75*
G02*
X151930000Y-108965000I0J-145000D01*
G01*
G37*
G36*
G01*
X152650000Y-108245000D02*
X152650000Y-108535000D01*
G75*
G02*
X152505000Y-108680000I-145000J0D01*
G01*
X152215000Y-108680000D01*
G75*
G02*
X152070000Y-108535000I0J145000D01*
G01*
X152070000Y-108245000D01*
G75*
G02*
X152215000Y-108100000I145000J0D01*
G01*
X152505000Y-108100000D01*
G75*
G02*
X152650000Y-108245000I0J-145000D01*
G01*
G37*
G36*
G01*
X152650000Y-108965000D02*
X152650000Y-109255000D01*
G75*
G02*
X152505000Y-109400000I-145000J0D01*
G01*
X152215000Y-109400000D01*
G75*
G02*
X152070000Y-109255000I0J145000D01*
G01*
X152070000Y-108965000D01*
G75*
G02*
X152215000Y-108820000I145000J0D01*
G01*
X152505000Y-108820000D01*
G75*
G02*
X152650000Y-108965000I0J-145000D01*
G01*
G37*
G36*
G01*
X152875000Y-109737500D02*
X152875000Y-110287500D01*
G75*
G02*
X152812500Y-110350000I-62500J0D01*
G01*
X152687500Y-110350000D01*
G75*
G02*
X152625000Y-110287500I0J62500D01*
G01*
X152625000Y-109737500D01*
G75*
G02*
X152687500Y-109675000I62500J0D01*
G01*
X152812500Y-109675000D01*
G75*
G02*
X152875000Y-109737500I0J-62500D01*
G01*
G37*
G36*
G01*
X152375000Y-109737500D02*
X152375000Y-110287500D01*
G75*
G02*
X152312500Y-110350000I-62500J0D01*
G01*
X152187500Y-110350000D01*
G75*
G02*
X152125000Y-110287500I0J62500D01*
G01*
X152125000Y-109737500D01*
G75*
G02*
X152187500Y-109675000I62500J0D01*
G01*
X152312500Y-109675000D01*
G75*
G02*
X152375000Y-109737500I0J-62500D01*
G01*
G37*
G36*
G01*
X151875000Y-109737500D02*
X151875000Y-110287500D01*
G75*
G02*
X151812500Y-110350000I-62500J0D01*
G01*
X151687500Y-110350000D01*
G75*
G02*
X151625000Y-110287500I0J62500D01*
G01*
X151625000Y-109737500D01*
G75*
G02*
X151687500Y-109675000I62500J0D01*
G01*
X151812500Y-109675000D01*
G75*
G02*
X151875000Y-109737500I0J-62500D01*
G01*
G37*
G36*
G01*
X151375000Y-109737500D02*
X151375000Y-110287500D01*
G75*
G02*
X151312500Y-110350000I-62500J0D01*
G01*
X151187500Y-110350000D01*
G75*
G02*
X151125000Y-110287500I0J62500D01*
G01*
X151125000Y-109737500D01*
G75*
G02*
X151187500Y-109675000I62500J0D01*
G01*
X151312500Y-109675000D01*
G75*
G02*
X151375000Y-109737500I0J-62500D01*
G01*
G37*
G36*
G01*
X151075000Y-109187500D02*
X151075000Y-109312500D01*
G75*
G02*
X151012500Y-109375000I-62500J0D01*
G01*
X150462500Y-109375000D01*
G75*
G02*
X150400000Y-109312500I0J62500D01*
G01*
X150400000Y-109187500D01*
G75*
G02*
X150462500Y-109125000I62500J0D01*
G01*
X151012500Y-109125000D01*
G75*
G02*
X151075000Y-109187500I0J-62500D01*
G01*
G37*
G36*
G01*
X151075000Y-108687500D02*
X151075000Y-108812500D01*
G75*
G02*
X151012500Y-108875000I-62500J0D01*
G01*
X150462500Y-108875000D01*
G75*
G02*
X150400000Y-108812500I0J62500D01*
G01*
X150400000Y-108687500D01*
G75*
G02*
X150462500Y-108625000I62500J0D01*
G01*
X151012500Y-108625000D01*
G75*
G02*
X151075000Y-108687500I0J-62500D01*
G01*
G37*
G36*
G01*
X151075000Y-108187500D02*
X151075000Y-108312500D01*
G75*
G02*
X151012500Y-108375000I-62500J0D01*
G01*
X150462500Y-108375000D01*
G75*
G02*
X150400000Y-108312500I0J62500D01*
G01*
X150400000Y-108187500D01*
G75*
G02*
X150462500Y-108125000I62500J0D01*
G01*
X151012500Y-108125000D01*
G75*
G02*
X151075000Y-108187500I0J-62500D01*
G01*
G37*
G36*
G01*
X151375000Y-107212500D02*
X151375000Y-107762500D01*
G75*
G02*
X151312500Y-107825000I-62500J0D01*
G01*
X151187500Y-107825000D01*
G75*
G02*
X151125000Y-107762500I0J62500D01*
G01*
X151125000Y-107212500D01*
G75*
G02*
X151187500Y-107150000I62500J0D01*
G01*
X151312500Y-107150000D01*
G75*
G02*
X151375000Y-107212500I0J-62500D01*
G01*
G37*
G36*
G01*
X151875000Y-107212500D02*
X151875000Y-107762500D01*
G75*
G02*
X151812500Y-107825000I-62500J0D01*
G01*
X151687500Y-107825000D01*
G75*
G02*
X151625000Y-107762500I0J62500D01*
G01*
X151625000Y-107212500D01*
G75*
G02*
X151687500Y-107150000I62500J0D01*
G01*
X151812500Y-107150000D01*
G75*
G02*
X151875000Y-107212500I0J-62500D01*
G01*
G37*
G36*
G01*
X152375000Y-107212500D02*
X152375000Y-107762500D01*
G75*
G02*
X152312500Y-107825000I-62500J0D01*
G01*
X152187500Y-107825000D01*
G75*
G02*
X152125000Y-107762500I0J62500D01*
G01*
X152125000Y-107212500D01*
G75*
G02*
X152187500Y-107150000I62500J0D01*
G01*
X152312500Y-107150000D01*
G75*
G02*
X152375000Y-107212500I0J-62500D01*
G01*
G37*
G36*
G01*
X152875000Y-107212500D02*
X152875000Y-107762500D01*
G75*
G02*
X152812500Y-107825000I-62500J0D01*
G01*
X152687500Y-107825000D01*
G75*
G02*
X152625000Y-107762500I0J62500D01*
G01*
X152625000Y-107212500D01*
G75*
G02*
X152687500Y-107150000I62500J0D01*
G01*
X152812500Y-107150000D01*
G75*
G02*
X152875000Y-107212500I0J-62500D01*
G01*
G37*
G36*
G01*
X153600000Y-108187500D02*
X153600000Y-108312500D01*
G75*
G02*
X153537500Y-108375000I-62500J0D01*
G01*
X152987500Y-108375000D01*
G75*
G02*
X152925000Y-108312500I0J62500D01*
G01*
X152925000Y-108187500D01*
G75*
G02*
X152987500Y-108125000I62500J0D01*
G01*
X153537500Y-108125000D01*
G75*
G02*
X153600000Y-108187500I0J-62500D01*
G01*
G37*
G36*
G01*
X153600000Y-108687500D02*
X153600000Y-108812500D01*
G75*
G02*
X153537500Y-108875000I-62500J0D01*
G01*
X152987500Y-108875000D01*
G75*
G02*
X152925000Y-108812500I0J62500D01*
G01*
X152925000Y-108687500D01*
G75*
G02*
X152987500Y-108625000I62500J0D01*
G01*
X153537500Y-108625000D01*
G75*
G02*
X153600000Y-108687500I0J-62500D01*
G01*
G37*
G36*
G01*
X153600000Y-109187500D02*
X153600000Y-109312500D01*
G75*
G02*
X153537500Y-109375000I-62500J0D01*
G01*
X152987500Y-109375000D01*
G75*
G02*
X152925000Y-109312500I0J62500D01*
G01*
X152925000Y-109187500D01*
G75*
G02*
X152987500Y-109125000I62500J0D01*
G01*
X153537500Y-109125000D01*
G75*
G02*
X153600000Y-109187500I0J-62500D01*
G01*
G37*
D15*
X161825000Y-118425000D03*
X161825000Y-122575000D03*
X159675000Y-118425000D03*
X159675000Y-122575000D03*
G36*
G01*
X162565000Y-103240000D02*
X162935000Y-103240000D01*
G75*
G02*
X163070000Y-103375000I0J-135000D01*
G01*
X163070000Y-103645000D01*
G75*
G02*
X162935000Y-103780000I-135000J0D01*
G01*
X162565000Y-103780000D01*
G75*
G02*
X162430000Y-103645000I0J135000D01*
G01*
X162430000Y-103375000D01*
G75*
G02*
X162565000Y-103240000I135000J0D01*
G01*
G37*
G36*
G01*
X162565000Y-102220000D02*
X162935000Y-102220000D01*
G75*
G02*
X163070000Y-102355000I0J-135000D01*
G01*
X163070000Y-102625000D01*
G75*
G02*
X162935000Y-102760000I-135000J0D01*
G01*
X162565000Y-102760000D01*
G75*
G02*
X162430000Y-102625000I0J135000D01*
G01*
X162430000Y-102355000D01*
G75*
G02*
X162565000Y-102220000I135000J0D01*
G01*
G37*
G36*
G01*
X162065000Y-115240000D02*
X162435000Y-115240000D01*
G75*
G02*
X162570000Y-115375000I0J-135000D01*
G01*
X162570000Y-115645000D01*
G75*
G02*
X162435000Y-115780000I-135000J0D01*
G01*
X162065000Y-115780000D01*
G75*
G02*
X161930000Y-115645000I0J135000D01*
G01*
X161930000Y-115375000D01*
G75*
G02*
X162065000Y-115240000I135000J0D01*
G01*
G37*
G36*
G01*
X162065000Y-114220000D02*
X162435000Y-114220000D01*
G75*
G02*
X162570000Y-114355000I0J-135000D01*
G01*
X162570000Y-114625000D01*
G75*
G02*
X162435000Y-114760000I-135000J0D01*
G01*
X162065000Y-114760000D01*
G75*
G02*
X161930000Y-114625000I0J135000D01*
G01*
X161930000Y-114355000D01*
G75*
G02*
X162065000Y-114220000I135000J0D01*
G01*
G37*
G36*
G01*
X163685000Y-118760000D02*
X163315000Y-118760000D01*
G75*
G02*
X163180000Y-118625000I0J135000D01*
G01*
X163180000Y-118355000D01*
G75*
G02*
X163315000Y-118220000I135000J0D01*
G01*
X163685000Y-118220000D01*
G75*
G02*
X163820000Y-118355000I0J-135000D01*
G01*
X163820000Y-118625000D01*
G75*
G02*
X163685000Y-118760000I-135000J0D01*
G01*
G37*
G36*
G01*
X163685000Y-119780000D02*
X163315000Y-119780000D01*
G75*
G02*
X163180000Y-119645000I0J135000D01*
G01*
X163180000Y-119375000D01*
G75*
G02*
X163315000Y-119240000I135000J0D01*
G01*
X163685000Y-119240000D01*
G75*
G02*
X163820000Y-119375000I0J-135000D01*
G01*
X163820000Y-119645000D01*
G75*
G02*
X163685000Y-119780000I-135000J0D01*
G01*
G37*
G36*
G01*
X164935000Y-118760000D02*
X164565000Y-118760000D01*
G75*
G02*
X164430000Y-118625000I0J135000D01*
G01*
X164430000Y-118355000D01*
G75*
G02*
X164565000Y-118220000I135000J0D01*
G01*
X164935000Y-118220000D01*
G75*
G02*
X165070000Y-118355000I0J-135000D01*
G01*
X165070000Y-118625000D01*
G75*
G02*
X164935000Y-118760000I-135000J0D01*
G01*
G37*
G36*
G01*
X164935000Y-119780000D02*
X164565000Y-119780000D01*
G75*
G02*
X164430000Y-119645000I0J135000D01*
G01*
X164430000Y-119375000D01*
G75*
G02*
X164565000Y-119240000I135000J0D01*
G01*
X164935000Y-119240000D01*
G75*
G02*
X165070000Y-119375000I0J-135000D01*
G01*
X165070000Y-119645000D01*
G75*
G02*
X164935000Y-119780000I-135000J0D01*
G01*
G37*
G36*
G01*
X161990000Y-116935000D02*
X161990000Y-116565000D01*
G75*
G02*
X162125000Y-116430000I135000J0D01*
G01*
X162395000Y-116430000D01*
G75*
G02*
X162530000Y-116565000I0J-135000D01*
G01*
X162530000Y-116935000D01*
G75*
G02*
X162395000Y-117070000I-135000J0D01*
G01*
X162125000Y-117070000D01*
G75*
G02*
X161990000Y-116935000I0J135000D01*
G01*
G37*
G36*
G01*
X160970000Y-116935000D02*
X160970000Y-116565000D01*
G75*
G02*
X161105000Y-116430000I135000J0D01*
G01*
X161375000Y-116430000D01*
G75*
G02*
X161510000Y-116565000I0J-135000D01*
G01*
X161510000Y-116935000D01*
G75*
G02*
X161375000Y-117070000I-135000J0D01*
G01*
X161105000Y-117070000D01*
G75*
G02*
X160970000Y-116935000I0J135000D01*
G01*
G37*
G36*
G01*
X180935000Y-95010000D02*
X180565000Y-95010000D01*
G75*
G02*
X180430000Y-94875000I0J135000D01*
G01*
X180430000Y-94605000D01*
G75*
G02*
X180565000Y-94470000I135000J0D01*
G01*
X180935000Y-94470000D01*
G75*
G02*
X181070000Y-94605000I0J-135000D01*
G01*
X181070000Y-94875000D01*
G75*
G02*
X180935000Y-95010000I-135000J0D01*
G01*
G37*
G36*
G01*
X180935000Y-96030000D02*
X180565000Y-96030000D01*
G75*
G02*
X180430000Y-95895000I0J135000D01*
G01*
X180430000Y-95625000D01*
G75*
G02*
X180565000Y-95490000I135000J0D01*
G01*
X180935000Y-95490000D01*
G75*
G02*
X181070000Y-95625000I0J-135000D01*
G01*
X181070000Y-95895000D01*
G75*
G02*
X180935000Y-96030000I-135000J0D01*
G01*
G37*
G36*
G01*
X182185000Y-95010000D02*
X181815000Y-95010000D01*
G75*
G02*
X181680000Y-94875000I0J135000D01*
G01*
X181680000Y-94605000D01*
G75*
G02*
X181815000Y-94470000I135000J0D01*
G01*
X182185000Y-94470000D01*
G75*
G02*
X182320000Y-94605000I0J-135000D01*
G01*
X182320000Y-94875000D01*
G75*
G02*
X182185000Y-95010000I-135000J0D01*
G01*
G37*
G36*
G01*
X182185000Y-96030000D02*
X181815000Y-96030000D01*
G75*
G02*
X181680000Y-95895000I0J135000D01*
G01*
X181680000Y-95625000D01*
G75*
G02*
X181815000Y-95490000I135000J0D01*
G01*
X182185000Y-95490000D01*
G75*
G02*
X182320000Y-95625000I0J-135000D01*
G01*
X182320000Y-95895000D01*
G75*
G02*
X182185000Y-96030000I-135000J0D01*
G01*
G37*
G36*
G01*
X160935000Y-114010000D02*
X160565000Y-114010000D01*
G75*
G02*
X160430000Y-113875000I0J135000D01*
G01*
X160430000Y-113605000D01*
G75*
G02*
X160565000Y-113470000I135000J0D01*
G01*
X160935000Y-113470000D01*
G75*
G02*
X161070000Y-113605000I0J-135000D01*
G01*
X161070000Y-113875000D01*
G75*
G02*
X160935000Y-114010000I-135000J0D01*
G01*
G37*
G36*
G01*
X160935000Y-115030000D02*
X160565000Y-115030000D01*
G75*
G02*
X160430000Y-114895000I0J135000D01*
G01*
X160430000Y-114625000D01*
G75*
G02*
X160565000Y-114490000I135000J0D01*
G01*
X160935000Y-114490000D01*
G75*
G02*
X161070000Y-114625000I0J-135000D01*
G01*
X161070000Y-114895000D01*
G75*
G02*
X160935000Y-115030000I-135000J0D01*
G01*
G37*
G36*
G01*
X161815000Y-106490000D02*
X162185000Y-106490000D01*
G75*
G02*
X162320000Y-106625000I0J-135000D01*
G01*
X162320000Y-106895000D01*
G75*
G02*
X162185000Y-107030000I-135000J0D01*
G01*
X161815000Y-107030000D01*
G75*
G02*
X161680000Y-106895000I0J135000D01*
G01*
X161680000Y-106625000D01*
G75*
G02*
X161815000Y-106490000I135000J0D01*
G01*
G37*
G36*
G01*
X161815000Y-105470000D02*
X162185000Y-105470000D01*
G75*
G02*
X162320000Y-105605000I0J-135000D01*
G01*
X162320000Y-105875000D01*
G75*
G02*
X162185000Y-106010000I-135000J0D01*
G01*
X161815000Y-106010000D01*
G75*
G02*
X161680000Y-105875000I0J135000D01*
G01*
X161680000Y-105605000D01*
G75*
G02*
X161815000Y-105470000I135000J0D01*
G01*
G37*
G36*
G01*
X158065000Y-106490000D02*
X158435000Y-106490000D01*
G75*
G02*
X158570000Y-106625000I0J-135000D01*
G01*
X158570000Y-106895000D01*
G75*
G02*
X158435000Y-107030000I-135000J0D01*
G01*
X158065000Y-107030000D01*
G75*
G02*
X157930000Y-106895000I0J135000D01*
G01*
X157930000Y-106625000D01*
G75*
G02*
X158065000Y-106490000I135000J0D01*
G01*
G37*
G36*
G01*
X158065000Y-105470000D02*
X158435000Y-105470000D01*
G75*
G02*
X158570000Y-105605000I0J-135000D01*
G01*
X158570000Y-105875000D01*
G75*
G02*
X158435000Y-106010000I-135000J0D01*
G01*
X158065000Y-106010000D01*
G75*
G02*
X157930000Y-105875000I0J135000D01*
G01*
X157930000Y-105605000D01*
G75*
G02*
X158065000Y-105470000I135000J0D01*
G01*
G37*
G36*
G01*
X159315000Y-114490000D02*
X159685000Y-114490000D01*
G75*
G02*
X159820000Y-114625000I0J-135000D01*
G01*
X159820000Y-114895000D01*
G75*
G02*
X159685000Y-115030000I-135000J0D01*
G01*
X159315000Y-115030000D01*
G75*
G02*
X159180000Y-114895000I0J135000D01*
G01*
X159180000Y-114625000D01*
G75*
G02*
X159315000Y-114490000I135000J0D01*
G01*
G37*
G36*
G01*
X159315000Y-113470000D02*
X159685000Y-113470000D01*
G75*
G02*
X159820000Y-113605000I0J-135000D01*
G01*
X159820000Y-113875000D01*
G75*
G02*
X159685000Y-114010000I-135000J0D01*
G01*
X159315000Y-114010000D01*
G75*
G02*
X159180000Y-113875000I0J135000D01*
G01*
X159180000Y-113605000D01*
G75*
G02*
X159315000Y-113470000I135000J0D01*
G01*
G37*
G36*
G01*
X142740000Y-103435000D02*
X142740000Y-103065000D01*
G75*
G02*
X142875000Y-102930000I135000J0D01*
G01*
X143145000Y-102930000D01*
G75*
G02*
X143280000Y-103065000I0J-135000D01*
G01*
X143280000Y-103435000D01*
G75*
G02*
X143145000Y-103570000I-135000J0D01*
G01*
X142875000Y-103570000D01*
G75*
G02*
X142740000Y-103435000I0J135000D01*
G01*
G37*
G36*
G01*
X141720000Y-103435000D02*
X141720000Y-103065000D01*
G75*
G02*
X141855000Y-102930000I135000J0D01*
G01*
X142125000Y-102930000D01*
G75*
G02*
X142260000Y-103065000I0J-135000D01*
G01*
X142260000Y-103435000D01*
G75*
G02*
X142125000Y-103570000I-135000J0D01*
G01*
X141855000Y-103570000D01*
G75*
G02*
X141720000Y-103435000I0J135000D01*
G01*
G37*
G36*
G01*
X141815000Y-101990000D02*
X142185000Y-101990000D01*
G75*
G02*
X142320000Y-102125000I0J-135000D01*
G01*
X142320000Y-102395000D01*
G75*
G02*
X142185000Y-102530000I-135000J0D01*
G01*
X141815000Y-102530000D01*
G75*
G02*
X141680000Y-102395000I0J135000D01*
G01*
X141680000Y-102125000D01*
G75*
G02*
X141815000Y-101990000I135000J0D01*
G01*
G37*
G36*
G01*
X141815000Y-100970000D02*
X142185000Y-100970000D01*
G75*
G02*
X142320000Y-101105000I0J-135000D01*
G01*
X142320000Y-101375000D01*
G75*
G02*
X142185000Y-101510000I-135000J0D01*
G01*
X141815000Y-101510000D01*
G75*
G02*
X141680000Y-101375000I0J135000D01*
G01*
X141680000Y-101105000D01*
G75*
G02*
X141815000Y-100970000I135000J0D01*
G01*
G37*
G36*
G01*
X154685000Y-110760000D02*
X154315000Y-110760000D01*
G75*
G02*
X154180000Y-110625000I0J135000D01*
G01*
X154180000Y-110355000D01*
G75*
G02*
X154315000Y-110220000I135000J0D01*
G01*
X154685000Y-110220000D01*
G75*
G02*
X154820000Y-110355000I0J-135000D01*
G01*
X154820000Y-110625000D01*
G75*
G02*
X154685000Y-110760000I-135000J0D01*
G01*
G37*
G36*
G01*
X154685000Y-111780000D02*
X154315000Y-111780000D01*
G75*
G02*
X154180000Y-111645000I0J135000D01*
G01*
X154180000Y-111375000D01*
G75*
G02*
X154315000Y-111240000I135000J0D01*
G01*
X154685000Y-111240000D01*
G75*
G02*
X154820000Y-111375000I0J-135000D01*
G01*
X154820000Y-111645000D01*
G75*
G02*
X154685000Y-111780000I-135000J0D01*
G01*
G37*
G36*
G01*
X149685000Y-110760000D02*
X149315000Y-110760000D01*
G75*
G02*
X149180000Y-110625000I0J135000D01*
G01*
X149180000Y-110355000D01*
G75*
G02*
X149315000Y-110220000I135000J0D01*
G01*
X149685000Y-110220000D01*
G75*
G02*
X149820000Y-110355000I0J-135000D01*
G01*
X149820000Y-110625000D01*
G75*
G02*
X149685000Y-110760000I-135000J0D01*
G01*
G37*
G36*
G01*
X149685000Y-111780000D02*
X149315000Y-111780000D01*
G75*
G02*
X149180000Y-111645000I0J135000D01*
G01*
X149180000Y-111375000D01*
G75*
G02*
X149315000Y-111240000I135000J0D01*
G01*
X149685000Y-111240000D01*
G75*
G02*
X149820000Y-111375000I0J-135000D01*
G01*
X149820000Y-111645000D01*
G75*
G02*
X149685000Y-111780000I-135000J0D01*
G01*
G37*
G36*
G01*
X150185000Y-105010000D02*
X149815000Y-105010000D01*
G75*
G02*
X149680000Y-104875000I0J135000D01*
G01*
X149680000Y-104605000D01*
G75*
G02*
X149815000Y-104470000I135000J0D01*
G01*
X150185000Y-104470000D01*
G75*
G02*
X150320000Y-104605000I0J-135000D01*
G01*
X150320000Y-104875000D01*
G75*
G02*
X150185000Y-105010000I-135000J0D01*
G01*
G37*
G36*
G01*
X150185000Y-106030000D02*
X149815000Y-106030000D01*
G75*
G02*
X149680000Y-105895000I0J135000D01*
G01*
X149680000Y-105625000D01*
G75*
G02*
X149815000Y-105490000I135000J0D01*
G01*
X150185000Y-105490000D01*
G75*
G02*
X150320000Y-105625000I0J-135000D01*
G01*
X150320000Y-105895000D01*
G75*
G02*
X150185000Y-106030000I-135000J0D01*
G01*
G37*
G36*
G01*
X151065000Y-105480000D02*
X151435000Y-105480000D01*
G75*
G02*
X151570000Y-105615000I0J-135000D01*
G01*
X151570000Y-105885000D01*
G75*
G02*
X151435000Y-106020000I-135000J0D01*
G01*
X151065000Y-106020000D01*
G75*
G02*
X150930000Y-105885000I0J135000D01*
G01*
X150930000Y-105615000D01*
G75*
G02*
X151065000Y-105480000I135000J0D01*
G01*
G37*
G36*
G01*
X151065000Y-104460000D02*
X151435000Y-104460000D01*
G75*
G02*
X151570000Y-104595000I0J-135000D01*
G01*
X151570000Y-104865000D01*
G75*
G02*
X151435000Y-105000000I-135000J0D01*
G01*
X151065000Y-105000000D01*
G75*
G02*
X150930000Y-104865000I0J135000D01*
G01*
X150930000Y-104595000D01*
G75*
G02*
X151065000Y-104460000I135000J0D01*
G01*
G37*
G36*
G01*
X138260000Y-101565000D02*
X138260000Y-101935000D01*
G75*
G02*
X138125000Y-102070000I-135000J0D01*
G01*
X137855000Y-102070000D01*
G75*
G02*
X137720000Y-101935000I0J135000D01*
G01*
X137720000Y-101565000D01*
G75*
G02*
X137855000Y-101430000I135000J0D01*
G01*
X138125000Y-101430000D01*
G75*
G02*
X138260000Y-101565000I0J-135000D01*
G01*
G37*
G36*
G01*
X139280000Y-101565000D02*
X139280000Y-101935000D01*
G75*
G02*
X139145000Y-102070000I-135000J0D01*
G01*
X138875000Y-102070000D01*
G75*
G02*
X138740000Y-101935000I0J135000D01*
G01*
X138740000Y-101565000D01*
G75*
G02*
X138875000Y-101430000I135000J0D01*
G01*
X139145000Y-101430000D01*
G75*
G02*
X139280000Y-101565000I0J-135000D01*
G01*
G37*
G36*
G01*
X154315000Y-113240000D02*
X154685000Y-113240000D01*
G75*
G02*
X154820000Y-113375000I0J-135000D01*
G01*
X154820000Y-113645000D01*
G75*
G02*
X154685000Y-113780000I-135000J0D01*
G01*
X154315000Y-113780000D01*
G75*
G02*
X154180000Y-113645000I0J135000D01*
G01*
X154180000Y-113375000D01*
G75*
G02*
X154315000Y-113240000I135000J0D01*
G01*
G37*
G36*
G01*
X154315000Y-112220000D02*
X154685000Y-112220000D01*
G75*
G02*
X154820000Y-112355000I0J-135000D01*
G01*
X154820000Y-112625000D01*
G75*
G02*
X154685000Y-112760000I-135000J0D01*
G01*
X154315000Y-112760000D01*
G75*
G02*
X154180000Y-112625000I0J135000D01*
G01*
X154180000Y-112355000D01*
G75*
G02*
X154315000Y-112220000I135000J0D01*
G01*
G37*
G36*
G01*
X149685000Y-112760000D02*
X149315000Y-112760000D01*
G75*
G02*
X149180000Y-112625000I0J135000D01*
G01*
X149180000Y-112355000D01*
G75*
G02*
X149315000Y-112220000I135000J0D01*
G01*
X149685000Y-112220000D01*
G75*
G02*
X149820000Y-112355000I0J-135000D01*
G01*
X149820000Y-112625000D01*
G75*
G02*
X149685000Y-112760000I-135000J0D01*
G01*
G37*
G36*
G01*
X149685000Y-113780000D02*
X149315000Y-113780000D01*
G75*
G02*
X149180000Y-113645000I0J135000D01*
G01*
X149180000Y-113375000D01*
G75*
G02*
X149315000Y-113240000I135000J0D01*
G01*
X149685000Y-113240000D01*
G75*
G02*
X149820000Y-113375000I0J-135000D01*
G01*
X149820000Y-113645000D01*
G75*
G02*
X149685000Y-113780000I-135000J0D01*
G01*
G37*
D16*
X159300000Y-104150000D03*
X159300000Y-102850000D03*
X161200000Y-103500000D03*
X159300000Y-103500000D03*
X161200000Y-102850000D03*
X161200000Y-104150000D03*
G36*
G01*
X136575000Y-104725000D02*
X134425000Y-104725000D01*
G75*
G02*
X134175000Y-104475000I0J250000D01*
G01*
X134175000Y-103725000D01*
G75*
G02*
X134425000Y-103475000I250000J0D01*
G01*
X136575000Y-103475000D01*
G75*
G02*
X136825000Y-103725000I0J-250000D01*
G01*
X136825000Y-104475000D01*
G75*
G02*
X136575000Y-104725000I-250000J0D01*
G01*
G37*
G36*
G01*
X136575000Y-107525000D02*
X134425000Y-107525000D01*
G75*
G02*
X134175000Y-107275000I0J250000D01*
G01*
X134175000Y-106525000D01*
G75*
G02*
X134425000Y-106275000I250000J0D01*
G01*
X136575000Y-106275000D01*
G75*
G02*
X136825000Y-106525000I0J-250000D01*
G01*
X136825000Y-107275000D01*
G75*
G02*
X136575000Y-107525000I-250000J0D01*
G01*
G37*
D17*
X155250000Y-116955000D03*
X154450000Y-116955000D03*
X149550000Y-116955000D03*
X148750000Y-116955000D03*
X148750000Y-116955000D03*
X149550000Y-116955000D03*
X154450000Y-116955000D03*
X155250000Y-116955000D03*
D18*
X150250000Y-116955000D03*
X150750000Y-116955000D03*
X151250000Y-116955000D03*
X152250000Y-116955000D03*
X152750000Y-116955000D03*
X153250000Y-116955000D03*
X153750000Y-116955000D03*
X151750000Y-116955000D03*
D19*
X142750000Y-120750000D03*
X142750000Y-116750000D03*
X138750000Y-120750000D03*
X138750000Y-116750000D03*
G36*
G01*
X163830000Y-103200000D02*
X164170000Y-103200000D01*
G75*
G02*
X164310000Y-103340000I0J-140000D01*
G01*
X164310000Y-103620000D01*
G75*
G02*
X164170000Y-103760000I-140000J0D01*
G01*
X163830000Y-103760000D01*
G75*
G02*
X163690000Y-103620000I0J140000D01*
G01*
X163690000Y-103340000D01*
G75*
G02*
X163830000Y-103200000I140000J0D01*
G01*
G37*
G36*
G01*
X163830000Y-102240000D02*
X164170000Y-102240000D01*
G75*
G02*
X164310000Y-102380000I0J-140000D01*
G01*
X164310000Y-102660000D01*
G75*
G02*
X164170000Y-102800000I-140000J0D01*
G01*
X163830000Y-102800000D01*
G75*
G02*
X163690000Y-102660000I0J140000D01*
G01*
X163690000Y-102380000D01*
G75*
G02*
X163830000Y-102240000I140000J0D01*
G01*
G37*
G36*
G01*
X159950000Y-116920000D02*
X159950000Y-116580000D01*
G75*
G02*
X160090000Y-116440000I140000J0D01*
G01*
X160370000Y-116440000D01*
G75*
G02*
X160510000Y-116580000I0J-140000D01*
G01*
X160510000Y-116920000D01*
G75*
G02*
X160370000Y-117060000I-140000J0D01*
G01*
X160090000Y-117060000D01*
G75*
G02*
X159950000Y-116920000I0J140000D01*
G01*
G37*
G36*
G01*
X158990000Y-116920000D02*
X158990000Y-116580000D01*
G75*
G02*
X159130000Y-116440000I140000J0D01*
G01*
X159410000Y-116440000D01*
G75*
G02*
X159550000Y-116580000I0J-140000D01*
G01*
X159550000Y-116920000D01*
G75*
G02*
X159410000Y-117060000I-140000J0D01*
G01*
X159130000Y-117060000D01*
G75*
G02*
X158990000Y-116920000I0J140000D01*
G01*
G37*
G36*
G01*
X157170000Y-111800000D02*
X156830000Y-111800000D01*
G75*
G02*
X156690000Y-111660000I0J140000D01*
G01*
X156690000Y-111380000D01*
G75*
G02*
X156830000Y-111240000I140000J0D01*
G01*
X157170000Y-111240000D01*
G75*
G02*
X157310000Y-111380000I0J-140000D01*
G01*
X157310000Y-111660000D01*
G75*
G02*
X157170000Y-111800000I-140000J0D01*
G01*
G37*
G36*
G01*
X157170000Y-112760000D02*
X156830000Y-112760000D01*
G75*
G02*
X156690000Y-112620000I0J140000D01*
G01*
X156690000Y-112340000D01*
G75*
G02*
X156830000Y-112200000I140000J0D01*
G01*
X157170000Y-112200000D01*
G75*
G02*
X157310000Y-112340000I0J-140000D01*
G01*
X157310000Y-112620000D01*
G75*
G02*
X157170000Y-112760000I-140000J0D01*
G01*
G37*
G36*
G01*
X134025000Y-101700000D02*
X134975000Y-101700000D01*
G75*
G02*
X135225000Y-101950000I0J-250000D01*
G01*
X135225000Y-102450000D01*
G75*
G02*
X134975000Y-102700000I-250000J0D01*
G01*
X134025000Y-102700000D01*
G75*
G02*
X133775000Y-102450000I0J250000D01*
G01*
X133775000Y-101950000D01*
G75*
G02*
X134025000Y-101700000I250000J0D01*
G01*
G37*
G36*
G01*
X134025000Y-99800000D02*
X134975000Y-99800000D01*
G75*
G02*
X135225000Y-100050000I0J-250000D01*
G01*
X135225000Y-100550000D01*
G75*
G02*
X134975000Y-100800000I-250000J0D01*
G01*
X134025000Y-100800000D01*
G75*
G02*
X133775000Y-100550000I0J250000D01*
G01*
X133775000Y-100050000D01*
G75*
G02*
X134025000Y-99800000I250000J0D01*
G01*
G37*
G36*
G01*
X136025000Y-101700000D02*
X136975000Y-101700000D01*
G75*
G02*
X137225000Y-101950000I0J-250000D01*
G01*
X137225000Y-102450000D01*
G75*
G02*
X136975000Y-102700000I-250000J0D01*
G01*
X136025000Y-102700000D01*
G75*
G02*
X135775000Y-102450000I0J250000D01*
G01*
X135775000Y-101950000D01*
G75*
G02*
X136025000Y-101700000I250000J0D01*
G01*
G37*
G36*
G01*
X136025000Y-99800000D02*
X136975000Y-99800000D01*
G75*
G02*
X137225000Y-100050000I0J-250000D01*
G01*
X137225000Y-100550000D01*
G75*
G02*
X136975000Y-100800000I-250000J0D01*
G01*
X136025000Y-100800000D01*
G75*
G02*
X135775000Y-100550000I0J250000D01*
G01*
X135775000Y-100050000D01*
G75*
G02*
X136025000Y-99800000I250000J0D01*
G01*
G37*
G36*
G01*
X118050000Y-95080000D02*
X118050000Y-95420000D01*
G75*
G02*
X117910000Y-95560000I-140000J0D01*
G01*
X117630000Y-95560000D01*
G75*
G02*
X117490000Y-95420000I0J140000D01*
G01*
X117490000Y-95080000D01*
G75*
G02*
X117630000Y-94940000I140000J0D01*
G01*
X117910000Y-94940000D01*
G75*
G02*
X118050000Y-95080000I0J-140000D01*
G01*
G37*
G36*
G01*
X119010000Y-95080000D02*
X119010000Y-95420000D01*
G75*
G02*
X118870000Y-95560000I-140000J0D01*
G01*
X118590000Y-95560000D01*
G75*
G02*
X118450000Y-95420000I0J140000D01*
G01*
X118450000Y-95080000D01*
G75*
G02*
X118590000Y-94940000I140000J0D01*
G01*
X118870000Y-94940000D01*
G75*
G02*
X119010000Y-95080000I0J-140000D01*
G01*
G37*
G36*
G01*
X140050000Y-106775000D02*
X140050000Y-107725000D01*
G75*
G02*
X139800000Y-107975000I-250000J0D01*
G01*
X139300000Y-107975000D01*
G75*
G02*
X139050000Y-107725000I0J250000D01*
G01*
X139050000Y-106775000D01*
G75*
G02*
X139300000Y-106525000I250000J0D01*
G01*
X139800000Y-106525000D01*
G75*
G02*
X140050000Y-106775000I0J-250000D01*
G01*
G37*
G36*
G01*
X141950000Y-106775000D02*
X141950000Y-107725000D01*
G75*
G02*
X141700000Y-107975000I-250000J0D01*
G01*
X141200000Y-107975000D01*
G75*
G02*
X140950000Y-107725000I0J250000D01*
G01*
X140950000Y-106775000D01*
G75*
G02*
X141200000Y-106525000I250000J0D01*
G01*
X141700000Y-106525000D01*
G75*
G02*
X141950000Y-106775000I0J-250000D01*
G01*
G37*
G36*
G01*
X124300000Y-95080000D02*
X124300000Y-95420000D01*
G75*
G02*
X124160000Y-95560000I-140000J0D01*
G01*
X123880000Y-95560000D01*
G75*
G02*
X123740000Y-95420000I0J140000D01*
G01*
X123740000Y-95080000D01*
G75*
G02*
X123880000Y-94940000I140000J0D01*
G01*
X124160000Y-94940000D01*
G75*
G02*
X124300000Y-95080000I0J-140000D01*
G01*
G37*
G36*
G01*
X125260000Y-95080000D02*
X125260000Y-95420000D01*
G75*
G02*
X125120000Y-95560000I-140000J0D01*
G01*
X124840000Y-95560000D01*
G75*
G02*
X124700000Y-95420000I0J140000D01*
G01*
X124700000Y-95080000D01*
G75*
G02*
X124840000Y-94940000I140000J0D01*
G01*
X125120000Y-94940000D01*
G75*
G02*
X125260000Y-95080000I0J-140000D01*
G01*
G37*
G36*
G01*
X130550000Y-95080000D02*
X130550000Y-95420000D01*
G75*
G02*
X130410000Y-95560000I-140000J0D01*
G01*
X130130000Y-95560000D01*
G75*
G02*
X129990000Y-95420000I0J140000D01*
G01*
X129990000Y-95080000D01*
G75*
G02*
X130130000Y-94940000I140000J0D01*
G01*
X130410000Y-94940000D01*
G75*
G02*
X130550000Y-95080000I0J-140000D01*
G01*
G37*
G36*
G01*
X131510000Y-95080000D02*
X131510000Y-95420000D01*
G75*
G02*
X131370000Y-95560000I-140000J0D01*
G01*
X131090000Y-95560000D01*
G75*
G02*
X130950000Y-95420000I0J140000D01*
G01*
X130950000Y-95080000D01*
G75*
G02*
X131090000Y-94940000I140000J0D01*
G01*
X131370000Y-94940000D01*
G75*
G02*
X131510000Y-95080000I0J-140000D01*
G01*
G37*
G36*
G01*
X143050000Y-95080000D02*
X143050000Y-95420000D01*
G75*
G02*
X142910000Y-95560000I-140000J0D01*
G01*
X142630000Y-95560000D01*
G75*
G02*
X142490000Y-95420000I0J140000D01*
G01*
X142490000Y-95080000D01*
G75*
G02*
X142630000Y-94940000I140000J0D01*
G01*
X142910000Y-94940000D01*
G75*
G02*
X143050000Y-95080000I0J-140000D01*
G01*
G37*
G36*
G01*
X144010000Y-95080000D02*
X144010000Y-95420000D01*
G75*
G02*
X143870000Y-95560000I-140000J0D01*
G01*
X143590000Y-95560000D01*
G75*
G02*
X143450000Y-95420000I0J140000D01*
G01*
X143450000Y-95080000D01*
G75*
G02*
X143590000Y-94940000I140000J0D01*
G01*
X143870000Y-94940000D01*
G75*
G02*
X144010000Y-95080000I0J-140000D01*
G01*
G37*
G36*
G01*
X136800000Y-95080000D02*
X136800000Y-95420000D01*
G75*
G02*
X136660000Y-95560000I-140000J0D01*
G01*
X136380000Y-95560000D01*
G75*
G02*
X136240000Y-95420000I0J140000D01*
G01*
X136240000Y-95080000D01*
G75*
G02*
X136380000Y-94940000I140000J0D01*
G01*
X136660000Y-94940000D01*
G75*
G02*
X136800000Y-95080000I0J-140000D01*
G01*
G37*
G36*
G01*
X137760000Y-95080000D02*
X137760000Y-95420000D01*
G75*
G02*
X137620000Y-95560000I-140000J0D01*
G01*
X137340000Y-95560000D01*
G75*
G02*
X137200000Y-95420000I0J140000D01*
G01*
X137200000Y-95080000D01*
G75*
G02*
X137340000Y-94940000I140000J0D01*
G01*
X137620000Y-94940000D01*
G75*
G02*
X137760000Y-95080000I0J-140000D01*
G01*
G37*
G36*
G01*
X179670000Y-97550000D02*
X179330000Y-97550000D01*
G75*
G02*
X179190000Y-97410000I0J140000D01*
G01*
X179190000Y-97130000D01*
G75*
G02*
X179330000Y-96990000I140000J0D01*
G01*
X179670000Y-96990000D01*
G75*
G02*
X179810000Y-97130000I0J-140000D01*
G01*
X179810000Y-97410000D01*
G75*
G02*
X179670000Y-97550000I-140000J0D01*
G01*
G37*
G36*
G01*
X179670000Y-98510000D02*
X179330000Y-98510000D01*
G75*
G02*
X179190000Y-98370000I0J140000D01*
G01*
X179190000Y-98090000D01*
G75*
G02*
X179330000Y-97950000I140000J0D01*
G01*
X179670000Y-97950000D01*
G75*
G02*
X179810000Y-98090000I0J-140000D01*
G01*
X179810000Y-98370000D01*
G75*
G02*
X179670000Y-98510000I-140000J0D01*
G01*
G37*
G36*
G01*
X153670000Y-97550000D02*
X153330000Y-97550000D01*
G75*
G02*
X153190000Y-97410000I0J140000D01*
G01*
X153190000Y-97130000D01*
G75*
G02*
X153330000Y-96990000I140000J0D01*
G01*
X153670000Y-96990000D01*
G75*
G02*
X153810000Y-97130000I0J-140000D01*
G01*
X153810000Y-97410000D01*
G75*
G02*
X153670000Y-97550000I-140000J0D01*
G01*
G37*
G36*
G01*
X153670000Y-98510000D02*
X153330000Y-98510000D01*
G75*
G02*
X153190000Y-98370000I0J140000D01*
G01*
X153190000Y-98090000D01*
G75*
G02*
X153330000Y-97950000I140000J0D01*
G01*
X153670000Y-97950000D01*
G75*
G02*
X153810000Y-98090000I0J-140000D01*
G01*
X153810000Y-98370000D01*
G75*
G02*
X153670000Y-98510000I-140000J0D01*
G01*
G37*
G36*
G01*
X166670000Y-97550000D02*
X166330000Y-97550000D01*
G75*
G02*
X166190000Y-97410000I0J140000D01*
G01*
X166190000Y-97130000D01*
G75*
G02*
X166330000Y-96990000I140000J0D01*
G01*
X166670000Y-96990000D01*
G75*
G02*
X166810000Y-97130000I0J-140000D01*
G01*
X166810000Y-97410000D01*
G75*
G02*
X166670000Y-97550000I-140000J0D01*
G01*
G37*
G36*
G01*
X166670000Y-98510000D02*
X166330000Y-98510000D01*
G75*
G02*
X166190000Y-98370000I0J140000D01*
G01*
X166190000Y-98090000D01*
G75*
G02*
X166330000Y-97950000I140000J0D01*
G01*
X166670000Y-97950000D01*
G75*
G02*
X166810000Y-98090000I0J-140000D01*
G01*
X166810000Y-98370000D01*
G75*
G02*
X166670000Y-98510000I-140000J0D01*
G01*
G37*
M02*
