G04 #@! TF.GenerationSoftware,KiCad,Pcbnew,(5.1.9-0-10_14)*
G04 #@! TF.CreationDate,2021-03-16T19:17:09+01:00*
G04 #@! TF.ProjectId,cflipclock_rev_a,63666c69-7063-46c6-9f63-6b5f7265765f,rev?*
G04 #@! TF.SameCoordinates,Original*
G04 #@! TF.FileFunction,Legend,Top*
G04 #@! TF.FilePolarity,Positive*
%FSLAX46Y46*%
G04 Gerber Fmt 4.6, Leading zero omitted, Abs format (unit mm)*
G04 Created by KiCad (PCBNEW (5.1.9-0-10_14)) date 2021-03-16 19:17:09*
%MOMM*%
%LPD*%
G01*
G04 APERTURE LIST*
%ADD10C,0.120000*%
%ADD11C,0.010000*%
%ADD12C,0.150000*%
%ADD13C,0.500000*%
%ADD14C,0.152400*%
G04 APERTURE END LIST*
D10*
X118800000Y-121400000D02*
X119800000Y-121400000D01*
X125300000Y-121900000D02*
X125300000Y-120900000D01*
X124800000Y-121400000D02*
X125800000Y-121400000D01*
D11*
G36*
X154766562Y-100304180D02*
G01*
X154729199Y-100332291D01*
X154692491Y-100358089D01*
X154655524Y-100381968D01*
X154617379Y-100404318D01*
X154577141Y-100425530D01*
X154533892Y-100445997D01*
X154486716Y-100466110D01*
X154434696Y-100486260D01*
X154376916Y-100506838D01*
X154312458Y-100528237D01*
X154240407Y-100550847D01*
X154159845Y-100575060D01*
X154072967Y-100600372D01*
X154001035Y-100620840D01*
X153921679Y-100642982D01*
X153835714Y-100666590D01*
X153743959Y-100691456D01*
X153647230Y-100717374D01*
X153546346Y-100744138D01*
X153442123Y-100771538D01*
X153335378Y-100799370D01*
X153226929Y-100827425D01*
X153117594Y-100855497D01*
X153008188Y-100883378D01*
X152899531Y-100910862D01*
X152792438Y-100937741D01*
X152687728Y-100963808D01*
X152586217Y-100988857D01*
X152488723Y-101012680D01*
X152396063Y-101035070D01*
X152309054Y-101055821D01*
X152228514Y-101074724D01*
X152155260Y-101091574D01*
X152090109Y-101106162D01*
X152033879Y-101118282D01*
X152005897Y-101124055D01*
X151954174Y-101133620D01*
X151911160Y-101139546D01*
X151875656Y-101141904D01*
X151846459Y-101140766D01*
X151822370Y-101136204D01*
X151819104Y-101135222D01*
X151774727Y-101116325D01*
X151737532Y-101090231D01*
X151708108Y-101057516D01*
X151687044Y-101018754D01*
X151680675Y-101000269D01*
X151675744Y-100966036D01*
X151680709Y-100933759D01*
X151694899Y-100904813D01*
X151717642Y-100880572D01*
X151747899Y-100862571D01*
X151762261Y-100857324D01*
X151783806Y-100850890D01*
X151812810Y-100843208D01*
X151849552Y-100834220D01*
X151894307Y-100823864D01*
X151947353Y-100812081D01*
X152008966Y-100798811D01*
X152079423Y-100783995D01*
X152159002Y-100767572D01*
X152247979Y-100749482D01*
X152346631Y-100729665D01*
X152455235Y-100708062D01*
X152533479Y-100692603D01*
X152831833Y-100632846D01*
X153130304Y-100571129D01*
X153431921Y-100506814D01*
X153739715Y-100439265D01*
X153800833Y-100425635D01*
X153934819Y-100396002D01*
X154059386Y-100369121D01*
X154174386Y-100345024D01*
X154279675Y-100323739D01*
X154375103Y-100305297D01*
X154460525Y-100289728D01*
X154472875Y-100287572D01*
X154513535Y-100280679D01*
X154547009Y-100275516D01*
X154576385Y-100271788D01*
X154604747Y-100269199D01*
X154635183Y-100267455D01*
X154670778Y-100266258D01*
X154703062Y-100265536D01*
X154819479Y-100263241D01*
X154766562Y-100304180D01*
G37*
X154766562Y-100304180D02*
X154729199Y-100332291D01*
X154692491Y-100358089D01*
X154655524Y-100381968D01*
X154617379Y-100404318D01*
X154577141Y-100425530D01*
X154533892Y-100445997D01*
X154486716Y-100466110D01*
X154434696Y-100486260D01*
X154376916Y-100506838D01*
X154312458Y-100528237D01*
X154240407Y-100550847D01*
X154159845Y-100575060D01*
X154072967Y-100600372D01*
X154001035Y-100620840D01*
X153921679Y-100642982D01*
X153835714Y-100666590D01*
X153743959Y-100691456D01*
X153647230Y-100717374D01*
X153546346Y-100744138D01*
X153442123Y-100771538D01*
X153335378Y-100799370D01*
X153226929Y-100827425D01*
X153117594Y-100855497D01*
X153008188Y-100883378D01*
X152899531Y-100910862D01*
X152792438Y-100937741D01*
X152687728Y-100963808D01*
X152586217Y-100988857D01*
X152488723Y-101012680D01*
X152396063Y-101035070D01*
X152309054Y-101055821D01*
X152228514Y-101074724D01*
X152155260Y-101091574D01*
X152090109Y-101106162D01*
X152033879Y-101118282D01*
X152005897Y-101124055D01*
X151954174Y-101133620D01*
X151911160Y-101139546D01*
X151875656Y-101141904D01*
X151846459Y-101140766D01*
X151822370Y-101136204D01*
X151819104Y-101135222D01*
X151774727Y-101116325D01*
X151737532Y-101090231D01*
X151708108Y-101057516D01*
X151687044Y-101018754D01*
X151680675Y-101000269D01*
X151675744Y-100966036D01*
X151680709Y-100933759D01*
X151694899Y-100904813D01*
X151717642Y-100880572D01*
X151747899Y-100862571D01*
X151762261Y-100857324D01*
X151783806Y-100850890D01*
X151812810Y-100843208D01*
X151849552Y-100834220D01*
X151894307Y-100823864D01*
X151947353Y-100812081D01*
X152008966Y-100798811D01*
X152079423Y-100783995D01*
X152159002Y-100767572D01*
X152247979Y-100749482D01*
X152346631Y-100729665D01*
X152455235Y-100708062D01*
X152533479Y-100692603D01*
X152831833Y-100632846D01*
X153130304Y-100571129D01*
X153431921Y-100506814D01*
X153739715Y-100439265D01*
X153800833Y-100425635D01*
X153934819Y-100396002D01*
X154059386Y-100369121D01*
X154174386Y-100345024D01*
X154279675Y-100323739D01*
X154375103Y-100305297D01*
X154460525Y-100289728D01*
X154472875Y-100287572D01*
X154513535Y-100280679D01*
X154547009Y-100275516D01*
X154576385Y-100271788D01*
X154604747Y-100269199D01*
X154635183Y-100267455D01*
X154670778Y-100266258D01*
X154703062Y-100265536D01*
X154819479Y-100263241D01*
X154766562Y-100304180D01*
G36*
X152557265Y-101764620D02*
G01*
X152582518Y-101766000D01*
X152602261Y-101769596D01*
X152617230Y-101776469D01*
X152628165Y-101787677D01*
X152635803Y-101804282D01*
X152640882Y-101827344D01*
X152644140Y-101857922D01*
X152646316Y-101897078D01*
X152647936Y-101939904D01*
X152650253Y-101993768D01*
X152653198Y-102038569D01*
X152657004Y-102075821D01*
X152661907Y-102107037D01*
X152668140Y-102133731D01*
X152675938Y-102157414D01*
X152684781Y-102178029D01*
X152705181Y-102211069D01*
X152734489Y-102242661D01*
X152773215Y-102273248D01*
X152821866Y-102303273D01*
X152838177Y-102312083D01*
X152878040Y-102333436D01*
X152909797Y-102351508D01*
X152935002Y-102367341D01*
X152955209Y-102381976D01*
X152971974Y-102396453D01*
X152986473Y-102411392D01*
X153008456Y-102442182D01*
X153020260Y-102474053D01*
X153021688Y-102506461D01*
X153021482Y-102508098D01*
X153014947Y-102532131D01*
X153001903Y-102550866D01*
X152981357Y-102565037D01*
X152952316Y-102575378D01*
X152922329Y-102581381D01*
X152899481Y-102584205D01*
X152871200Y-102586653D01*
X152840468Y-102588580D01*
X152810265Y-102589841D01*
X152783573Y-102590291D01*
X152763374Y-102589785D01*
X152758375Y-102589354D01*
X152685693Y-102577079D01*
X152620032Y-102557465D01*
X152560315Y-102529988D01*
X152505468Y-102494127D01*
X152454417Y-102449360D01*
X152440459Y-102434947D01*
X152396956Y-102381906D01*
X152361513Y-102323923D01*
X152333414Y-102259665D01*
X152315584Y-102202239D01*
X152308030Y-102165365D01*
X152302505Y-102121787D01*
X152299118Y-102074587D01*
X152297980Y-102026846D01*
X152299200Y-101981646D01*
X152302888Y-101942068D01*
X152305705Y-101925292D01*
X152318145Y-101880281D01*
X152335535Y-101842749D01*
X152357366Y-101813646D01*
X152371918Y-101800966D01*
X152393908Y-101786848D01*
X152416578Y-101776678D01*
X152442186Y-101769919D01*
X152472993Y-101766034D01*
X152511260Y-101764485D01*
X152525763Y-101764395D01*
X152557265Y-101764620D01*
G37*
X152557265Y-101764620D02*
X152582518Y-101766000D01*
X152602261Y-101769596D01*
X152617230Y-101776469D01*
X152628165Y-101787677D01*
X152635803Y-101804282D01*
X152640882Y-101827344D01*
X152644140Y-101857922D01*
X152646316Y-101897078D01*
X152647936Y-101939904D01*
X152650253Y-101993768D01*
X152653198Y-102038569D01*
X152657004Y-102075821D01*
X152661907Y-102107037D01*
X152668140Y-102133731D01*
X152675938Y-102157414D01*
X152684781Y-102178029D01*
X152705181Y-102211069D01*
X152734489Y-102242661D01*
X152773215Y-102273248D01*
X152821866Y-102303273D01*
X152838177Y-102312083D01*
X152878040Y-102333436D01*
X152909797Y-102351508D01*
X152935002Y-102367341D01*
X152955209Y-102381976D01*
X152971974Y-102396453D01*
X152986473Y-102411392D01*
X153008456Y-102442182D01*
X153020260Y-102474053D01*
X153021688Y-102506461D01*
X153021482Y-102508098D01*
X153014947Y-102532131D01*
X153001903Y-102550866D01*
X152981357Y-102565037D01*
X152952316Y-102575378D01*
X152922329Y-102581381D01*
X152899481Y-102584205D01*
X152871200Y-102586653D01*
X152840468Y-102588580D01*
X152810265Y-102589841D01*
X152783573Y-102590291D01*
X152763374Y-102589785D01*
X152758375Y-102589354D01*
X152685693Y-102577079D01*
X152620032Y-102557465D01*
X152560315Y-102529988D01*
X152505468Y-102494127D01*
X152454417Y-102449360D01*
X152440459Y-102434947D01*
X152396956Y-102381906D01*
X152361513Y-102323923D01*
X152333414Y-102259665D01*
X152315584Y-102202239D01*
X152308030Y-102165365D01*
X152302505Y-102121787D01*
X152299118Y-102074587D01*
X152297980Y-102026846D01*
X152299200Y-101981646D01*
X152302888Y-101942068D01*
X152305705Y-101925292D01*
X152318145Y-101880281D01*
X152335535Y-101842749D01*
X152357366Y-101813646D01*
X152371918Y-101800966D01*
X152393908Y-101786848D01*
X152416578Y-101776678D01*
X152442186Y-101769919D01*
X152472993Y-101766034D01*
X152511260Y-101764485D01*
X152525763Y-101764395D01*
X152557265Y-101764620D01*
G36*
X154463771Y-101331476D02*
G01*
X154474122Y-101334124D01*
X154496568Y-101344920D01*
X154519239Y-101362728D01*
X154540195Y-101385168D01*
X154557502Y-101409862D01*
X154569220Y-101434432D01*
X154573416Y-101456042D01*
X154568255Y-101482737D01*
X154553042Y-101510519D01*
X154528186Y-101538856D01*
X154494094Y-101567217D01*
X154480754Y-101576580D01*
X154452867Y-101593998D01*
X154417241Y-101613783D01*
X154373444Y-101636148D01*
X154321042Y-101661306D01*
X154259600Y-101689470D01*
X154188685Y-101720854D01*
X154172887Y-101727726D01*
X154131142Y-101746005D01*
X154098524Y-101760688D01*
X154074339Y-101772124D01*
X154057894Y-101780660D01*
X154048494Y-101786644D01*
X154045445Y-101790425D01*
X154045887Y-101791435D01*
X154051228Y-101795283D01*
X154064652Y-101804529D01*
X154085446Y-101818691D01*
X154112894Y-101837287D01*
X154146282Y-101859834D01*
X154184894Y-101885849D01*
X154228015Y-101914851D01*
X154274930Y-101946357D01*
X154324925Y-101979885D01*
X154367041Y-102008095D01*
X154452619Y-102065450D01*
X154529877Y-102117379D01*
X154599346Y-102164260D01*
X154661554Y-102206472D01*
X154717032Y-102244396D01*
X154766307Y-102278409D01*
X154809911Y-102308892D01*
X154848371Y-102336224D01*
X154882219Y-102360783D01*
X154911982Y-102382949D01*
X154938190Y-102403102D01*
X154961374Y-102421620D01*
X154982061Y-102438882D01*
X155000782Y-102455268D01*
X155018066Y-102471157D01*
X155031518Y-102484062D01*
X155067107Y-102521782D01*
X155094438Y-102558244D01*
X155115027Y-102596252D01*
X155130391Y-102638606D01*
X155142046Y-102688109D01*
X155142103Y-102688411D01*
X155147339Y-102721113D01*
X155151226Y-102755900D01*
X155153641Y-102790266D01*
X155154460Y-102821707D01*
X155153558Y-102847717D01*
X155150875Y-102865563D01*
X155139138Y-102894246D01*
X155119510Y-102921679D01*
X155090981Y-102949136D01*
X155073445Y-102962983D01*
X155037613Y-102988474D01*
X155006865Y-103007054D01*
X154979147Y-103019630D01*
X154952407Y-103027107D01*
X154924592Y-103030391D01*
X154920309Y-103030575D01*
X154897009Y-103030744D01*
X154877495Y-103028931D01*
X154857378Y-103024411D01*
X154832268Y-103016462D01*
X154830062Y-103015707D01*
X154780775Y-102997307D01*
X154741141Y-102979277D01*
X154711346Y-102961741D01*
X154691575Y-102944823D01*
X154682014Y-102928645D01*
X154681766Y-102916610D01*
X154688790Y-102899859D01*
X154702222Y-102882268D01*
X154723237Y-102862502D01*
X154743616Y-102846255D01*
X154768572Y-102826368D01*
X154785559Y-102810362D01*
X154795764Y-102796811D01*
X154800375Y-102784290D01*
X154800958Y-102777441D01*
X154796775Y-102762305D01*
X154784752Y-102741910D01*
X154765677Y-102717127D01*
X154740338Y-102688825D01*
X154709523Y-102657875D01*
X154674021Y-102625145D01*
X154634621Y-102591506D01*
X154626333Y-102584739D01*
X154602544Y-102565607D01*
X154578826Y-102546879D01*
X154554585Y-102528144D01*
X154529227Y-102508991D01*
X154502159Y-102489008D01*
X154472786Y-102467785D01*
X154440516Y-102444910D01*
X154404753Y-102419974D01*
X154364905Y-102392565D01*
X154320378Y-102362272D01*
X154270578Y-102328684D01*
X154214911Y-102291390D01*
X154152783Y-102249980D01*
X154083601Y-102204042D01*
X154006771Y-102153166D01*
X153921699Y-102096940D01*
X153917250Y-102094002D01*
X153856251Y-102053312D01*
X153803849Y-102017428D01*
X153759468Y-101985880D01*
X153722529Y-101958197D01*
X153692456Y-101933911D01*
X153668670Y-101912550D01*
X153650596Y-101893646D01*
X153637656Y-101876727D01*
X153629272Y-101861324D01*
X153628191Y-101858645D01*
X153622452Y-101830148D01*
X153624628Y-101798514D01*
X153634194Y-101766994D01*
X153646687Y-101744228D01*
X153662903Y-101723774D01*
X153684331Y-101702254D01*
X153711488Y-101679337D01*
X153744890Y-101654694D01*
X153785055Y-101627992D01*
X153832500Y-101598901D01*
X153887740Y-101567090D01*
X153951293Y-101532229D01*
X154023676Y-101493987D01*
X154094520Y-101457562D01*
X154161010Y-101424309D01*
X154219326Y-101396454D01*
X154270243Y-101373746D01*
X154314537Y-101355934D01*
X154352982Y-101342764D01*
X154386353Y-101333986D01*
X154415425Y-101329346D01*
X154440973Y-101328593D01*
X154463771Y-101331476D01*
G37*
X154463771Y-101331476D02*
X154474122Y-101334124D01*
X154496568Y-101344920D01*
X154519239Y-101362728D01*
X154540195Y-101385168D01*
X154557502Y-101409862D01*
X154569220Y-101434432D01*
X154573416Y-101456042D01*
X154568255Y-101482737D01*
X154553042Y-101510519D01*
X154528186Y-101538856D01*
X154494094Y-101567217D01*
X154480754Y-101576580D01*
X154452867Y-101593998D01*
X154417241Y-101613783D01*
X154373444Y-101636148D01*
X154321042Y-101661306D01*
X154259600Y-101689470D01*
X154188685Y-101720854D01*
X154172887Y-101727726D01*
X154131142Y-101746005D01*
X154098524Y-101760688D01*
X154074339Y-101772124D01*
X154057894Y-101780660D01*
X154048494Y-101786644D01*
X154045445Y-101790425D01*
X154045887Y-101791435D01*
X154051228Y-101795283D01*
X154064652Y-101804529D01*
X154085446Y-101818691D01*
X154112894Y-101837287D01*
X154146282Y-101859834D01*
X154184894Y-101885849D01*
X154228015Y-101914851D01*
X154274930Y-101946357D01*
X154324925Y-101979885D01*
X154367041Y-102008095D01*
X154452619Y-102065450D01*
X154529877Y-102117379D01*
X154599346Y-102164260D01*
X154661554Y-102206472D01*
X154717032Y-102244396D01*
X154766307Y-102278409D01*
X154809911Y-102308892D01*
X154848371Y-102336224D01*
X154882219Y-102360783D01*
X154911982Y-102382949D01*
X154938190Y-102403102D01*
X154961374Y-102421620D01*
X154982061Y-102438882D01*
X155000782Y-102455268D01*
X155018066Y-102471157D01*
X155031518Y-102484062D01*
X155067107Y-102521782D01*
X155094438Y-102558244D01*
X155115027Y-102596252D01*
X155130391Y-102638606D01*
X155142046Y-102688109D01*
X155142103Y-102688411D01*
X155147339Y-102721113D01*
X155151226Y-102755900D01*
X155153641Y-102790266D01*
X155154460Y-102821707D01*
X155153558Y-102847717D01*
X155150875Y-102865563D01*
X155139138Y-102894246D01*
X155119510Y-102921679D01*
X155090981Y-102949136D01*
X155073445Y-102962983D01*
X155037613Y-102988474D01*
X155006865Y-103007054D01*
X154979147Y-103019630D01*
X154952407Y-103027107D01*
X154924592Y-103030391D01*
X154920309Y-103030575D01*
X154897009Y-103030744D01*
X154877495Y-103028931D01*
X154857378Y-103024411D01*
X154832268Y-103016462D01*
X154830062Y-103015707D01*
X154780775Y-102997307D01*
X154741141Y-102979277D01*
X154711346Y-102961741D01*
X154691575Y-102944823D01*
X154682014Y-102928645D01*
X154681766Y-102916610D01*
X154688790Y-102899859D01*
X154702222Y-102882268D01*
X154723237Y-102862502D01*
X154743616Y-102846255D01*
X154768572Y-102826368D01*
X154785559Y-102810362D01*
X154795764Y-102796811D01*
X154800375Y-102784290D01*
X154800958Y-102777441D01*
X154796775Y-102762305D01*
X154784752Y-102741910D01*
X154765677Y-102717127D01*
X154740338Y-102688825D01*
X154709523Y-102657875D01*
X154674021Y-102625145D01*
X154634621Y-102591506D01*
X154626333Y-102584739D01*
X154602544Y-102565607D01*
X154578826Y-102546879D01*
X154554585Y-102528144D01*
X154529227Y-102508991D01*
X154502159Y-102489008D01*
X154472786Y-102467785D01*
X154440516Y-102444910D01*
X154404753Y-102419974D01*
X154364905Y-102392565D01*
X154320378Y-102362272D01*
X154270578Y-102328684D01*
X154214911Y-102291390D01*
X154152783Y-102249980D01*
X154083601Y-102204042D01*
X154006771Y-102153166D01*
X153921699Y-102096940D01*
X153917250Y-102094002D01*
X153856251Y-102053312D01*
X153803849Y-102017428D01*
X153759468Y-101985880D01*
X153722529Y-101958197D01*
X153692456Y-101933911D01*
X153668670Y-101912550D01*
X153650596Y-101893646D01*
X153637656Y-101876727D01*
X153629272Y-101861324D01*
X153628191Y-101858645D01*
X153622452Y-101830148D01*
X153624628Y-101798514D01*
X153634194Y-101766994D01*
X153646687Y-101744228D01*
X153662903Y-101723774D01*
X153684331Y-101702254D01*
X153711488Y-101679337D01*
X153744890Y-101654694D01*
X153785055Y-101627992D01*
X153832500Y-101598901D01*
X153887740Y-101567090D01*
X153951293Y-101532229D01*
X154023676Y-101493987D01*
X154094520Y-101457562D01*
X154161010Y-101424309D01*
X154219326Y-101396454D01*
X154270243Y-101373746D01*
X154314537Y-101355934D01*
X154352982Y-101342764D01*
X154386353Y-101333986D01*
X154415425Y-101329346D01*
X154440973Y-101328593D01*
X154463771Y-101331476D01*
G36*
X150448358Y-101500900D02*
G01*
X150486114Y-101511024D01*
X150519277Y-101528990D01*
X150543788Y-101551489D01*
X150552906Y-101564108D01*
X150561719Y-101580631D01*
X150570393Y-101601742D01*
X150579095Y-101628125D01*
X150587991Y-101660464D01*
X150597247Y-101699443D01*
X150607031Y-101745747D01*
X150617507Y-101800059D01*
X150628842Y-101863063D01*
X150641203Y-101935443D01*
X150649831Y-101987626D01*
X150657340Y-102032906D01*
X150664977Y-102077852D01*
X150672415Y-102120613D01*
X150679326Y-102159337D01*
X150685381Y-102192171D01*
X150690253Y-102217264D01*
X150692017Y-102225751D01*
X150709977Y-102303847D01*
X150729189Y-102377423D01*
X150749266Y-102445249D01*
X150769822Y-102506091D01*
X150790470Y-102558719D01*
X150808967Y-102598342D01*
X150824829Y-102627308D01*
X150838384Y-102647492D01*
X150850842Y-102660094D01*
X150863412Y-102666313D01*
X150877305Y-102667350D01*
X150878439Y-102667251D01*
X150885978Y-102661337D01*
X150893954Y-102645269D01*
X150902281Y-102619464D01*
X150910873Y-102584339D01*
X150919643Y-102540310D01*
X150928505Y-102487794D01*
X150937374Y-102427208D01*
X150946162Y-102358969D01*
X150951320Y-102314883D01*
X150960929Y-102236961D01*
X150971148Y-102168815D01*
X150982222Y-102109646D01*
X150994398Y-102058653D01*
X151007920Y-102015036D01*
X151023036Y-101977994D01*
X151039991Y-101946727D01*
X151059032Y-101920435D01*
X151078934Y-101899647D01*
X151107082Y-101877968D01*
X151136787Y-101863978D01*
X151170779Y-101856719D01*
X151205456Y-101855126D01*
X151233565Y-101856914D01*
X151258818Y-101862225D01*
X151281732Y-101871754D01*
X151302823Y-101886198D01*
X151322607Y-101906254D01*
X151341599Y-101932619D01*
X151360316Y-101965988D01*
X151379274Y-102007060D01*
X151398989Y-102056529D01*
X151419977Y-102115094D01*
X151438111Y-102169208D01*
X151454418Y-102217835D01*
X151472020Y-102268284D01*
X151490293Y-102318914D01*
X151508613Y-102368084D01*
X151526358Y-102414154D01*
X151542902Y-102455485D01*
X151557622Y-102490435D01*
X151569895Y-102517365D01*
X151572555Y-102522744D01*
X151596128Y-102562601D01*
X151627509Y-102605290D01*
X151665030Y-102648926D01*
X151707023Y-102691626D01*
X151751820Y-102731505D01*
X151770823Y-102746767D01*
X151815640Y-102779397D01*
X151858525Y-102805590D01*
X151903495Y-102827663D01*
X151930535Y-102838871D01*
X151961120Y-102851708D01*
X151983243Y-102863233D01*
X151998710Y-102874685D01*
X152009331Y-102887302D01*
X152014243Y-102896185D01*
X152020208Y-102916762D01*
X152022544Y-102943044D01*
X152021119Y-102970743D01*
X152017223Y-102990884D01*
X152004682Y-103017340D01*
X151984149Y-103039255D01*
X151958007Y-103054171D01*
X151954682Y-103055349D01*
X151922090Y-103063463D01*
X151881842Y-103069195D01*
X151836627Y-103072397D01*
X151789131Y-103072924D01*
X151742045Y-103070627D01*
X151718562Y-103068261D01*
X151677486Y-103060580D01*
X151632465Y-103047636D01*
X151587724Y-103030891D01*
X151547491Y-103011806D01*
X151535242Y-103004836D01*
X151489293Y-102974512D01*
X151445281Y-102939576D01*
X151400983Y-102898148D01*
X151367183Y-102862719D01*
X151329708Y-102822028D01*
X151298579Y-102788685D01*
X151273144Y-102762100D01*
X151252752Y-102741679D01*
X151236753Y-102726833D01*
X151224496Y-102716967D01*
X151215329Y-102711491D01*
X151208601Y-102709813D01*
X151203662Y-102711340D01*
X151202128Y-102712629D01*
X151199490Y-102719747D01*
X151196510Y-102734684D01*
X151193692Y-102754708D01*
X151192744Y-102763331D01*
X151187379Y-102798435D01*
X151178188Y-102828504D01*
X151163825Y-102856158D01*
X151142944Y-102884017D01*
X151115749Y-102913152D01*
X151075737Y-102948990D01*
X151034151Y-102977113D01*
X150987406Y-102999777D01*
X150963816Y-103008766D01*
X150918564Y-103020046D01*
X150869332Y-103023966D01*
X150819799Y-103020477D01*
X150779291Y-103011363D01*
X150726070Y-102991462D01*
X150677035Y-102965916D01*
X150631843Y-102934226D01*
X150590153Y-102895894D01*
X150551624Y-102850422D01*
X150515913Y-102797309D01*
X150482680Y-102736058D01*
X150451582Y-102666168D01*
X150422278Y-102587143D01*
X150394426Y-102498482D01*
X150372015Y-102416629D01*
X150365634Y-102390736D01*
X150357675Y-102356551D01*
X150348600Y-102316170D01*
X150338872Y-102271686D01*
X150328953Y-102225192D01*
X150319303Y-102178783D01*
X150316272Y-102163916D01*
X150300427Y-102087154D01*
X150285826Y-102019435D01*
X150272114Y-101959338D01*
X150258938Y-101905444D01*
X150245946Y-101856332D01*
X150232785Y-101810583D01*
X150219102Y-101766776D01*
X150212873Y-101747895D01*
X150199867Y-101707087D01*
X150191377Y-101674337D01*
X150187599Y-101648040D01*
X150188726Y-101626592D01*
X150194956Y-101608389D01*
X150206481Y-101591828D01*
X150223498Y-101575304D01*
X150235004Y-101565860D01*
X150276728Y-101537655D01*
X150320193Y-101516997D01*
X150364130Y-101503946D01*
X150407274Y-101498561D01*
X150448358Y-101500900D01*
G37*
X150448358Y-101500900D02*
X150486114Y-101511024D01*
X150519277Y-101528990D01*
X150543788Y-101551489D01*
X150552906Y-101564108D01*
X150561719Y-101580631D01*
X150570393Y-101601742D01*
X150579095Y-101628125D01*
X150587991Y-101660464D01*
X150597247Y-101699443D01*
X150607031Y-101745747D01*
X150617507Y-101800059D01*
X150628842Y-101863063D01*
X150641203Y-101935443D01*
X150649831Y-101987626D01*
X150657340Y-102032906D01*
X150664977Y-102077852D01*
X150672415Y-102120613D01*
X150679326Y-102159337D01*
X150685381Y-102192171D01*
X150690253Y-102217264D01*
X150692017Y-102225751D01*
X150709977Y-102303847D01*
X150729189Y-102377423D01*
X150749266Y-102445249D01*
X150769822Y-102506091D01*
X150790470Y-102558719D01*
X150808967Y-102598342D01*
X150824829Y-102627308D01*
X150838384Y-102647492D01*
X150850842Y-102660094D01*
X150863412Y-102666313D01*
X150877305Y-102667350D01*
X150878439Y-102667251D01*
X150885978Y-102661337D01*
X150893954Y-102645269D01*
X150902281Y-102619464D01*
X150910873Y-102584339D01*
X150919643Y-102540310D01*
X150928505Y-102487794D01*
X150937374Y-102427208D01*
X150946162Y-102358969D01*
X150951320Y-102314883D01*
X150960929Y-102236961D01*
X150971148Y-102168815D01*
X150982222Y-102109646D01*
X150994398Y-102058653D01*
X151007920Y-102015036D01*
X151023036Y-101977994D01*
X151039991Y-101946727D01*
X151059032Y-101920435D01*
X151078934Y-101899647D01*
X151107082Y-101877968D01*
X151136787Y-101863978D01*
X151170779Y-101856719D01*
X151205456Y-101855126D01*
X151233565Y-101856914D01*
X151258818Y-101862225D01*
X151281732Y-101871754D01*
X151302823Y-101886198D01*
X151322607Y-101906254D01*
X151341599Y-101932619D01*
X151360316Y-101965988D01*
X151379274Y-102007060D01*
X151398989Y-102056529D01*
X151419977Y-102115094D01*
X151438111Y-102169208D01*
X151454418Y-102217835D01*
X151472020Y-102268284D01*
X151490293Y-102318914D01*
X151508613Y-102368084D01*
X151526358Y-102414154D01*
X151542902Y-102455485D01*
X151557622Y-102490435D01*
X151569895Y-102517365D01*
X151572555Y-102522744D01*
X151596128Y-102562601D01*
X151627509Y-102605290D01*
X151665030Y-102648926D01*
X151707023Y-102691626D01*
X151751820Y-102731505D01*
X151770823Y-102746767D01*
X151815640Y-102779397D01*
X151858525Y-102805590D01*
X151903495Y-102827663D01*
X151930535Y-102838871D01*
X151961120Y-102851708D01*
X151983243Y-102863233D01*
X151998710Y-102874685D01*
X152009331Y-102887302D01*
X152014243Y-102896185D01*
X152020208Y-102916762D01*
X152022544Y-102943044D01*
X152021119Y-102970743D01*
X152017223Y-102990884D01*
X152004682Y-103017340D01*
X151984149Y-103039255D01*
X151958007Y-103054171D01*
X151954682Y-103055349D01*
X151922090Y-103063463D01*
X151881842Y-103069195D01*
X151836627Y-103072397D01*
X151789131Y-103072924D01*
X151742045Y-103070627D01*
X151718562Y-103068261D01*
X151677486Y-103060580D01*
X151632465Y-103047636D01*
X151587724Y-103030891D01*
X151547491Y-103011806D01*
X151535242Y-103004836D01*
X151489293Y-102974512D01*
X151445281Y-102939576D01*
X151400983Y-102898148D01*
X151367183Y-102862719D01*
X151329708Y-102822028D01*
X151298579Y-102788685D01*
X151273144Y-102762100D01*
X151252752Y-102741679D01*
X151236753Y-102726833D01*
X151224496Y-102716967D01*
X151215329Y-102711491D01*
X151208601Y-102709813D01*
X151203662Y-102711340D01*
X151202128Y-102712629D01*
X151199490Y-102719747D01*
X151196510Y-102734684D01*
X151193692Y-102754708D01*
X151192744Y-102763331D01*
X151187379Y-102798435D01*
X151178188Y-102828504D01*
X151163825Y-102856158D01*
X151142944Y-102884017D01*
X151115749Y-102913152D01*
X151075737Y-102948990D01*
X151034151Y-102977113D01*
X150987406Y-102999777D01*
X150963816Y-103008766D01*
X150918564Y-103020046D01*
X150869332Y-103023966D01*
X150819799Y-103020477D01*
X150779291Y-103011363D01*
X150726070Y-102991462D01*
X150677035Y-102965916D01*
X150631843Y-102934226D01*
X150590153Y-102895894D01*
X150551624Y-102850422D01*
X150515913Y-102797309D01*
X150482680Y-102736058D01*
X150451582Y-102666168D01*
X150422278Y-102587143D01*
X150394426Y-102498482D01*
X150372015Y-102416629D01*
X150365634Y-102390736D01*
X150357675Y-102356551D01*
X150348600Y-102316170D01*
X150338872Y-102271686D01*
X150328953Y-102225192D01*
X150319303Y-102178783D01*
X150316272Y-102163916D01*
X150300427Y-102087154D01*
X150285826Y-102019435D01*
X150272114Y-101959338D01*
X150258938Y-101905444D01*
X150245946Y-101856332D01*
X150232785Y-101810583D01*
X150219102Y-101766776D01*
X150212873Y-101747895D01*
X150199867Y-101707087D01*
X150191377Y-101674337D01*
X150187599Y-101648040D01*
X150188726Y-101626592D01*
X150194956Y-101608389D01*
X150206481Y-101591828D01*
X150223498Y-101575304D01*
X150235004Y-101565860D01*
X150276728Y-101537655D01*
X150320193Y-101516997D01*
X150364130Y-101503946D01*
X150407274Y-101498561D01*
X150448358Y-101500900D01*
G36*
X148690425Y-101323713D02*
G01*
X148743240Y-101334696D01*
X148793070Y-101353943D01*
X148838646Y-101381511D01*
X148867417Y-101405867D01*
X148894721Y-101435750D01*
X148921465Y-101471181D01*
X148945917Y-101509366D01*
X148966342Y-101547507D01*
X148981009Y-101582810D01*
X148984800Y-101595229D01*
X148987126Y-101623088D01*
X148980112Y-101649734D01*
X148964945Y-101672860D01*
X148942813Y-101690158D01*
X148933842Y-101694328D01*
X148900100Y-101703815D01*
X148864388Y-101706021D01*
X148825463Y-101700776D01*
X148782086Y-101687911D01*
X148733015Y-101667253D01*
X148731614Y-101666593D01*
X148696801Y-101651392D01*
X148668828Y-101642605D01*
X148645971Y-101640430D01*
X148626505Y-101645063D01*
X148608705Y-101656700D01*
X148590848Y-101675539D01*
X148584649Y-101683370D01*
X148555706Y-101726121D01*
X148526801Y-101778556D01*
X148498272Y-101839777D01*
X148470458Y-101908890D01*
X148443698Y-101984998D01*
X148418330Y-102067205D01*
X148394694Y-102154615D01*
X148374958Y-102238000D01*
X148359138Y-102313992D01*
X148347062Y-102382999D01*
X148338441Y-102447820D01*
X148332982Y-102511252D01*
X148330395Y-102576094D01*
X148330387Y-102645144D01*
X148330736Y-102662625D01*
X148332350Y-102714060D01*
X148334880Y-102756440D01*
X148338816Y-102791284D01*
X148344648Y-102820111D01*
X148352863Y-102844442D01*
X148363953Y-102865796D01*
X148378406Y-102885692D01*
X148396712Y-102905649D01*
X148414498Y-102922717D01*
X148459747Y-102960078D01*
X148507731Y-102991445D01*
X148555685Y-103015074D01*
X148568634Y-103020031D01*
X148590440Y-103027023D01*
X148610501Y-103031226D01*
X148633002Y-103033271D01*
X148659979Y-103033788D01*
X148687689Y-103033300D01*
X148709334Y-103031309D01*
X148729407Y-103027086D01*
X148752398Y-103019903D01*
X148758382Y-103017822D01*
X148801227Y-103000434D01*
X148844660Y-102977966D01*
X148889817Y-102949659D01*
X148937837Y-102914753D01*
X148989858Y-102872489D01*
X149033615Y-102834224D01*
X149099273Y-102768508D01*
X149158234Y-102695181D01*
X149210586Y-102614077D01*
X149256415Y-102525029D01*
X149295810Y-102427871D01*
X149328855Y-102322436D01*
X149352390Y-102224413D01*
X149362108Y-102173125D01*
X149369887Y-102120556D01*
X149375923Y-102064684D01*
X149380414Y-102003487D01*
X149383555Y-101934943D01*
X149384827Y-101891395D01*
X149386514Y-101834072D01*
X149388716Y-101786243D01*
X149391675Y-101746819D01*
X149395634Y-101714714D01*
X149400838Y-101688842D01*
X149407528Y-101668116D01*
X149415949Y-101651449D01*
X149426344Y-101637753D01*
X149438954Y-101625942D01*
X149445316Y-101621027D01*
X149467042Y-101607658D01*
X149495146Y-101593995D01*
X149525605Y-101581711D01*
X149554397Y-101572478D01*
X149570872Y-101568812D01*
X149602941Y-101568487D01*
X149632253Y-101578160D01*
X149658234Y-101597474D01*
X149680310Y-101626069D01*
X149689123Y-101642508D01*
X149699066Y-101665971D01*
X149708151Y-101693253D01*
X149716513Y-101725176D01*
X149724285Y-101762561D01*
X149731603Y-101806231D01*
X149738601Y-101857006D01*
X149745413Y-101915709D01*
X149752175Y-101983160D01*
X149759019Y-102060182D01*
X149760612Y-102079250D01*
X149770132Y-102186781D01*
X149780147Y-102284391D01*
X149790799Y-102372737D01*
X149802228Y-102452477D01*
X149814577Y-102524265D01*
X149827985Y-102588760D01*
X149842594Y-102646618D01*
X149858545Y-102698495D01*
X149875979Y-102745049D01*
X149895036Y-102786935D01*
X149915858Y-102824812D01*
X149923218Y-102836663D01*
X149933841Y-102851388D01*
X149949886Y-102871313D01*
X149969373Y-102894076D01*
X149990320Y-102917315D01*
X149995497Y-102922863D01*
X150029275Y-102960682D01*
X150054873Y-102993863D01*
X150072979Y-103023540D01*
X150084281Y-103050851D01*
X150089469Y-103076932D01*
X150089574Y-103078151D01*
X150088409Y-103106740D01*
X150079203Y-103129034D01*
X150061246Y-103146368D01*
X150049845Y-103153048D01*
X150026398Y-103161863D01*
X149997075Y-103168463D01*
X149966481Y-103172123D01*
X149939218Y-103172118D01*
X149933228Y-103171424D01*
X149888581Y-103160530D01*
X149840908Y-103141251D01*
X149791885Y-103114685D01*
X149743186Y-103081930D01*
X149696483Y-103044086D01*
X149653451Y-103002249D01*
X149624603Y-102968925D01*
X149601250Y-102937978D01*
X149584537Y-102911202D01*
X149573169Y-102885770D01*
X149565850Y-102858850D01*
X149561727Y-102831676D01*
X149558845Y-102810422D01*
X149555639Y-102793166D01*
X149552651Y-102782647D01*
X149551669Y-102780969D01*
X149549260Y-102779701D01*
X149545564Y-102780175D01*
X149539980Y-102782911D01*
X149531907Y-102788428D01*
X149520744Y-102797247D01*
X149505890Y-102809886D01*
X149486744Y-102826865D01*
X149462704Y-102848703D01*
X149433171Y-102875922D01*
X149397542Y-102909039D01*
X149355218Y-102948575D01*
X149323944Y-102977856D01*
X149254468Y-103040062D01*
X149185454Y-103096232D01*
X149118386Y-103145216D01*
X149058519Y-103183634D01*
X149014467Y-103208310D01*
X148971891Y-103228721D01*
X148928307Y-103245745D01*
X148881227Y-103260262D01*
X148828167Y-103273154D01*
X148776395Y-103283511D01*
X148746240Y-103287763D01*
X148708593Y-103291021D01*
X148666125Y-103293242D01*
X148621508Y-103294383D01*
X148577413Y-103294399D01*
X148536510Y-103293248D01*
X148501471Y-103290885D01*
X148480951Y-103288341D01*
X148398320Y-103270541D01*
X148322897Y-103245061D01*
X148254542Y-103211832D01*
X148193112Y-103170785D01*
X148143813Y-103127290D01*
X148106460Y-103085762D01*
X148075087Y-103041539D01*
X148049415Y-102993665D01*
X148029168Y-102941186D01*
X148014068Y-102883147D01*
X148003838Y-102818593D01*
X147998201Y-102746570D01*
X147996879Y-102666123D01*
X147997694Y-102624291D01*
X148002769Y-102530265D01*
X148012318Y-102433937D01*
X148026035Y-102336264D01*
X148043611Y-102238205D01*
X148064739Y-102140716D01*
X148089112Y-102044756D01*
X148116422Y-101951282D01*
X148146362Y-101861251D01*
X148178623Y-101775622D01*
X148212899Y-101695352D01*
X148248882Y-101621398D01*
X148286265Y-101554718D01*
X148324739Y-101496270D01*
X148363998Y-101447012D01*
X148381839Y-101428098D01*
X148425942Y-101390718D01*
X148474667Y-101361254D01*
X148526746Y-101339764D01*
X148580910Y-101326305D01*
X148635893Y-101320935D01*
X148690425Y-101323713D01*
G37*
X148690425Y-101323713D02*
X148743240Y-101334696D01*
X148793070Y-101353943D01*
X148838646Y-101381511D01*
X148867417Y-101405867D01*
X148894721Y-101435750D01*
X148921465Y-101471181D01*
X148945917Y-101509366D01*
X148966342Y-101547507D01*
X148981009Y-101582810D01*
X148984800Y-101595229D01*
X148987126Y-101623088D01*
X148980112Y-101649734D01*
X148964945Y-101672860D01*
X148942813Y-101690158D01*
X148933842Y-101694328D01*
X148900100Y-101703815D01*
X148864388Y-101706021D01*
X148825463Y-101700776D01*
X148782086Y-101687911D01*
X148733015Y-101667253D01*
X148731614Y-101666593D01*
X148696801Y-101651392D01*
X148668828Y-101642605D01*
X148645971Y-101640430D01*
X148626505Y-101645063D01*
X148608705Y-101656700D01*
X148590848Y-101675539D01*
X148584649Y-101683370D01*
X148555706Y-101726121D01*
X148526801Y-101778556D01*
X148498272Y-101839777D01*
X148470458Y-101908890D01*
X148443698Y-101984998D01*
X148418330Y-102067205D01*
X148394694Y-102154615D01*
X148374958Y-102238000D01*
X148359138Y-102313992D01*
X148347062Y-102382999D01*
X148338441Y-102447820D01*
X148332982Y-102511252D01*
X148330395Y-102576094D01*
X148330387Y-102645144D01*
X148330736Y-102662625D01*
X148332350Y-102714060D01*
X148334880Y-102756440D01*
X148338816Y-102791284D01*
X148344648Y-102820111D01*
X148352863Y-102844442D01*
X148363953Y-102865796D01*
X148378406Y-102885692D01*
X148396712Y-102905649D01*
X148414498Y-102922717D01*
X148459747Y-102960078D01*
X148507731Y-102991445D01*
X148555685Y-103015074D01*
X148568634Y-103020031D01*
X148590440Y-103027023D01*
X148610501Y-103031226D01*
X148633002Y-103033271D01*
X148659979Y-103033788D01*
X148687689Y-103033300D01*
X148709334Y-103031309D01*
X148729407Y-103027086D01*
X148752398Y-103019903D01*
X148758382Y-103017822D01*
X148801227Y-103000434D01*
X148844660Y-102977966D01*
X148889817Y-102949659D01*
X148937837Y-102914753D01*
X148989858Y-102872489D01*
X149033615Y-102834224D01*
X149099273Y-102768508D01*
X149158234Y-102695181D01*
X149210586Y-102614077D01*
X149256415Y-102525029D01*
X149295810Y-102427871D01*
X149328855Y-102322436D01*
X149352390Y-102224413D01*
X149362108Y-102173125D01*
X149369887Y-102120556D01*
X149375923Y-102064684D01*
X149380414Y-102003487D01*
X149383555Y-101934943D01*
X149384827Y-101891395D01*
X149386514Y-101834072D01*
X149388716Y-101786243D01*
X149391675Y-101746819D01*
X149395634Y-101714714D01*
X149400838Y-101688842D01*
X149407528Y-101668116D01*
X149415949Y-101651449D01*
X149426344Y-101637753D01*
X149438954Y-101625942D01*
X149445316Y-101621027D01*
X149467042Y-101607658D01*
X149495146Y-101593995D01*
X149525605Y-101581711D01*
X149554397Y-101572478D01*
X149570872Y-101568812D01*
X149602941Y-101568487D01*
X149632253Y-101578160D01*
X149658234Y-101597474D01*
X149680310Y-101626069D01*
X149689123Y-101642508D01*
X149699066Y-101665971D01*
X149708151Y-101693253D01*
X149716513Y-101725176D01*
X149724285Y-101762561D01*
X149731603Y-101806231D01*
X149738601Y-101857006D01*
X149745413Y-101915709D01*
X149752175Y-101983160D01*
X149759019Y-102060182D01*
X149760612Y-102079250D01*
X149770132Y-102186781D01*
X149780147Y-102284391D01*
X149790799Y-102372737D01*
X149802228Y-102452477D01*
X149814577Y-102524265D01*
X149827985Y-102588760D01*
X149842594Y-102646618D01*
X149858545Y-102698495D01*
X149875979Y-102745049D01*
X149895036Y-102786935D01*
X149915858Y-102824812D01*
X149923218Y-102836663D01*
X149933841Y-102851388D01*
X149949886Y-102871313D01*
X149969373Y-102894076D01*
X149990320Y-102917315D01*
X149995497Y-102922863D01*
X150029275Y-102960682D01*
X150054873Y-102993863D01*
X150072979Y-103023540D01*
X150084281Y-103050851D01*
X150089469Y-103076932D01*
X150089574Y-103078151D01*
X150088409Y-103106740D01*
X150079203Y-103129034D01*
X150061246Y-103146368D01*
X150049845Y-103153048D01*
X150026398Y-103161863D01*
X149997075Y-103168463D01*
X149966481Y-103172123D01*
X149939218Y-103172118D01*
X149933228Y-103171424D01*
X149888581Y-103160530D01*
X149840908Y-103141251D01*
X149791885Y-103114685D01*
X149743186Y-103081930D01*
X149696483Y-103044086D01*
X149653451Y-103002249D01*
X149624603Y-102968925D01*
X149601250Y-102937978D01*
X149584537Y-102911202D01*
X149573169Y-102885770D01*
X149565850Y-102858850D01*
X149561727Y-102831676D01*
X149558845Y-102810422D01*
X149555639Y-102793166D01*
X149552651Y-102782647D01*
X149551669Y-102780969D01*
X149549260Y-102779701D01*
X149545564Y-102780175D01*
X149539980Y-102782911D01*
X149531907Y-102788428D01*
X149520744Y-102797247D01*
X149505890Y-102809886D01*
X149486744Y-102826865D01*
X149462704Y-102848703D01*
X149433171Y-102875922D01*
X149397542Y-102909039D01*
X149355218Y-102948575D01*
X149323944Y-102977856D01*
X149254468Y-103040062D01*
X149185454Y-103096232D01*
X149118386Y-103145216D01*
X149058519Y-103183634D01*
X149014467Y-103208310D01*
X148971891Y-103228721D01*
X148928307Y-103245745D01*
X148881227Y-103260262D01*
X148828167Y-103273154D01*
X148776395Y-103283511D01*
X148746240Y-103287763D01*
X148708593Y-103291021D01*
X148666125Y-103293242D01*
X148621508Y-103294383D01*
X148577413Y-103294399D01*
X148536510Y-103293248D01*
X148501471Y-103290885D01*
X148480951Y-103288341D01*
X148398320Y-103270541D01*
X148322897Y-103245061D01*
X148254542Y-103211832D01*
X148193112Y-103170785D01*
X148143813Y-103127290D01*
X148106460Y-103085762D01*
X148075087Y-103041539D01*
X148049415Y-102993665D01*
X148029168Y-102941186D01*
X148014068Y-102883147D01*
X148003838Y-102818593D01*
X147998201Y-102746570D01*
X147996879Y-102666123D01*
X147997694Y-102624291D01*
X148002769Y-102530265D01*
X148012318Y-102433937D01*
X148026035Y-102336264D01*
X148043611Y-102238205D01*
X148064739Y-102140716D01*
X148089112Y-102044756D01*
X148116422Y-101951282D01*
X148146362Y-101861251D01*
X148178623Y-101775622D01*
X148212899Y-101695352D01*
X148248882Y-101621398D01*
X148286265Y-101554718D01*
X148324739Y-101496270D01*
X148363998Y-101447012D01*
X148381839Y-101428098D01*
X148425942Y-101390718D01*
X148474667Y-101361254D01*
X148526746Y-101339764D01*
X148580910Y-101326305D01*
X148635893Y-101320935D01*
X148690425Y-101323713D01*
G36*
X145857077Y-98289886D02*
G01*
X145900992Y-98296633D01*
X145921541Y-98301328D01*
X145991893Y-98324324D01*
X146063356Y-98357398D01*
X146135967Y-98400585D01*
X146209760Y-98453921D01*
X146284771Y-98517442D01*
X146361034Y-98591186D01*
X146438585Y-98675187D01*
X146517459Y-98769482D01*
X146597692Y-98874108D01*
X146679318Y-98989100D01*
X146762372Y-99114495D01*
X146846891Y-99250328D01*
X146850403Y-99256145D01*
X146974839Y-99471893D01*
X147089967Y-99691069D01*
X147195868Y-99913941D01*
X147292621Y-100140773D01*
X147380309Y-100371830D01*
X147459011Y-100607380D01*
X147528808Y-100847686D01*
X147589781Y-101093015D01*
X147642011Y-101343632D01*
X147685577Y-101599803D01*
X147720562Y-101861794D01*
X147747046Y-102129869D01*
X147754850Y-102232708D01*
X147761953Y-102350962D01*
X147767446Y-102477693D01*
X147771325Y-102610916D01*
X147773584Y-102748647D01*
X147774221Y-102888903D01*
X147773230Y-103029698D01*
X147770608Y-103169049D01*
X147766349Y-103304972D01*
X147760450Y-103435482D01*
X147757565Y-103486833D01*
X147740081Y-103713277D01*
X147714956Y-103932986D01*
X147682008Y-104146730D01*
X147641059Y-104355279D01*
X147591929Y-104559403D01*
X147534436Y-104759873D01*
X147468402Y-104957458D01*
X147393645Y-105152928D01*
X147336769Y-105287235D01*
X147307025Y-105353030D01*
X147272586Y-105426146D01*
X147234319Y-105504901D01*
X147193090Y-105587613D01*
X147149768Y-105672599D01*
X147105218Y-105758177D01*
X147060308Y-105842664D01*
X147015905Y-105924379D01*
X146972875Y-106001638D01*
X146932086Y-106072758D01*
X146931094Y-106074458D01*
X146891814Y-106139596D01*
X146846712Y-106210712D01*
X146797090Y-106285955D01*
X146744247Y-106363476D01*
X146689485Y-106441423D01*
X146634105Y-106517947D01*
X146579407Y-106591197D01*
X146526691Y-106659323D01*
X146477259Y-106720475D01*
X146475420Y-106722687D01*
X146457988Y-106742733D01*
X146434216Y-106768720D01*
X146405106Y-106799650D01*
X146371657Y-106834523D01*
X146334872Y-106872341D01*
X146295750Y-106912104D01*
X146255292Y-106952813D01*
X146214499Y-106993469D01*
X146174372Y-107033072D01*
X146135911Y-107070625D01*
X146100117Y-107105127D01*
X146067991Y-107135579D01*
X146040533Y-107160982D01*
X146018745Y-107180338D01*
X146008482Y-107188894D01*
X145927230Y-107250627D01*
X145840171Y-107310753D01*
X145748558Y-107368674D01*
X145653639Y-107423789D01*
X145556665Y-107475497D01*
X145458887Y-107523199D01*
X145361554Y-107566294D01*
X145265916Y-107604183D01*
X145173225Y-107636266D01*
X145084729Y-107661942D01*
X145001680Y-107680611D01*
X144974106Y-107685382D01*
X144921991Y-107692676D01*
X144864597Y-107699038D01*
X144803903Y-107704373D01*
X144741888Y-107708583D01*
X144680530Y-107711570D01*
X144621810Y-107713237D01*
X144567705Y-107713486D01*
X144520196Y-107712221D01*
X144483136Y-107709544D01*
X144389367Y-107695586D01*
X144297539Y-107673413D01*
X144207037Y-107642724D01*
X144117244Y-107603218D01*
X144027545Y-107554593D01*
X143937325Y-107496547D01*
X143845967Y-107428779D01*
X143755112Y-107352971D01*
X143726068Y-107327125D01*
X143703296Y-107305802D01*
X143684850Y-107286851D01*
X143668789Y-107268122D01*
X143653169Y-107247464D01*
X143636045Y-107222727D01*
X143632123Y-107216882D01*
X143575281Y-107123099D01*
X143524541Y-107021246D01*
X143479965Y-106911944D01*
X143441612Y-106795811D01*
X143409543Y-106673467D01*
X143383818Y-106545532D01*
X143364498Y-106412625D01*
X143351643Y-106275365D01*
X143345313Y-106134371D01*
X143345568Y-105990264D01*
X143352468Y-105843662D01*
X143366075Y-105695186D01*
X143386448Y-105545453D01*
X143413647Y-105395085D01*
X143442309Y-105266699D01*
X143469548Y-105160140D01*
X143498387Y-105058628D01*
X143529503Y-104960362D01*
X143563577Y-104863541D01*
X143601286Y-104766365D01*
X143643311Y-104667033D01*
X143690330Y-104563744D01*
X143743021Y-104454698D01*
X143765252Y-104410229D01*
X143839973Y-104266289D01*
X143914632Y-104131395D01*
X143990255Y-104004064D01*
X144067871Y-103882815D01*
X144148506Y-103766166D01*
X144233188Y-103652635D01*
X144322943Y-103540740D01*
X144418799Y-103428999D01*
X144521783Y-103315931D01*
X144529638Y-103307554D01*
X144577846Y-103257311D01*
X144620026Y-103215645D01*
X144656163Y-103182567D01*
X144686244Y-103158088D01*
X144710254Y-103142220D01*
X144728181Y-103134974D01*
X144738001Y-103135342D01*
X144746273Y-103143478D01*
X144752884Y-103159146D01*
X144756775Y-103179314D01*
X144757375Y-103190945D01*
X144760680Y-103217693D01*
X144771614Y-103240168D01*
X144787245Y-103257711D01*
X144798730Y-103269728D01*
X144803501Y-103279293D01*
X144803307Y-103290310D01*
X144802889Y-103292695D01*
X144797082Y-103310562D01*
X144785001Y-103336342D01*
X144766903Y-103369619D01*
X144743047Y-103409980D01*
X144713689Y-103457010D01*
X144679088Y-103510295D01*
X144639502Y-103569420D01*
X144595188Y-103633971D01*
X144554571Y-103691980D01*
X144523592Y-103735931D01*
X144497621Y-103772981D01*
X144475511Y-103804839D01*
X144456116Y-103833214D01*
X144438292Y-103859818D01*
X144420892Y-103886358D01*
X144402771Y-103914546D01*
X144382783Y-103946089D01*
X144360468Y-103981604D01*
X144254153Y-104158581D01*
X144155784Y-104337458D01*
X144065598Y-104517621D01*
X143983829Y-104698463D01*
X143910714Y-104879371D01*
X143846489Y-105059735D01*
X143791390Y-105238945D01*
X143745651Y-105416391D01*
X143709510Y-105591461D01*
X143688973Y-105719916D01*
X143682513Y-105767424D01*
X143677289Y-105809151D01*
X143673175Y-105847139D01*
X143670044Y-105883432D01*
X143667769Y-105920073D01*
X143666223Y-105959105D01*
X143665281Y-106002572D01*
X143664815Y-106052517D01*
X143664698Y-106110983D01*
X143664698Y-106111500D01*
X143664827Y-106167006D01*
X143665216Y-106213451D01*
X143665921Y-106252354D01*
X143666998Y-106285234D01*
X143668504Y-106313611D01*
X143670493Y-106339004D01*
X143673021Y-106362934D01*
X143674325Y-106373437D01*
X143694758Y-106501236D01*
X143721997Y-106621321D01*
X143755990Y-106733615D01*
X143796683Y-106838043D01*
X143844022Y-106934529D01*
X143897953Y-107022997D01*
X143958423Y-107103370D01*
X144025378Y-107175573D01*
X144098764Y-107239529D01*
X144178528Y-107295163D01*
X144264617Y-107342399D01*
X144356975Y-107381160D01*
X144394895Y-107394031D01*
X144452358Y-107410749D01*
X144508086Y-107423495D01*
X144564647Y-107432623D01*
X144624610Y-107438488D01*
X144690541Y-107441446D01*
X144741500Y-107441977D01*
X144819898Y-107440511D01*
X144890982Y-107435965D01*
X144957695Y-107427874D01*
X145022977Y-107415774D01*
X145089771Y-107399198D01*
X145161018Y-107377683D01*
X145172770Y-107373836D01*
X145292917Y-107328886D01*
X145412806Y-107273636D01*
X145532178Y-107208371D01*
X145650771Y-107133375D01*
X145768325Y-107048931D01*
X145884579Y-106955325D01*
X145999271Y-106852840D01*
X146112140Y-106741759D01*
X146222927Y-106622368D01*
X146331369Y-106494950D01*
X146437207Y-106359789D01*
X146540178Y-106217170D01*
X146640023Y-106067376D01*
X146736479Y-105910691D01*
X146829287Y-105747400D01*
X146918185Y-105577786D01*
X147002912Y-105402134D01*
X147021751Y-105360978D01*
X147090105Y-105204666D01*
X147152109Y-105051006D01*
X147208037Y-104898843D01*
X147258159Y-104747023D01*
X147302750Y-104594391D01*
X147342081Y-104439794D01*
X147376425Y-104282077D01*
X147406053Y-104120086D01*
X147431239Y-103952667D01*
X147452255Y-103778667D01*
X147469373Y-103596930D01*
X147482796Y-103407458D01*
X147484617Y-103370812D01*
X147486263Y-103324981D01*
X147487723Y-103271366D01*
X147488990Y-103211363D01*
X147490054Y-103146371D01*
X147490906Y-103077788D01*
X147491538Y-103007013D01*
X147491939Y-102935444D01*
X147492102Y-102864478D01*
X147492018Y-102795515D01*
X147491676Y-102729952D01*
X147491068Y-102669188D01*
X147490186Y-102614620D01*
X147489020Y-102567648D01*
X147488332Y-102547562D01*
X147476484Y-102310785D01*
X147459324Y-102082507D01*
X147436717Y-101861995D01*
X147408526Y-101648515D01*
X147374614Y-101441333D01*
X147334844Y-101239717D01*
X147289081Y-101042933D01*
X147237186Y-100850248D01*
X147179024Y-100660928D01*
X147114457Y-100474241D01*
X147089447Y-100407083D01*
X147036798Y-100274118D01*
X146979981Y-100141418D01*
X146919420Y-100009641D01*
X146855540Y-99879442D01*
X146788764Y-99751476D01*
X146719516Y-99626400D01*
X146648219Y-99504869D01*
X146575298Y-99387540D01*
X146501177Y-99275069D01*
X146426278Y-99168110D01*
X146351027Y-99067321D01*
X146275846Y-98973358D01*
X146201160Y-98886875D01*
X146127393Y-98808529D01*
X146054968Y-98738977D01*
X145984310Y-98678873D01*
X145961229Y-98661056D01*
X145912416Y-98626486D01*
X145866687Y-98598892D01*
X145820979Y-98576631D01*
X145772232Y-98558064D01*
X145763838Y-98555292D01*
X145724181Y-98541796D01*
X145693410Y-98529664D01*
X145670056Y-98518074D01*
X145652649Y-98506203D01*
X145639721Y-98493229D01*
X145631426Y-98481182D01*
X145624640Y-98468530D01*
X145620435Y-98456625D01*
X145618210Y-98442315D01*
X145617365Y-98422445D01*
X145617270Y-98406833D01*
X145618609Y-98373958D01*
X145623211Y-98349418D01*
X145631952Y-98331238D01*
X145645709Y-98317442D01*
X145661065Y-98308158D01*
X145689396Y-98297771D01*
X145725481Y-98290690D01*
X145767002Y-98286974D01*
X145811641Y-98286686D01*
X145857077Y-98289886D01*
G37*
X145857077Y-98289886D02*
X145900992Y-98296633D01*
X145921541Y-98301328D01*
X145991893Y-98324324D01*
X146063356Y-98357398D01*
X146135967Y-98400585D01*
X146209760Y-98453921D01*
X146284771Y-98517442D01*
X146361034Y-98591186D01*
X146438585Y-98675187D01*
X146517459Y-98769482D01*
X146597692Y-98874108D01*
X146679318Y-98989100D01*
X146762372Y-99114495D01*
X146846891Y-99250328D01*
X146850403Y-99256145D01*
X146974839Y-99471893D01*
X147089967Y-99691069D01*
X147195868Y-99913941D01*
X147292621Y-100140773D01*
X147380309Y-100371830D01*
X147459011Y-100607380D01*
X147528808Y-100847686D01*
X147589781Y-101093015D01*
X147642011Y-101343632D01*
X147685577Y-101599803D01*
X147720562Y-101861794D01*
X147747046Y-102129869D01*
X147754850Y-102232708D01*
X147761953Y-102350962D01*
X147767446Y-102477693D01*
X147771325Y-102610916D01*
X147773584Y-102748647D01*
X147774221Y-102888903D01*
X147773230Y-103029698D01*
X147770608Y-103169049D01*
X147766349Y-103304972D01*
X147760450Y-103435482D01*
X147757565Y-103486833D01*
X147740081Y-103713277D01*
X147714956Y-103932986D01*
X147682008Y-104146730D01*
X147641059Y-104355279D01*
X147591929Y-104559403D01*
X147534436Y-104759873D01*
X147468402Y-104957458D01*
X147393645Y-105152928D01*
X147336769Y-105287235D01*
X147307025Y-105353030D01*
X147272586Y-105426146D01*
X147234319Y-105504901D01*
X147193090Y-105587613D01*
X147149768Y-105672599D01*
X147105218Y-105758177D01*
X147060308Y-105842664D01*
X147015905Y-105924379D01*
X146972875Y-106001638D01*
X146932086Y-106072758D01*
X146931094Y-106074458D01*
X146891814Y-106139596D01*
X146846712Y-106210712D01*
X146797090Y-106285955D01*
X146744247Y-106363476D01*
X146689485Y-106441423D01*
X146634105Y-106517947D01*
X146579407Y-106591197D01*
X146526691Y-106659323D01*
X146477259Y-106720475D01*
X146475420Y-106722687D01*
X146457988Y-106742733D01*
X146434216Y-106768720D01*
X146405106Y-106799650D01*
X146371657Y-106834523D01*
X146334872Y-106872341D01*
X146295750Y-106912104D01*
X146255292Y-106952813D01*
X146214499Y-106993469D01*
X146174372Y-107033072D01*
X146135911Y-107070625D01*
X146100117Y-107105127D01*
X146067991Y-107135579D01*
X146040533Y-107160982D01*
X146018745Y-107180338D01*
X146008482Y-107188894D01*
X145927230Y-107250627D01*
X145840171Y-107310753D01*
X145748558Y-107368674D01*
X145653639Y-107423789D01*
X145556665Y-107475497D01*
X145458887Y-107523199D01*
X145361554Y-107566294D01*
X145265916Y-107604183D01*
X145173225Y-107636266D01*
X145084729Y-107661942D01*
X145001680Y-107680611D01*
X144974106Y-107685382D01*
X144921991Y-107692676D01*
X144864597Y-107699038D01*
X144803903Y-107704373D01*
X144741888Y-107708583D01*
X144680530Y-107711570D01*
X144621810Y-107713237D01*
X144567705Y-107713486D01*
X144520196Y-107712221D01*
X144483136Y-107709544D01*
X144389367Y-107695586D01*
X144297539Y-107673413D01*
X144207037Y-107642724D01*
X144117244Y-107603218D01*
X144027545Y-107554593D01*
X143937325Y-107496547D01*
X143845967Y-107428779D01*
X143755112Y-107352971D01*
X143726068Y-107327125D01*
X143703296Y-107305802D01*
X143684850Y-107286851D01*
X143668789Y-107268122D01*
X143653169Y-107247464D01*
X143636045Y-107222727D01*
X143632123Y-107216882D01*
X143575281Y-107123099D01*
X143524541Y-107021246D01*
X143479965Y-106911944D01*
X143441612Y-106795811D01*
X143409543Y-106673467D01*
X143383818Y-106545532D01*
X143364498Y-106412625D01*
X143351643Y-106275365D01*
X143345313Y-106134371D01*
X143345568Y-105990264D01*
X143352468Y-105843662D01*
X143366075Y-105695186D01*
X143386448Y-105545453D01*
X143413647Y-105395085D01*
X143442309Y-105266699D01*
X143469548Y-105160140D01*
X143498387Y-105058628D01*
X143529503Y-104960362D01*
X143563577Y-104863541D01*
X143601286Y-104766365D01*
X143643311Y-104667033D01*
X143690330Y-104563744D01*
X143743021Y-104454698D01*
X143765252Y-104410229D01*
X143839973Y-104266289D01*
X143914632Y-104131395D01*
X143990255Y-104004064D01*
X144067871Y-103882815D01*
X144148506Y-103766166D01*
X144233188Y-103652635D01*
X144322943Y-103540740D01*
X144418799Y-103428999D01*
X144521783Y-103315931D01*
X144529638Y-103307554D01*
X144577846Y-103257311D01*
X144620026Y-103215645D01*
X144656163Y-103182567D01*
X144686244Y-103158088D01*
X144710254Y-103142220D01*
X144728181Y-103134974D01*
X144738001Y-103135342D01*
X144746273Y-103143478D01*
X144752884Y-103159146D01*
X144756775Y-103179314D01*
X144757375Y-103190945D01*
X144760680Y-103217693D01*
X144771614Y-103240168D01*
X144787245Y-103257711D01*
X144798730Y-103269728D01*
X144803501Y-103279293D01*
X144803307Y-103290310D01*
X144802889Y-103292695D01*
X144797082Y-103310562D01*
X144785001Y-103336342D01*
X144766903Y-103369619D01*
X144743047Y-103409980D01*
X144713689Y-103457010D01*
X144679088Y-103510295D01*
X144639502Y-103569420D01*
X144595188Y-103633971D01*
X144554571Y-103691980D01*
X144523592Y-103735931D01*
X144497621Y-103772981D01*
X144475511Y-103804839D01*
X144456116Y-103833214D01*
X144438292Y-103859818D01*
X144420892Y-103886358D01*
X144402771Y-103914546D01*
X144382783Y-103946089D01*
X144360468Y-103981604D01*
X144254153Y-104158581D01*
X144155784Y-104337458D01*
X144065598Y-104517621D01*
X143983829Y-104698463D01*
X143910714Y-104879371D01*
X143846489Y-105059735D01*
X143791390Y-105238945D01*
X143745651Y-105416391D01*
X143709510Y-105591461D01*
X143688973Y-105719916D01*
X143682513Y-105767424D01*
X143677289Y-105809151D01*
X143673175Y-105847139D01*
X143670044Y-105883432D01*
X143667769Y-105920073D01*
X143666223Y-105959105D01*
X143665281Y-106002572D01*
X143664815Y-106052517D01*
X143664698Y-106110983D01*
X143664698Y-106111500D01*
X143664827Y-106167006D01*
X143665216Y-106213451D01*
X143665921Y-106252354D01*
X143666998Y-106285234D01*
X143668504Y-106313611D01*
X143670493Y-106339004D01*
X143673021Y-106362934D01*
X143674325Y-106373437D01*
X143694758Y-106501236D01*
X143721997Y-106621321D01*
X143755990Y-106733615D01*
X143796683Y-106838043D01*
X143844022Y-106934529D01*
X143897953Y-107022997D01*
X143958423Y-107103370D01*
X144025378Y-107175573D01*
X144098764Y-107239529D01*
X144178528Y-107295163D01*
X144264617Y-107342399D01*
X144356975Y-107381160D01*
X144394895Y-107394031D01*
X144452358Y-107410749D01*
X144508086Y-107423495D01*
X144564647Y-107432623D01*
X144624610Y-107438488D01*
X144690541Y-107441446D01*
X144741500Y-107441977D01*
X144819898Y-107440511D01*
X144890982Y-107435965D01*
X144957695Y-107427874D01*
X145022977Y-107415774D01*
X145089771Y-107399198D01*
X145161018Y-107377683D01*
X145172770Y-107373836D01*
X145292917Y-107328886D01*
X145412806Y-107273636D01*
X145532178Y-107208371D01*
X145650771Y-107133375D01*
X145768325Y-107048931D01*
X145884579Y-106955325D01*
X145999271Y-106852840D01*
X146112140Y-106741759D01*
X146222927Y-106622368D01*
X146331369Y-106494950D01*
X146437207Y-106359789D01*
X146540178Y-106217170D01*
X146640023Y-106067376D01*
X146736479Y-105910691D01*
X146829287Y-105747400D01*
X146918185Y-105577786D01*
X147002912Y-105402134D01*
X147021751Y-105360978D01*
X147090105Y-105204666D01*
X147152109Y-105051006D01*
X147208037Y-104898843D01*
X147258159Y-104747023D01*
X147302750Y-104594391D01*
X147342081Y-104439794D01*
X147376425Y-104282077D01*
X147406053Y-104120086D01*
X147431239Y-103952667D01*
X147452255Y-103778667D01*
X147469373Y-103596930D01*
X147482796Y-103407458D01*
X147484617Y-103370812D01*
X147486263Y-103324981D01*
X147487723Y-103271366D01*
X147488990Y-103211363D01*
X147490054Y-103146371D01*
X147490906Y-103077788D01*
X147491538Y-103007013D01*
X147491939Y-102935444D01*
X147492102Y-102864478D01*
X147492018Y-102795515D01*
X147491676Y-102729952D01*
X147491068Y-102669188D01*
X147490186Y-102614620D01*
X147489020Y-102567648D01*
X147488332Y-102547562D01*
X147476484Y-102310785D01*
X147459324Y-102082507D01*
X147436717Y-101861995D01*
X147408526Y-101648515D01*
X147374614Y-101441333D01*
X147334844Y-101239717D01*
X147289081Y-101042933D01*
X147237186Y-100850248D01*
X147179024Y-100660928D01*
X147114457Y-100474241D01*
X147089447Y-100407083D01*
X147036798Y-100274118D01*
X146979981Y-100141418D01*
X146919420Y-100009641D01*
X146855540Y-99879442D01*
X146788764Y-99751476D01*
X146719516Y-99626400D01*
X146648219Y-99504869D01*
X146575298Y-99387540D01*
X146501177Y-99275069D01*
X146426278Y-99168110D01*
X146351027Y-99067321D01*
X146275846Y-98973358D01*
X146201160Y-98886875D01*
X146127393Y-98808529D01*
X146054968Y-98738977D01*
X145984310Y-98678873D01*
X145961229Y-98661056D01*
X145912416Y-98626486D01*
X145866687Y-98598892D01*
X145820979Y-98576631D01*
X145772232Y-98558064D01*
X145763838Y-98555292D01*
X145724181Y-98541796D01*
X145693410Y-98529664D01*
X145670056Y-98518074D01*
X145652649Y-98506203D01*
X145639721Y-98493229D01*
X145631426Y-98481182D01*
X145624640Y-98468530D01*
X145620435Y-98456625D01*
X145618210Y-98442315D01*
X145617365Y-98422445D01*
X145617270Y-98406833D01*
X145618609Y-98373958D01*
X145623211Y-98349418D01*
X145631952Y-98331238D01*
X145645709Y-98317442D01*
X145661065Y-98308158D01*
X145689396Y-98297771D01*
X145725481Y-98290690D01*
X145767002Y-98286974D01*
X145811641Y-98286686D01*
X145857077Y-98289886D01*
D12*
X122975000Y-120625000D02*
G75*
G03*
X123050000Y-122050000I-675000J-750000D01*
G01*
X122300000Y-121375000D02*
X124300000Y-121375000D01*
X120300000Y-121375000D02*
X121200000Y-121375000D01*
X120225000Y-121375000D02*
G75*
G03*
X120225000Y-121375000I-925000J0D01*
G01*
X126225000Y-121375000D02*
G75*
G03*
X126225000Y-121375000I-925000J0D01*
G01*
D13*
X122475000Y-121375000D02*
G75*
G03*
X122475000Y-121375000I-175000J0D01*
G01*
D10*
X154860000Y-107857836D02*
X154860000Y-107642164D01*
X154140000Y-107857836D02*
X154140000Y-107642164D01*
X164235000Y-123235000D02*
X164235000Y-120950000D01*
X162765000Y-123235000D02*
X164235000Y-123235000D01*
X162765000Y-120950000D02*
X162765000Y-123235000D01*
X165985000Y-123235000D02*
X165985000Y-120950000D01*
X164515000Y-123235000D02*
X165985000Y-123235000D01*
X164515000Y-120950000D02*
X164515000Y-123235000D01*
X124740000Y-107609420D02*
X124740000Y-107890580D01*
X125760000Y-107609420D02*
X125760000Y-107890580D01*
X181990000Y-91834420D02*
X181990000Y-92115580D01*
X183010000Y-91834420D02*
X183010000Y-92115580D01*
X168990000Y-91859420D02*
X168990000Y-92140580D01*
X170010000Y-91859420D02*
X170010000Y-92140580D01*
X155991100Y-91859420D02*
X155991100Y-92140580D01*
X157011100Y-91859420D02*
X157011100Y-92140580D01*
X145609420Y-78010000D02*
X145890580Y-78010000D01*
X145609420Y-76990000D02*
X145890580Y-76990000D01*
X137359420Y-77010000D02*
X137640580Y-77010000D01*
X137359420Y-75990000D02*
X137640580Y-75990000D01*
X132010000Y-77140580D02*
X132010000Y-76859420D01*
X130990000Y-77140580D02*
X130990000Y-76859420D01*
X125760000Y-77140580D02*
X125760000Y-76859420D01*
X124740000Y-77140580D02*
X124740000Y-76859420D01*
X119760000Y-77140580D02*
X119760000Y-76859420D01*
X118740000Y-77140580D02*
X118740000Y-76859420D01*
X137490000Y-107609420D02*
X137490000Y-107890580D01*
X138510000Y-107609420D02*
X138510000Y-107890580D01*
X178340000Y-120420000D02*
X178340000Y-123080000D01*
X183480000Y-120420000D02*
X178340000Y-120420000D01*
X183480000Y-123080000D02*
X178340000Y-123080000D01*
X183480000Y-120420000D02*
X183480000Y-123080000D01*
X184750000Y-120420000D02*
X186080000Y-120420000D01*
X186080000Y-120420000D02*
X186080000Y-121750000D01*
X186445000Y-100880000D02*
X186445000Y-100500000D01*
X192865000Y-100880000D02*
X186445000Y-100880000D01*
X192865000Y-119120000D02*
X186445000Y-119120000D01*
X192865000Y-100880000D02*
X192865000Y-119120000D01*
X167120000Y-119120000D02*
X167120000Y-118120000D01*
X167900000Y-119120000D02*
X167120000Y-119120000D01*
X167120000Y-100880000D02*
X167120000Y-101880000D01*
X167900000Y-100880000D02*
X167120000Y-100880000D01*
X159120000Y-106403641D02*
X159120000Y-106096359D01*
X159880000Y-106403641D02*
X159880000Y-106096359D01*
X161130000Y-106096359D02*
X161130000Y-106403641D01*
X160370000Y-106096359D02*
X160370000Y-106403641D01*
X110170000Y-106410000D02*
X112830000Y-106410000D01*
X110170000Y-101270000D02*
X110170000Y-106410000D01*
X112830000Y-101270000D02*
X112830000Y-106410000D01*
X110170000Y-101270000D02*
X112830000Y-101270000D01*
X110170000Y-100000000D02*
X110170000Y-98670000D01*
X110170000Y-98670000D02*
X111500000Y-98670000D01*
X177200000Y-123080000D02*
X177200000Y-120420000D01*
X169520000Y-123080000D02*
X177200000Y-123080000D01*
X169520000Y-120420000D02*
X177200000Y-120420000D01*
X169520000Y-123080000D02*
X169520000Y-120420000D01*
X168250000Y-123080000D02*
X166920000Y-123080000D01*
X166920000Y-123080000D02*
X166920000Y-121750000D01*
X117096359Y-96870000D02*
X117403641Y-96870000D01*
X117096359Y-97630000D02*
X117403641Y-97630000D01*
X113346359Y-96870000D02*
X113653641Y-96870000D01*
X113346359Y-97630000D02*
X113653641Y-97630000D01*
X111403641Y-97630000D02*
X111096359Y-97630000D01*
X111403641Y-96870000D02*
X111096359Y-96870000D01*
X184511252Y-98985000D02*
X183988748Y-98985000D01*
X184511252Y-97515000D02*
X183988748Y-97515000D01*
X142961252Y-111910000D02*
X141538748Y-111910000D01*
X142961252Y-110090000D02*
X141538748Y-110090000D01*
X115038748Y-107090000D02*
X116461252Y-107090000D01*
X115038748Y-108910000D02*
X116461252Y-108910000D01*
X142961252Y-114410000D02*
X141538748Y-114410000D01*
X142961252Y-112590000D02*
X141538748Y-112590000D01*
X113440000Y-102500000D02*
X113440000Y-104450000D01*
X113440000Y-102500000D02*
X113440000Y-100550000D01*
X118560000Y-102500000D02*
X118560000Y-104450000D01*
X118560000Y-102500000D02*
X118560000Y-99050000D01*
X128010000Y-100609420D02*
X128010000Y-100890580D01*
X126990000Y-100609420D02*
X126990000Y-100890580D01*
X140760000Y-100609420D02*
X140760000Y-100890580D01*
X139740000Y-100609420D02*
X139740000Y-100890580D01*
X127650000Y-102640000D02*
X125850000Y-102640000D01*
X125850000Y-105860000D02*
X128300000Y-105860000D01*
X129596359Y-102870000D02*
X129903641Y-102870000D01*
X129596359Y-103630000D02*
X129903641Y-103630000D01*
X129630000Y-101596359D02*
X129630000Y-101903641D01*
X128870000Y-101596359D02*
X128870000Y-101903641D01*
X125903641Y-102130000D02*
X125596359Y-102130000D01*
X125903641Y-101370000D02*
X125596359Y-101370000D01*
X121390000Y-106102064D02*
X121390000Y-104897936D01*
X124110000Y-106102064D02*
X124110000Y-104897936D01*
X124485000Y-100988748D02*
X124485000Y-101511252D01*
X123015000Y-100988748D02*
X123015000Y-101511252D01*
X122485000Y-100988748D02*
X122485000Y-101511252D01*
X121015000Y-100988748D02*
X121015000Y-101511252D01*
X128011252Y-107985000D02*
X127488748Y-107985000D01*
X128011252Y-106515000D02*
X127488748Y-106515000D01*
X126265000Y-82500000D02*
X126265000Y-86100000D01*
X126265000Y-82500000D02*
X126265000Y-80300000D01*
X131735000Y-82500000D02*
X131735000Y-84700000D01*
X131735000Y-82500000D02*
X131735000Y-80300000D01*
X132515000Y-82500000D02*
X132515000Y-86100000D01*
X132515000Y-82500000D02*
X132515000Y-80300000D01*
X137985000Y-82500000D02*
X137985000Y-84700000D01*
X137985000Y-82500000D02*
X137985000Y-80300000D01*
X138765000Y-82500000D02*
X138765000Y-86100000D01*
X138765000Y-82500000D02*
X138765000Y-80300000D01*
X144235000Y-82500000D02*
X144235000Y-84700000D01*
X144235000Y-82500000D02*
X144235000Y-80300000D01*
X113765000Y-82500000D02*
X113765000Y-86100000D01*
X113765000Y-82500000D02*
X113765000Y-80300000D01*
X119235000Y-82500000D02*
X119235000Y-84700000D01*
X119235000Y-82500000D02*
X119235000Y-80300000D01*
X120015000Y-82500000D02*
X120015000Y-86100000D01*
X120015000Y-82500000D02*
X120015000Y-80300000D01*
X125485000Y-82500000D02*
X125485000Y-84700000D01*
X125485000Y-82500000D02*
X125485000Y-80300000D01*
X145861100Y-88363600D02*
X145861100Y-90178600D01*
X145616100Y-88363600D02*
X145861100Y-88363600D01*
X145616100Y-84503600D02*
X145616100Y-88363600D01*
X145616100Y-80643600D02*
X145861100Y-80643600D01*
X145616100Y-84503600D02*
X145616100Y-80643600D01*
X157386100Y-88363600D02*
X157141100Y-88363600D01*
X157386100Y-84503600D02*
X157386100Y-88363600D01*
X157386100Y-80643600D02*
X157141100Y-80643600D01*
X157386100Y-84503600D02*
X157386100Y-80643600D01*
X158861100Y-88363600D02*
X158861100Y-90178600D01*
X158616100Y-88363600D02*
X158861100Y-88363600D01*
X158616100Y-84503600D02*
X158616100Y-88363600D01*
X158616100Y-80643600D02*
X158861100Y-80643600D01*
X158616100Y-84503600D02*
X158616100Y-80643600D01*
X170386100Y-88363600D02*
X170141100Y-88363600D01*
X170386100Y-84503600D02*
X170386100Y-88363600D01*
X170386100Y-80643600D02*
X170141100Y-80643600D01*
X170386100Y-84503600D02*
X170386100Y-80643600D01*
X171861100Y-88363600D02*
X171861100Y-90178600D01*
X171616100Y-88363600D02*
X171861100Y-88363600D01*
X171616100Y-84503600D02*
X171616100Y-88363600D01*
X171616100Y-80643600D02*
X171861100Y-80643600D01*
X171616100Y-84503600D02*
X171616100Y-80643600D01*
X183386100Y-88363600D02*
X183141100Y-88363600D01*
X183386100Y-84503600D02*
X183386100Y-88363600D01*
X183386100Y-80643600D02*
X183141100Y-80643600D01*
X183386100Y-84503600D02*
X183386100Y-80643600D01*
X152735000Y-94750000D02*
X152735000Y-91150000D01*
X152735000Y-94750000D02*
X152735000Y-96950000D01*
X147265000Y-94750000D02*
X147265000Y-92550000D01*
X147265000Y-94750000D02*
X147265000Y-96950000D01*
X165735000Y-94750000D02*
X165735000Y-91150000D01*
X165735000Y-94750000D02*
X165735000Y-96950000D01*
X160265000Y-94750000D02*
X160265000Y-92550000D01*
X160265000Y-94750000D02*
X160265000Y-96950000D01*
X178735000Y-94750000D02*
X178735000Y-91150000D01*
X178735000Y-94750000D02*
X178735000Y-96950000D01*
X173265000Y-94750000D02*
X173265000Y-92550000D01*
X173265000Y-94750000D02*
X173265000Y-96950000D01*
X131735000Y-90750000D02*
X131735000Y-87150000D01*
X131735000Y-90750000D02*
X131735000Y-92950000D01*
X126265000Y-90750000D02*
X126265000Y-88550000D01*
X126265000Y-90750000D02*
X126265000Y-92950000D01*
X144235000Y-90750000D02*
X144235000Y-87150000D01*
X144235000Y-90750000D02*
X144235000Y-92950000D01*
X138765000Y-90750000D02*
X138765000Y-88550000D01*
X138765000Y-90750000D02*
X138765000Y-92950000D01*
X137985000Y-90750000D02*
X137985000Y-87150000D01*
X137985000Y-90750000D02*
X137985000Y-92950000D01*
X132515000Y-90750000D02*
X132515000Y-88550000D01*
X132515000Y-90750000D02*
X132515000Y-92950000D01*
X119235000Y-90750000D02*
X119235000Y-87150000D01*
X119235000Y-90750000D02*
X119235000Y-92950000D01*
X113765000Y-90750000D02*
X113765000Y-88550000D01*
X113765000Y-90750000D02*
X113765000Y-92950000D01*
X125485000Y-90750000D02*
X125485000Y-87150000D01*
X125485000Y-90750000D02*
X125485000Y-92950000D01*
X120015000Y-90750000D02*
X120015000Y-88550000D01*
X120015000Y-90750000D02*
X120015000Y-92950000D01*
D14*
X110171100Y-71908600D02*
X110171100Y-68098600D01*
X112711100Y-68098600D02*
X112076100Y-67463600D01*
X110806100Y-67463600D02*
X112076100Y-67463600D01*
X110171100Y-68098600D02*
X110806100Y-67463600D01*
X110806100Y-72543600D02*
X110171100Y-71908600D01*
X110806100Y-72543600D02*
X112076100Y-72543600D01*
X112711100Y-71908600D02*
X112076100Y-72543600D01*
X112711100Y-71908600D02*
X112711100Y-68098600D01*
X115251100Y-68098600D02*
X114616100Y-67463600D01*
X113346100Y-67463600D02*
X114616100Y-67463600D01*
X112711100Y-68098600D02*
X113346100Y-67463600D01*
X113346100Y-72543600D02*
X112711100Y-71908600D01*
X113346100Y-72543600D02*
X114616100Y-72543600D01*
X115251100Y-71908600D02*
X114616100Y-72543600D01*
X115251100Y-71908600D02*
X115251100Y-68098600D01*
X117791100Y-68098600D02*
X117156100Y-67463600D01*
X115886100Y-67463600D02*
X117156100Y-67463600D01*
X115251100Y-68098600D02*
X115886100Y-67463600D01*
X115886100Y-72543600D02*
X115251100Y-71908600D01*
X115886100Y-72543600D02*
X117156100Y-72543600D01*
X117791100Y-71908600D02*
X117156100Y-72543600D01*
X117791100Y-71908600D02*
X117791100Y-68098600D01*
X120331100Y-68098600D02*
X119696100Y-67463600D01*
X118426100Y-67463600D02*
X119696100Y-67463600D01*
X117791100Y-68098600D02*
X118426100Y-67463600D01*
X118426100Y-72543600D02*
X117791100Y-71908600D01*
X118426100Y-72543600D02*
X119696100Y-72543600D01*
X120331100Y-71908600D02*
X119696100Y-72543600D01*
X120331100Y-71908600D02*
X120331100Y-68098600D01*
X122871100Y-68098600D02*
X122236100Y-67463600D01*
X120966100Y-67463600D02*
X122236100Y-67463600D01*
X120331100Y-68098600D02*
X120966100Y-67463600D01*
X120966100Y-72543600D02*
X120331100Y-71908600D01*
X120966100Y-72543600D02*
X122236100Y-72543600D01*
X122871100Y-71908600D02*
X122236100Y-72543600D01*
X122871100Y-71908600D02*
X122871100Y-68098600D01*
X125411100Y-68098600D02*
X124776100Y-67463600D01*
X123506100Y-67463600D02*
X124776100Y-67463600D01*
X122871100Y-68098600D02*
X123506100Y-67463600D01*
X123506100Y-72543600D02*
X122871100Y-71908600D01*
X123506100Y-72543600D02*
X124776100Y-72543600D01*
X125411100Y-71908600D02*
X124776100Y-72543600D01*
X125411100Y-71908600D02*
X125411100Y-68098600D01*
X127951100Y-68098600D02*
X127316100Y-67463600D01*
X126046100Y-67463600D02*
X127316100Y-67463600D01*
X125411100Y-68098600D02*
X126046100Y-67463600D01*
X126046100Y-72543600D02*
X125411100Y-71908600D01*
X126046100Y-72543600D02*
X127316100Y-72543600D01*
X127951100Y-71908600D02*
X127316100Y-72543600D01*
X127951100Y-71908600D02*
X127951100Y-68098600D01*
X130491100Y-68098600D02*
X129856100Y-67463600D01*
X128586100Y-67463600D02*
X129856100Y-67463600D01*
X127951100Y-68098600D02*
X128586100Y-67463600D01*
X128586100Y-72543600D02*
X127951100Y-71908600D01*
X128586100Y-72543600D02*
X129856100Y-72543600D01*
X130491100Y-71908600D02*
X129856100Y-72543600D01*
X130491100Y-71908600D02*
X130491100Y-68098600D01*
X133031100Y-68098600D02*
X132396100Y-67463600D01*
X131126100Y-67463600D02*
X132396100Y-67463600D01*
X130491100Y-68098600D02*
X131126100Y-67463600D01*
X131126100Y-72543600D02*
X130491100Y-71908600D01*
X131126100Y-72543600D02*
X132396100Y-72543600D01*
X133031100Y-71908600D02*
X132396100Y-72543600D01*
X133031100Y-71908600D02*
X133031100Y-68098600D01*
X135571100Y-68098600D02*
X134936100Y-67463600D01*
X133666100Y-67463600D02*
X134936100Y-67463600D01*
X133031100Y-68098600D02*
X133666100Y-67463600D01*
X133666100Y-72543600D02*
X133031100Y-71908600D01*
X133666100Y-72543600D02*
X134936100Y-72543600D01*
X135571100Y-71908600D02*
X134936100Y-72543600D01*
X135571100Y-71908600D02*
X135571100Y-68098600D01*
X138111100Y-68098600D02*
X137476100Y-67463600D01*
X136206100Y-67463600D02*
X137476100Y-67463600D01*
X135571100Y-68098600D02*
X136206100Y-67463600D01*
X136206100Y-72543600D02*
X135571100Y-71908600D01*
X136206100Y-72543600D02*
X137476100Y-72543600D01*
X138111100Y-71908600D02*
X137476100Y-72543600D01*
X138111100Y-71908600D02*
X138111100Y-68098600D01*
X140651100Y-71908600D02*
X140651100Y-68098600D01*
X143191100Y-71908600D02*
X143191100Y-68098600D01*
X145731100Y-71908600D02*
X145731100Y-68098600D01*
X148271100Y-71908600D02*
X148271100Y-68098600D01*
X150811100Y-71908600D02*
X150811100Y-68098600D01*
X153351100Y-71908600D02*
X153351100Y-68098600D01*
X155891100Y-71908600D02*
X155891100Y-68098600D01*
X158431100Y-71908600D02*
X158431100Y-68098600D01*
X160971100Y-71908600D02*
X160971100Y-68098600D01*
X163511100Y-71908600D02*
X163511100Y-68098600D01*
X166051100Y-71908600D02*
X166051100Y-68098600D01*
X168591100Y-71908600D02*
X168591100Y-68098600D01*
X171131100Y-71908600D02*
X171131100Y-68098600D01*
X173671100Y-71908600D02*
X173671100Y-68098600D01*
X176211100Y-71908600D02*
X176211100Y-68098600D01*
X178751100Y-71908600D02*
X178751100Y-68098600D01*
X181291100Y-71908600D02*
X181291100Y-68098600D01*
X183831100Y-71908600D02*
X183831100Y-68098600D01*
X171131100Y-68098600D02*
X170496100Y-67463600D01*
X169226100Y-67463600D02*
X170496100Y-67463600D01*
X168591100Y-68098600D02*
X169226100Y-67463600D01*
X168591100Y-68098600D02*
X167956100Y-67463600D01*
X166686100Y-67463600D02*
X167956100Y-67463600D01*
X166051100Y-68098600D02*
X166686100Y-67463600D01*
X166051100Y-68098600D02*
X165416100Y-67463600D01*
X164146100Y-67463600D02*
X165416100Y-67463600D01*
X163511100Y-68098600D02*
X164146100Y-67463600D01*
X163511100Y-68098600D02*
X162876100Y-67463600D01*
X161606100Y-67463600D02*
X162876100Y-67463600D01*
X160971100Y-68098600D02*
X161606100Y-67463600D01*
X160971100Y-68098600D02*
X160336100Y-67463600D01*
X159066100Y-67463600D02*
X160336100Y-67463600D01*
X158431100Y-68098600D02*
X159066100Y-67463600D01*
X158431100Y-68098600D02*
X157796100Y-67463600D01*
X156526100Y-67463600D02*
X157796100Y-67463600D01*
X155891100Y-68098600D02*
X156526100Y-67463600D01*
X155891100Y-68098600D02*
X155256100Y-67463600D01*
X153986100Y-67463600D02*
X155256100Y-67463600D01*
X153351100Y-68098600D02*
X153986100Y-67463600D01*
X153351100Y-68098600D02*
X152716100Y-67463600D01*
X151446100Y-67463600D02*
X152716100Y-67463600D01*
X150811100Y-68098600D02*
X151446100Y-67463600D01*
X150176100Y-67463600D02*
X150811100Y-68098600D01*
X150176100Y-67463600D02*
X148906100Y-67463600D01*
X148271100Y-68098600D02*
X148906100Y-67463600D01*
X147636100Y-67463600D02*
X148271100Y-68098600D01*
X147636100Y-67463600D02*
X146366100Y-67463600D01*
X145731100Y-68098600D02*
X146366100Y-67463600D01*
X145731100Y-68098600D02*
X145096100Y-67463600D01*
X143826100Y-67463600D02*
X145096100Y-67463600D01*
X143191100Y-68098600D02*
X143826100Y-67463600D01*
X143191100Y-68098600D02*
X142556100Y-67463600D01*
X141286100Y-67463600D02*
X142556100Y-67463600D01*
X140651100Y-68098600D02*
X141286100Y-67463600D01*
X140651100Y-68098600D02*
X140016100Y-67463600D01*
X138746100Y-67463600D02*
X140016100Y-67463600D01*
X138111100Y-68098600D02*
X138746100Y-67463600D01*
X138746100Y-72543600D02*
X138111100Y-71908600D01*
X138746100Y-72543600D02*
X140016100Y-72543600D01*
X140651100Y-71908600D02*
X140016100Y-72543600D01*
X141286100Y-72543600D02*
X140651100Y-71908600D01*
X141286100Y-72543600D02*
X142556100Y-72543600D01*
X143191100Y-71908600D02*
X142556100Y-72543600D01*
X143826100Y-72543600D02*
X143191100Y-71908600D01*
X143826100Y-72543600D02*
X145096100Y-72543600D01*
X145731100Y-71908600D02*
X145096100Y-72543600D01*
X146366100Y-72543600D02*
X145731100Y-71908600D01*
X146366100Y-72543600D02*
X147636100Y-72543600D01*
X148271100Y-71908600D02*
X147636100Y-72543600D01*
X148906100Y-72543600D02*
X148271100Y-71908600D01*
X148906100Y-72543600D02*
X150176100Y-72543600D01*
X150811100Y-71908600D02*
X150176100Y-72543600D01*
X151446100Y-72543600D02*
X150811100Y-71908600D01*
X151446100Y-72543600D02*
X152716100Y-72543600D01*
X153351100Y-71908600D02*
X152716100Y-72543600D01*
X153986100Y-72543600D02*
X153351100Y-71908600D01*
X153986100Y-72543600D02*
X155256100Y-72543600D01*
X155891100Y-71908600D02*
X155256100Y-72543600D01*
X155891100Y-71908600D02*
X156526100Y-72543600D01*
X157796100Y-72543600D02*
X156526100Y-72543600D01*
X158431100Y-71908600D02*
X157796100Y-72543600D01*
X159066100Y-72543600D02*
X158431100Y-71908600D01*
X160336100Y-72543600D02*
X159066100Y-72543600D01*
X160971100Y-71908600D02*
X160336100Y-72543600D01*
X161606100Y-72543600D02*
X160971100Y-71908600D01*
X162876100Y-72543600D02*
X161606100Y-72543600D01*
X163511100Y-71908600D02*
X162876100Y-72543600D01*
X164146100Y-72543600D02*
X163511100Y-71908600D01*
X165416100Y-72543600D02*
X164146100Y-72543600D01*
X166051100Y-71908600D02*
X165416100Y-72543600D01*
X166686100Y-72543600D02*
X166051100Y-71908600D01*
X167956100Y-72543600D02*
X166686100Y-72543600D01*
X168591100Y-71908600D02*
X167956100Y-72543600D01*
X169226100Y-72543600D02*
X168591100Y-71908600D01*
X170496100Y-72543600D02*
X169226100Y-72543600D01*
X171131100Y-71908600D02*
X170496100Y-72543600D01*
X171766100Y-72543600D02*
X171131100Y-71908600D01*
X173036100Y-72543600D02*
X171766100Y-72543600D01*
X173671100Y-71908600D02*
X173036100Y-72543600D01*
X174306100Y-72543600D02*
X173671100Y-71908600D01*
X175576100Y-72543600D02*
X174306100Y-72543600D01*
X176211100Y-71908600D02*
X175576100Y-72543600D01*
X176846100Y-72543600D02*
X176211100Y-71908600D01*
X178116100Y-72543600D02*
X176846100Y-72543600D01*
X178751100Y-71908600D02*
X178116100Y-72543600D01*
X179386100Y-72543600D02*
X178751100Y-71908600D01*
X180656100Y-72543600D02*
X179386100Y-72543600D01*
X181291100Y-71908600D02*
X180656100Y-72543600D01*
X181926100Y-72543600D02*
X181291100Y-71908600D01*
X183196100Y-72543600D02*
X181926100Y-72543600D01*
X183831100Y-71908600D02*
X183196100Y-72543600D01*
X184466100Y-72543600D02*
X183831100Y-71908600D01*
X185736100Y-72543600D02*
X184466100Y-72543600D01*
X186371100Y-71908600D02*
X185736100Y-72543600D01*
X186371100Y-68098600D02*
X186371100Y-71908600D01*
X171766100Y-67463600D02*
X171131100Y-68098600D01*
X173036100Y-67463600D02*
X171766100Y-67463600D01*
X173671100Y-68098600D02*
X173036100Y-67463600D01*
X174306100Y-67463600D02*
X173671100Y-68098600D01*
X175576100Y-67463600D02*
X174306100Y-67463600D01*
X176211100Y-68098600D02*
X175576100Y-67463600D01*
X176846100Y-67463600D02*
X176211100Y-68098600D01*
X178116100Y-67463600D02*
X176846100Y-67463600D01*
X178751100Y-68098600D02*
X178116100Y-67463600D01*
X179386100Y-67463600D02*
X178751100Y-68098600D01*
X180656100Y-67463600D02*
X179386100Y-67463600D01*
X181291100Y-68098600D02*
X180656100Y-67463600D01*
X181926100Y-67463600D02*
X181291100Y-68098600D01*
X183196100Y-67463600D02*
X181926100Y-67463600D01*
X183831100Y-68098600D02*
X183196100Y-67463600D01*
X184466100Y-67463600D02*
X183831100Y-68098600D01*
X185736100Y-67463600D02*
X184466100Y-67463600D01*
X186371100Y-68098600D02*
X185736100Y-67463600D01*
D10*
X158615000Y-108140000D02*
X158140000Y-108140000D01*
X162360000Y-112360000D02*
X162360000Y-111885000D01*
X161885000Y-112360000D02*
X162360000Y-112360000D01*
X158140000Y-112360000D02*
X158140000Y-111885000D01*
X158615000Y-112360000D02*
X158140000Y-112360000D01*
X162360000Y-108140000D02*
X162360000Y-108615000D01*
X161885000Y-108140000D02*
X162360000Y-108140000D01*
X138600000Y-105860000D02*
X141050000Y-105860000D01*
X140400000Y-102640000D02*
X138600000Y-102640000D01*
X153610000Y-113900000D02*
X153610000Y-111450000D01*
X150390000Y-112100000D02*
X150390000Y-113900000D01*
X153135000Y-110110000D02*
X153360000Y-110110000D01*
X150640000Y-107390000D02*
X150640000Y-107865000D01*
X150865000Y-107390000D02*
X150640000Y-107390000D01*
X153360000Y-107390000D02*
X153360000Y-107865000D01*
X153135000Y-107390000D02*
X153360000Y-107390000D01*
X150640000Y-110110000D02*
X150640000Y-109635000D01*
X150865000Y-110110000D02*
X150640000Y-110110000D01*
X159050000Y-118300000D02*
X159050000Y-122700000D01*
X159050000Y-122700000D02*
X159170000Y-122700000D01*
X160180000Y-122700000D02*
X161320000Y-122700000D01*
X162330000Y-122700000D02*
X162450000Y-122700000D01*
X162450000Y-122700000D02*
X162450000Y-118300000D01*
X162450000Y-118300000D02*
X162330000Y-118300000D01*
X161320000Y-118300000D02*
X160180000Y-118300000D01*
X159170000Y-118300000D02*
X159050000Y-118300000D01*
X162370000Y-102846359D02*
X162370000Y-103153641D01*
X163130000Y-102846359D02*
X163130000Y-103153641D01*
X161870000Y-114846359D02*
X161870000Y-115153641D01*
X162630000Y-114846359D02*
X162630000Y-115153641D01*
X163880000Y-119153641D02*
X163880000Y-118846359D01*
X163120000Y-119153641D02*
X163120000Y-118846359D01*
X165130000Y-119153641D02*
X165130000Y-118846359D01*
X164370000Y-119153641D02*
X164370000Y-118846359D01*
X161596359Y-117130000D02*
X161903641Y-117130000D01*
X161596359Y-116370000D02*
X161903641Y-116370000D01*
X181130000Y-95403641D02*
X181130000Y-95096359D01*
X180370000Y-95403641D02*
X180370000Y-95096359D01*
X182380000Y-95403641D02*
X182380000Y-95096359D01*
X181620000Y-95403641D02*
X181620000Y-95096359D01*
X161130000Y-114403641D02*
X161130000Y-114096359D01*
X160370000Y-114403641D02*
X160370000Y-114096359D01*
X161620000Y-106096359D02*
X161620000Y-106403641D01*
X162380000Y-106096359D02*
X162380000Y-106403641D01*
X157870000Y-106096359D02*
X157870000Y-106403641D01*
X158630000Y-106096359D02*
X158630000Y-106403641D01*
X159120000Y-114096359D02*
X159120000Y-114403641D01*
X159880000Y-114096359D02*
X159880000Y-114403641D01*
X142346359Y-103630000D02*
X142653641Y-103630000D01*
X142346359Y-102870000D02*
X142653641Y-102870000D01*
X141620000Y-101596359D02*
X141620000Y-101903641D01*
X142380000Y-101596359D02*
X142380000Y-101903641D01*
X154880000Y-111153641D02*
X154880000Y-110846359D01*
X154120000Y-111153641D02*
X154120000Y-110846359D01*
X149880000Y-111153641D02*
X149880000Y-110846359D01*
X149120000Y-111153641D02*
X149120000Y-110846359D01*
X150380000Y-105403641D02*
X150380000Y-105096359D01*
X149620000Y-105403641D02*
X149620000Y-105096359D01*
X150870000Y-105086359D02*
X150870000Y-105393641D01*
X151630000Y-105086359D02*
X151630000Y-105393641D01*
X138653641Y-101370000D02*
X138346359Y-101370000D01*
X138653641Y-102130000D02*
X138346359Y-102130000D01*
X154120000Y-112846359D02*
X154120000Y-113153641D01*
X154880000Y-112846359D02*
X154880000Y-113153641D01*
X149880000Y-113153641D02*
X149880000Y-112846359D01*
X149120000Y-113153641D02*
X149120000Y-112846359D01*
X160950000Y-102340000D02*
X159550000Y-102340000D01*
X159550000Y-104660000D02*
X161450000Y-104660000D01*
X136860000Y-106102064D02*
X136860000Y-104897936D01*
X134140000Y-106102064D02*
X134140000Y-104897936D01*
X147300000Y-124900000D02*
X156700000Y-124900000D01*
X156700000Y-119100000D02*
X156700000Y-121100000D01*
X156700000Y-123000000D02*
X156700000Y-124900000D01*
X147300000Y-119100000D02*
X147300000Y-121100000D01*
X147300000Y-123000000D02*
X147300000Y-124900000D01*
X144400000Y-115350000D02*
X144400000Y-120750000D01*
X141100000Y-115350000D02*
X141100000Y-120750000D01*
X144400000Y-115350000D02*
X141100000Y-115350000D01*
X140400000Y-115350000D02*
X140400000Y-120750000D01*
X137100000Y-115350000D02*
X137100000Y-120750000D01*
X140400000Y-115350000D02*
X137100000Y-115350000D01*
X163640000Y-102892164D02*
X163640000Y-103107836D01*
X164360000Y-102892164D02*
X164360000Y-103107836D01*
X159642164Y-117110000D02*
X159857836Y-117110000D01*
X159642164Y-116390000D02*
X159857836Y-116390000D01*
X157360000Y-112107836D02*
X157360000Y-111892164D01*
X156640000Y-112107836D02*
X156640000Y-111892164D01*
X133765000Y-100988748D02*
X133765000Y-101511252D01*
X135235000Y-100988748D02*
X135235000Y-101511252D01*
X135765000Y-100988748D02*
X135765000Y-101511252D01*
X137235000Y-100988748D02*
X137235000Y-101511252D01*
X118357836Y-94890000D02*
X118142164Y-94890000D01*
X118357836Y-95610000D02*
X118142164Y-95610000D01*
X140761252Y-106515000D02*
X140238748Y-106515000D01*
X140761252Y-107985000D02*
X140238748Y-107985000D01*
X124607836Y-94890000D02*
X124392164Y-94890000D01*
X124607836Y-95610000D02*
X124392164Y-95610000D01*
X130857836Y-94890000D02*
X130642164Y-94890000D01*
X130857836Y-95610000D02*
X130642164Y-95610000D01*
X143357836Y-94890000D02*
X143142164Y-94890000D01*
X143357836Y-95610000D02*
X143142164Y-95610000D01*
X137107836Y-94890000D02*
X136892164Y-94890000D01*
X137107836Y-95610000D02*
X136892164Y-95610000D01*
X179860000Y-97857836D02*
X179860000Y-97642164D01*
X179140000Y-97857836D02*
X179140000Y-97642164D01*
X153860000Y-97857836D02*
X153860000Y-97642164D01*
X153140000Y-97857836D02*
X153140000Y-97642164D01*
X166860000Y-97857836D02*
X166860000Y-97642164D01*
X166140000Y-97857836D02*
X166140000Y-97642164D01*
X154714285Y-106385714D02*
X154742857Y-106414285D01*
X154771428Y-106500000D01*
X154771428Y-106557142D01*
X154742857Y-106642857D01*
X154685714Y-106700000D01*
X154628571Y-106728571D01*
X154514285Y-106757142D01*
X154428571Y-106757142D01*
X154314285Y-106728571D01*
X154257142Y-106700000D01*
X154200000Y-106642857D01*
X154171428Y-106557142D01*
X154171428Y-106500000D01*
X154200000Y-106414285D01*
X154228571Y-106385714D01*
X154171428Y-106185714D02*
X154171428Y-105814285D01*
X154400000Y-106014285D01*
X154400000Y-105928571D01*
X154428571Y-105871428D01*
X154457142Y-105842857D01*
X154514285Y-105814285D01*
X154657142Y-105814285D01*
X154714285Y-105842857D01*
X154742857Y-105871428D01*
X154771428Y-105928571D01*
X154771428Y-106100000D01*
X154742857Y-106157142D01*
X154714285Y-106185714D01*
X154371428Y-105300000D02*
X154771428Y-105300000D01*
X154142857Y-105442857D02*
X154571428Y-105585714D01*
X154571428Y-105214285D01*
X161021428Y-121171428D02*
X161021428Y-121457142D01*
X160421428Y-121457142D01*
X160707142Y-120971428D02*
X160707142Y-120771428D01*
X161021428Y-120685714D02*
X161021428Y-120971428D01*
X160421428Y-120971428D01*
X160421428Y-120685714D01*
X161021428Y-120428571D02*
X160421428Y-120428571D01*
X160421428Y-120285714D01*
X160450000Y-120200000D01*
X160507142Y-120142857D01*
X160564285Y-120114285D01*
X160678571Y-120085714D01*
X160764285Y-120085714D01*
X160878571Y-120114285D01*
X160935714Y-120142857D01*
X160992857Y-120200000D01*
X161021428Y-120285714D01*
X161021428Y-120428571D01*
X160478571Y-119857142D02*
X160450000Y-119828571D01*
X160421428Y-119771428D01*
X160421428Y-119628571D01*
X160450000Y-119571428D01*
X160478571Y-119542857D01*
X160535714Y-119514285D01*
X160592857Y-119514285D01*
X160678571Y-119542857D01*
X161021428Y-119885714D01*
X161021428Y-119514285D01*
X162021428Y-121171428D02*
X162021428Y-121457142D01*
X161421428Y-121457142D01*
X161707142Y-120971428D02*
X161707142Y-120771428D01*
X162021428Y-120685714D02*
X162021428Y-120971428D01*
X161421428Y-120971428D01*
X161421428Y-120685714D01*
X162021428Y-120428571D02*
X161421428Y-120428571D01*
X161421428Y-120285714D01*
X161450000Y-120200000D01*
X161507142Y-120142857D01*
X161564285Y-120114285D01*
X161678571Y-120085714D01*
X161764285Y-120085714D01*
X161878571Y-120114285D01*
X161935714Y-120142857D01*
X161992857Y-120200000D01*
X162021428Y-120285714D01*
X162021428Y-120428571D01*
X162021428Y-119514285D02*
X162021428Y-119857142D01*
X162021428Y-119685714D02*
X161421428Y-119685714D01*
X161507142Y-119742857D01*
X161564285Y-119800000D01*
X161592857Y-119857142D01*
X125464285Y-110635714D02*
X125492857Y-110664285D01*
X125521428Y-110750000D01*
X125521428Y-110807142D01*
X125492857Y-110892857D01*
X125435714Y-110950000D01*
X125378571Y-110978571D01*
X125264285Y-111007142D01*
X125178571Y-111007142D01*
X125064285Y-110978571D01*
X125007142Y-110950000D01*
X124950000Y-110892857D01*
X124921428Y-110807142D01*
X124921428Y-110750000D01*
X124950000Y-110664285D01*
X124978571Y-110635714D01*
X124978571Y-110407142D02*
X124950000Y-110378571D01*
X124921428Y-110321428D01*
X124921428Y-110178571D01*
X124950000Y-110121428D01*
X124978571Y-110092857D01*
X125035714Y-110064285D01*
X125092857Y-110064285D01*
X125178571Y-110092857D01*
X125521428Y-110435714D01*
X125521428Y-110064285D01*
X125178571Y-109721428D02*
X125150000Y-109778571D01*
X125121428Y-109807142D01*
X125064285Y-109835714D01*
X125035714Y-109835714D01*
X124978571Y-109807142D01*
X124950000Y-109778571D01*
X124921428Y-109721428D01*
X124921428Y-109607142D01*
X124950000Y-109550000D01*
X124978571Y-109521428D01*
X125035714Y-109492857D01*
X125064285Y-109492857D01*
X125121428Y-109521428D01*
X125150000Y-109550000D01*
X125178571Y-109607142D01*
X125178571Y-109721428D01*
X125207142Y-109778571D01*
X125235714Y-109807142D01*
X125292857Y-109835714D01*
X125407142Y-109835714D01*
X125464285Y-109807142D01*
X125492857Y-109778571D01*
X125521428Y-109721428D01*
X125521428Y-109607142D01*
X125492857Y-109550000D01*
X125464285Y-109521428D01*
X125407142Y-109492857D01*
X125292857Y-109492857D01*
X125235714Y-109521428D01*
X125207142Y-109550000D01*
X125178571Y-109607142D01*
X183964285Y-92360714D02*
X183992857Y-92389285D01*
X184021428Y-92475000D01*
X184021428Y-92532142D01*
X183992857Y-92617857D01*
X183935714Y-92675000D01*
X183878571Y-92703571D01*
X183764285Y-92732142D01*
X183678571Y-92732142D01*
X183564285Y-92703571D01*
X183507142Y-92675000D01*
X183450000Y-92617857D01*
X183421428Y-92532142D01*
X183421428Y-92475000D01*
X183450000Y-92389285D01*
X183478571Y-92360714D01*
X183478571Y-92132142D02*
X183450000Y-92103571D01*
X183421428Y-92046428D01*
X183421428Y-91903571D01*
X183450000Y-91846428D01*
X183478571Y-91817857D01*
X183535714Y-91789285D01*
X183592857Y-91789285D01*
X183678571Y-91817857D01*
X184021428Y-92160714D01*
X184021428Y-91789285D01*
X183421428Y-91275000D02*
X183421428Y-91389285D01*
X183450000Y-91446428D01*
X183478571Y-91475000D01*
X183564285Y-91532142D01*
X183678571Y-91560714D01*
X183907142Y-91560714D01*
X183964285Y-91532142D01*
X183992857Y-91503571D01*
X184021428Y-91446428D01*
X184021428Y-91332142D01*
X183992857Y-91275000D01*
X183964285Y-91246428D01*
X183907142Y-91217857D01*
X183764285Y-91217857D01*
X183707142Y-91246428D01*
X183678571Y-91275000D01*
X183650000Y-91332142D01*
X183650000Y-91446428D01*
X183678571Y-91503571D01*
X183707142Y-91532142D01*
X183764285Y-91560714D01*
X170964285Y-92385714D02*
X170992857Y-92414285D01*
X171021428Y-92500000D01*
X171021428Y-92557142D01*
X170992857Y-92642857D01*
X170935714Y-92700000D01*
X170878571Y-92728571D01*
X170764285Y-92757142D01*
X170678571Y-92757142D01*
X170564285Y-92728571D01*
X170507142Y-92700000D01*
X170450000Y-92642857D01*
X170421428Y-92557142D01*
X170421428Y-92500000D01*
X170450000Y-92414285D01*
X170478571Y-92385714D01*
X170478571Y-92157142D02*
X170450000Y-92128571D01*
X170421428Y-92071428D01*
X170421428Y-91928571D01*
X170450000Y-91871428D01*
X170478571Y-91842857D01*
X170535714Y-91814285D01*
X170592857Y-91814285D01*
X170678571Y-91842857D01*
X171021428Y-92185714D01*
X171021428Y-91814285D01*
X170421428Y-91271428D02*
X170421428Y-91557142D01*
X170707142Y-91585714D01*
X170678571Y-91557142D01*
X170650000Y-91500000D01*
X170650000Y-91357142D01*
X170678571Y-91300000D01*
X170707142Y-91271428D01*
X170764285Y-91242857D01*
X170907142Y-91242857D01*
X170964285Y-91271428D01*
X170992857Y-91300000D01*
X171021428Y-91357142D01*
X171021428Y-91500000D01*
X170992857Y-91557142D01*
X170964285Y-91585714D01*
X157964285Y-92385714D02*
X157992857Y-92414285D01*
X158021428Y-92500000D01*
X158021428Y-92557142D01*
X157992857Y-92642857D01*
X157935714Y-92700000D01*
X157878571Y-92728571D01*
X157764285Y-92757142D01*
X157678571Y-92757142D01*
X157564285Y-92728571D01*
X157507142Y-92700000D01*
X157450000Y-92642857D01*
X157421428Y-92557142D01*
X157421428Y-92500000D01*
X157450000Y-92414285D01*
X157478571Y-92385714D01*
X157478571Y-92157142D02*
X157450000Y-92128571D01*
X157421428Y-92071428D01*
X157421428Y-91928571D01*
X157450000Y-91871428D01*
X157478571Y-91842857D01*
X157535714Y-91814285D01*
X157592857Y-91814285D01*
X157678571Y-91842857D01*
X158021428Y-92185714D01*
X158021428Y-91814285D01*
X157621428Y-91300000D02*
X158021428Y-91300000D01*
X157392857Y-91442857D02*
X157821428Y-91585714D01*
X157821428Y-91214285D01*
X145614285Y-76464285D02*
X145585714Y-76492857D01*
X145500000Y-76521428D01*
X145442857Y-76521428D01*
X145357142Y-76492857D01*
X145300000Y-76435714D01*
X145271428Y-76378571D01*
X145242857Y-76264285D01*
X145242857Y-76178571D01*
X145271428Y-76064285D01*
X145300000Y-76007142D01*
X145357142Y-75950000D01*
X145442857Y-75921428D01*
X145500000Y-75921428D01*
X145585714Y-75950000D01*
X145614285Y-75978571D01*
X145842857Y-75978571D02*
X145871428Y-75950000D01*
X145928571Y-75921428D01*
X146071428Y-75921428D01*
X146128571Y-75950000D01*
X146157142Y-75978571D01*
X146185714Y-76035714D01*
X146185714Y-76092857D01*
X146157142Y-76178571D01*
X145814285Y-76521428D01*
X146185714Y-76521428D01*
X146385714Y-75921428D02*
X146757142Y-75921428D01*
X146557142Y-76150000D01*
X146642857Y-76150000D01*
X146700000Y-76178571D01*
X146728571Y-76207142D01*
X146757142Y-76264285D01*
X146757142Y-76407142D01*
X146728571Y-76464285D01*
X146700000Y-76492857D01*
X146642857Y-76521428D01*
X146471428Y-76521428D01*
X146414285Y-76492857D01*
X146385714Y-76464285D01*
X137114285Y-75464285D02*
X137085714Y-75492857D01*
X137000000Y-75521428D01*
X136942857Y-75521428D01*
X136857142Y-75492857D01*
X136800000Y-75435714D01*
X136771428Y-75378571D01*
X136742857Y-75264285D01*
X136742857Y-75178571D01*
X136771428Y-75064285D01*
X136800000Y-75007142D01*
X136857142Y-74950000D01*
X136942857Y-74921428D01*
X137000000Y-74921428D01*
X137085714Y-74950000D01*
X137114285Y-74978571D01*
X137342857Y-74978571D02*
X137371428Y-74950000D01*
X137428571Y-74921428D01*
X137571428Y-74921428D01*
X137628571Y-74950000D01*
X137657142Y-74978571D01*
X137685714Y-75035714D01*
X137685714Y-75092857D01*
X137657142Y-75178571D01*
X137314285Y-75521428D01*
X137685714Y-75521428D01*
X137914285Y-74978571D02*
X137942857Y-74950000D01*
X138000000Y-74921428D01*
X138142857Y-74921428D01*
X138200000Y-74950000D01*
X138228571Y-74978571D01*
X138257142Y-75035714D01*
X138257142Y-75092857D01*
X138228571Y-75178571D01*
X137885714Y-75521428D01*
X138257142Y-75521428D01*
X130464285Y-77385714D02*
X130492857Y-77414285D01*
X130521428Y-77500000D01*
X130521428Y-77557142D01*
X130492857Y-77642857D01*
X130435714Y-77700000D01*
X130378571Y-77728571D01*
X130264285Y-77757142D01*
X130178571Y-77757142D01*
X130064285Y-77728571D01*
X130007142Y-77700000D01*
X129950000Y-77642857D01*
X129921428Y-77557142D01*
X129921428Y-77500000D01*
X129950000Y-77414285D01*
X129978571Y-77385714D01*
X130521428Y-76814285D02*
X130521428Y-77157142D01*
X130521428Y-76985714D02*
X129921428Y-76985714D01*
X130007142Y-77042857D01*
X130064285Y-77100000D01*
X130092857Y-77157142D01*
X129921428Y-76614285D02*
X129921428Y-76242857D01*
X130150000Y-76442857D01*
X130150000Y-76357142D01*
X130178571Y-76300000D01*
X130207142Y-76271428D01*
X130264285Y-76242857D01*
X130407142Y-76242857D01*
X130464285Y-76271428D01*
X130492857Y-76300000D01*
X130521428Y-76357142D01*
X130521428Y-76528571D01*
X130492857Y-76585714D01*
X130464285Y-76614285D01*
X124214285Y-77385714D02*
X124242857Y-77414285D01*
X124271428Y-77500000D01*
X124271428Y-77557142D01*
X124242857Y-77642857D01*
X124185714Y-77700000D01*
X124128571Y-77728571D01*
X124014285Y-77757142D01*
X123928571Y-77757142D01*
X123814285Y-77728571D01*
X123757142Y-77700000D01*
X123700000Y-77642857D01*
X123671428Y-77557142D01*
X123671428Y-77500000D01*
X123700000Y-77414285D01*
X123728571Y-77385714D01*
X124271428Y-76814285D02*
X124271428Y-77157142D01*
X124271428Y-76985714D02*
X123671428Y-76985714D01*
X123757142Y-77042857D01*
X123814285Y-77100000D01*
X123842857Y-77157142D01*
X123728571Y-76585714D02*
X123700000Y-76557142D01*
X123671428Y-76500000D01*
X123671428Y-76357142D01*
X123700000Y-76300000D01*
X123728571Y-76271428D01*
X123785714Y-76242857D01*
X123842857Y-76242857D01*
X123928571Y-76271428D01*
X124271428Y-76614285D01*
X124271428Y-76242857D01*
X118214285Y-77385714D02*
X118242857Y-77414285D01*
X118271428Y-77500000D01*
X118271428Y-77557142D01*
X118242857Y-77642857D01*
X118185714Y-77700000D01*
X118128571Y-77728571D01*
X118014285Y-77757142D01*
X117928571Y-77757142D01*
X117814285Y-77728571D01*
X117757142Y-77700000D01*
X117700000Y-77642857D01*
X117671428Y-77557142D01*
X117671428Y-77500000D01*
X117700000Y-77414285D01*
X117728571Y-77385714D01*
X118271428Y-76814285D02*
X118271428Y-77157142D01*
X118271428Y-76985714D02*
X117671428Y-76985714D01*
X117757142Y-77042857D01*
X117814285Y-77100000D01*
X117842857Y-77157142D01*
X118271428Y-76242857D02*
X118271428Y-76585714D01*
X118271428Y-76414285D02*
X117671428Y-76414285D01*
X117757142Y-76471428D01*
X117814285Y-76528571D01*
X117842857Y-76585714D01*
X138214285Y-110635714D02*
X138242857Y-110664285D01*
X138271428Y-110750000D01*
X138271428Y-110807142D01*
X138242857Y-110892857D01*
X138185714Y-110950000D01*
X138128571Y-110978571D01*
X138014285Y-111007142D01*
X137928571Y-111007142D01*
X137814285Y-110978571D01*
X137757142Y-110950000D01*
X137700000Y-110892857D01*
X137671428Y-110807142D01*
X137671428Y-110750000D01*
X137700000Y-110664285D01*
X137728571Y-110635714D01*
X138271428Y-110064285D02*
X138271428Y-110407142D01*
X138271428Y-110235714D02*
X137671428Y-110235714D01*
X137757142Y-110292857D01*
X137814285Y-110350000D01*
X137842857Y-110407142D01*
X137671428Y-109692857D02*
X137671428Y-109635714D01*
X137700000Y-109578571D01*
X137728571Y-109550000D01*
X137785714Y-109521428D01*
X137900000Y-109492857D01*
X138042857Y-109492857D01*
X138157142Y-109521428D01*
X138214285Y-109550000D01*
X138242857Y-109578571D01*
X138271428Y-109635714D01*
X138271428Y-109692857D01*
X138242857Y-109750000D01*
X138214285Y-109778571D01*
X138157142Y-109807142D01*
X138042857Y-109835714D01*
X137900000Y-109835714D01*
X137785714Y-109807142D01*
X137728571Y-109778571D01*
X137700000Y-109750000D01*
X137671428Y-109692857D01*
X185171428Y-123450000D02*
X185600000Y-123450000D01*
X185685714Y-123478571D01*
X185742857Y-123535714D01*
X185771428Y-123621428D01*
X185771428Y-123678571D01*
X185171428Y-123221428D02*
X185171428Y-122850000D01*
X185400000Y-123050000D01*
X185400000Y-122964285D01*
X185428571Y-122907142D01*
X185457142Y-122878571D01*
X185514285Y-122850000D01*
X185657142Y-122850000D01*
X185714285Y-122878571D01*
X185742857Y-122907142D01*
X185771428Y-122964285D01*
X185771428Y-123135714D01*
X185742857Y-123192857D01*
X185714285Y-123221428D01*
X167292857Y-99421428D02*
X167292857Y-99907142D01*
X167321428Y-99964285D01*
X167350000Y-99992857D01*
X167407142Y-100021428D01*
X167521428Y-100021428D01*
X167578571Y-99992857D01*
X167607142Y-99964285D01*
X167635714Y-99907142D01*
X167635714Y-99421428D01*
X168235714Y-100021428D02*
X167892857Y-100021428D01*
X168064285Y-100021428D02*
X168064285Y-99421428D01*
X168007142Y-99507142D01*
X167950000Y-99564285D01*
X167892857Y-99592857D01*
X176671428Y-110457142D02*
X177157142Y-110457142D01*
X177214285Y-110428571D01*
X177242857Y-110400000D01*
X177271428Y-110342857D01*
X177271428Y-110228571D01*
X177242857Y-110171428D01*
X177214285Y-110142857D01*
X177157142Y-110114285D01*
X176671428Y-110114285D01*
X177271428Y-109514285D02*
X177271428Y-109857142D01*
X177271428Y-109685714D02*
X176671428Y-109685714D01*
X176757142Y-109742857D01*
X176814285Y-109800000D01*
X176842857Y-109857142D01*
X156521428Y-106635714D02*
X156235714Y-106835714D01*
X156521428Y-106978571D02*
X155921428Y-106978571D01*
X155921428Y-106750000D01*
X155950000Y-106692857D01*
X155978571Y-106664285D01*
X156035714Y-106635714D01*
X156121428Y-106635714D01*
X156178571Y-106664285D01*
X156207142Y-106692857D01*
X156235714Y-106750000D01*
X156235714Y-106978571D01*
X155978571Y-106407142D02*
X155950000Y-106378571D01*
X155921428Y-106321428D01*
X155921428Y-106178571D01*
X155950000Y-106121428D01*
X155978571Y-106092857D01*
X156035714Y-106064285D01*
X156092857Y-106064285D01*
X156178571Y-106092857D01*
X156521428Y-106435714D01*
X156521428Y-106064285D01*
X156178571Y-105721428D02*
X156150000Y-105778571D01*
X156121428Y-105807142D01*
X156064285Y-105835714D01*
X156035714Y-105835714D01*
X155978571Y-105807142D01*
X155950000Y-105778571D01*
X155921428Y-105721428D01*
X155921428Y-105607142D01*
X155950000Y-105550000D01*
X155978571Y-105521428D01*
X156035714Y-105492857D01*
X156064285Y-105492857D01*
X156121428Y-105521428D01*
X156150000Y-105550000D01*
X156178571Y-105607142D01*
X156178571Y-105721428D01*
X156207142Y-105778571D01*
X156235714Y-105807142D01*
X156292857Y-105835714D01*
X156407142Y-105835714D01*
X156464285Y-105807142D01*
X156492857Y-105778571D01*
X156521428Y-105721428D01*
X156521428Y-105607142D01*
X156492857Y-105550000D01*
X156464285Y-105521428D01*
X156407142Y-105492857D01*
X156292857Y-105492857D01*
X156235714Y-105521428D01*
X156207142Y-105550000D01*
X156178571Y-105607142D01*
X163271428Y-106635714D02*
X162985714Y-106835714D01*
X163271428Y-106978571D02*
X162671428Y-106978571D01*
X162671428Y-106750000D01*
X162700000Y-106692857D01*
X162728571Y-106664285D01*
X162785714Y-106635714D01*
X162871428Y-106635714D01*
X162928571Y-106664285D01*
X162957142Y-106692857D01*
X162985714Y-106750000D01*
X162985714Y-106978571D01*
X162728571Y-106407142D02*
X162700000Y-106378571D01*
X162671428Y-106321428D01*
X162671428Y-106178571D01*
X162700000Y-106121428D01*
X162728571Y-106092857D01*
X162785714Y-106064285D01*
X162842857Y-106064285D01*
X162928571Y-106092857D01*
X163271428Y-106435714D01*
X163271428Y-106064285D01*
X162671428Y-105864285D02*
X162671428Y-105464285D01*
X163271428Y-105721428D01*
X111300000Y-106671428D02*
X111300000Y-107100000D01*
X111271428Y-107185714D01*
X111214285Y-107242857D01*
X111128571Y-107271428D01*
X111071428Y-107271428D01*
X111871428Y-106671428D02*
X111585714Y-106671428D01*
X111557142Y-106957142D01*
X111585714Y-106928571D01*
X111642857Y-106900000D01*
X111785714Y-106900000D01*
X111842857Y-106928571D01*
X111871428Y-106957142D01*
X111900000Y-107014285D01*
X111900000Y-107157142D01*
X111871428Y-107214285D01*
X111842857Y-107242857D01*
X111785714Y-107271428D01*
X111642857Y-107271428D01*
X111585714Y-107242857D01*
X111557142Y-107214285D01*
X166421428Y-120700000D02*
X166850000Y-120700000D01*
X166935714Y-120728571D01*
X166992857Y-120785714D01*
X167021428Y-120871428D01*
X167021428Y-120928571D01*
X166621428Y-120157142D02*
X167021428Y-120157142D01*
X166392857Y-120300000D02*
X166821428Y-120442857D01*
X166821428Y-120071428D01*
X118864285Y-97521428D02*
X118664285Y-97235714D01*
X118521428Y-97521428D02*
X118521428Y-96921428D01*
X118750000Y-96921428D01*
X118807142Y-96950000D01*
X118835714Y-96978571D01*
X118864285Y-97035714D01*
X118864285Y-97121428D01*
X118835714Y-97178571D01*
X118807142Y-97207142D01*
X118750000Y-97235714D01*
X118521428Y-97235714D01*
X119092857Y-96978571D02*
X119121428Y-96950000D01*
X119178571Y-96921428D01*
X119321428Y-96921428D01*
X119378571Y-96950000D01*
X119407142Y-96978571D01*
X119435714Y-97035714D01*
X119435714Y-97092857D01*
X119407142Y-97178571D01*
X119064285Y-97521428D01*
X119435714Y-97521428D01*
X119950000Y-96921428D02*
X119835714Y-96921428D01*
X119778571Y-96950000D01*
X119750000Y-96978571D01*
X119692857Y-97064285D01*
X119664285Y-97178571D01*
X119664285Y-97407142D01*
X119692857Y-97464285D01*
X119721428Y-97492857D01*
X119778571Y-97521428D01*
X119892857Y-97521428D01*
X119950000Y-97492857D01*
X119978571Y-97464285D01*
X120007142Y-97407142D01*
X120007142Y-97264285D01*
X119978571Y-97207142D01*
X119950000Y-97178571D01*
X119892857Y-97150000D01*
X119778571Y-97150000D01*
X119721428Y-97178571D01*
X119692857Y-97207142D01*
X119664285Y-97264285D01*
X113114285Y-96521428D02*
X112914285Y-96235714D01*
X112771428Y-96521428D02*
X112771428Y-95921428D01*
X113000000Y-95921428D01*
X113057142Y-95950000D01*
X113085714Y-95978571D01*
X113114285Y-96035714D01*
X113114285Y-96121428D01*
X113085714Y-96178571D01*
X113057142Y-96207142D01*
X113000000Y-96235714D01*
X112771428Y-96235714D01*
X113342857Y-95978571D02*
X113371428Y-95950000D01*
X113428571Y-95921428D01*
X113571428Y-95921428D01*
X113628571Y-95950000D01*
X113657142Y-95978571D01*
X113685714Y-96035714D01*
X113685714Y-96092857D01*
X113657142Y-96178571D01*
X113314285Y-96521428D01*
X113685714Y-96521428D01*
X114228571Y-95921428D02*
X113942857Y-95921428D01*
X113914285Y-96207142D01*
X113942857Y-96178571D01*
X114000000Y-96150000D01*
X114142857Y-96150000D01*
X114200000Y-96178571D01*
X114228571Y-96207142D01*
X114257142Y-96264285D01*
X114257142Y-96407142D01*
X114228571Y-96464285D01*
X114200000Y-96492857D01*
X114142857Y-96521428D01*
X114000000Y-96521428D01*
X113942857Y-96492857D01*
X113914285Y-96464285D01*
X110864285Y-96521428D02*
X110664285Y-96235714D01*
X110521428Y-96521428D02*
X110521428Y-95921428D01*
X110750000Y-95921428D01*
X110807142Y-95950000D01*
X110835714Y-95978571D01*
X110864285Y-96035714D01*
X110864285Y-96121428D01*
X110835714Y-96178571D01*
X110807142Y-96207142D01*
X110750000Y-96235714D01*
X110521428Y-96235714D01*
X111092857Y-95978571D02*
X111121428Y-95950000D01*
X111178571Y-95921428D01*
X111321428Y-95921428D01*
X111378571Y-95950000D01*
X111407142Y-95978571D01*
X111435714Y-96035714D01*
X111435714Y-96092857D01*
X111407142Y-96178571D01*
X111064285Y-96521428D01*
X111435714Y-96521428D01*
X111950000Y-96121428D02*
X111950000Y-96521428D01*
X111807142Y-95892857D02*
X111664285Y-96321428D01*
X112035714Y-96321428D01*
X183864285Y-96964285D02*
X183835714Y-96992857D01*
X183750000Y-97021428D01*
X183692857Y-97021428D01*
X183607142Y-96992857D01*
X183550000Y-96935714D01*
X183521428Y-96878571D01*
X183492857Y-96764285D01*
X183492857Y-96678571D01*
X183521428Y-96564285D01*
X183550000Y-96507142D01*
X183607142Y-96450000D01*
X183692857Y-96421428D01*
X183750000Y-96421428D01*
X183835714Y-96450000D01*
X183864285Y-96478571D01*
X184064285Y-96421428D02*
X184435714Y-96421428D01*
X184235714Y-96650000D01*
X184321428Y-96650000D01*
X184378571Y-96678571D01*
X184407142Y-96707142D01*
X184435714Y-96764285D01*
X184435714Y-96907142D01*
X184407142Y-96964285D01*
X184378571Y-96992857D01*
X184321428Y-97021428D01*
X184150000Y-97021428D01*
X184092857Y-96992857D01*
X184064285Y-96964285D01*
X184635714Y-96421428D02*
X185007142Y-96421428D01*
X184807142Y-96650000D01*
X184892857Y-96650000D01*
X184950000Y-96678571D01*
X184978571Y-96707142D01*
X185007142Y-96764285D01*
X185007142Y-96907142D01*
X184978571Y-96964285D01*
X184950000Y-96992857D01*
X184892857Y-97021428D01*
X184721428Y-97021428D01*
X184664285Y-96992857D01*
X184635714Y-96964285D01*
X139714285Y-111385714D02*
X139742857Y-111414285D01*
X139771428Y-111500000D01*
X139771428Y-111557142D01*
X139742857Y-111642857D01*
X139685714Y-111700000D01*
X139628571Y-111728571D01*
X139514285Y-111757142D01*
X139428571Y-111757142D01*
X139314285Y-111728571D01*
X139257142Y-111700000D01*
X139200000Y-111642857D01*
X139171428Y-111557142D01*
X139171428Y-111500000D01*
X139200000Y-111414285D01*
X139228571Y-111385714D01*
X139171428Y-111185714D02*
X139171428Y-110814285D01*
X139400000Y-111014285D01*
X139400000Y-110928571D01*
X139428571Y-110871428D01*
X139457142Y-110842857D01*
X139514285Y-110814285D01*
X139657142Y-110814285D01*
X139714285Y-110842857D01*
X139742857Y-110871428D01*
X139771428Y-110928571D01*
X139771428Y-111100000D01*
X139742857Y-111157142D01*
X139714285Y-111185714D01*
X139228571Y-110585714D02*
X139200000Y-110557142D01*
X139171428Y-110500000D01*
X139171428Y-110357142D01*
X139200000Y-110300000D01*
X139228571Y-110271428D01*
X139285714Y-110242857D01*
X139342857Y-110242857D01*
X139428571Y-110271428D01*
X139771428Y-110614285D01*
X139771428Y-110242857D01*
X116864285Y-109964285D02*
X116835714Y-109992857D01*
X116750000Y-110021428D01*
X116692857Y-110021428D01*
X116607142Y-109992857D01*
X116550000Y-109935714D01*
X116521428Y-109878571D01*
X116492857Y-109764285D01*
X116492857Y-109678571D01*
X116521428Y-109564285D01*
X116550000Y-109507142D01*
X116607142Y-109450000D01*
X116692857Y-109421428D01*
X116750000Y-109421428D01*
X116835714Y-109450000D01*
X116864285Y-109478571D01*
X117064285Y-109421428D02*
X117435714Y-109421428D01*
X117235714Y-109650000D01*
X117321428Y-109650000D01*
X117378571Y-109678571D01*
X117407142Y-109707142D01*
X117435714Y-109764285D01*
X117435714Y-109907142D01*
X117407142Y-109964285D01*
X117378571Y-109992857D01*
X117321428Y-110021428D01*
X117150000Y-110021428D01*
X117092857Y-109992857D01*
X117064285Y-109964285D01*
X118007142Y-110021428D02*
X117664285Y-110021428D01*
X117835714Y-110021428D02*
X117835714Y-109421428D01*
X117778571Y-109507142D01*
X117721428Y-109564285D01*
X117664285Y-109592857D01*
X139714285Y-113885714D02*
X139742857Y-113914285D01*
X139771428Y-114000000D01*
X139771428Y-114057142D01*
X139742857Y-114142857D01*
X139685714Y-114200000D01*
X139628571Y-114228571D01*
X139514285Y-114257142D01*
X139428571Y-114257142D01*
X139314285Y-114228571D01*
X139257142Y-114200000D01*
X139200000Y-114142857D01*
X139171428Y-114057142D01*
X139171428Y-114000000D01*
X139200000Y-113914285D01*
X139228571Y-113885714D01*
X139771428Y-113314285D02*
X139771428Y-113657142D01*
X139771428Y-113485714D02*
X139171428Y-113485714D01*
X139257142Y-113542857D01*
X139314285Y-113600000D01*
X139342857Y-113657142D01*
X139171428Y-113114285D02*
X139171428Y-112714285D01*
X139771428Y-112971428D01*
X126283333Y-113394047D02*
X126283333Y-113858333D01*
X126252380Y-113951190D01*
X126190476Y-114013095D01*
X126097619Y-114044047D01*
X126035714Y-114044047D01*
X126561904Y-113455952D02*
X126592857Y-113425000D01*
X126654761Y-113394047D01*
X126809523Y-113394047D01*
X126871428Y-113425000D01*
X126902380Y-113455952D01*
X126933333Y-113517857D01*
X126933333Y-113579761D01*
X126902380Y-113672619D01*
X126530952Y-114044047D01*
X126933333Y-114044047D01*
X119071428Y-102957142D02*
X119557142Y-102957142D01*
X119614285Y-102928571D01*
X119642857Y-102900000D01*
X119671428Y-102842857D01*
X119671428Y-102728571D01*
X119642857Y-102671428D01*
X119614285Y-102642857D01*
X119557142Y-102614285D01*
X119071428Y-102614285D01*
X119071428Y-102385714D02*
X119071428Y-101985714D01*
X119671428Y-102242857D01*
X127714285Y-98635714D02*
X127742857Y-98664285D01*
X127771428Y-98750000D01*
X127771428Y-98807142D01*
X127742857Y-98892857D01*
X127685714Y-98950000D01*
X127628571Y-98978571D01*
X127514285Y-99007142D01*
X127428571Y-99007142D01*
X127314285Y-98978571D01*
X127257142Y-98950000D01*
X127200000Y-98892857D01*
X127171428Y-98807142D01*
X127171428Y-98750000D01*
X127200000Y-98664285D01*
X127228571Y-98635714D01*
X127228571Y-98407142D02*
X127200000Y-98378571D01*
X127171428Y-98321428D01*
X127171428Y-98178571D01*
X127200000Y-98121428D01*
X127228571Y-98092857D01*
X127285714Y-98064285D01*
X127342857Y-98064285D01*
X127428571Y-98092857D01*
X127771428Y-98435714D01*
X127771428Y-98064285D01*
X127171428Y-97864285D02*
X127171428Y-97464285D01*
X127771428Y-97721428D01*
X140464285Y-98600000D02*
X140492857Y-98628571D01*
X140521428Y-98714285D01*
X140521428Y-98771428D01*
X140492857Y-98857142D01*
X140435714Y-98914285D01*
X140378571Y-98942857D01*
X140264285Y-98971428D01*
X140178571Y-98971428D01*
X140064285Y-98942857D01*
X140007142Y-98914285D01*
X139950000Y-98857142D01*
X139921428Y-98771428D01*
X139921428Y-98714285D01*
X139950000Y-98628571D01*
X139978571Y-98600000D01*
X140521428Y-98314285D02*
X140521428Y-98200000D01*
X140492857Y-98142857D01*
X140464285Y-98114285D01*
X140378571Y-98057142D01*
X140264285Y-98028571D01*
X140035714Y-98028571D01*
X139978571Y-98057142D01*
X139950000Y-98085714D01*
X139921428Y-98142857D01*
X139921428Y-98257142D01*
X139950000Y-98314285D01*
X139978571Y-98342857D01*
X140035714Y-98371428D01*
X140178571Y-98371428D01*
X140235714Y-98342857D01*
X140264285Y-98314285D01*
X140292857Y-98257142D01*
X140292857Y-98142857D01*
X140264285Y-98085714D01*
X140235714Y-98057142D01*
X140178571Y-98028571D01*
X113292857Y-116071428D02*
X113292857Y-115471428D01*
X113292857Y-115757142D02*
X113635714Y-115757142D01*
X113635714Y-116071428D02*
X113635714Y-115471428D01*
X114235714Y-116071428D02*
X113892857Y-116071428D01*
X114064285Y-116071428D02*
X114064285Y-115471428D01*
X114007142Y-115557142D01*
X113950000Y-115614285D01*
X113892857Y-115642857D01*
X113592857Y-120271428D02*
X113592857Y-119671428D01*
X113592857Y-119957142D02*
X113935714Y-119957142D01*
X113935714Y-120271428D02*
X113935714Y-119671428D01*
X114535714Y-120271428D02*
X114192857Y-120271428D01*
X114364285Y-120271428D02*
X114364285Y-119671428D01*
X114307142Y-119757142D01*
X114250000Y-119814285D01*
X114192857Y-119842857D01*
X126292857Y-106821428D02*
X126292857Y-107307142D01*
X126321428Y-107364285D01*
X126350000Y-107392857D01*
X126407142Y-107421428D01*
X126521428Y-107421428D01*
X126578571Y-107392857D01*
X126607142Y-107364285D01*
X126635714Y-107307142D01*
X126635714Y-106821428D01*
X127178571Y-106821428D02*
X127064285Y-106821428D01*
X127007142Y-106850000D01*
X126978571Y-106878571D01*
X126921428Y-106964285D01*
X126892857Y-107078571D01*
X126892857Y-107307142D01*
X126921428Y-107364285D01*
X126950000Y-107392857D01*
X127007142Y-107421428D01*
X127121428Y-107421428D01*
X127178571Y-107392857D01*
X127207142Y-107364285D01*
X127235714Y-107307142D01*
X127235714Y-107164285D01*
X127207142Y-107107142D01*
X127178571Y-107078571D01*
X127121428Y-107050000D01*
X127007142Y-107050000D01*
X126950000Y-107078571D01*
X126921428Y-107107142D01*
X126892857Y-107164285D01*
X128671428Y-105707142D02*
X129157142Y-105707142D01*
X129214285Y-105678571D01*
X129242857Y-105650000D01*
X129271428Y-105592857D01*
X129271428Y-105478571D01*
X129242857Y-105421428D01*
X129214285Y-105392857D01*
X129157142Y-105364285D01*
X128671428Y-105364285D01*
X128671428Y-104821428D02*
X128671428Y-104935714D01*
X128700000Y-104992857D01*
X128728571Y-105021428D01*
X128814285Y-105078571D01*
X128928571Y-105107142D01*
X129157142Y-105107142D01*
X129214285Y-105078571D01*
X129242857Y-105050000D01*
X129271428Y-104992857D01*
X129271428Y-104878571D01*
X129242857Y-104821428D01*
X129214285Y-104792857D01*
X129157142Y-104764285D01*
X129014285Y-104764285D01*
X128957142Y-104792857D01*
X128928571Y-104821428D01*
X128900000Y-104878571D01*
X128900000Y-104992857D01*
X128928571Y-105050000D01*
X128957142Y-105078571D01*
X129014285Y-105107142D01*
X129364285Y-104521428D02*
X129164285Y-104235714D01*
X129021428Y-104521428D02*
X129021428Y-103921428D01*
X129250000Y-103921428D01*
X129307142Y-103950000D01*
X129335714Y-103978571D01*
X129364285Y-104035714D01*
X129364285Y-104121428D01*
X129335714Y-104178571D01*
X129307142Y-104207142D01*
X129250000Y-104235714D01*
X129021428Y-104235714D01*
X129592857Y-103978571D02*
X129621428Y-103950000D01*
X129678571Y-103921428D01*
X129821428Y-103921428D01*
X129878571Y-103950000D01*
X129907142Y-103978571D01*
X129935714Y-104035714D01*
X129935714Y-104092857D01*
X129907142Y-104178571D01*
X129564285Y-104521428D01*
X129935714Y-104521428D01*
X130135714Y-103921428D02*
X130507142Y-103921428D01*
X130307142Y-104150000D01*
X130392857Y-104150000D01*
X130450000Y-104178571D01*
X130478571Y-104207142D01*
X130507142Y-104264285D01*
X130507142Y-104407142D01*
X130478571Y-104464285D01*
X130450000Y-104492857D01*
X130392857Y-104521428D01*
X130221428Y-104521428D01*
X130164285Y-104492857D01*
X130135714Y-104464285D01*
X129521428Y-100135714D02*
X129235714Y-100335714D01*
X129521428Y-100478571D02*
X128921428Y-100478571D01*
X128921428Y-100250000D01*
X128950000Y-100192857D01*
X128978571Y-100164285D01*
X129035714Y-100135714D01*
X129121428Y-100135714D01*
X129178571Y-100164285D01*
X129207142Y-100192857D01*
X129235714Y-100250000D01*
X129235714Y-100478571D01*
X128978571Y-99907142D02*
X128950000Y-99878571D01*
X128921428Y-99821428D01*
X128921428Y-99678571D01*
X128950000Y-99621428D01*
X128978571Y-99592857D01*
X129035714Y-99564285D01*
X129092857Y-99564285D01*
X129178571Y-99592857D01*
X129521428Y-99935714D01*
X129521428Y-99564285D01*
X128978571Y-99335714D02*
X128950000Y-99307142D01*
X128921428Y-99250000D01*
X128921428Y-99107142D01*
X128950000Y-99050000D01*
X128978571Y-99021428D01*
X129035714Y-98992857D01*
X129092857Y-98992857D01*
X129178571Y-99021428D01*
X129521428Y-99364285D01*
X129521428Y-98992857D01*
X125364285Y-101021428D02*
X125164285Y-100735714D01*
X125021428Y-101021428D02*
X125021428Y-100421428D01*
X125250000Y-100421428D01*
X125307142Y-100450000D01*
X125335714Y-100478571D01*
X125364285Y-100535714D01*
X125364285Y-100621428D01*
X125335714Y-100678571D01*
X125307142Y-100707142D01*
X125250000Y-100735714D01*
X125021428Y-100735714D01*
X125592857Y-100478571D02*
X125621428Y-100450000D01*
X125678571Y-100421428D01*
X125821428Y-100421428D01*
X125878571Y-100450000D01*
X125907142Y-100478571D01*
X125935714Y-100535714D01*
X125935714Y-100592857D01*
X125907142Y-100678571D01*
X125564285Y-101021428D01*
X125935714Y-101021428D01*
X126507142Y-101021428D02*
X126164285Y-101021428D01*
X126335714Y-101021428D02*
X126335714Y-100421428D01*
X126278571Y-100507142D01*
X126221428Y-100564285D01*
X126164285Y-100592857D01*
X121021428Y-105600000D02*
X121021428Y-105885714D01*
X120421428Y-105885714D01*
X120478571Y-105428571D02*
X120450000Y-105400000D01*
X120421428Y-105342857D01*
X120421428Y-105200000D01*
X120450000Y-105142857D01*
X120478571Y-105114285D01*
X120535714Y-105085714D01*
X120592857Y-105085714D01*
X120678571Y-105114285D01*
X121021428Y-105457142D01*
X121021428Y-105085714D01*
X123964285Y-98885714D02*
X123992857Y-98914285D01*
X124021428Y-99000000D01*
X124021428Y-99057142D01*
X123992857Y-99142857D01*
X123935714Y-99200000D01*
X123878571Y-99228571D01*
X123764285Y-99257142D01*
X123678571Y-99257142D01*
X123564285Y-99228571D01*
X123507142Y-99200000D01*
X123450000Y-99142857D01*
X123421428Y-99057142D01*
X123421428Y-99000000D01*
X123450000Y-98914285D01*
X123478571Y-98885714D01*
X123421428Y-98685714D02*
X123421428Y-98314285D01*
X123650000Y-98514285D01*
X123650000Y-98428571D01*
X123678571Y-98371428D01*
X123707142Y-98342857D01*
X123764285Y-98314285D01*
X123907142Y-98314285D01*
X123964285Y-98342857D01*
X123992857Y-98371428D01*
X124021428Y-98428571D01*
X124021428Y-98600000D01*
X123992857Y-98657142D01*
X123964285Y-98685714D01*
X123421428Y-97942857D02*
X123421428Y-97885714D01*
X123450000Y-97828571D01*
X123478571Y-97800000D01*
X123535714Y-97771428D01*
X123650000Y-97742857D01*
X123792857Y-97742857D01*
X123907142Y-97771428D01*
X123964285Y-97800000D01*
X123992857Y-97828571D01*
X124021428Y-97885714D01*
X124021428Y-97942857D01*
X123992857Y-98000000D01*
X123964285Y-98028571D01*
X123907142Y-98057142D01*
X123792857Y-98085714D01*
X123650000Y-98085714D01*
X123535714Y-98057142D01*
X123478571Y-98028571D01*
X123450000Y-98000000D01*
X123421428Y-97942857D01*
X121964285Y-98885714D02*
X121992857Y-98914285D01*
X122021428Y-99000000D01*
X122021428Y-99057142D01*
X121992857Y-99142857D01*
X121935714Y-99200000D01*
X121878571Y-99228571D01*
X121764285Y-99257142D01*
X121678571Y-99257142D01*
X121564285Y-99228571D01*
X121507142Y-99200000D01*
X121450000Y-99142857D01*
X121421428Y-99057142D01*
X121421428Y-99000000D01*
X121450000Y-98914285D01*
X121478571Y-98885714D01*
X121478571Y-98657142D02*
X121450000Y-98628571D01*
X121421428Y-98571428D01*
X121421428Y-98428571D01*
X121450000Y-98371428D01*
X121478571Y-98342857D01*
X121535714Y-98314285D01*
X121592857Y-98314285D01*
X121678571Y-98342857D01*
X122021428Y-98685714D01*
X122021428Y-98314285D01*
X122021428Y-98028571D02*
X122021428Y-97914285D01*
X121992857Y-97857142D01*
X121964285Y-97828571D01*
X121878571Y-97771428D01*
X121764285Y-97742857D01*
X121535714Y-97742857D01*
X121478571Y-97771428D01*
X121450000Y-97800000D01*
X121421428Y-97857142D01*
X121421428Y-97971428D01*
X121450000Y-98028571D01*
X121478571Y-98057142D01*
X121535714Y-98085714D01*
X121678571Y-98085714D01*
X121735714Y-98057142D01*
X121764285Y-98028571D01*
X121792857Y-97971428D01*
X121792857Y-97857142D01*
X121764285Y-97800000D01*
X121735714Y-97771428D01*
X121678571Y-97742857D01*
X128364285Y-108964285D02*
X128335714Y-108992857D01*
X128250000Y-109021428D01*
X128192857Y-109021428D01*
X128107142Y-108992857D01*
X128050000Y-108935714D01*
X128021428Y-108878571D01*
X127992857Y-108764285D01*
X127992857Y-108678571D01*
X128021428Y-108564285D01*
X128050000Y-108507142D01*
X128107142Y-108450000D01*
X128192857Y-108421428D01*
X128250000Y-108421428D01*
X128335714Y-108450000D01*
X128364285Y-108478571D01*
X128592857Y-108478571D02*
X128621428Y-108450000D01*
X128678571Y-108421428D01*
X128821428Y-108421428D01*
X128878571Y-108450000D01*
X128907142Y-108478571D01*
X128935714Y-108535714D01*
X128935714Y-108592857D01*
X128907142Y-108678571D01*
X128564285Y-109021428D01*
X128935714Y-109021428D01*
X129507142Y-109021428D02*
X129164285Y-109021428D01*
X129335714Y-109021428D02*
X129335714Y-108421428D01*
X129278571Y-108507142D01*
X129221428Y-108564285D01*
X129164285Y-108592857D01*
X126878571Y-78521428D02*
X126878571Y-77921428D01*
X127507142Y-78464285D02*
X127478571Y-78492857D01*
X127392857Y-78521428D01*
X127335714Y-78521428D01*
X127250000Y-78492857D01*
X127192857Y-78435714D01*
X127164285Y-78378571D01*
X127135714Y-78264285D01*
X127135714Y-78178571D01*
X127164285Y-78064285D01*
X127192857Y-78007142D01*
X127250000Y-77950000D01*
X127335714Y-77921428D01*
X127392857Y-77921428D01*
X127478571Y-77950000D01*
X127507142Y-77978571D01*
X128078571Y-78521428D02*
X127735714Y-78521428D01*
X127907142Y-78521428D02*
X127907142Y-77921428D01*
X127850000Y-78007142D01*
X127792857Y-78064285D01*
X127735714Y-78092857D01*
X128450000Y-77921428D02*
X128507142Y-77921428D01*
X128564285Y-77950000D01*
X128592857Y-77978571D01*
X128621428Y-78035714D01*
X128650000Y-78150000D01*
X128650000Y-78292857D01*
X128621428Y-78407142D01*
X128592857Y-78464285D01*
X128564285Y-78492857D01*
X128507142Y-78521428D01*
X128450000Y-78521428D01*
X128392857Y-78492857D01*
X128364285Y-78464285D01*
X128335714Y-78407142D01*
X128307142Y-78292857D01*
X128307142Y-78150000D01*
X128335714Y-78035714D01*
X128364285Y-77978571D01*
X128392857Y-77950000D01*
X128450000Y-77921428D01*
X132914285Y-78521428D02*
X132914285Y-77921428D01*
X133542857Y-78464285D02*
X133514285Y-78492857D01*
X133428571Y-78521428D01*
X133371428Y-78521428D01*
X133285714Y-78492857D01*
X133228571Y-78435714D01*
X133200000Y-78378571D01*
X133171428Y-78264285D01*
X133171428Y-78178571D01*
X133200000Y-78064285D01*
X133228571Y-78007142D01*
X133285714Y-77950000D01*
X133371428Y-77921428D01*
X133428571Y-77921428D01*
X133514285Y-77950000D01*
X133542857Y-77978571D01*
X133828571Y-78521428D02*
X133942857Y-78521428D01*
X134000000Y-78492857D01*
X134028571Y-78464285D01*
X134085714Y-78378571D01*
X134114285Y-78264285D01*
X134114285Y-78035714D01*
X134085714Y-77978571D01*
X134057142Y-77950000D01*
X134000000Y-77921428D01*
X133885714Y-77921428D01*
X133828571Y-77950000D01*
X133800000Y-77978571D01*
X133771428Y-78035714D01*
X133771428Y-78178571D01*
X133800000Y-78235714D01*
X133828571Y-78264285D01*
X133885714Y-78292857D01*
X134000000Y-78292857D01*
X134057142Y-78264285D01*
X134085714Y-78235714D01*
X134114285Y-78178571D01*
X139164285Y-78521428D02*
X139164285Y-77921428D01*
X139792857Y-78464285D02*
X139764285Y-78492857D01*
X139678571Y-78521428D01*
X139621428Y-78521428D01*
X139535714Y-78492857D01*
X139478571Y-78435714D01*
X139450000Y-78378571D01*
X139421428Y-78264285D01*
X139421428Y-78178571D01*
X139450000Y-78064285D01*
X139478571Y-78007142D01*
X139535714Y-77950000D01*
X139621428Y-77921428D01*
X139678571Y-77921428D01*
X139764285Y-77950000D01*
X139792857Y-77978571D01*
X140135714Y-78178571D02*
X140078571Y-78150000D01*
X140050000Y-78121428D01*
X140021428Y-78064285D01*
X140021428Y-78035714D01*
X140050000Y-77978571D01*
X140078571Y-77950000D01*
X140135714Y-77921428D01*
X140250000Y-77921428D01*
X140307142Y-77950000D01*
X140335714Y-77978571D01*
X140364285Y-78035714D01*
X140364285Y-78064285D01*
X140335714Y-78121428D01*
X140307142Y-78150000D01*
X140250000Y-78178571D01*
X140135714Y-78178571D01*
X140078571Y-78207142D01*
X140050000Y-78235714D01*
X140021428Y-78292857D01*
X140021428Y-78407142D01*
X140050000Y-78464285D01*
X140078571Y-78492857D01*
X140135714Y-78521428D01*
X140250000Y-78521428D01*
X140307142Y-78492857D01*
X140335714Y-78464285D01*
X140364285Y-78407142D01*
X140364285Y-78292857D01*
X140335714Y-78235714D01*
X140307142Y-78207142D01*
X140250000Y-78178571D01*
X114164285Y-78521428D02*
X114164285Y-77921428D01*
X114792857Y-78464285D02*
X114764285Y-78492857D01*
X114678571Y-78521428D01*
X114621428Y-78521428D01*
X114535714Y-78492857D01*
X114478571Y-78435714D01*
X114450000Y-78378571D01*
X114421428Y-78264285D01*
X114421428Y-78178571D01*
X114450000Y-78064285D01*
X114478571Y-78007142D01*
X114535714Y-77950000D01*
X114621428Y-77921428D01*
X114678571Y-77921428D01*
X114764285Y-77950000D01*
X114792857Y-77978571D01*
X115307142Y-77921428D02*
X115192857Y-77921428D01*
X115135714Y-77950000D01*
X115107142Y-77978571D01*
X115050000Y-78064285D01*
X115021428Y-78178571D01*
X115021428Y-78407142D01*
X115050000Y-78464285D01*
X115078571Y-78492857D01*
X115135714Y-78521428D01*
X115250000Y-78521428D01*
X115307142Y-78492857D01*
X115335714Y-78464285D01*
X115364285Y-78407142D01*
X115364285Y-78264285D01*
X115335714Y-78207142D01*
X115307142Y-78178571D01*
X115250000Y-78150000D01*
X115135714Y-78150000D01*
X115078571Y-78178571D01*
X115050000Y-78207142D01*
X115021428Y-78264285D01*
X120664285Y-78521428D02*
X120664285Y-77921428D01*
X121292857Y-78464285D02*
X121264285Y-78492857D01*
X121178571Y-78521428D01*
X121121428Y-78521428D01*
X121035714Y-78492857D01*
X120978571Y-78435714D01*
X120950000Y-78378571D01*
X120921428Y-78264285D01*
X120921428Y-78178571D01*
X120950000Y-78064285D01*
X120978571Y-78007142D01*
X121035714Y-77950000D01*
X121121428Y-77921428D01*
X121178571Y-77921428D01*
X121264285Y-77950000D01*
X121292857Y-77978571D01*
X121807142Y-78121428D02*
X121807142Y-78521428D01*
X121664285Y-77892857D02*
X121521428Y-78321428D01*
X121892857Y-78321428D01*
X150628571Y-78271428D02*
X150628571Y-77671428D01*
X151257142Y-78214285D02*
X151228571Y-78242857D01*
X151142857Y-78271428D01*
X151085714Y-78271428D01*
X151000000Y-78242857D01*
X150942857Y-78185714D01*
X150914285Y-78128571D01*
X150885714Y-78014285D01*
X150885714Y-77928571D01*
X150914285Y-77814285D01*
X150942857Y-77757142D01*
X151000000Y-77700000D01*
X151085714Y-77671428D01*
X151142857Y-77671428D01*
X151228571Y-77700000D01*
X151257142Y-77728571D01*
X151828571Y-78271428D02*
X151485714Y-78271428D01*
X151657142Y-78271428D02*
X151657142Y-77671428D01*
X151600000Y-77757142D01*
X151542857Y-77814285D01*
X151485714Y-77842857D01*
X152342857Y-77871428D02*
X152342857Y-78271428D01*
X152200000Y-77642857D02*
X152057142Y-78071428D01*
X152428571Y-78071428D01*
X163628571Y-78271428D02*
X163628571Y-77671428D01*
X164257142Y-78214285D02*
X164228571Y-78242857D01*
X164142857Y-78271428D01*
X164085714Y-78271428D01*
X164000000Y-78242857D01*
X163942857Y-78185714D01*
X163914285Y-78128571D01*
X163885714Y-78014285D01*
X163885714Y-77928571D01*
X163914285Y-77814285D01*
X163942857Y-77757142D01*
X164000000Y-77700000D01*
X164085714Y-77671428D01*
X164142857Y-77671428D01*
X164228571Y-77700000D01*
X164257142Y-77728571D01*
X164828571Y-78271428D02*
X164485714Y-78271428D01*
X164657142Y-78271428D02*
X164657142Y-77671428D01*
X164600000Y-77757142D01*
X164542857Y-77814285D01*
X164485714Y-77842857D01*
X165028571Y-77671428D02*
X165400000Y-77671428D01*
X165200000Y-77900000D01*
X165285714Y-77900000D01*
X165342857Y-77928571D01*
X165371428Y-77957142D01*
X165400000Y-78014285D01*
X165400000Y-78157142D01*
X165371428Y-78214285D01*
X165342857Y-78242857D01*
X165285714Y-78271428D01*
X165114285Y-78271428D01*
X165057142Y-78242857D01*
X165028571Y-78214285D01*
X176628571Y-78271428D02*
X176628571Y-77671428D01*
X177257142Y-78214285D02*
X177228571Y-78242857D01*
X177142857Y-78271428D01*
X177085714Y-78271428D01*
X177000000Y-78242857D01*
X176942857Y-78185714D01*
X176914285Y-78128571D01*
X176885714Y-78014285D01*
X176885714Y-77928571D01*
X176914285Y-77814285D01*
X176942857Y-77757142D01*
X177000000Y-77700000D01*
X177085714Y-77671428D01*
X177142857Y-77671428D01*
X177228571Y-77700000D01*
X177257142Y-77728571D01*
X177828571Y-78271428D02*
X177485714Y-78271428D01*
X177657142Y-78271428D02*
X177657142Y-77671428D01*
X177600000Y-77757142D01*
X177542857Y-77814285D01*
X177485714Y-77842857D01*
X178057142Y-77728571D02*
X178085714Y-77700000D01*
X178142857Y-77671428D01*
X178285714Y-77671428D01*
X178342857Y-77700000D01*
X178371428Y-77728571D01*
X178400000Y-77785714D01*
X178400000Y-77842857D01*
X178371428Y-77928571D01*
X178028571Y-78271428D01*
X178400000Y-78271428D01*
X147021428Y-95621428D02*
X146421428Y-95621428D01*
X146964285Y-94992857D02*
X146992857Y-95021428D01*
X147021428Y-95107142D01*
X147021428Y-95164285D01*
X146992857Y-95250000D01*
X146935714Y-95307142D01*
X146878571Y-95335714D01*
X146764285Y-95364285D01*
X146678571Y-95364285D01*
X146564285Y-95335714D01*
X146507142Y-95307142D01*
X146450000Y-95250000D01*
X146421428Y-95164285D01*
X146421428Y-95107142D01*
X146450000Y-95021428D01*
X146478571Y-94992857D01*
X146478571Y-94764285D02*
X146450000Y-94735714D01*
X146421428Y-94678571D01*
X146421428Y-94535714D01*
X146450000Y-94478571D01*
X146478571Y-94450000D01*
X146535714Y-94421428D01*
X146592857Y-94421428D01*
X146678571Y-94450000D01*
X147021428Y-94792857D01*
X147021428Y-94421428D01*
X146478571Y-94192857D02*
X146450000Y-94164285D01*
X146421428Y-94107142D01*
X146421428Y-93964285D01*
X146450000Y-93907142D01*
X146478571Y-93878571D01*
X146535714Y-93850000D01*
X146592857Y-93850000D01*
X146678571Y-93878571D01*
X147021428Y-94221428D01*
X147021428Y-93850000D01*
X160021428Y-95621428D02*
X159421428Y-95621428D01*
X159964285Y-94992857D02*
X159992857Y-95021428D01*
X160021428Y-95107142D01*
X160021428Y-95164285D01*
X159992857Y-95250000D01*
X159935714Y-95307142D01*
X159878571Y-95335714D01*
X159764285Y-95364285D01*
X159678571Y-95364285D01*
X159564285Y-95335714D01*
X159507142Y-95307142D01*
X159450000Y-95250000D01*
X159421428Y-95164285D01*
X159421428Y-95107142D01*
X159450000Y-95021428D01*
X159478571Y-94992857D01*
X159478571Y-94764285D02*
X159450000Y-94735714D01*
X159421428Y-94678571D01*
X159421428Y-94535714D01*
X159450000Y-94478571D01*
X159478571Y-94450000D01*
X159535714Y-94421428D01*
X159592857Y-94421428D01*
X159678571Y-94450000D01*
X160021428Y-94792857D01*
X160021428Y-94421428D01*
X160021428Y-93850000D02*
X160021428Y-94192857D01*
X160021428Y-94021428D02*
X159421428Y-94021428D01*
X159507142Y-94078571D01*
X159564285Y-94135714D01*
X159592857Y-94192857D01*
X173021428Y-95621428D02*
X172421428Y-95621428D01*
X172964285Y-94992857D02*
X172992857Y-95021428D01*
X173021428Y-95107142D01*
X173021428Y-95164285D01*
X172992857Y-95250000D01*
X172935714Y-95307142D01*
X172878571Y-95335714D01*
X172764285Y-95364285D01*
X172678571Y-95364285D01*
X172564285Y-95335714D01*
X172507142Y-95307142D01*
X172450000Y-95250000D01*
X172421428Y-95164285D01*
X172421428Y-95107142D01*
X172450000Y-95021428D01*
X172478571Y-94992857D01*
X172478571Y-94764285D02*
X172450000Y-94735714D01*
X172421428Y-94678571D01*
X172421428Y-94535714D01*
X172450000Y-94478571D01*
X172478571Y-94450000D01*
X172535714Y-94421428D01*
X172592857Y-94421428D01*
X172678571Y-94450000D01*
X173021428Y-94792857D01*
X173021428Y-94421428D01*
X172421428Y-94050000D02*
X172421428Y-93992857D01*
X172450000Y-93935714D01*
X172478571Y-93907142D01*
X172535714Y-93878571D01*
X172650000Y-93850000D01*
X172792857Y-93850000D01*
X172907142Y-93878571D01*
X172964285Y-93907142D01*
X172992857Y-93935714D01*
X173021428Y-93992857D01*
X173021428Y-94050000D01*
X172992857Y-94107142D01*
X172964285Y-94135714D01*
X172907142Y-94164285D01*
X172792857Y-94192857D01*
X172650000Y-94192857D01*
X172535714Y-94164285D01*
X172478571Y-94135714D01*
X172450000Y-94107142D01*
X172421428Y-94050000D01*
X126378571Y-95271428D02*
X126378571Y-94671428D01*
X127007142Y-95214285D02*
X126978571Y-95242857D01*
X126892857Y-95271428D01*
X126835714Y-95271428D01*
X126750000Y-95242857D01*
X126692857Y-95185714D01*
X126664285Y-95128571D01*
X126635714Y-95014285D01*
X126635714Y-94928571D01*
X126664285Y-94814285D01*
X126692857Y-94757142D01*
X126750000Y-94700000D01*
X126835714Y-94671428D01*
X126892857Y-94671428D01*
X126978571Y-94700000D01*
X127007142Y-94728571D01*
X127578571Y-95271428D02*
X127235714Y-95271428D01*
X127407142Y-95271428D02*
X127407142Y-94671428D01*
X127350000Y-94757142D01*
X127292857Y-94814285D01*
X127235714Y-94842857D01*
X127921428Y-94928571D02*
X127864285Y-94900000D01*
X127835714Y-94871428D01*
X127807142Y-94814285D01*
X127807142Y-94785714D01*
X127835714Y-94728571D01*
X127864285Y-94700000D01*
X127921428Y-94671428D01*
X128035714Y-94671428D01*
X128092857Y-94700000D01*
X128121428Y-94728571D01*
X128150000Y-94785714D01*
X128150000Y-94814285D01*
X128121428Y-94871428D01*
X128092857Y-94900000D01*
X128035714Y-94928571D01*
X127921428Y-94928571D01*
X127864285Y-94957142D01*
X127835714Y-94985714D01*
X127807142Y-95042857D01*
X127807142Y-95157142D01*
X127835714Y-95214285D01*
X127864285Y-95242857D01*
X127921428Y-95271428D01*
X128035714Y-95271428D01*
X128092857Y-95242857D01*
X128121428Y-95214285D01*
X128150000Y-95157142D01*
X128150000Y-95042857D01*
X128121428Y-94985714D01*
X128092857Y-94957142D01*
X128035714Y-94928571D01*
X138878571Y-95271428D02*
X138878571Y-94671428D01*
X139507142Y-95214285D02*
X139478571Y-95242857D01*
X139392857Y-95271428D01*
X139335714Y-95271428D01*
X139250000Y-95242857D01*
X139192857Y-95185714D01*
X139164285Y-95128571D01*
X139135714Y-95014285D01*
X139135714Y-94928571D01*
X139164285Y-94814285D01*
X139192857Y-94757142D01*
X139250000Y-94700000D01*
X139335714Y-94671428D01*
X139392857Y-94671428D01*
X139478571Y-94700000D01*
X139507142Y-94728571D01*
X140078571Y-95271428D02*
X139735714Y-95271428D01*
X139907142Y-95271428D02*
X139907142Y-94671428D01*
X139850000Y-94757142D01*
X139792857Y-94814285D01*
X139735714Y-94842857D01*
X140278571Y-94671428D02*
X140678571Y-94671428D01*
X140421428Y-95271428D01*
X132628571Y-95271428D02*
X132628571Y-94671428D01*
X133257142Y-95214285D02*
X133228571Y-95242857D01*
X133142857Y-95271428D01*
X133085714Y-95271428D01*
X133000000Y-95242857D01*
X132942857Y-95185714D01*
X132914285Y-95128571D01*
X132885714Y-95014285D01*
X132885714Y-94928571D01*
X132914285Y-94814285D01*
X132942857Y-94757142D01*
X133000000Y-94700000D01*
X133085714Y-94671428D01*
X133142857Y-94671428D01*
X133228571Y-94700000D01*
X133257142Y-94728571D01*
X133828571Y-95271428D02*
X133485714Y-95271428D01*
X133657142Y-95271428D02*
X133657142Y-94671428D01*
X133600000Y-94757142D01*
X133542857Y-94814285D01*
X133485714Y-94842857D01*
X134342857Y-94671428D02*
X134228571Y-94671428D01*
X134171428Y-94700000D01*
X134142857Y-94728571D01*
X134085714Y-94814285D01*
X134057142Y-94928571D01*
X134057142Y-95157142D01*
X134085714Y-95214285D01*
X134114285Y-95242857D01*
X134171428Y-95271428D01*
X134285714Y-95271428D01*
X134342857Y-95242857D01*
X134371428Y-95214285D01*
X134400000Y-95157142D01*
X134400000Y-95014285D01*
X134371428Y-94957142D01*
X134342857Y-94928571D01*
X134285714Y-94900000D01*
X134171428Y-94900000D01*
X134114285Y-94928571D01*
X134085714Y-94957142D01*
X134057142Y-95014285D01*
X113878571Y-95271428D02*
X113878571Y-94671428D01*
X114507142Y-95214285D02*
X114478571Y-95242857D01*
X114392857Y-95271428D01*
X114335714Y-95271428D01*
X114250000Y-95242857D01*
X114192857Y-95185714D01*
X114164285Y-95128571D01*
X114135714Y-95014285D01*
X114135714Y-94928571D01*
X114164285Y-94814285D01*
X114192857Y-94757142D01*
X114250000Y-94700000D01*
X114335714Y-94671428D01*
X114392857Y-94671428D01*
X114478571Y-94700000D01*
X114507142Y-94728571D01*
X115078571Y-95271428D02*
X114735714Y-95271428D01*
X114907142Y-95271428D02*
X114907142Y-94671428D01*
X114850000Y-94757142D01*
X114792857Y-94814285D01*
X114735714Y-94842857D01*
X115650000Y-95271428D02*
X115307142Y-95271428D01*
X115478571Y-95271428D02*
X115478571Y-94671428D01*
X115421428Y-94757142D01*
X115364285Y-94814285D01*
X115307142Y-94842857D01*
X120164285Y-95271428D02*
X120164285Y-94671428D01*
X120792857Y-95214285D02*
X120764285Y-95242857D01*
X120678571Y-95271428D01*
X120621428Y-95271428D01*
X120535714Y-95242857D01*
X120478571Y-95185714D01*
X120450000Y-95128571D01*
X120421428Y-95014285D01*
X120421428Y-94928571D01*
X120450000Y-94814285D01*
X120478571Y-94757142D01*
X120535714Y-94700000D01*
X120621428Y-94671428D01*
X120678571Y-94671428D01*
X120764285Y-94700000D01*
X120792857Y-94728571D01*
X120992857Y-94671428D02*
X121392857Y-94671428D01*
X121135714Y-95271428D01*
X184857714Y-72971428D02*
X184857714Y-73400000D01*
X184829142Y-73485714D01*
X184772000Y-73542857D01*
X184686285Y-73571428D01*
X184629142Y-73571428D01*
X185143428Y-73571428D02*
X185143428Y-72971428D01*
X185372000Y-72971428D01*
X185429142Y-73000000D01*
X185457714Y-73028571D01*
X185486285Y-73085714D01*
X185486285Y-73171428D01*
X185457714Y-73228571D01*
X185429142Y-73257142D01*
X185372000Y-73285714D01*
X185143428Y-73285714D01*
X185714857Y-73028571D02*
X185743428Y-73000000D01*
X185800571Y-72971428D01*
X185943428Y-72971428D01*
X186000571Y-73000000D01*
X186029142Y-73028571D01*
X186057714Y-73085714D01*
X186057714Y-73142857D01*
X186029142Y-73228571D01*
X185686285Y-73571428D01*
X186057714Y-73571428D01*
X156921428Y-108707142D02*
X157407142Y-108707142D01*
X157464285Y-108678571D01*
X157492857Y-108650000D01*
X157521428Y-108592857D01*
X157521428Y-108478571D01*
X157492857Y-108421428D01*
X157464285Y-108392857D01*
X157407142Y-108364285D01*
X156921428Y-108364285D01*
X156921428Y-107792857D02*
X156921428Y-108078571D01*
X157207142Y-108107142D01*
X157178571Y-108078571D01*
X157150000Y-108021428D01*
X157150000Y-107878571D01*
X157178571Y-107821428D01*
X157207142Y-107792857D01*
X157264285Y-107764285D01*
X157407142Y-107764285D01*
X157464285Y-107792857D01*
X157492857Y-107821428D01*
X157521428Y-107878571D01*
X157521428Y-108021428D01*
X157492857Y-108078571D01*
X157464285Y-108107142D01*
X159792857Y-109921428D02*
X159792857Y-110407142D01*
X159821428Y-110464285D01*
X159850000Y-110492857D01*
X159907142Y-110521428D01*
X160021428Y-110521428D01*
X160078571Y-110492857D01*
X160107142Y-110464285D01*
X160135714Y-110407142D01*
X160135714Y-109921428D01*
X160707142Y-109921428D02*
X160421428Y-109921428D01*
X160392857Y-110207142D01*
X160421428Y-110178571D01*
X160478571Y-110150000D01*
X160621428Y-110150000D01*
X160678571Y-110178571D01*
X160707142Y-110207142D01*
X160735714Y-110264285D01*
X160735714Y-110407142D01*
X160707142Y-110464285D01*
X160678571Y-110492857D01*
X160621428Y-110521428D01*
X160478571Y-110521428D01*
X160421428Y-110492857D01*
X160392857Y-110464285D01*
X139042857Y-106821428D02*
X139042857Y-107307142D01*
X139071428Y-107364285D01*
X139100000Y-107392857D01*
X139157142Y-107421428D01*
X139271428Y-107421428D01*
X139328571Y-107392857D01*
X139357142Y-107364285D01*
X139385714Y-107307142D01*
X139385714Y-106821428D01*
X139928571Y-107021428D02*
X139928571Y-107421428D01*
X139785714Y-106792857D02*
X139642857Y-107221428D01*
X140014285Y-107221428D01*
X141421428Y-105707142D02*
X141907142Y-105707142D01*
X141964285Y-105678571D01*
X141992857Y-105650000D01*
X142021428Y-105592857D01*
X142021428Y-105478571D01*
X141992857Y-105421428D01*
X141964285Y-105392857D01*
X141907142Y-105364285D01*
X141421428Y-105364285D01*
X141621428Y-104821428D02*
X142021428Y-104821428D01*
X141392857Y-104964285D02*
X141821428Y-105107142D01*
X141821428Y-104735714D01*
X149421428Y-115207142D02*
X149907142Y-115207142D01*
X149964285Y-115178571D01*
X149992857Y-115150000D01*
X150021428Y-115092857D01*
X150021428Y-114978571D01*
X149992857Y-114921428D01*
X149964285Y-114892857D01*
X149907142Y-114864285D01*
X149421428Y-114864285D01*
X149421428Y-114635714D02*
X149421428Y-114264285D01*
X149650000Y-114464285D01*
X149650000Y-114378571D01*
X149678571Y-114321428D01*
X149707142Y-114292857D01*
X149764285Y-114264285D01*
X149907142Y-114264285D01*
X149964285Y-114292857D01*
X149992857Y-114321428D01*
X150021428Y-114378571D01*
X150021428Y-114550000D01*
X149992857Y-114607142D01*
X149964285Y-114635714D01*
X149421428Y-107957142D02*
X149907142Y-107957142D01*
X149964285Y-107928571D01*
X149992857Y-107900000D01*
X150021428Y-107842857D01*
X150021428Y-107728571D01*
X149992857Y-107671428D01*
X149964285Y-107642857D01*
X149907142Y-107614285D01*
X149421428Y-107614285D01*
X149478571Y-107357142D02*
X149450000Y-107328571D01*
X149421428Y-107271428D01*
X149421428Y-107128571D01*
X149450000Y-107071428D01*
X149478571Y-107042857D01*
X149535714Y-107014285D01*
X149592857Y-107014285D01*
X149678571Y-107042857D01*
X150021428Y-107385714D01*
X150021428Y-107014285D01*
X151542857Y-108421428D02*
X151542857Y-108907142D01*
X151571428Y-108964285D01*
X151600000Y-108992857D01*
X151657142Y-109021428D01*
X151771428Y-109021428D01*
X151828571Y-108992857D01*
X151857142Y-108964285D01*
X151885714Y-108907142D01*
X151885714Y-108421428D01*
X152142857Y-108478571D02*
X152171428Y-108450000D01*
X152228571Y-108421428D01*
X152371428Y-108421428D01*
X152428571Y-108450000D01*
X152457142Y-108478571D01*
X152485714Y-108535714D01*
X152485714Y-108592857D01*
X152457142Y-108678571D01*
X152114285Y-109021428D01*
X152485714Y-109021428D01*
X158742857Y-121300000D02*
X158771428Y-121214285D01*
X158771428Y-121071428D01*
X158742857Y-121014285D01*
X158714285Y-120985714D01*
X158657142Y-120957142D01*
X158600000Y-120957142D01*
X158542857Y-120985714D01*
X158514285Y-121014285D01*
X158485714Y-121071428D01*
X158457142Y-121185714D01*
X158428571Y-121242857D01*
X158400000Y-121271428D01*
X158342857Y-121300000D01*
X158285714Y-121300000D01*
X158228571Y-121271428D01*
X158200000Y-121242857D01*
X158171428Y-121185714D01*
X158171428Y-121042857D01*
X158200000Y-120957142D01*
X158171428Y-120757142D02*
X158771428Y-120614285D01*
X158342857Y-120500000D01*
X158771428Y-120385714D01*
X158171428Y-120242857D01*
X158771428Y-119700000D02*
X158771428Y-120042857D01*
X158771428Y-119871428D02*
X158171428Y-119871428D01*
X158257142Y-119928571D01*
X158314285Y-119985714D01*
X158342857Y-120042857D01*
X163021428Y-101635714D02*
X162735714Y-101835714D01*
X163021428Y-101978571D02*
X162421428Y-101978571D01*
X162421428Y-101750000D01*
X162450000Y-101692857D01*
X162478571Y-101664285D01*
X162535714Y-101635714D01*
X162621428Y-101635714D01*
X162678571Y-101664285D01*
X162707142Y-101692857D01*
X162735714Y-101750000D01*
X162735714Y-101978571D01*
X162478571Y-101407142D02*
X162450000Y-101378571D01*
X162421428Y-101321428D01*
X162421428Y-101178571D01*
X162450000Y-101121428D01*
X162478571Y-101092857D01*
X162535714Y-101064285D01*
X162592857Y-101064285D01*
X162678571Y-101092857D01*
X163021428Y-101435714D01*
X163021428Y-101064285D01*
X162421428Y-100692857D02*
X162421428Y-100635714D01*
X162450000Y-100578571D01*
X162478571Y-100550000D01*
X162535714Y-100521428D01*
X162650000Y-100492857D01*
X162792857Y-100492857D01*
X162907142Y-100521428D01*
X162964285Y-100550000D01*
X162992857Y-100578571D01*
X163021428Y-100635714D01*
X163021428Y-100692857D01*
X162992857Y-100750000D01*
X162964285Y-100778571D01*
X162907142Y-100807142D01*
X162792857Y-100835714D01*
X162650000Y-100835714D01*
X162535714Y-100807142D01*
X162478571Y-100778571D01*
X162450000Y-100750000D01*
X162421428Y-100692857D01*
X163691428Y-115385714D02*
X163405714Y-115585714D01*
X163691428Y-115728571D02*
X163091428Y-115728571D01*
X163091428Y-115500000D01*
X163120000Y-115442857D01*
X163148571Y-115414285D01*
X163205714Y-115385714D01*
X163291428Y-115385714D01*
X163348571Y-115414285D01*
X163377142Y-115442857D01*
X163405714Y-115500000D01*
X163405714Y-115728571D01*
X163691428Y-114814285D02*
X163691428Y-115157142D01*
X163691428Y-114985714D02*
X163091428Y-114985714D01*
X163177142Y-115042857D01*
X163234285Y-115100000D01*
X163262857Y-115157142D01*
X163691428Y-114528571D02*
X163691428Y-114414285D01*
X163662857Y-114357142D01*
X163634285Y-114328571D01*
X163548571Y-114271428D01*
X163434285Y-114242857D01*
X163205714Y-114242857D01*
X163148571Y-114271428D01*
X163120000Y-114300000D01*
X163091428Y-114357142D01*
X163091428Y-114471428D01*
X163120000Y-114528571D01*
X163148571Y-114557142D01*
X163205714Y-114585714D01*
X163348571Y-114585714D01*
X163405714Y-114557142D01*
X163434285Y-114528571D01*
X163462857Y-114471428D01*
X163462857Y-114357142D01*
X163434285Y-114300000D01*
X163405714Y-114271428D01*
X163348571Y-114242857D01*
X163771428Y-117385714D02*
X163485714Y-117585714D01*
X163771428Y-117728571D02*
X163171428Y-117728571D01*
X163171428Y-117500000D01*
X163200000Y-117442857D01*
X163228571Y-117414285D01*
X163285714Y-117385714D01*
X163371428Y-117385714D01*
X163428571Y-117414285D01*
X163457142Y-117442857D01*
X163485714Y-117500000D01*
X163485714Y-117728571D01*
X163771428Y-116814285D02*
X163771428Y-117157142D01*
X163771428Y-116985714D02*
X163171428Y-116985714D01*
X163257142Y-117042857D01*
X163314285Y-117100000D01*
X163342857Y-117157142D01*
X163428571Y-116471428D02*
X163400000Y-116528571D01*
X163371428Y-116557142D01*
X163314285Y-116585714D01*
X163285714Y-116585714D01*
X163228571Y-116557142D01*
X163200000Y-116528571D01*
X163171428Y-116471428D01*
X163171428Y-116357142D01*
X163200000Y-116300000D01*
X163228571Y-116271428D01*
X163285714Y-116242857D01*
X163314285Y-116242857D01*
X163371428Y-116271428D01*
X163400000Y-116300000D01*
X163428571Y-116357142D01*
X163428571Y-116471428D01*
X163457142Y-116528571D01*
X163485714Y-116557142D01*
X163542857Y-116585714D01*
X163657142Y-116585714D01*
X163714285Y-116557142D01*
X163742857Y-116528571D01*
X163771428Y-116471428D01*
X163771428Y-116357142D01*
X163742857Y-116300000D01*
X163714285Y-116271428D01*
X163657142Y-116242857D01*
X163542857Y-116242857D01*
X163485714Y-116271428D01*
X163457142Y-116300000D01*
X163428571Y-116357142D01*
X165021428Y-117385714D02*
X164735714Y-117585714D01*
X165021428Y-117728571D02*
X164421428Y-117728571D01*
X164421428Y-117500000D01*
X164450000Y-117442857D01*
X164478571Y-117414285D01*
X164535714Y-117385714D01*
X164621428Y-117385714D01*
X164678571Y-117414285D01*
X164707142Y-117442857D01*
X164735714Y-117500000D01*
X164735714Y-117728571D01*
X165021428Y-116814285D02*
X165021428Y-117157142D01*
X165021428Y-116985714D02*
X164421428Y-116985714D01*
X164507142Y-117042857D01*
X164564285Y-117100000D01*
X164592857Y-117157142D01*
X164421428Y-116614285D02*
X164421428Y-116214285D01*
X165021428Y-116471428D01*
X160364285Y-116021428D02*
X160164285Y-115735714D01*
X160021428Y-116021428D02*
X160021428Y-115421428D01*
X160250000Y-115421428D01*
X160307142Y-115450000D01*
X160335714Y-115478571D01*
X160364285Y-115535714D01*
X160364285Y-115621428D01*
X160335714Y-115678571D01*
X160307142Y-115707142D01*
X160250000Y-115735714D01*
X160021428Y-115735714D01*
X160935714Y-116021428D02*
X160592857Y-116021428D01*
X160764285Y-116021428D02*
X160764285Y-115421428D01*
X160707142Y-115507142D01*
X160650000Y-115564285D01*
X160592857Y-115592857D01*
X161450000Y-115421428D02*
X161335714Y-115421428D01*
X161278571Y-115450000D01*
X161250000Y-115478571D01*
X161192857Y-115564285D01*
X161164285Y-115678571D01*
X161164285Y-115907142D01*
X161192857Y-115964285D01*
X161221428Y-115992857D01*
X161278571Y-116021428D01*
X161392857Y-116021428D01*
X161450000Y-115992857D01*
X161478571Y-115964285D01*
X161507142Y-115907142D01*
X161507142Y-115764285D01*
X161478571Y-115707142D01*
X161450000Y-115678571D01*
X161392857Y-115650000D01*
X161278571Y-115650000D01*
X161221428Y-115678571D01*
X161192857Y-115707142D01*
X161164285Y-115764285D01*
X181021428Y-97385714D02*
X180735714Y-97585714D01*
X181021428Y-97728571D02*
X180421428Y-97728571D01*
X180421428Y-97500000D01*
X180450000Y-97442857D01*
X180478571Y-97414285D01*
X180535714Y-97385714D01*
X180621428Y-97385714D01*
X180678571Y-97414285D01*
X180707142Y-97442857D01*
X180735714Y-97500000D01*
X180735714Y-97728571D01*
X181021428Y-96814285D02*
X181021428Y-97157142D01*
X181021428Y-96985714D02*
X180421428Y-96985714D01*
X180507142Y-97042857D01*
X180564285Y-97100000D01*
X180592857Y-97157142D01*
X180421428Y-96271428D02*
X180421428Y-96557142D01*
X180707142Y-96585714D01*
X180678571Y-96557142D01*
X180650000Y-96500000D01*
X180650000Y-96357142D01*
X180678571Y-96300000D01*
X180707142Y-96271428D01*
X180764285Y-96242857D01*
X180907142Y-96242857D01*
X180964285Y-96271428D01*
X180992857Y-96300000D01*
X181021428Y-96357142D01*
X181021428Y-96500000D01*
X180992857Y-96557142D01*
X180964285Y-96585714D01*
X182271428Y-97385714D02*
X181985714Y-97585714D01*
X182271428Y-97728571D02*
X181671428Y-97728571D01*
X181671428Y-97500000D01*
X181700000Y-97442857D01*
X181728571Y-97414285D01*
X181785714Y-97385714D01*
X181871428Y-97385714D01*
X181928571Y-97414285D01*
X181957142Y-97442857D01*
X181985714Y-97500000D01*
X181985714Y-97728571D01*
X182271428Y-96814285D02*
X182271428Y-97157142D01*
X182271428Y-96985714D02*
X181671428Y-96985714D01*
X181757142Y-97042857D01*
X181814285Y-97100000D01*
X181842857Y-97157142D01*
X181871428Y-96300000D02*
X182271428Y-96300000D01*
X181642857Y-96442857D02*
X182071428Y-96585714D01*
X182071428Y-96214285D01*
X158771428Y-114635714D02*
X158485714Y-114835714D01*
X158771428Y-114978571D02*
X158171428Y-114978571D01*
X158171428Y-114750000D01*
X158200000Y-114692857D01*
X158228571Y-114664285D01*
X158285714Y-114635714D01*
X158371428Y-114635714D01*
X158428571Y-114664285D01*
X158457142Y-114692857D01*
X158485714Y-114750000D01*
X158485714Y-114978571D01*
X158771428Y-114064285D02*
X158771428Y-114407142D01*
X158771428Y-114235714D02*
X158171428Y-114235714D01*
X158257142Y-114292857D01*
X158314285Y-114350000D01*
X158342857Y-114407142D01*
X158171428Y-113864285D02*
X158171428Y-113492857D01*
X158400000Y-113692857D01*
X158400000Y-113607142D01*
X158428571Y-113550000D01*
X158457142Y-113521428D01*
X158514285Y-113492857D01*
X158657142Y-113492857D01*
X158714285Y-113521428D01*
X158742857Y-113550000D01*
X158771428Y-113607142D01*
X158771428Y-113778571D01*
X158742857Y-113835714D01*
X158714285Y-113864285D01*
X164271428Y-106635714D02*
X163985714Y-106835714D01*
X164271428Y-106978571D02*
X163671428Y-106978571D01*
X163671428Y-106750000D01*
X163700000Y-106692857D01*
X163728571Y-106664285D01*
X163785714Y-106635714D01*
X163871428Y-106635714D01*
X163928571Y-106664285D01*
X163957142Y-106692857D01*
X163985714Y-106750000D01*
X163985714Y-106978571D01*
X164271428Y-106064285D02*
X164271428Y-106407142D01*
X164271428Y-106235714D02*
X163671428Y-106235714D01*
X163757142Y-106292857D01*
X163814285Y-106350000D01*
X163842857Y-106407142D01*
X163728571Y-105835714D02*
X163700000Y-105807142D01*
X163671428Y-105750000D01*
X163671428Y-105607142D01*
X163700000Y-105550000D01*
X163728571Y-105521428D01*
X163785714Y-105492857D01*
X163842857Y-105492857D01*
X163928571Y-105521428D01*
X164271428Y-105864285D01*
X164271428Y-105492857D01*
X157521428Y-106635714D02*
X157235714Y-106835714D01*
X157521428Y-106978571D02*
X156921428Y-106978571D01*
X156921428Y-106750000D01*
X156950000Y-106692857D01*
X156978571Y-106664285D01*
X157035714Y-106635714D01*
X157121428Y-106635714D01*
X157178571Y-106664285D01*
X157207142Y-106692857D01*
X157235714Y-106750000D01*
X157235714Y-106978571D01*
X157521428Y-106064285D02*
X157521428Y-106407142D01*
X157521428Y-106235714D02*
X156921428Y-106235714D01*
X157007142Y-106292857D01*
X157064285Y-106350000D01*
X157092857Y-106407142D01*
X157521428Y-105492857D02*
X157521428Y-105835714D01*
X157521428Y-105664285D02*
X156921428Y-105664285D01*
X157007142Y-105721428D01*
X157064285Y-105778571D01*
X157092857Y-105835714D01*
X161864285Y-113771428D02*
X161664285Y-113485714D01*
X161521428Y-113771428D02*
X161521428Y-113171428D01*
X161750000Y-113171428D01*
X161807142Y-113200000D01*
X161835714Y-113228571D01*
X161864285Y-113285714D01*
X161864285Y-113371428D01*
X161835714Y-113428571D01*
X161807142Y-113457142D01*
X161750000Y-113485714D01*
X161521428Y-113485714D01*
X162435714Y-113771428D02*
X162092857Y-113771428D01*
X162264285Y-113771428D02*
X162264285Y-113171428D01*
X162207142Y-113257142D01*
X162150000Y-113314285D01*
X162092857Y-113342857D01*
X162807142Y-113171428D02*
X162864285Y-113171428D01*
X162921428Y-113200000D01*
X162950000Y-113228571D01*
X162978571Y-113285714D01*
X163007142Y-113400000D01*
X163007142Y-113542857D01*
X162978571Y-113657142D01*
X162950000Y-113714285D01*
X162921428Y-113742857D01*
X162864285Y-113771428D01*
X162807142Y-113771428D01*
X162750000Y-113742857D01*
X162721428Y-113714285D01*
X162692857Y-113657142D01*
X162664285Y-113542857D01*
X162664285Y-113400000D01*
X162692857Y-113285714D01*
X162721428Y-113228571D01*
X162750000Y-113200000D01*
X162807142Y-113171428D01*
X142650000Y-104521428D02*
X142450000Y-104235714D01*
X142307142Y-104521428D02*
X142307142Y-103921428D01*
X142535714Y-103921428D01*
X142592857Y-103950000D01*
X142621428Y-103978571D01*
X142650000Y-104035714D01*
X142650000Y-104121428D01*
X142621428Y-104178571D01*
X142592857Y-104207142D01*
X142535714Y-104235714D01*
X142307142Y-104235714D01*
X142935714Y-104521428D02*
X143050000Y-104521428D01*
X143107142Y-104492857D01*
X143135714Y-104464285D01*
X143192857Y-104378571D01*
X143221428Y-104264285D01*
X143221428Y-104035714D01*
X143192857Y-103978571D01*
X143164285Y-103950000D01*
X143107142Y-103921428D01*
X142992857Y-103921428D01*
X142935714Y-103950000D01*
X142907142Y-103978571D01*
X142878571Y-104035714D01*
X142878571Y-104178571D01*
X142907142Y-104235714D01*
X142935714Y-104264285D01*
X142992857Y-104292857D01*
X143107142Y-104292857D01*
X143164285Y-104264285D01*
X143192857Y-104235714D01*
X143221428Y-104178571D01*
X142271428Y-100100000D02*
X141985714Y-100300000D01*
X142271428Y-100442857D02*
X141671428Y-100442857D01*
X141671428Y-100214285D01*
X141700000Y-100157142D01*
X141728571Y-100128571D01*
X141785714Y-100100000D01*
X141871428Y-100100000D01*
X141928571Y-100128571D01*
X141957142Y-100157142D01*
X141985714Y-100214285D01*
X141985714Y-100442857D01*
X141928571Y-99757142D02*
X141900000Y-99814285D01*
X141871428Y-99842857D01*
X141814285Y-99871428D01*
X141785714Y-99871428D01*
X141728571Y-99842857D01*
X141700000Y-99814285D01*
X141671428Y-99757142D01*
X141671428Y-99642857D01*
X141700000Y-99585714D01*
X141728571Y-99557142D01*
X141785714Y-99528571D01*
X141814285Y-99528571D01*
X141871428Y-99557142D01*
X141900000Y-99585714D01*
X141928571Y-99642857D01*
X141928571Y-99757142D01*
X141957142Y-99814285D01*
X141985714Y-99842857D01*
X142042857Y-99871428D01*
X142157142Y-99871428D01*
X142214285Y-99842857D01*
X142242857Y-99814285D01*
X142271428Y-99757142D01*
X142271428Y-99642857D01*
X142242857Y-99585714D01*
X142214285Y-99557142D01*
X142157142Y-99528571D01*
X142042857Y-99528571D01*
X141985714Y-99557142D01*
X141957142Y-99585714D01*
X141928571Y-99642857D01*
X154771428Y-109600000D02*
X154485714Y-109800000D01*
X154771428Y-109942857D02*
X154171428Y-109942857D01*
X154171428Y-109714285D01*
X154200000Y-109657142D01*
X154228571Y-109628571D01*
X154285714Y-109600000D01*
X154371428Y-109600000D01*
X154428571Y-109628571D01*
X154457142Y-109657142D01*
X154485714Y-109714285D01*
X154485714Y-109942857D01*
X154171428Y-109400000D02*
X154171428Y-109000000D01*
X154771428Y-109257142D01*
X148771428Y-111100000D02*
X148485714Y-111300000D01*
X148771428Y-111442857D02*
X148171428Y-111442857D01*
X148171428Y-111214285D01*
X148200000Y-111157142D01*
X148228571Y-111128571D01*
X148285714Y-111100000D01*
X148371428Y-111100000D01*
X148428571Y-111128571D01*
X148457142Y-111157142D01*
X148485714Y-111214285D01*
X148485714Y-111442857D01*
X148171428Y-110585714D02*
X148171428Y-110700000D01*
X148200000Y-110757142D01*
X148228571Y-110785714D01*
X148314285Y-110842857D01*
X148428571Y-110871428D01*
X148657142Y-110871428D01*
X148714285Y-110842857D01*
X148742857Y-110814285D01*
X148771428Y-110757142D01*
X148771428Y-110642857D01*
X148742857Y-110585714D01*
X148714285Y-110557142D01*
X148657142Y-110528571D01*
X148514285Y-110528571D01*
X148457142Y-110557142D01*
X148428571Y-110585714D01*
X148400000Y-110642857D01*
X148400000Y-110757142D01*
X148428571Y-110814285D01*
X148457142Y-110842857D01*
X148514285Y-110871428D01*
X149271428Y-105100000D02*
X148985714Y-105300000D01*
X149271428Y-105442857D02*
X148671428Y-105442857D01*
X148671428Y-105214285D01*
X148700000Y-105157142D01*
X148728571Y-105128571D01*
X148785714Y-105100000D01*
X148871428Y-105100000D01*
X148928571Y-105128571D01*
X148957142Y-105157142D01*
X148985714Y-105214285D01*
X148985714Y-105442857D01*
X148671428Y-104557142D02*
X148671428Y-104842857D01*
X148957142Y-104871428D01*
X148928571Y-104842857D01*
X148900000Y-104785714D01*
X148900000Y-104642857D01*
X148928571Y-104585714D01*
X148957142Y-104557142D01*
X149014285Y-104528571D01*
X149157142Y-104528571D01*
X149214285Y-104557142D01*
X149242857Y-104585714D01*
X149271428Y-104642857D01*
X149271428Y-104785714D01*
X149242857Y-104842857D01*
X149214285Y-104871428D01*
X152521428Y-105100000D02*
X152235714Y-105300000D01*
X152521428Y-105442857D02*
X151921428Y-105442857D01*
X151921428Y-105214285D01*
X151950000Y-105157142D01*
X151978571Y-105128571D01*
X152035714Y-105100000D01*
X152121428Y-105100000D01*
X152178571Y-105128571D01*
X152207142Y-105157142D01*
X152235714Y-105214285D01*
X152235714Y-105442857D01*
X152121428Y-104585714D02*
X152521428Y-104585714D01*
X151892857Y-104728571D02*
X152321428Y-104871428D01*
X152321428Y-104500000D01*
X138400000Y-101021428D02*
X138200000Y-100735714D01*
X138057142Y-101021428D02*
X138057142Y-100421428D01*
X138285714Y-100421428D01*
X138342857Y-100450000D01*
X138371428Y-100478571D01*
X138400000Y-100535714D01*
X138400000Y-100621428D01*
X138371428Y-100678571D01*
X138342857Y-100707142D01*
X138285714Y-100735714D01*
X138057142Y-100735714D01*
X138600000Y-100421428D02*
X138971428Y-100421428D01*
X138771428Y-100650000D01*
X138857142Y-100650000D01*
X138914285Y-100678571D01*
X138942857Y-100707142D01*
X138971428Y-100764285D01*
X138971428Y-100907142D01*
X138942857Y-100964285D01*
X138914285Y-100992857D01*
X138857142Y-101021428D01*
X138685714Y-101021428D01*
X138628571Y-100992857D01*
X138600000Y-100964285D01*
X154771428Y-114600000D02*
X154485714Y-114800000D01*
X154771428Y-114942857D02*
X154171428Y-114942857D01*
X154171428Y-114714285D01*
X154200000Y-114657142D01*
X154228571Y-114628571D01*
X154285714Y-114600000D01*
X154371428Y-114600000D01*
X154428571Y-114628571D01*
X154457142Y-114657142D01*
X154485714Y-114714285D01*
X154485714Y-114942857D01*
X154228571Y-114371428D02*
X154200000Y-114342857D01*
X154171428Y-114285714D01*
X154171428Y-114142857D01*
X154200000Y-114085714D01*
X154228571Y-114057142D01*
X154285714Y-114028571D01*
X154342857Y-114028571D01*
X154428571Y-114057142D01*
X154771428Y-114400000D01*
X154771428Y-114028571D01*
X148771428Y-113100000D02*
X148485714Y-113300000D01*
X148771428Y-113442857D02*
X148171428Y-113442857D01*
X148171428Y-113214285D01*
X148200000Y-113157142D01*
X148228571Y-113128571D01*
X148285714Y-113100000D01*
X148371428Y-113100000D01*
X148428571Y-113128571D01*
X148457142Y-113157142D01*
X148485714Y-113214285D01*
X148485714Y-113442857D01*
X148771428Y-112528571D02*
X148771428Y-112871428D01*
X148771428Y-112700000D02*
X148171428Y-112700000D01*
X148257142Y-112757142D01*
X148314285Y-112814285D01*
X148342857Y-112871428D01*
X158578571Y-102807142D02*
X158550000Y-102864285D01*
X158492857Y-102921428D01*
X158407142Y-103007142D01*
X158378571Y-103064285D01*
X158378571Y-103121428D01*
X158521428Y-103092857D02*
X158492857Y-103150000D01*
X158435714Y-103207142D01*
X158321428Y-103235714D01*
X158121428Y-103235714D01*
X158007142Y-103207142D01*
X157950000Y-103150000D01*
X157921428Y-103092857D01*
X157921428Y-102978571D01*
X157950000Y-102921428D01*
X158007142Y-102864285D01*
X158121428Y-102835714D01*
X158321428Y-102835714D01*
X158435714Y-102864285D01*
X158492857Y-102921428D01*
X158521428Y-102978571D01*
X158521428Y-103092857D01*
X158521428Y-102264285D02*
X158521428Y-102607142D01*
X158521428Y-102435714D02*
X157921428Y-102435714D01*
X158007142Y-102492857D01*
X158064285Y-102550000D01*
X158092857Y-102607142D01*
X133491428Y-105600000D02*
X133491428Y-105885714D01*
X132891428Y-105885714D01*
X133491428Y-105085714D02*
X133491428Y-105428571D01*
X133491428Y-105257142D02*
X132891428Y-105257142D01*
X132977142Y-105314285D01*
X133034285Y-105371428D01*
X133062857Y-105428571D01*
X146300000Y-122421428D02*
X146300000Y-122850000D01*
X146271428Y-122935714D01*
X146214285Y-122992857D01*
X146128571Y-123021428D01*
X146071428Y-123021428D01*
X146900000Y-123021428D02*
X146557142Y-123021428D01*
X146728571Y-123021428D02*
X146728571Y-122421428D01*
X146671428Y-122507142D01*
X146614285Y-122564285D01*
X146557142Y-122592857D01*
X142307142Y-123021428D02*
X142307142Y-122421428D01*
X142450000Y-122421428D01*
X142535714Y-122450000D01*
X142592857Y-122507142D01*
X142621428Y-122564285D01*
X142650000Y-122678571D01*
X142650000Y-122764285D01*
X142621428Y-122878571D01*
X142592857Y-122935714D01*
X142535714Y-122992857D01*
X142450000Y-123021428D01*
X142307142Y-123021428D01*
X142878571Y-122478571D02*
X142907142Y-122450000D01*
X142964285Y-122421428D01*
X143107142Y-122421428D01*
X143164285Y-122450000D01*
X143192857Y-122478571D01*
X143221428Y-122535714D01*
X143221428Y-122592857D01*
X143192857Y-122678571D01*
X142850000Y-123021428D01*
X143221428Y-123021428D01*
X138307142Y-123021428D02*
X138307142Y-122421428D01*
X138450000Y-122421428D01*
X138535714Y-122450000D01*
X138592857Y-122507142D01*
X138621428Y-122564285D01*
X138650000Y-122678571D01*
X138650000Y-122764285D01*
X138621428Y-122878571D01*
X138592857Y-122935714D01*
X138535714Y-122992857D01*
X138450000Y-123021428D01*
X138307142Y-123021428D01*
X139221428Y-123021428D02*
X138878571Y-123021428D01*
X139050000Y-123021428D02*
X139050000Y-122421428D01*
X138992857Y-122507142D01*
X138935714Y-122564285D01*
X138878571Y-122592857D01*
X164214285Y-101635714D02*
X164242857Y-101664285D01*
X164271428Y-101750000D01*
X164271428Y-101807142D01*
X164242857Y-101892857D01*
X164185714Y-101950000D01*
X164128571Y-101978571D01*
X164014285Y-102007142D01*
X163928571Y-102007142D01*
X163814285Y-101978571D01*
X163757142Y-101950000D01*
X163700000Y-101892857D01*
X163671428Y-101807142D01*
X163671428Y-101750000D01*
X163700000Y-101664285D01*
X163728571Y-101635714D01*
X163728571Y-101407142D02*
X163700000Y-101378571D01*
X163671428Y-101321428D01*
X163671428Y-101178571D01*
X163700000Y-101121428D01*
X163728571Y-101092857D01*
X163785714Y-101064285D01*
X163842857Y-101064285D01*
X163928571Y-101092857D01*
X164271428Y-101435714D01*
X164271428Y-101064285D01*
X163671428Y-100692857D02*
X163671428Y-100635714D01*
X163700000Y-100578571D01*
X163728571Y-100550000D01*
X163785714Y-100521428D01*
X163900000Y-100492857D01*
X164042857Y-100492857D01*
X164157142Y-100521428D01*
X164214285Y-100550000D01*
X164242857Y-100578571D01*
X164271428Y-100635714D01*
X164271428Y-100692857D01*
X164242857Y-100750000D01*
X164214285Y-100778571D01*
X164157142Y-100807142D01*
X164042857Y-100835714D01*
X163900000Y-100835714D01*
X163785714Y-100807142D01*
X163728571Y-100778571D01*
X163700000Y-100750000D01*
X163671428Y-100692857D01*
X158364285Y-115964285D02*
X158335714Y-115992857D01*
X158250000Y-116021428D01*
X158192857Y-116021428D01*
X158107142Y-115992857D01*
X158050000Y-115935714D01*
X158021428Y-115878571D01*
X157992857Y-115764285D01*
X157992857Y-115678571D01*
X158021428Y-115564285D01*
X158050000Y-115507142D01*
X158107142Y-115450000D01*
X158192857Y-115421428D01*
X158250000Y-115421428D01*
X158335714Y-115450000D01*
X158364285Y-115478571D01*
X158935714Y-116021428D02*
X158592857Y-116021428D01*
X158764285Y-116021428D02*
X158764285Y-115421428D01*
X158707142Y-115507142D01*
X158650000Y-115564285D01*
X158592857Y-115592857D01*
X159221428Y-116021428D02*
X159335714Y-116021428D01*
X159392857Y-115992857D01*
X159421428Y-115964285D01*
X159478571Y-115878571D01*
X159507142Y-115764285D01*
X159507142Y-115535714D01*
X159478571Y-115478571D01*
X159450000Y-115450000D01*
X159392857Y-115421428D01*
X159278571Y-115421428D01*
X159221428Y-115450000D01*
X159192857Y-115478571D01*
X159164285Y-115535714D01*
X159164285Y-115678571D01*
X159192857Y-115735714D01*
X159221428Y-115764285D01*
X159278571Y-115792857D01*
X159392857Y-115792857D01*
X159450000Y-115764285D01*
X159478571Y-115735714D01*
X159507142Y-115678571D01*
X156214285Y-112385714D02*
X156242857Y-112414285D01*
X156271428Y-112500000D01*
X156271428Y-112557142D01*
X156242857Y-112642857D01*
X156185714Y-112700000D01*
X156128571Y-112728571D01*
X156014285Y-112757142D01*
X155928571Y-112757142D01*
X155814285Y-112728571D01*
X155757142Y-112700000D01*
X155700000Y-112642857D01*
X155671428Y-112557142D01*
X155671428Y-112500000D01*
X155700000Y-112414285D01*
X155728571Y-112385714D01*
X156271428Y-111814285D02*
X156271428Y-112157142D01*
X156271428Y-111985714D02*
X155671428Y-111985714D01*
X155757142Y-112042857D01*
X155814285Y-112100000D01*
X155842857Y-112157142D01*
X155928571Y-111471428D02*
X155900000Y-111528571D01*
X155871428Y-111557142D01*
X155814285Y-111585714D01*
X155785714Y-111585714D01*
X155728571Y-111557142D01*
X155700000Y-111528571D01*
X155671428Y-111471428D01*
X155671428Y-111357142D01*
X155700000Y-111300000D01*
X155728571Y-111271428D01*
X155785714Y-111242857D01*
X155814285Y-111242857D01*
X155871428Y-111271428D01*
X155900000Y-111300000D01*
X155928571Y-111357142D01*
X155928571Y-111471428D01*
X155957142Y-111528571D01*
X155985714Y-111557142D01*
X156042857Y-111585714D01*
X156157142Y-111585714D01*
X156214285Y-111557142D01*
X156242857Y-111528571D01*
X156271428Y-111471428D01*
X156271428Y-111357142D01*
X156242857Y-111300000D01*
X156214285Y-111271428D01*
X156157142Y-111242857D01*
X156042857Y-111242857D01*
X155985714Y-111271428D01*
X155957142Y-111300000D01*
X155928571Y-111357142D01*
X134714285Y-98885714D02*
X134742857Y-98914285D01*
X134771428Y-99000000D01*
X134771428Y-99057142D01*
X134742857Y-99142857D01*
X134685714Y-99200000D01*
X134628571Y-99228571D01*
X134514285Y-99257142D01*
X134428571Y-99257142D01*
X134314285Y-99228571D01*
X134257142Y-99200000D01*
X134200000Y-99142857D01*
X134171428Y-99057142D01*
X134171428Y-99000000D01*
X134200000Y-98914285D01*
X134228571Y-98885714D01*
X134771428Y-98314285D02*
X134771428Y-98657142D01*
X134771428Y-98485714D02*
X134171428Y-98485714D01*
X134257142Y-98542857D01*
X134314285Y-98600000D01*
X134342857Y-98657142D01*
X134171428Y-97800000D02*
X134171428Y-97914285D01*
X134200000Y-97971428D01*
X134228571Y-98000000D01*
X134314285Y-98057142D01*
X134428571Y-98085714D01*
X134657142Y-98085714D01*
X134714285Y-98057142D01*
X134742857Y-98028571D01*
X134771428Y-97971428D01*
X134771428Y-97857142D01*
X134742857Y-97800000D01*
X134714285Y-97771428D01*
X134657142Y-97742857D01*
X134514285Y-97742857D01*
X134457142Y-97771428D01*
X134428571Y-97800000D01*
X134400000Y-97857142D01*
X134400000Y-97971428D01*
X134428571Y-98028571D01*
X134457142Y-98057142D01*
X134514285Y-98085714D01*
X136714285Y-98885714D02*
X136742857Y-98914285D01*
X136771428Y-99000000D01*
X136771428Y-99057142D01*
X136742857Y-99142857D01*
X136685714Y-99200000D01*
X136628571Y-99228571D01*
X136514285Y-99257142D01*
X136428571Y-99257142D01*
X136314285Y-99228571D01*
X136257142Y-99200000D01*
X136200000Y-99142857D01*
X136171428Y-99057142D01*
X136171428Y-99000000D01*
X136200000Y-98914285D01*
X136228571Y-98885714D01*
X136771428Y-98314285D02*
X136771428Y-98657142D01*
X136771428Y-98485714D02*
X136171428Y-98485714D01*
X136257142Y-98542857D01*
X136314285Y-98600000D01*
X136342857Y-98657142D01*
X136171428Y-97771428D02*
X136171428Y-98057142D01*
X136457142Y-98085714D01*
X136428571Y-98057142D01*
X136400000Y-98000000D01*
X136400000Y-97857142D01*
X136428571Y-97800000D01*
X136457142Y-97771428D01*
X136514285Y-97742857D01*
X136657142Y-97742857D01*
X136714285Y-97771428D01*
X136742857Y-97800000D01*
X136771428Y-97857142D01*
X136771428Y-98000000D01*
X136742857Y-98057142D01*
X136714285Y-98085714D01*
X117864285Y-96464285D02*
X117835714Y-96492857D01*
X117750000Y-96521428D01*
X117692857Y-96521428D01*
X117607142Y-96492857D01*
X117550000Y-96435714D01*
X117521428Y-96378571D01*
X117492857Y-96264285D01*
X117492857Y-96178571D01*
X117521428Y-96064285D01*
X117550000Y-96007142D01*
X117607142Y-95950000D01*
X117692857Y-95921428D01*
X117750000Y-95921428D01*
X117835714Y-95950000D01*
X117864285Y-95978571D01*
X118435714Y-96521428D02*
X118092857Y-96521428D01*
X118264285Y-96521428D02*
X118264285Y-95921428D01*
X118207142Y-96007142D01*
X118150000Y-96064285D01*
X118092857Y-96092857D01*
X118950000Y-96121428D02*
X118950000Y-96521428D01*
X118807142Y-95892857D02*
X118664285Y-96321428D01*
X119035714Y-96321428D01*
X141400000Y-108964285D02*
X141371428Y-108992857D01*
X141285714Y-109021428D01*
X141228571Y-109021428D01*
X141142857Y-108992857D01*
X141085714Y-108935714D01*
X141057142Y-108878571D01*
X141028571Y-108764285D01*
X141028571Y-108678571D01*
X141057142Y-108564285D01*
X141085714Y-108507142D01*
X141142857Y-108450000D01*
X141228571Y-108421428D01*
X141285714Y-108421428D01*
X141371428Y-108450000D01*
X141400000Y-108478571D01*
X141742857Y-108678571D02*
X141685714Y-108650000D01*
X141657142Y-108621428D01*
X141628571Y-108564285D01*
X141628571Y-108535714D01*
X141657142Y-108478571D01*
X141685714Y-108450000D01*
X141742857Y-108421428D01*
X141857142Y-108421428D01*
X141914285Y-108450000D01*
X141942857Y-108478571D01*
X141971428Y-108535714D01*
X141971428Y-108564285D01*
X141942857Y-108621428D01*
X141914285Y-108650000D01*
X141857142Y-108678571D01*
X141742857Y-108678571D01*
X141685714Y-108707142D01*
X141657142Y-108735714D01*
X141628571Y-108792857D01*
X141628571Y-108907142D01*
X141657142Y-108964285D01*
X141685714Y-108992857D01*
X141742857Y-109021428D01*
X141857142Y-109021428D01*
X141914285Y-108992857D01*
X141942857Y-108964285D01*
X141971428Y-108907142D01*
X141971428Y-108792857D01*
X141942857Y-108735714D01*
X141914285Y-108707142D01*
X141857142Y-108678571D01*
X124400000Y-96464285D02*
X124371428Y-96492857D01*
X124285714Y-96521428D01*
X124228571Y-96521428D01*
X124142857Y-96492857D01*
X124085714Y-96435714D01*
X124057142Y-96378571D01*
X124028571Y-96264285D01*
X124028571Y-96178571D01*
X124057142Y-96064285D01*
X124085714Y-96007142D01*
X124142857Y-95950000D01*
X124228571Y-95921428D01*
X124285714Y-95921428D01*
X124371428Y-95950000D01*
X124400000Y-95978571D01*
X124600000Y-95921428D02*
X125000000Y-95921428D01*
X124742857Y-96521428D01*
X130650000Y-96464285D02*
X130621428Y-96492857D01*
X130535714Y-96521428D01*
X130478571Y-96521428D01*
X130392857Y-96492857D01*
X130335714Y-96435714D01*
X130307142Y-96378571D01*
X130278571Y-96264285D01*
X130278571Y-96178571D01*
X130307142Y-96064285D01*
X130335714Y-96007142D01*
X130392857Y-95950000D01*
X130478571Y-95921428D01*
X130535714Y-95921428D01*
X130621428Y-95950000D01*
X130650000Y-95978571D01*
X131164285Y-95921428D02*
X131050000Y-95921428D01*
X130992857Y-95950000D01*
X130964285Y-95978571D01*
X130907142Y-96064285D01*
X130878571Y-96178571D01*
X130878571Y-96407142D01*
X130907142Y-96464285D01*
X130935714Y-96492857D01*
X130992857Y-96521428D01*
X131107142Y-96521428D01*
X131164285Y-96492857D01*
X131192857Y-96464285D01*
X131221428Y-96407142D01*
X131221428Y-96264285D01*
X131192857Y-96207142D01*
X131164285Y-96178571D01*
X131107142Y-96150000D01*
X130992857Y-96150000D01*
X130935714Y-96178571D01*
X130907142Y-96207142D01*
X130878571Y-96264285D01*
X143150000Y-96464285D02*
X143121428Y-96492857D01*
X143035714Y-96521428D01*
X142978571Y-96521428D01*
X142892857Y-96492857D01*
X142835714Y-96435714D01*
X142807142Y-96378571D01*
X142778571Y-96264285D01*
X142778571Y-96178571D01*
X142807142Y-96064285D01*
X142835714Y-96007142D01*
X142892857Y-95950000D01*
X142978571Y-95921428D01*
X143035714Y-95921428D01*
X143121428Y-95950000D01*
X143150000Y-95978571D01*
X143692857Y-95921428D02*
X143407142Y-95921428D01*
X143378571Y-96207142D01*
X143407142Y-96178571D01*
X143464285Y-96150000D01*
X143607142Y-96150000D01*
X143664285Y-96178571D01*
X143692857Y-96207142D01*
X143721428Y-96264285D01*
X143721428Y-96407142D01*
X143692857Y-96464285D01*
X143664285Y-96492857D01*
X143607142Y-96521428D01*
X143464285Y-96521428D01*
X143407142Y-96492857D01*
X143378571Y-96464285D01*
X136900000Y-96464285D02*
X136871428Y-96492857D01*
X136785714Y-96521428D01*
X136728571Y-96521428D01*
X136642857Y-96492857D01*
X136585714Y-96435714D01*
X136557142Y-96378571D01*
X136528571Y-96264285D01*
X136528571Y-96178571D01*
X136557142Y-96064285D01*
X136585714Y-96007142D01*
X136642857Y-95950000D01*
X136728571Y-95921428D01*
X136785714Y-95921428D01*
X136871428Y-95950000D01*
X136900000Y-95978571D01*
X137414285Y-96121428D02*
X137414285Y-96521428D01*
X137271428Y-95892857D02*
X137128571Y-96321428D01*
X137500000Y-96321428D01*
X179714285Y-96350000D02*
X179742857Y-96378571D01*
X179771428Y-96464285D01*
X179771428Y-96521428D01*
X179742857Y-96607142D01*
X179685714Y-96664285D01*
X179628571Y-96692857D01*
X179514285Y-96721428D01*
X179428571Y-96721428D01*
X179314285Y-96692857D01*
X179257142Y-96664285D01*
X179200000Y-96607142D01*
X179171428Y-96521428D01*
X179171428Y-96464285D01*
X179200000Y-96378571D01*
X179228571Y-96350000D01*
X179171428Y-96150000D02*
X179171428Y-95778571D01*
X179400000Y-95978571D01*
X179400000Y-95892857D01*
X179428571Y-95835714D01*
X179457142Y-95807142D01*
X179514285Y-95778571D01*
X179657142Y-95778571D01*
X179714285Y-95807142D01*
X179742857Y-95835714D01*
X179771428Y-95892857D01*
X179771428Y-96064285D01*
X179742857Y-96121428D01*
X179714285Y-96150000D01*
X153714285Y-96350000D02*
X153742857Y-96378571D01*
X153771428Y-96464285D01*
X153771428Y-96521428D01*
X153742857Y-96607142D01*
X153685714Y-96664285D01*
X153628571Y-96692857D01*
X153514285Y-96721428D01*
X153428571Y-96721428D01*
X153314285Y-96692857D01*
X153257142Y-96664285D01*
X153200000Y-96607142D01*
X153171428Y-96521428D01*
X153171428Y-96464285D01*
X153200000Y-96378571D01*
X153228571Y-96350000D01*
X153228571Y-96121428D02*
X153200000Y-96092857D01*
X153171428Y-96035714D01*
X153171428Y-95892857D01*
X153200000Y-95835714D01*
X153228571Y-95807142D01*
X153285714Y-95778571D01*
X153342857Y-95778571D01*
X153428571Y-95807142D01*
X153771428Y-96150000D01*
X153771428Y-95778571D01*
X166714285Y-96350000D02*
X166742857Y-96378571D01*
X166771428Y-96464285D01*
X166771428Y-96521428D01*
X166742857Y-96607142D01*
X166685714Y-96664285D01*
X166628571Y-96692857D01*
X166514285Y-96721428D01*
X166428571Y-96721428D01*
X166314285Y-96692857D01*
X166257142Y-96664285D01*
X166200000Y-96607142D01*
X166171428Y-96521428D01*
X166171428Y-96464285D01*
X166200000Y-96378571D01*
X166228571Y-96350000D01*
X166771428Y-95778571D02*
X166771428Y-96121428D01*
X166771428Y-95950000D02*
X166171428Y-95950000D01*
X166257142Y-96007142D01*
X166314285Y-96064285D01*
X166342857Y-96121428D01*
M02*
